M48
; DRILL file KiCad 10.0.0 date 2026-04-01T00:37:25
; FORMAT={-:-/ absolute / metric / decimal}
; #@! TF.CreationDate,2026-04-01T00:37:25+02:00
; #@! TF.GenerationSoftware,Kicad,Pcbnew,10.0.0
; #@! TF.FileFunction,Plated,1,4,PTH
FMAT,2
METRIC
; #@! TA.AperFunction,Plated,PTH,ViaDrill
T1C0.200
; #@! TA.AperFunction,Plated,PTH,ViaDrill
T2C0.250
; #@! TA.AperFunction,Plated,PTH,ComponentDrill
T3C0.600
; #@! TA.AperFunction,Plated,PTH,ComponentDrill
T4C1.000
%
G90
G05
T1
X126.162Y-95.98
X130.662Y-97.39
X131.35Y-102.63
X132.515Y-102.577
X132.925Y-95.89
X133.392Y-93.908
X133.925Y-95.89
X137.6Y-94.85
X137.972Y-104.33
X138.062Y-103.13
X140.428Y-99.641
X140.5Y-101.6
X140.687Y-99.08
X140.687Y-101.055
X140.75Y-106.068
X141.277Y-100.973
X141.5Y-100.3
X142.45Y-107.175
X142.626Y-93.274
X143.284Y-93.184
X143.512Y-95.88
X143.762Y-103.88
X144.362Y-99.23
X144.762Y-96.18
X145.062Y-100.53
X145.24Y-107.18
X145.669Y-99.737
X145.762Y-96.13
X145.912Y-107.181
X146.272Y-95.925
X146.362Y-101.23
X147.762Y-104.73
X148.312Y-104.73
X148.848Y-104.853
X149.337Y-103.355
X149.462Y-101.53
X149.562Y-100.63
X149.562Y-102.78
X149.564Y-105.468
X149.927Y-105.881
X152.226Y-96.494
X152.437Y-105.825
X153.209Y-105.225
X156.921Y-98.43
X156.962Y-99.83
X157.325Y-106.9
X159.698Y-104.158
X159.7Y-103.575
X159.775Y-107.57
X159.862Y-101.03
X160.062Y-102.33
X160.25Y-103.125
X171.157Y-100.076
X171.341Y-99.558
X172.58Y-100.076
T2
X123.0Y-106.15
X123.4Y-93.6
X123.75Y-95.0
X124.6Y-106.1
X124.787Y-107.38
X126.312Y-102.48
X128.25Y-93.7
X128.712Y-94.475
X130.2Y-99.55
X130.4Y-106.75
X131.012Y-95.2
X132.4Y-98.465
X132.817Y-106.867
X133.562Y-107.93
X133.912Y-103.43
X134.012Y-95.322
X134.6Y-99.4
X135.35Y-93.65
X135.847Y-102.93
X137.0Y-105.18
X138.25Y-94.85
X140.662Y-102.38
X141.862Y-96.33
X143.512Y-101.28
X146.284Y-104.83
X146.862Y-99.53
X148.512Y-99.33
X153.016Y-97.684
X153.57Y-102.546
X153.666Y-100.834
X153.962Y-95.88
X154.081Y-105.731
X154.862Y-97.73
X155.624Y-94.918
X156.65Y-100.33
X156.812Y-99.03
X157.6Y-105.25
X157.704Y-98.496
X158.262Y-99.03
X158.966Y-94.885
X159.371Y-106.579
X159.93Y-98.312
X160.962Y-97.23
X160.962Y-97.98
X162.312Y-99.08
X162.4Y-104.9
X164.412Y-100.88
X165.012Y-98.58
X165.562Y-96.58
X165.762Y-95.13
X167.412Y-94.93
X168.5Y-103.25
X169.672Y-98.806
X172.161Y-103.53
X172.364Y-95.91
X172.466Y-96.876
X172.612Y-93.38
X172.771Y-102.362
X173.962Y-106.23
X175.512Y-93.13
T4
X125.222Y-91.44
X125.222Y-109.22
X127.762Y-91.44
X127.762Y-109.22
X130.302Y-91.44
X130.302Y-109.22
X132.842Y-91.44
X132.842Y-109.22
X135.382Y-91.44
X135.382Y-109.22
X137.922Y-91.44
X137.922Y-109.22
X140.462Y-91.44
X140.462Y-109.22
X143.002Y-91.44
X143.002Y-109.22
X145.542Y-91.44
X145.542Y-109.22
X148.082Y-91.44
X148.082Y-109.22
X150.622Y-91.44
X150.622Y-109.22
X153.162Y-91.44
X153.162Y-109.22
X155.702Y-91.44
X155.702Y-109.22
X158.242Y-91.44
X158.242Y-109.22
X160.782Y-91.44
X160.782Y-109.22
X163.322Y-91.44
X163.322Y-109.22
X165.862Y-91.44
X165.862Y-109.22
X168.402Y-91.44
X168.402Y-109.22
X170.942Y-91.44
X170.942Y-109.22
X173.482Y-91.44
X173.482Y-109.22
X176.022Y-91.44
X176.022Y-109.22
T3
X173.832Y-96.01G85X174.932Y-96.01
G05
X173.832Y-104.65G85X174.932Y-104.65
G05
X178.162Y-96.01G85X178.962Y-96.01
G05
X178.162Y-104.65G85X178.962Y-104.65
G05
M30
