%TF.GenerationSoftware,KiCad,Pcbnew,10.0.0*%
%TF.CreationDate,2026-04-01T00:37:25+02:00*%
%TF.ProjectId,YetiX-A_DevBoard,59657469-582d-4415-9f44-6576426f6172,0.0.1*%
%TF.SameCoordinates,Original*%
%TF.FileFunction,Legend,Bot*%
%TF.FilePolarity,Positive*%
%FSLAX45Y45*%
G04 Gerber Fmt 4.5, Leading zero omitted, Abs format (unit mm)*
G04 Created by KiCad (PCBNEW 10.0.0) date 2026-04-01 00:37:25*
%MOMM*%
%LPD*%
G01*
G04 APERTURE LIST*
%ADD10C,0.200000*%
%ADD11C,0.100000*%
%ADD12C,0.300000*%
%ADD13C,0.000000*%
%ADD14C,0.154000*%
%ADD15C,0.177000*%
G04 APERTURE END LIST*
D10*
X14984200Y-9787000D02*
G75*
G02*
X15056200Y-9643000I72000J54000D01*
G01*
D11*
X15056200Y-9633000D02*
X15196200Y-9633000D01*
X15196200Y-9833000D01*
X15056200Y-9833000D01*
X15056200Y-9633000D01*
G36*
X15056200Y-9633000D02*
G01*
X15196200Y-9633000D01*
X15196200Y-9833000D01*
X15056200Y-9833000D01*
X15056200Y-9633000D01*
G37*
X15056200Y-10023000D02*
X15196200Y-10023000D01*
X15196200Y-10223000D01*
X15056200Y-10223000D01*
X15056200Y-10023000D01*
G36*
X15056200Y-10023000D02*
G01*
X15196200Y-10023000D01*
X15196200Y-10223000D01*
X15056200Y-10223000D01*
X15056200Y-10023000D01*
G37*
D10*
X15146200Y-10123000D02*
G75*
G02*
X14966200Y-10123000I-90000J0D01*
G01*
X14966200Y-10123000D02*
G75*
G02*
X15146200Y-10123000I90000J0D01*
G01*
X17784958Y-9917762D02*
X17723053Y-9874429D01*
X17784958Y-9843476D02*
X17654958Y-9843476D01*
X17654958Y-9843476D02*
X17654958Y-9893000D01*
X17654958Y-9893000D02*
X17661148Y-9905381D01*
X17661148Y-9905381D02*
X17667339Y-9911571D01*
X17667339Y-9911571D02*
X17679720Y-9917762D01*
X17679720Y-9917762D02*
X17698291Y-9917762D01*
X17698291Y-9917762D02*
X17710672Y-9911571D01*
X17710672Y-9911571D02*
X17716863Y-9905381D01*
X17716863Y-9905381D02*
X17723053Y-9893000D01*
X17723053Y-9893000D02*
X17723053Y-9843476D01*
X17716863Y-9973476D02*
X17716863Y-10016810D01*
X17784958Y-10035381D02*
X17784958Y-9973476D01*
X17784958Y-9973476D02*
X17654958Y-9973476D01*
X17654958Y-9973476D02*
X17654958Y-10035381D01*
X17654958Y-10072524D02*
X17784958Y-10115857D01*
X17784958Y-10115857D02*
X17654958Y-10159190D01*
X17772577Y-10202524D02*
X17778767Y-10208714D01*
X17778767Y-10208714D02*
X17784958Y-10202524D01*
X17784958Y-10202524D02*
X17778767Y-10196333D01*
X17778767Y-10196333D02*
X17772577Y-10202524D01*
X17772577Y-10202524D02*
X17784958Y-10202524D01*
X17704482Y-10202524D02*
X17710672Y-10208714D01*
X17710672Y-10208714D02*
X17716863Y-10202524D01*
X17716863Y-10202524D02*
X17710672Y-10196333D01*
X17710672Y-10196333D02*
X17704482Y-10202524D01*
X17704482Y-10202524D02*
X17716863Y-10202524D01*
X17864250Y-9831095D02*
X17864250Y-9843476D01*
X17864250Y-9843476D02*
X17870441Y-9855857D01*
X17870441Y-9855857D02*
X17876631Y-9862048D01*
X17876631Y-9862048D02*
X17889012Y-9868238D01*
X17889012Y-9868238D02*
X17913774Y-9874429D01*
X17913774Y-9874429D02*
X17944727Y-9874429D01*
X17944727Y-9874429D02*
X17969489Y-9868238D01*
X17969489Y-9868238D02*
X17981870Y-9862048D01*
X17981870Y-9862048D02*
X17988060Y-9855857D01*
X17988060Y-9855857D02*
X17994250Y-9843476D01*
X17994250Y-9843476D02*
X17994250Y-9831095D01*
X17994250Y-9831095D02*
X17988060Y-9818714D01*
X17988060Y-9818714D02*
X17981870Y-9812524D01*
X17981870Y-9812524D02*
X17969489Y-9806333D01*
X17969489Y-9806333D02*
X17944727Y-9800143D01*
X17944727Y-9800143D02*
X17913774Y-9800143D01*
X17913774Y-9800143D02*
X17889012Y-9806333D01*
X17889012Y-9806333D02*
X17876631Y-9812524D01*
X17876631Y-9812524D02*
X17870441Y-9818714D01*
X17870441Y-9818714D02*
X17864250Y-9831095D01*
X17981870Y-9930143D02*
X17988060Y-9936333D01*
X17988060Y-9936333D02*
X17994250Y-9930143D01*
X17994250Y-9930143D02*
X17988060Y-9923952D01*
X17988060Y-9923952D02*
X17981870Y-9930143D01*
X17981870Y-9930143D02*
X17994250Y-9930143D01*
X17864250Y-10016810D02*
X17864250Y-10029191D01*
X17864250Y-10029191D02*
X17870441Y-10041571D01*
X17870441Y-10041571D02*
X17876631Y-10047762D01*
X17876631Y-10047762D02*
X17889012Y-10053952D01*
X17889012Y-10053952D02*
X17913774Y-10060143D01*
X17913774Y-10060143D02*
X17944727Y-10060143D01*
X17944727Y-10060143D02*
X17969489Y-10053952D01*
X17969489Y-10053952D02*
X17981870Y-10047762D01*
X17981870Y-10047762D02*
X17988060Y-10041571D01*
X17988060Y-10041571D02*
X17994250Y-10029191D01*
X17994250Y-10029191D02*
X17994250Y-10016810D01*
X17994250Y-10016810D02*
X17988060Y-10004429D01*
X17988060Y-10004429D02*
X17981870Y-9998238D01*
X17981870Y-9998238D02*
X17969489Y-9992048D01*
X17969489Y-9992048D02*
X17944727Y-9985857D01*
X17944727Y-9985857D02*
X17913774Y-9985857D01*
X17913774Y-9985857D02*
X17889012Y-9992048D01*
X17889012Y-9992048D02*
X17876631Y-9998238D01*
X17876631Y-9998238D02*
X17870441Y-10004429D01*
X17870441Y-10004429D02*
X17864250Y-10016810D01*
X17981870Y-10115857D02*
X17988060Y-10122048D01*
X17988060Y-10122048D02*
X17994250Y-10115857D01*
X17994250Y-10115857D02*
X17988060Y-10109667D01*
X17988060Y-10109667D02*
X17981870Y-10115857D01*
X17981870Y-10115857D02*
X17994250Y-10115857D01*
X17994250Y-10245857D02*
X17994250Y-10171572D01*
X17994250Y-10208714D02*
X17864250Y-10208714D01*
X17864250Y-10208714D02*
X17882822Y-10196333D01*
X17882822Y-10196333D02*
X17895203Y-10183952D01*
X17895203Y-10183952D02*
X17901393Y-10171572D01*
D12*
X17139854Y-9655023D02*
X17211283Y-9655023D01*
X17061283Y-9605023D02*
X17139854Y-9655023D01*
X17139854Y-9655023D02*
X17061283Y-9705023D01*
X17204140Y-9812165D02*
X17211283Y-9797880D01*
X17211283Y-9797880D02*
X17211283Y-9769308D01*
X17211283Y-9769308D02*
X17204140Y-9755022D01*
X17204140Y-9755022D02*
X17189854Y-9747880D01*
X17189854Y-9747880D02*
X17132711Y-9747880D01*
X17132711Y-9747880D02*
X17118426Y-9755022D01*
X17118426Y-9755022D02*
X17111283Y-9769308D01*
X17111283Y-9769308D02*
X17111283Y-9797880D01*
X17111283Y-9797880D02*
X17118426Y-9812165D01*
X17118426Y-9812165D02*
X17132711Y-9819308D01*
X17132711Y-9819308D02*
X17146997Y-9819308D01*
X17146997Y-9819308D02*
X17161283Y-9747880D01*
X17111283Y-9862165D02*
X17111283Y-9919308D01*
X17061283Y-9883594D02*
X17189854Y-9883594D01*
X17189854Y-9883594D02*
X17204140Y-9890737D01*
X17204140Y-9890737D02*
X17211283Y-9905022D01*
X17211283Y-9905022D02*
X17211283Y-9919308D01*
X17211283Y-9969308D02*
X17111283Y-9969308D01*
X17061283Y-9969308D02*
X17068426Y-9962165D01*
X17068426Y-9962165D02*
X17075569Y-9969308D01*
X17075569Y-9969308D02*
X17068426Y-9976451D01*
X17068426Y-9976451D02*
X17061283Y-9969308D01*
X17061283Y-9969308D02*
X17075569Y-9969308D01*
X17061283Y-10026451D02*
X17211283Y-10126451D01*
X17061283Y-10126451D02*
X17211283Y-10026451D01*
X17154140Y-10183594D02*
X17154140Y-10297880D01*
X17168426Y-10362165D02*
X17168426Y-10433594D01*
X17211283Y-10347880D02*
X17061283Y-10397880D01*
X17061283Y-10397880D02*
X17211283Y-10447880D01*
D13*
%TO.C,G\u002A\u002A\u002A*%
G36*
X16389907Y-9859680D02*
G01*
X16396179Y-9862216D01*
X16398601Y-9864147D01*
X16401233Y-9868761D01*
X16400450Y-9873136D01*
X16396862Y-9876531D01*
X16391080Y-9878200D01*
X16383714Y-9877401D01*
X16383702Y-9877398D01*
X16378107Y-9874874D01*
X16374378Y-9871601D01*
X16373241Y-9868757D01*
X16374182Y-9864449D01*
X16377929Y-9861219D01*
X16383497Y-9859488D01*
X16389907Y-9859680D01*
G37*
G36*
X16381739Y-10181088D02*
G01*
X16386095Y-10184743D01*
X16387252Y-10186946D01*
X16388297Y-10189919D01*
X16387264Y-10191960D01*
X16383341Y-10194878D01*
X16377983Y-10197263D01*
X16372799Y-10198250D01*
X16367887Y-10197403D01*
X16362454Y-10194536D01*
X16358888Y-10190580D01*
X16358398Y-10186521D01*
X16362003Y-10182404D01*
X16368144Y-10180018D01*
X16375239Y-10179546D01*
X16381739Y-10181088D01*
G37*
G36*
X16558313Y-10167064D02*
G01*
X16556499Y-10176496D01*
X16554053Y-10186633D01*
X16551305Y-10196312D01*
X16548545Y-10204577D01*
X16546073Y-10210469D01*
X16544180Y-10213032D01*
X16542267Y-10213236D01*
X16536479Y-10212293D01*
X16528618Y-10210031D01*
X16519865Y-10206851D01*
X16511394Y-10203161D01*
X16504384Y-10199363D01*
X16502106Y-10197765D01*
X16496004Y-10192047D01*
X16491834Y-10186124D01*
X16491218Y-10184820D01*
X16489450Y-10180132D01*
X16489873Y-10176744D01*
X16492605Y-10172517D01*
X16497291Y-10167227D01*
X16503346Y-10163175D01*
X16511233Y-10160605D01*
X16521784Y-10159254D01*
X16535826Y-10158861D01*
X16559639Y-10158858D01*
X16558313Y-10167064D01*
G37*
G36*
X16527957Y-9842532D02*
G01*
X16529305Y-9845293D01*
X16531902Y-9851210D01*
X16535399Y-9859481D01*
X16539452Y-9869303D01*
X16543922Y-9880662D01*
X16546846Y-9889193D01*
X16549006Y-9896191D01*
X16547826Y-9896579D01*
X16545468Y-9897371D01*
X16542005Y-9898351D01*
X16534212Y-9899963D01*
X16525052Y-9901393D01*
X16515933Y-9902414D01*
X16508259Y-9902803D01*
X16499791Y-9902175D01*
X16489831Y-9899321D01*
X16482691Y-9894501D01*
X16478860Y-9888087D01*
X16478832Y-9880457D01*
X16481486Y-9875052D01*
X16487262Y-9867956D01*
X16495111Y-9860524D01*
X16504088Y-9853641D01*
X16513244Y-9848196D01*
X16513640Y-9848000D01*
X16520472Y-9844832D01*
X16525582Y-9842840D01*
X16527890Y-9842447D01*
X16527957Y-9842532D01*
G37*
G36*
X16481263Y-9585298D02*
G01*
X16507487Y-9591053D01*
X16533104Y-9600812D01*
X16557945Y-9614413D01*
X16581848Y-9631690D01*
X16604646Y-9652480D01*
X16626172Y-9676619D01*
X16646260Y-9703941D01*
X16664746Y-9734283D01*
X16681462Y-9767480D01*
X16696244Y-9803368D01*
X16708925Y-9841783D01*
X16716014Y-9868450D01*
X16722736Y-9899009D01*
X16728290Y-9930144D01*
X16732413Y-9960357D01*
X16734838Y-9988154D01*
X16735968Y-10020686D01*
X16735071Y-10066955D01*
X16731286Y-10112267D01*
X16724715Y-10156319D01*
X16715462Y-10198811D01*
X16703629Y-10239443D01*
X16689320Y-10277916D01*
X16672638Y-10313927D01*
X16653686Y-10347178D01*
X16632564Y-10377366D01*
X16609380Y-10404192D01*
X16584234Y-10427356D01*
X16566490Y-10440518D01*
X16541063Y-10455244D01*
X16514958Y-10465759D01*
X16488358Y-10472042D01*
X16461448Y-10474065D01*
X16434413Y-10471807D01*
X16407437Y-10465241D01*
X16380704Y-10454343D01*
X16363927Y-10445338D01*
X16346892Y-10434165D01*
X16330474Y-10420931D01*
X16313405Y-10404701D01*
X16305579Y-10396481D01*
X16282327Y-10368176D01*
X16261271Y-10336500D01*
X16242503Y-10301818D01*
X16226113Y-10264498D01*
X16212193Y-10224905D01*
X16200833Y-10183405D01*
X16200431Y-10181419D01*
X16272866Y-10181419D01*
X16273761Y-10191979D01*
X16276265Y-10203505D01*
X16280099Y-10215238D01*
X16284981Y-10226415D01*
X16290632Y-10236275D01*
X16296772Y-10244055D01*
X16303121Y-10248997D01*
X16309397Y-10250336D01*
X16312598Y-10249425D01*
X16315467Y-10246046D01*
X16314958Y-10241173D01*
X16310973Y-10235737D01*
X16310921Y-10235688D01*
X16307235Y-10231134D01*
X16302737Y-10224111D01*
X16298387Y-10216120D01*
X16297978Y-10215289D01*
X16293716Y-10205308D01*
X16291257Y-10195758D01*
X16291023Y-10193660D01*
X16310693Y-10193660D01*
X16311535Y-10196754D01*
X16316569Y-10205286D01*
X16324797Y-10212876D01*
X16335346Y-10218975D01*
X16347342Y-10223038D01*
X16359913Y-10224512D01*
X16368013Y-10223925D01*
X16380823Y-10220690D01*
X16392296Y-10215095D01*
X16401439Y-10207677D01*
X16407264Y-10198969D01*
X16407470Y-10198468D01*
X16409848Y-10190745D01*
X16409523Y-10184133D01*
X16406415Y-10176420D01*
X16405362Y-10174510D01*
X16397777Y-10165774D01*
X16387198Y-10159058D01*
X16374512Y-10154693D01*
X16360615Y-10153005D01*
X16346395Y-10154326D01*
X16345516Y-10154515D01*
X16332734Y-10158907D01*
X16322370Y-10165555D01*
X16314917Y-10173922D01*
X16310861Y-10183470D01*
X16310693Y-10193660D01*
X16291023Y-10193660D01*
X16289971Y-10184251D01*
X16289746Y-10181381D01*
X16288221Y-10171143D01*
X16285805Y-10165095D01*
X16282446Y-10163152D01*
X16278086Y-10165222D01*
X16277024Y-10166246D01*
X16273861Y-10172587D01*
X16272866Y-10181419D01*
X16200431Y-10181419D01*
X16192126Y-10140362D01*
X16186161Y-10096145D01*
X16183353Y-10055769D01*
X16407049Y-10055769D01*
X16408639Y-10070763D01*
X16413732Y-10082585D01*
X16418024Y-10087690D01*
X16427098Y-10095067D01*
X16437196Y-10100097D01*
X16446909Y-10101956D01*
X16452061Y-10101488D01*
X16463043Y-10097452D01*
X16473563Y-10089581D01*
X16483193Y-10078244D01*
X16491500Y-10063810D01*
X16494496Y-10056979D01*
X16496534Y-10050225D01*
X16497410Y-10042862D01*
X16497489Y-10033018D01*
X16497488Y-10032954D01*
X16497170Y-10021600D01*
X16496516Y-10013477D01*
X16495297Y-10007444D01*
X16493281Y-10002360D01*
X16490239Y-9997084D01*
X16488668Y-9994773D01*
X16482497Y-9987379D01*
X16475063Y-9980106D01*
X16467618Y-9974111D01*
X16461422Y-9970549D01*
X16450632Y-9968635D01*
X16439512Y-9970639D01*
X16428780Y-9976246D01*
X16419084Y-9985115D01*
X16411074Y-9996908D01*
X16410086Y-9998969D01*
X16408779Y-10002924D01*
X16407893Y-10008096D01*
X16407352Y-10015276D01*
X16407078Y-10025252D01*
X16407049Y-10055769D01*
X16183353Y-10055769D01*
X16183030Y-10051119D01*
X16182825Y-10005648D01*
X16185634Y-9960100D01*
X16191550Y-9914840D01*
X16192766Y-9907767D01*
X16200170Y-9872431D01*
X16286178Y-9872431D01*
X16288624Y-9879882D01*
X16291935Y-9883617D01*
X16295279Y-9885295D01*
X16297504Y-9884720D01*
X16301347Y-9880916D01*
X16304129Y-9874573D01*
X16305201Y-9866897D01*
X16305401Y-9863369D01*
X16305535Y-9862888D01*
X16327647Y-9862888D01*
X16329469Y-9873043D01*
X16335574Y-9883187D01*
X16341463Y-9889047D01*
X16352774Y-9896139D01*
X16360615Y-9898858D01*
X16365825Y-9900666D01*
X16379644Y-9902531D01*
X16393253Y-9901637D01*
X16405676Y-9897886D01*
X16415937Y-9891182D01*
X16422397Y-9883453D01*
X16425827Y-9873891D01*
X16425041Y-9863410D01*
X16424027Y-9860260D01*
X16418214Y-9850649D01*
X16409350Y-9842799D01*
X16398248Y-9836900D01*
X16385723Y-9833137D01*
X16372585Y-9831702D01*
X16359650Y-9832778D01*
X16347730Y-9836557D01*
X16337640Y-9843225D01*
X16336778Y-9844041D01*
X16330090Y-9853095D01*
X16327647Y-9862888D01*
X16305535Y-9862888D01*
X16308663Y-9851661D01*
X16315976Y-9838953D01*
X16327410Y-9825113D01*
X16328517Y-9823923D01*
X16335794Y-9815397D01*
X16339609Y-9809211D01*
X16339997Y-9805109D01*
X16336993Y-9802834D01*
X16330635Y-9802132D01*
X16328244Y-9802341D01*
X16323950Y-9804026D01*
X16318890Y-9807941D01*
X16312130Y-9814716D01*
X16311121Y-9815805D01*
X16302093Y-9827170D01*
X16294809Y-9839278D01*
X16289546Y-9851366D01*
X16286576Y-9862670D01*
X16286178Y-9872431D01*
X16200170Y-9872431D01*
X16201650Y-9865370D01*
X16212811Y-9825270D01*
X16226124Y-9787636D01*
X16241454Y-9752633D01*
X16258672Y-9720434D01*
X16260363Y-9717830D01*
X16439697Y-9717830D01*
X16441151Y-9721705D01*
X16442436Y-9723944D01*
X16445259Y-9727937D01*
X16449630Y-9733130D01*
X16450632Y-9734230D01*
X16456319Y-9740476D01*
X16480114Y-9768665D01*
X16501765Y-9799487D01*
X16503219Y-9801777D01*
X16508811Y-9810642D01*
X16513341Y-9817921D01*
X16516377Y-9822918D01*
X16517485Y-9824929D01*
X16516957Y-9825468D01*
X16513614Y-9828030D01*
X16507870Y-9832139D01*
X16500524Y-9837219D01*
X16494463Y-9841382D01*
X16485711Y-9847667D01*
X16479404Y-9852807D01*
X16474729Y-9857576D01*
X16470873Y-9862750D01*
X16467025Y-9869099D01*
X16462472Y-9879376D01*
X16460528Y-9890115D01*
X16462177Y-9896547D01*
X16463684Y-9901739D01*
X16468205Y-9906041D01*
X16474251Y-9910856D01*
X16485276Y-9918949D01*
X16517247Y-9920573D01*
X16521841Y-9920806D01*
X16533067Y-9921372D01*
X16542588Y-9921848D01*
X16549517Y-9922187D01*
X16552963Y-9922349D01*
X16554031Y-9922556D01*
X16555989Y-9924144D01*
X16557780Y-9927694D01*
X16559533Y-9933684D01*
X16561375Y-9942591D01*
X16563431Y-9954894D01*
X16565830Y-9971072D01*
X16566614Y-9976712D01*
X16567943Y-9987538D01*
X16568854Y-9997678D01*
X16569389Y-10008146D01*
X16569588Y-10019951D01*
X16569494Y-10034106D01*
X16569149Y-10051621D01*
X16569037Y-10056088D01*
X16568538Y-10071615D01*
X16567902Y-10086553D01*
X16567179Y-10099956D01*
X16566419Y-10110878D01*
X16565672Y-10118370D01*
X16564664Y-10126267D01*
X16563472Y-10134805D01*
X16562042Y-10140195D01*
X16559698Y-10143115D01*
X16555769Y-10144249D01*
X16549584Y-10144275D01*
X16540474Y-10143870D01*
X16532260Y-10143719D01*
X16514038Y-10144772D01*
X16499476Y-10147943D01*
X16488413Y-10153298D01*
X16480691Y-10160902D01*
X16476152Y-10170824D01*
X16474831Y-10178315D01*
X16475772Y-10187202D01*
X16480070Y-10195372D01*
X16488034Y-10203360D01*
X16499977Y-10211697D01*
X16501437Y-10212530D01*
X16507908Y-10215516D01*
X16516165Y-10218706D01*
X16524760Y-10221600D01*
X16532250Y-10223701D01*
X16537190Y-10224512D01*
X16539728Y-10225027D01*
X16541530Y-10227248D01*
X16540871Y-10231623D01*
X16538375Y-10240008D01*
X16534378Y-10250717D01*
X16529261Y-10262919D01*
X16523405Y-10275783D01*
X16517190Y-10288482D01*
X16510998Y-10300183D01*
X16505210Y-10310058D01*
X16500208Y-10317276D01*
X16496481Y-10322169D01*
X16493907Y-10326631D01*
X16492388Y-10331444D01*
X16497241Y-10329558D01*
X16497613Y-10329507D01*
X16501081Y-10327252D01*
X16506280Y-10322169D01*
X16512634Y-10314970D01*
X16519566Y-10306364D01*
X16526499Y-10297066D01*
X16532856Y-10287781D01*
X16538061Y-10279224D01*
X16543795Y-10268678D01*
X16551498Y-10253781D01*
X16558974Y-10238597D01*
X16565735Y-10224147D01*
X16571294Y-10211452D01*
X16575162Y-10201533D01*
X16576108Y-10198817D01*
X16580928Y-10184778D01*
X16584808Y-10172791D01*
X16587902Y-10162056D01*
X16590361Y-10151771D01*
X16592339Y-10141131D01*
X16593989Y-10129335D01*
X16595463Y-10115578D01*
X16596916Y-10099060D01*
X16598498Y-10078977D01*
X16598591Y-10077758D01*
X16599847Y-10057237D01*
X16600225Y-10039957D01*
X16599720Y-10024920D01*
X16598332Y-10011134D01*
X16598211Y-10010233D01*
X16596968Y-10001108D01*
X16595467Y-9990102D01*
X16594005Y-9979400D01*
X16591607Y-9964290D01*
X16583965Y-9930520D01*
X16573433Y-9897387D01*
X16560347Y-9865759D01*
X16545046Y-9836500D01*
X16527869Y-9810474D01*
X16516412Y-9795344D01*
X16499019Y-9773391D01*
X16483379Y-9755038D01*
X16469335Y-9740107D01*
X16456730Y-9728413D01*
X16452729Y-9725074D01*
X16445450Y-9719497D01*
X16441119Y-9717089D01*
X16439697Y-9717830D01*
X16260363Y-9717830D01*
X16277646Y-9691205D01*
X16282446Y-9685124D01*
X16298245Y-9665116D01*
X16320338Y-9642334D01*
X16330635Y-9633859D01*
X16343795Y-9623029D01*
X16368484Y-9607368D01*
X16372585Y-9605485D01*
X16394275Y-9595522D01*
X16421036Y-9587657D01*
X16441119Y-9584955D01*
X16448637Y-9583943D01*
X16454596Y-9583714D01*
X16481263Y-9585298D01*
G37*
G36*
X16439461Y-9479071D02*
G01*
X16445301Y-9481551D01*
X16445546Y-9481780D01*
X16448971Y-9487913D01*
X16449180Y-9495973D01*
X16446138Y-9504925D01*
X16445807Y-9505566D01*
X16443877Y-9509655D01*
X16444139Y-9510881D01*
X16446685Y-9510133D01*
X16450372Y-9508820D01*
X16451010Y-9508640D01*
X16462273Y-9505454D01*
X16477007Y-9502160D01*
X16493562Y-9499087D01*
X16510932Y-9496383D01*
X16528106Y-9494196D01*
X16544075Y-9492675D01*
X16557829Y-9491970D01*
X16568359Y-9492227D01*
X16575037Y-9493001D01*
X16588359Y-9495863D01*
X16597839Y-9500052D01*
X16603384Y-9505443D01*
X16604898Y-9511908D01*
X16602281Y-9519322D01*
X16595442Y-9527561D01*
X16585856Y-9536744D01*
X16604565Y-9540420D01*
X16608059Y-9541137D01*
X16622750Y-9544790D01*
X16638109Y-9549707D01*
X16654614Y-9556100D01*
X16672754Y-9564179D01*
X16693010Y-9574158D01*
X16715865Y-9586249D01*
X16741805Y-9600664D01*
X16760122Y-9611262D01*
X16778602Y-9622658D01*
X16794109Y-9633211D01*
X16807219Y-9643375D01*
X16818513Y-9653605D01*
X16828570Y-9664354D01*
X16837968Y-9676076D01*
X16846645Y-9688782D01*
X16851936Y-9699260D01*
X16853714Y-9707307D01*
X16851968Y-9712877D01*
X16846689Y-9715923D01*
X16843177Y-9717509D01*
X16842227Y-9720207D01*
X16842345Y-9720457D01*
X16844310Y-9723723D01*
X16848278Y-9729891D01*
X16853863Y-9738369D01*
X16860668Y-9748562D01*
X16868309Y-9759876D01*
X16875417Y-9770377D01*
X16883880Y-9783052D01*
X16890247Y-9792895D01*
X16894766Y-9800354D01*
X16897688Y-9805874D01*
X16899265Y-9809902D01*
X16899744Y-9812882D01*
X16899379Y-9815260D01*
X16896520Y-9819096D01*
X16891805Y-9821293D01*
X16887360Y-9820746D01*
X16885801Y-9820039D01*
X16885479Y-9820954D01*
X16886932Y-9824151D01*
X16890376Y-9830089D01*
X16896022Y-9839222D01*
X16900462Y-9846657D01*
X16906125Y-9856741D01*
X16912399Y-9868355D01*
X16918892Y-9880733D01*
X16925216Y-9893111D01*
X16930977Y-9904723D01*
X16935787Y-9914802D01*
X16939254Y-9922586D01*
X16940988Y-9927307D01*
X16941333Y-9933236D01*
X16938195Y-9939675D01*
X16931193Y-9944350D01*
X16930712Y-9944553D01*
X16926340Y-9946737D01*
X16924545Y-9948287D01*
X16924581Y-9948499D01*
X16926057Y-9951676D01*
X16929392Y-9957726D01*
X16934167Y-9965947D01*
X16939966Y-9975640D01*
X16946372Y-9986108D01*
X16952967Y-9996651D01*
X16959336Y-10006568D01*
X16973489Y-10028265D01*
X16968713Y-10041585D01*
X16966096Y-10048996D01*
X16964532Y-10054272D01*
X16964481Y-10057005D01*
X16965957Y-10058030D01*
X16968971Y-10058186D01*
X16972439Y-10058692D01*
X16976631Y-10060812D01*
X16977167Y-10061395D01*
X16978929Y-10065175D01*
X16978647Y-10070377D01*
X16976153Y-10077506D01*
X16971283Y-10087068D01*
X16963872Y-10099565D01*
X16959152Y-10107251D01*
X16954488Y-10115145D01*
X16951706Y-10120512D01*
X16950525Y-10124021D01*
X16950661Y-10126343D01*
X16951836Y-10128145D01*
X16952031Y-10128365D01*
X16954312Y-10131879D01*
X16954726Y-10135806D01*
X16953038Y-10140883D01*
X16949010Y-10147843D01*
X16942407Y-10157421D01*
X16937041Y-10165249D01*
X16929539Y-10176955D01*
X16921454Y-10190231D01*
X16913208Y-10204324D01*
X16905222Y-10218485D01*
X16897918Y-10231964D01*
X16891718Y-10244013D01*
X16887041Y-10253879D01*
X16884310Y-10260812D01*
X16884005Y-10263827D01*
X16886111Y-10265977D01*
X16891604Y-10267989D01*
X16893164Y-10268512D01*
X16899396Y-10271626D01*
X16903566Y-10275242D01*
X16904884Y-10277721D01*
X16905332Y-10281464D01*
X16904077Y-10286284D01*
X16900870Y-10292772D01*
X16895462Y-10301523D01*
X16887602Y-10313124D01*
X16886946Y-10314073D01*
X16881263Y-10322441D01*
X16877803Y-10328084D01*
X16876238Y-10331749D01*
X16876240Y-10334177D01*
X16877482Y-10336114D01*
X16879524Y-10338792D01*
X16880839Y-10342819D01*
X16879872Y-10347415D01*
X16876349Y-10353132D01*
X16869993Y-10360522D01*
X16860532Y-10370141D01*
X16853736Y-10376737D01*
X16847377Y-10382548D01*
X16841416Y-10387333D01*
X16834985Y-10391679D01*
X16827215Y-10396164D01*
X16817236Y-10401374D01*
X16804177Y-10407890D01*
X16796489Y-10411629D01*
X16781563Y-10418618D01*
X16766283Y-10425481D01*
X16752062Y-10431588D01*
X16740313Y-10436310D01*
X16733197Y-10439039D01*
X16724332Y-10442581D01*
X16718770Y-10445112D01*
X16716000Y-10446919D01*
X16715510Y-10448291D01*
X16716787Y-10449512D01*
X16719854Y-10452568D01*
X16721117Y-10458284D01*
X16718970Y-10464851D01*
X16713548Y-10471348D01*
X16713039Y-10471782D01*
X16705118Y-10476911D01*
X16693197Y-10482570D01*
X16677582Y-10488648D01*
X16658574Y-10495038D01*
X16636475Y-10501628D01*
X16611591Y-10508309D01*
X16605393Y-10509908D01*
X16592141Y-10513422D01*
X16580568Y-10516626D01*
X16571317Y-10519333D01*
X16565030Y-10521357D01*
X16562349Y-10522516D01*
X16562064Y-10524038D01*
X16564708Y-10528233D01*
X16571102Y-10534643D01*
X16572847Y-10536246D01*
X16582068Y-10545663D01*
X16587586Y-10553537D01*
X16589542Y-10560309D01*
X16588081Y-10566413D01*
X16583345Y-10572290D01*
X16578274Y-10576019D01*
X16567212Y-10580867D01*
X16552959Y-10584354D01*
X16536137Y-10586384D01*
X16517371Y-10586859D01*
X16497282Y-10585682D01*
X16488411Y-10584731D01*
X16470036Y-10582210D01*
X16451970Y-10578868D01*
X16433135Y-10574462D01*
X16412456Y-10568755D01*
X16388856Y-10561504D01*
X16386979Y-10560905D01*
X16371303Y-10555959D01*
X16359382Y-10552341D01*
X16350857Y-10550003D01*
X16345365Y-10548896D01*
X16342548Y-10548973D01*
X16342044Y-10550184D01*
X16343494Y-10552481D01*
X16346538Y-10555817D01*
X16346602Y-10555883D01*
X16351737Y-10562675D01*
X16353225Y-10568308D01*
X16351097Y-10572319D01*
X16345383Y-10574244D01*
X16340489Y-10573961D01*
X16331674Y-10571826D01*
X16321150Y-10568104D01*
X16310031Y-10563247D01*
X16299428Y-10557710D01*
X16290454Y-10551941D01*
X16282970Y-10545855D01*
X16272010Y-10535631D01*
X16259643Y-10522991D01*
X16246454Y-10508594D01*
X16233029Y-10493100D01*
X16219950Y-10477171D01*
X16207804Y-10461465D01*
X16197175Y-10446644D01*
X16194664Y-10442853D01*
X16188906Y-10433658D01*
X16182583Y-10423077D01*
X16176670Y-10412722D01*
X16173708Y-10407398D01*
X16169649Y-10400292D01*
X16167128Y-10396415D01*
X16165778Y-10395373D01*
X16165236Y-10396769D01*
X16165137Y-10400207D01*
X16164370Y-10406470D01*
X16161672Y-10409813D01*
X16161374Y-10409924D01*
X16159401Y-10410342D01*
X16157422Y-10409880D01*
X16155186Y-10408162D01*
X16152445Y-10404809D01*
X16148950Y-10399447D01*
X16144454Y-10391697D01*
X16138707Y-10381181D01*
X16131462Y-10367525D01*
X16122468Y-10350350D01*
X16121669Y-10348811D01*
X16114853Y-10334692D01*
X16108459Y-10319461D01*
X16102073Y-10302055D01*
X16095275Y-10281413D01*
X16091760Y-10270298D01*
X16087418Y-10256669D01*
X16084064Y-10246417D01*
X16081496Y-10239059D01*
X16079517Y-10234117D01*
X16077928Y-10231109D01*
X16076529Y-10229555D01*
X16075121Y-10228975D01*
X16073505Y-10228889D01*
X16073041Y-10228863D01*
X16069257Y-10226455D01*
X16065737Y-10219938D01*
X16064694Y-10216781D01*
X16062719Y-10209413D01*
X16060345Y-10199517D01*
X16057774Y-10188061D01*
X16055214Y-10176017D01*
X16052866Y-10164352D01*
X16050937Y-10154034D01*
X16049628Y-10146032D01*
X16049147Y-10141315D01*
X16048359Y-10138459D01*
X16044945Y-10134877D01*
X16041775Y-10131893D01*
X16038771Y-10125754D01*
X16036243Y-10116402D01*
X16034154Y-10103605D01*
X16032467Y-10087135D01*
X16031146Y-10066760D01*
X16030152Y-10042249D01*
X16029968Y-10035983D01*
X16029946Y-10034813D01*
X16165503Y-10034813D01*
X16167365Y-10078627D01*
X16171954Y-10122648D01*
X16179362Y-10166622D01*
X16179713Y-10168355D01*
X16189967Y-10211205D01*
X16202699Y-10251889D01*
X16217761Y-10290178D01*
X16235008Y-10325844D01*
X16254291Y-10358657D01*
X16275465Y-10388391D01*
X16298380Y-10414816D01*
X16322890Y-10437704D01*
X16348848Y-10456827D01*
X16376107Y-10471956D01*
X16383020Y-10475123D01*
X16398432Y-10481416D01*
X16412618Y-10485790D01*
X16426965Y-10488546D01*
X16442856Y-10489981D01*
X16461678Y-10490392D01*
X16464436Y-10490389D01*
X16477744Y-10490240D01*
X16487992Y-10489783D01*
X16496298Y-10488908D01*
X16503779Y-10487505D01*
X16511551Y-10485462D01*
X16519491Y-10483002D01*
X16548181Y-10471253D01*
X16575476Y-10455555D01*
X16601265Y-10436095D01*
X16625435Y-10413067D01*
X16647873Y-10386661D01*
X16668467Y-10357069D01*
X16687106Y-10324483D01*
X16703676Y-10289093D01*
X16718065Y-10251091D01*
X16730161Y-10210668D01*
X16739851Y-10168016D01*
X16747024Y-10123325D01*
X16751566Y-10076788D01*
X16751790Y-10073310D01*
X16753027Y-10023680D01*
X16750705Y-9973738D01*
X16744928Y-9924175D01*
X16735802Y-9875683D01*
X16723428Y-9828957D01*
X16707909Y-9784687D01*
X16707887Y-9784632D01*
X16691591Y-9747767D01*
X16673397Y-9713988D01*
X16653468Y-9683401D01*
X16631964Y-9656116D01*
X16609051Y-9632238D01*
X16584887Y-9611876D01*
X16559636Y-9595138D01*
X16533461Y-9582131D01*
X16506524Y-9572962D01*
X16478986Y-9567739D01*
X16451010Y-9566571D01*
X16422761Y-9569564D01*
X16394397Y-9576826D01*
X16374070Y-9584805D01*
X16347445Y-9599159D01*
X16322256Y-9617261D01*
X16298593Y-9638860D01*
X16276551Y-9663702D01*
X16256220Y-9691534D01*
X16237694Y-9722102D01*
X16221064Y-9755154D01*
X16206423Y-9790438D01*
X16193862Y-9827698D01*
X16183475Y-9866684D01*
X16175353Y-9907141D01*
X16169589Y-9948817D01*
X16166275Y-9991459D01*
X16165503Y-10034813D01*
X16029946Y-10034813D01*
X16029658Y-10019235D01*
X16029750Y-10006729D01*
X16030246Y-9998381D01*
X16031149Y-9994101D01*
X16031884Y-9991689D01*
X16032971Y-9985227D01*
X16033928Y-9976362D01*
X16034608Y-9966268D01*
X16034732Y-9963999D01*
X16035962Y-9950664D01*
X16037901Y-9937607D01*
X16040254Y-9926876D01*
X16041303Y-9922818D01*
X16043730Y-9911814D01*
X16046063Y-9899372D01*
X16047915Y-9887483D01*
X16047926Y-9887406D01*
X16050163Y-9871933D01*
X16052332Y-9859596D01*
X16054712Y-9849171D01*
X16057584Y-9839439D01*
X16061221Y-9829177D01*
X16063557Y-9823154D01*
X16066983Y-9815529D01*
X16069981Y-9811101D01*
X16073051Y-9809229D01*
X16076693Y-9809270D01*
X16077936Y-9809432D01*
X16079777Y-9808974D01*
X16081353Y-9806964D01*
X16082966Y-9802724D01*
X16084917Y-9795571D01*
X16087507Y-9784825D01*
X16089485Y-9776434D01*
X16092460Y-9763827D01*
X16095255Y-9751995D01*
X16097457Y-9742682D01*
X16099268Y-9736000D01*
X16103940Y-9722895D01*
X16109896Y-9709693D01*
X16116700Y-9697105D01*
X16123919Y-9685843D01*
X16131116Y-9676617D01*
X16137855Y-9670139D01*
X16143701Y-9667122D01*
X16146706Y-9666145D01*
X16149449Y-9664025D01*
X16152363Y-9660058D01*
X16155973Y-9653527D01*
X16160807Y-9643703D01*
X16168054Y-9629510D01*
X16178976Y-9610646D01*
X16190407Y-9593410D01*
X16201532Y-9579101D01*
X16204810Y-9575527D01*
X16212431Y-9568335D01*
X16220783Y-9561543D01*
X16228924Y-9555842D01*
X16235912Y-9551917D01*
X16240804Y-9550455D01*
X16241537Y-9550492D01*
X16246488Y-9552852D01*
X16249585Y-9557802D01*
X16249796Y-9563810D01*
X16249334Y-9566204D01*
X16249600Y-9567963D01*
X16251256Y-9567036D01*
X16255849Y-9564062D01*
X16262601Y-9559527D01*
X16270755Y-9553933D01*
X16271075Y-9553712D01*
X16282307Y-9546382D01*
X16296390Y-9537818D01*
X16312249Y-9528619D01*
X16328807Y-9519384D01*
X16344990Y-9510716D01*
X16359720Y-9503213D01*
X16371921Y-9497478D01*
X16384917Y-9492006D01*
X16402689Y-9485461D01*
X16417884Y-9481085D01*
X16430232Y-9478935D01*
X16439461Y-9479071D01*
G37*
%TO.C,R1*%
D14*
X14813700Y-10140640D02*
X14813700Y-10105360D01*
X14918700Y-10140640D02*
X14918700Y-10105360D01*
%TO.C,U107*%
X15926700Y-10268000D02*
X15926700Y-10113000D01*
X15911200Y-10078000D02*
X15911200Y-9758000D01*
X15421200Y-10078000D02*
X15911200Y-10078000D01*
X15911200Y-9758000D02*
X15421200Y-9758000D01*
X15421200Y-9758000D02*
X15421200Y-10078000D01*
%TO.C,U1*%
X14247400Y-9827000D02*
X14247400Y-10239000D01*
X14256900Y-9827000D02*
X14247400Y-9827000D01*
X14759400Y-9827000D02*
X14749900Y-9827000D01*
X14247400Y-10239000D02*
X14256900Y-10239000D01*
X14749900Y-10239000D02*
X14759400Y-10239000D01*
X14759400Y-10239000D02*
X14759400Y-9827000D01*
X14256400Y-9773000D02*
X14223400Y-9797000D01*
X14223400Y-9749000D01*
X14256400Y-9773000D01*
G36*
X14256400Y-9773000D02*
G01*
X14223400Y-9797000D01*
X14223400Y-9749000D01*
X14256400Y-9773000D01*
G37*
%TO.C,C114*%
X15243700Y-9950640D02*
X15243700Y-9915360D01*
X15348700Y-9950640D02*
X15348700Y-9915360D01*
%TO.C,C116*%
X14428560Y-10435500D02*
X14463840Y-10435500D01*
X14428560Y-10540500D02*
X14463840Y-10540500D01*
%TO.C,U106*%
X13659700Y-10598000D02*
X13622200Y-10598000D01*
X13436200Y-10598000D02*
X13360200Y-10598000D01*
X13014700Y-10598000D02*
X13057200Y-10598000D01*
X13659700Y-10423000D02*
X13659700Y-10598000D01*
X13659700Y-10069000D02*
X13659700Y-10005000D01*
X13659700Y-9651000D02*
X13659700Y-9583000D01*
X13492200Y-9468000D02*
X13409200Y-9468000D01*
X13126200Y-9468000D02*
X13014700Y-9468000D01*
X13014700Y-9468000D02*
X13014700Y-10598000D01*
D15*
X12933550Y-9580500D02*
G75*
G02*
X12915850Y-9580500I-8850J0D01*
G01*
X12915850Y-9580500D02*
G75*
G02*
X12933550Y-9580500I8850J0D01*
G01*
%TO.C,C115*%
D14*
X15348700Y-10245360D02*
X15348700Y-10280640D01*
X15243700Y-10245360D02*
X15243700Y-10280640D01*
%TO.C,R2*%
X14803700Y-9715360D02*
X14803700Y-9750640D01*
X14908700Y-9715220D02*
X14908700Y-9750500D01*
%TD*%
M02*
