%TF.GenerationSoftware,KiCad,Pcbnew,10.0.0*%
%TF.CreationDate,2026-04-01T13:57:19+02:00*%
%TF.ProjectId,YetiX-A_DevBoard,59657469-582d-4415-9f44-6576426f6172,0.0.2*%
%TF.SameCoordinates,Original*%
%TF.FileFunction,Legend,Bot*%
%TF.FilePolarity,Positive*%
%FSLAX45Y45*%
G04 Gerber Fmt 4.5, Leading zero omitted, Abs format (unit mm)*
G04 Created by KiCad (PCBNEW 10.0.0) date 2026-04-01 13:57:19*
%MOMM*%
%LPD*%
G01*
G04 APERTURE LIST*
%ADD10C,0.200000*%
%ADD11C,0.100000*%
%ADD12C,0.300000*%
%ADD13C,0.000000*%
%ADD14C,0.154000*%
%ADD15C,0.177000*%
G04 APERTURE END LIST*
D10*
X14984200Y-9787000D02*
G75*
G02*
X15056200Y-9643000I72000J54000D01*
G01*
D11*
X15056200Y-9633000D02*
X15196200Y-9633000D01*
X15196200Y-9833000D01*
X15056200Y-9833000D01*
X15056200Y-9633000D01*
G36*
X15056200Y-9633000D02*
G01*
X15196200Y-9633000D01*
X15196200Y-9833000D01*
X15056200Y-9833000D01*
X15056200Y-9633000D01*
G37*
X15056200Y-10023000D02*
X15196200Y-10023000D01*
X15196200Y-10223000D01*
X15056200Y-10223000D01*
X15056200Y-10023000D01*
G36*
X15056200Y-10023000D02*
G01*
X15196200Y-10023000D01*
X15196200Y-10223000D01*
X15056200Y-10223000D01*
X15056200Y-10023000D01*
G37*
D10*
X15146200Y-10123000D02*
G75*
G02*
X14966200Y-10123000I-90000J0D01*
G01*
X14966200Y-10123000D02*
G75*
G02*
X15146200Y-10123000I90000J0D01*
G01*
X17784958Y-9917762D02*
X17723053Y-9874429D01*
X17784958Y-9843476D02*
X17654958Y-9843476D01*
X17654958Y-9843476D02*
X17654958Y-9893000D01*
X17654958Y-9893000D02*
X17661148Y-9905381D01*
X17661148Y-9905381D02*
X17667339Y-9911571D01*
X17667339Y-9911571D02*
X17679720Y-9917762D01*
X17679720Y-9917762D02*
X17698291Y-9917762D01*
X17698291Y-9917762D02*
X17710672Y-9911571D01*
X17710672Y-9911571D02*
X17716863Y-9905381D01*
X17716863Y-9905381D02*
X17723053Y-9893000D01*
X17723053Y-9893000D02*
X17723053Y-9843476D01*
X17716863Y-9973476D02*
X17716863Y-10016810D01*
X17784958Y-10035381D02*
X17784958Y-9973476D01*
X17784958Y-9973476D02*
X17654958Y-9973476D01*
X17654958Y-9973476D02*
X17654958Y-10035381D01*
X17654958Y-10072524D02*
X17784958Y-10115857D01*
X17784958Y-10115857D02*
X17654958Y-10159190D01*
X17772577Y-10202524D02*
X17778767Y-10208714D01*
X17778767Y-10208714D02*
X17784958Y-10202524D01*
X17784958Y-10202524D02*
X17778767Y-10196333D01*
X17778767Y-10196333D02*
X17772577Y-10202524D01*
X17772577Y-10202524D02*
X17784958Y-10202524D01*
X17704482Y-10202524D02*
X17710672Y-10208714D01*
X17710672Y-10208714D02*
X17716863Y-10202524D01*
X17716863Y-10202524D02*
X17710672Y-10196333D01*
X17710672Y-10196333D02*
X17704482Y-10202524D01*
X17704482Y-10202524D02*
X17716863Y-10202524D01*
X17864250Y-9831095D02*
X17864250Y-9843476D01*
X17864250Y-9843476D02*
X17870441Y-9855857D01*
X17870441Y-9855857D02*
X17876631Y-9862048D01*
X17876631Y-9862048D02*
X17889012Y-9868238D01*
X17889012Y-9868238D02*
X17913774Y-9874429D01*
X17913774Y-9874429D02*
X17944727Y-9874429D01*
X17944727Y-9874429D02*
X17969489Y-9868238D01*
X17969489Y-9868238D02*
X17981870Y-9862048D01*
X17981870Y-9862048D02*
X17988060Y-9855857D01*
X17988060Y-9855857D02*
X17994250Y-9843476D01*
X17994250Y-9843476D02*
X17994250Y-9831095D01*
X17994250Y-9831095D02*
X17988060Y-9818714D01*
X17988060Y-9818714D02*
X17981870Y-9812524D01*
X17981870Y-9812524D02*
X17969489Y-9806333D01*
X17969489Y-9806333D02*
X17944727Y-9800143D01*
X17944727Y-9800143D02*
X17913774Y-9800143D01*
X17913774Y-9800143D02*
X17889012Y-9806333D01*
X17889012Y-9806333D02*
X17876631Y-9812524D01*
X17876631Y-9812524D02*
X17870441Y-9818714D01*
X17870441Y-9818714D02*
X17864250Y-9831095D01*
X17981870Y-9930143D02*
X17988060Y-9936333D01*
X17988060Y-9936333D02*
X17994250Y-9930143D01*
X17994250Y-9930143D02*
X17988060Y-9923952D01*
X17988060Y-9923952D02*
X17981870Y-9930143D01*
X17981870Y-9930143D02*
X17994250Y-9930143D01*
X17864250Y-10016810D02*
X17864250Y-10029191D01*
X17864250Y-10029191D02*
X17870441Y-10041571D01*
X17870441Y-10041571D02*
X17876631Y-10047762D01*
X17876631Y-10047762D02*
X17889012Y-10053952D01*
X17889012Y-10053952D02*
X17913774Y-10060143D01*
X17913774Y-10060143D02*
X17944727Y-10060143D01*
X17944727Y-10060143D02*
X17969489Y-10053952D01*
X17969489Y-10053952D02*
X17981870Y-10047762D01*
X17981870Y-10047762D02*
X17988060Y-10041571D01*
X17988060Y-10041571D02*
X17994250Y-10029191D01*
X17994250Y-10029191D02*
X17994250Y-10016810D01*
X17994250Y-10016810D02*
X17988060Y-10004429D01*
X17988060Y-10004429D02*
X17981870Y-9998238D01*
X17981870Y-9998238D02*
X17969489Y-9992048D01*
X17969489Y-9992048D02*
X17944727Y-9985857D01*
X17944727Y-9985857D02*
X17913774Y-9985857D01*
X17913774Y-9985857D02*
X17889012Y-9992048D01*
X17889012Y-9992048D02*
X17876631Y-9998238D01*
X17876631Y-9998238D02*
X17870441Y-10004429D01*
X17870441Y-10004429D02*
X17864250Y-10016810D01*
X17981870Y-10115857D02*
X17988060Y-10122048D01*
X17988060Y-10122048D02*
X17994250Y-10115857D01*
X17994250Y-10115857D02*
X17988060Y-10109667D01*
X17988060Y-10109667D02*
X17981870Y-10115857D01*
X17981870Y-10115857D02*
X17994250Y-10115857D01*
X17876631Y-10171572D02*
X17870441Y-10177762D01*
X17870441Y-10177762D02*
X17864250Y-10190143D01*
X17864250Y-10190143D02*
X17864250Y-10221095D01*
X17864250Y-10221095D02*
X17870441Y-10233476D01*
X17870441Y-10233476D02*
X17876631Y-10239667D01*
X17876631Y-10239667D02*
X17889012Y-10245857D01*
X17889012Y-10245857D02*
X17901393Y-10245857D01*
X17901393Y-10245857D02*
X17919965Y-10239667D01*
X17919965Y-10239667D02*
X17994250Y-10165381D01*
X17994250Y-10165381D02*
X17994250Y-10245857D01*
D12*
X17148654Y-9846523D02*
X17220083Y-9846523D01*
X17070083Y-9796523D02*
X17148654Y-9846523D01*
X17148654Y-9846523D02*
X17070083Y-9896523D01*
X17212940Y-10003665D02*
X17220083Y-9989380D01*
X17220083Y-9989380D02*
X17220083Y-9960808D01*
X17220083Y-9960808D02*
X17212940Y-9946522D01*
X17212940Y-9946522D02*
X17198654Y-9939380D01*
X17198654Y-9939380D02*
X17141511Y-9939380D01*
X17141511Y-9939380D02*
X17127226Y-9946522D01*
X17127226Y-9946522D02*
X17120083Y-9960808D01*
X17120083Y-9960808D02*
X17120083Y-9989380D01*
X17120083Y-9989380D02*
X17127226Y-10003665D01*
X17127226Y-10003665D02*
X17141511Y-10010808D01*
X17141511Y-10010808D02*
X17155797Y-10010808D01*
X17155797Y-10010808D02*
X17170083Y-9939380D01*
X17120083Y-10053665D02*
X17120083Y-10110808D01*
X17070083Y-10075094D02*
X17198654Y-10075094D01*
X17198654Y-10075094D02*
X17212940Y-10082237D01*
X17212940Y-10082237D02*
X17220083Y-10096522D01*
X17220083Y-10096522D02*
X17220083Y-10110808D01*
X17220083Y-10160808D02*
X17120083Y-10160808D01*
X17070083Y-10160808D02*
X17077226Y-10153665D01*
X17077226Y-10153665D02*
X17084369Y-10160808D01*
X17084369Y-10160808D02*
X17077226Y-10167951D01*
X17077226Y-10167951D02*
X17070083Y-10160808D01*
X17070083Y-10160808D02*
X17084369Y-10160808D01*
X17070083Y-10217951D02*
X17220083Y-10317951D01*
X17070083Y-10317951D02*
X17220083Y-10217951D01*
X17162940Y-10375094D02*
X17162940Y-10489380D01*
X17177226Y-10553665D02*
X17177226Y-10625094D01*
X17220083Y-10539380D02*
X17070083Y-10589380D01*
X17070083Y-10589380D02*
X17220083Y-10639380D01*
D13*
%TO.C,G\u002A\u002A\u002A*%
G36*
X16429402Y-10327895D02*
G01*
X16433531Y-10331360D01*
X16434629Y-10333449D01*
X16435619Y-10336267D01*
X16434640Y-10338202D01*
X16430920Y-10340968D01*
X16425840Y-10343230D01*
X16420925Y-10344166D01*
X16416268Y-10343362D01*
X16411118Y-10340644D01*
X16407737Y-10336893D01*
X16407272Y-10333046D01*
X16410690Y-10329142D01*
X16416512Y-10326880D01*
X16423239Y-10326432D01*
X16429402Y-10327895D01*
G37*
G36*
X16437146Y-10023173D02*
G01*
X16443091Y-10025577D01*
X16445388Y-10027407D01*
X16447883Y-10031782D01*
X16447141Y-10035930D01*
X16443739Y-10039149D01*
X16438258Y-10040732D01*
X16431274Y-10039974D01*
X16431263Y-10039971D01*
X16425958Y-10037578D01*
X16422423Y-10034475D01*
X16421344Y-10031778D01*
X16422237Y-10027694D01*
X16425789Y-10024632D01*
X16431068Y-10022991D01*
X16437146Y-10023173D01*
G37*
G36*
X16596809Y-10314598D02*
G01*
X16595089Y-10323541D01*
X16592770Y-10333151D01*
X16590164Y-10342328D01*
X16587548Y-10350164D01*
X16585204Y-10355751D01*
X16583409Y-10358180D01*
X16581596Y-10358374D01*
X16576108Y-10357479D01*
X16568656Y-10355335D01*
X16560356Y-10352320D01*
X16552325Y-10348822D01*
X16545679Y-10345221D01*
X16543519Y-10343706D01*
X16537735Y-10338284D01*
X16533781Y-10332669D01*
X16533197Y-10331433D01*
X16531521Y-10326989D01*
X16531922Y-10323776D01*
X16534512Y-10319768D01*
X16538955Y-10314753D01*
X16544695Y-10310911D01*
X16552173Y-10308475D01*
X16562176Y-10307194D01*
X16575489Y-10306821D01*
X16598066Y-10306818D01*
X16596809Y-10314598D01*
G37*
G36*
X16568028Y-10006915D02*
G01*
X16569307Y-10009532D01*
X16571768Y-10015143D01*
X16575084Y-10022984D01*
X16578927Y-10032296D01*
X16583165Y-10043066D01*
X16585936Y-10051154D01*
X16587985Y-10057788D01*
X16586866Y-10058156D01*
X16584630Y-10058907D01*
X16581347Y-10059836D01*
X16573959Y-10061364D01*
X16565275Y-10062720D01*
X16556629Y-10063688D01*
X16549353Y-10064057D01*
X16541325Y-10063462D01*
X16531882Y-10060755D01*
X16525112Y-10056186D01*
X16521480Y-10050105D01*
X16521454Y-10042871D01*
X16523970Y-10037747D01*
X16529447Y-10031019D01*
X16536888Y-10023973D01*
X16545399Y-10017447D01*
X16554080Y-10012285D01*
X16554455Y-10012099D01*
X16560932Y-10009096D01*
X16565777Y-10007207D01*
X16567965Y-10006835D01*
X16568028Y-10006915D01*
G37*
G36*
X16523758Y-9763036D02*
G01*
X16548621Y-9768491D01*
X16572908Y-9777744D01*
X16596460Y-9790639D01*
X16619121Y-9807019D01*
X16640736Y-9826729D01*
X16661144Y-9849615D01*
X16680190Y-9875519D01*
X16697716Y-9904286D01*
X16713565Y-9935760D01*
X16727579Y-9969784D01*
X16739602Y-10006205D01*
X16746322Y-10031487D01*
X16752696Y-10060460D01*
X16757961Y-10089979D01*
X16761870Y-10118623D01*
X16764169Y-10144977D01*
X16765240Y-10175820D01*
X16764390Y-10219687D01*
X16760801Y-10262647D01*
X16754572Y-10304411D01*
X16745799Y-10344698D01*
X16734581Y-10383220D01*
X16721014Y-10419696D01*
X16705198Y-10453837D01*
X16687230Y-10485362D01*
X16667205Y-10513983D01*
X16645224Y-10539416D01*
X16621384Y-10561378D01*
X16604561Y-10573856D01*
X16580454Y-10587818D01*
X16555704Y-10597787D01*
X16530485Y-10603743D01*
X16504972Y-10605662D01*
X16479341Y-10603520D01*
X16453765Y-10597295D01*
X16428420Y-10586964D01*
X16412514Y-10578426D01*
X16396364Y-10567833D01*
X16380798Y-10555286D01*
X16364615Y-10539899D01*
X16357196Y-10532106D01*
X16335151Y-10505270D01*
X16315187Y-10475238D01*
X16297394Y-10442357D01*
X16281855Y-10406974D01*
X16268658Y-10369437D01*
X16257887Y-10330091D01*
X16257506Y-10328208D01*
X16326181Y-10328208D01*
X16327029Y-10338220D01*
X16329403Y-10349148D01*
X16333038Y-10360271D01*
X16337667Y-10370868D01*
X16343025Y-10380216D01*
X16348846Y-10387593D01*
X16354865Y-10392278D01*
X16360816Y-10393548D01*
X16363850Y-10392684D01*
X16366570Y-10389480D01*
X16366087Y-10384860D01*
X16362309Y-10379706D01*
X16362260Y-10379660D01*
X16358765Y-10375342D01*
X16354501Y-10368684D01*
X16350376Y-10361108D01*
X16349989Y-10360320D01*
X16345948Y-10350858D01*
X16343617Y-10341803D01*
X16343395Y-10339813D01*
X16362044Y-10339813D01*
X16362842Y-10342747D01*
X16367615Y-10350837D01*
X16375416Y-10358032D01*
X16385417Y-10363815D01*
X16396790Y-10367666D01*
X16408708Y-10369064D01*
X16416388Y-10368508D01*
X16428533Y-10365440D01*
X16439410Y-10360136D01*
X16448079Y-10353103D01*
X16453601Y-10344848D01*
X16453797Y-10344372D01*
X16456051Y-10337051D01*
X16455743Y-10330782D01*
X16452797Y-10323469D01*
X16451798Y-10321658D01*
X16444607Y-10313375D01*
X16434577Y-10307008D01*
X16422550Y-10302870D01*
X16409374Y-10301270D01*
X16395892Y-10302522D01*
X16395059Y-10302701D01*
X16382940Y-10306865D01*
X16373114Y-10313168D01*
X16366049Y-10321100D01*
X16362203Y-10330153D01*
X16362044Y-10339813D01*
X16343395Y-10339813D01*
X16342397Y-10330893D01*
X16342185Y-10328173D01*
X16340739Y-10318466D01*
X16338448Y-10312732D01*
X16335264Y-10310889D01*
X16331130Y-10312852D01*
X16330123Y-10313823D01*
X16327124Y-10319835D01*
X16326181Y-10328208D01*
X16257506Y-10328208D01*
X16249632Y-10289283D01*
X16243977Y-10247362D01*
X16241315Y-10209082D01*
X16453398Y-10209082D01*
X16454905Y-10223298D01*
X16459734Y-10234505D01*
X16463803Y-10239346D01*
X16472406Y-10246340D01*
X16481980Y-10251108D01*
X16491188Y-10252870D01*
X16496073Y-10252427D01*
X16506485Y-10248600D01*
X16516459Y-10241138D01*
X16525589Y-10230390D01*
X16533464Y-10216705D01*
X16536305Y-10210229D01*
X16538237Y-10203825D01*
X16539068Y-10196845D01*
X16539142Y-10187512D01*
X16539141Y-10187451D01*
X16538839Y-10176687D01*
X16538220Y-10168985D01*
X16537064Y-10163266D01*
X16535153Y-10158446D01*
X16532269Y-10153443D01*
X16530779Y-10151252D01*
X16524929Y-10144242D01*
X16517880Y-10137347D01*
X16510822Y-10131663D01*
X16504948Y-10128285D01*
X16494718Y-10126471D01*
X16484175Y-10128371D01*
X16474000Y-10133687D01*
X16464807Y-10142096D01*
X16457214Y-10153276D01*
X16456277Y-10155230D01*
X16455038Y-10158980D01*
X16454197Y-10163884D01*
X16453685Y-10170690D01*
X16453425Y-10180149D01*
X16453398Y-10209082D01*
X16241315Y-10209082D01*
X16241008Y-10204673D01*
X16240814Y-10161563D01*
X16243477Y-10118379D01*
X16249086Y-10075469D01*
X16250240Y-10068764D01*
X16257259Y-10035261D01*
X16338801Y-10035261D01*
X16341120Y-10042326D01*
X16344260Y-10045867D01*
X16347430Y-10047458D01*
X16349539Y-10046913D01*
X16353183Y-10043306D01*
X16355821Y-10037292D01*
X16356837Y-10030015D01*
X16357026Y-10026670D01*
X16357153Y-10026214D01*
X16378118Y-10026214D01*
X16379845Y-10035842D01*
X16385633Y-10045459D01*
X16391217Y-10051016D01*
X16401940Y-10057739D01*
X16409374Y-10060317D01*
X16414314Y-10062031D01*
X16427416Y-10063799D01*
X16440318Y-10062951D01*
X16452096Y-10059395D01*
X16461824Y-10053039D01*
X16467948Y-10045712D01*
X16471200Y-10036646D01*
X16470456Y-10026709D01*
X16469494Y-10023723D01*
X16463983Y-10014610D01*
X16455579Y-10007168D01*
X16445054Y-10001575D01*
X16433178Y-9998008D01*
X16420723Y-9996647D01*
X16408460Y-9997668D01*
X16397158Y-10001251D01*
X16387592Y-10007572D01*
X16386774Y-10008345D01*
X16380434Y-10016929D01*
X16378118Y-10026214D01*
X16357153Y-10026214D01*
X16360120Y-10015570D01*
X16367052Y-10003522D01*
X16377893Y-9990400D01*
X16378943Y-9989272D01*
X16385842Y-9981189D01*
X16389459Y-9975323D01*
X16389827Y-9971434D01*
X16386979Y-9969278D01*
X16380951Y-9968612D01*
X16378684Y-9968810D01*
X16374613Y-9970408D01*
X16369816Y-9974120D01*
X16363406Y-9980543D01*
X16362450Y-9981575D01*
X16353890Y-9992350D01*
X16346984Y-10003830D01*
X16341995Y-10015290D01*
X16339179Y-10026008D01*
X16338801Y-10035261D01*
X16257259Y-10035261D01*
X16258661Y-10028568D01*
X16269244Y-9990549D01*
X16281865Y-9954869D01*
X16296399Y-9921683D01*
X16312723Y-9891156D01*
X16314326Y-9888686D01*
X16484351Y-9888686D01*
X16485729Y-9892361D01*
X16486947Y-9894483D01*
X16489624Y-9898269D01*
X16493768Y-9903193D01*
X16494718Y-9904235D01*
X16500110Y-9910157D01*
X16522669Y-9936882D01*
X16543196Y-9966104D01*
X16544575Y-9968276D01*
X16549877Y-9976681D01*
X16554171Y-9983582D01*
X16557050Y-9988319D01*
X16558100Y-9990225D01*
X16557600Y-9990737D01*
X16554430Y-9993166D01*
X16548984Y-9997061D01*
X16542020Y-10001878D01*
X16536273Y-10005824D01*
X16527976Y-10011783D01*
X16521996Y-10016657D01*
X16517564Y-10021178D01*
X16513909Y-10026083D01*
X16510259Y-10032102D01*
X16505943Y-10041847D01*
X16504100Y-10052028D01*
X16505663Y-10058126D01*
X16507092Y-10063048D01*
X16511379Y-10067127D01*
X16517111Y-10071692D01*
X16527563Y-10079365D01*
X16557874Y-10080905D01*
X16562230Y-10081126D01*
X16572873Y-10081661D01*
X16581900Y-10082113D01*
X16588469Y-10082435D01*
X16591737Y-10082588D01*
X16592749Y-10082784D01*
X16594605Y-10084290D01*
X16596303Y-10087656D01*
X16597965Y-10093335D01*
X16599712Y-10101779D01*
X16601661Y-10113443D01*
X16603935Y-10128782D01*
X16604679Y-10134129D01*
X16605939Y-10144393D01*
X16606803Y-10154006D01*
X16607309Y-10163931D01*
X16607498Y-10175123D01*
X16607409Y-10188543D01*
X16607082Y-10205149D01*
X16606976Y-10209384D01*
X16606503Y-10224105D01*
X16605900Y-10238268D01*
X16605214Y-10250974D01*
X16604494Y-10261329D01*
X16603785Y-10268432D01*
X16602829Y-10275920D01*
X16601700Y-10284014D01*
X16600344Y-10289125D01*
X16598122Y-10291893D01*
X16594396Y-10292968D01*
X16588533Y-10292993D01*
X16579895Y-10292609D01*
X16572108Y-10292466D01*
X16554832Y-10293464D01*
X16541026Y-10296471D01*
X16530538Y-10301548D01*
X16523216Y-10308757D01*
X16518913Y-10318164D01*
X16517661Y-10325266D01*
X16518552Y-10333691D01*
X16522628Y-10341437D01*
X16530178Y-10349010D01*
X16541501Y-10356914D01*
X16542885Y-10357704D01*
X16549021Y-10360535D01*
X16556848Y-10363560D01*
X16564998Y-10366303D01*
X16572098Y-10368295D01*
X16576782Y-10369064D01*
X16579188Y-10369552D01*
X16580897Y-10371658D01*
X16580272Y-10375806D01*
X16577906Y-10383756D01*
X16574116Y-10393909D01*
X16569265Y-10405477D01*
X16563713Y-10417673D01*
X16557821Y-10429713D01*
X16551950Y-10440807D01*
X16546463Y-10450169D01*
X16541720Y-10457013D01*
X16538186Y-10461651D01*
X16535746Y-10465881D01*
X16534306Y-10470445D01*
X16538907Y-10468656D01*
X16539260Y-10468609D01*
X16542548Y-10466471D01*
X16547477Y-10461652D01*
X16553501Y-10454826D01*
X16560073Y-10446667D01*
X16566646Y-10437851D01*
X16572673Y-10429049D01*
X16577608Y-10420936D01*
X16583044Y-10410937D01*
X16590347Y-10396814D01*
X16597435Y-10382418D01*
X16603845Y-10368718D01*
X16609115Y-10356682D01*
X16612783Y-10347278D01*
X16613680Y-10344704D01*
X16618250Y-10331393D01*
X16621928Y-10320028D01*
X16624862Y-10309851D01*
X16627193Y-10300099D01*
X16629068Y-10290012D01*
X16630632Y-10278828D01*
X16632030Y-10265786D01*
X16633408Y-10250125D01*
X16634907Y-10231085D01*
X16634996Y-10229929D01*
X16636186Y-10210474D01*
X16636544Y-10194091D01*
X16636066Y-10179834D01*
X16634750Y-10166764D01*
X16634635Y-10165910D01*
X16633457Y-10157258D01*
X16632034Y-10146824D01*
X16630647Y-10136677D01*
X16628374Y-10122352D01*
X16621129Y-10090335D01*
X16611144Y-10058922D01*
X16598737Y-10028936D01*
X16584230Y-10001196D01*
X16567945Y-9976521D01*
X16557083Y-9962177D01*
X16540593Y-9941363D01*
X16525765Y-9923963D01*
X16512450Y-9909807D01*
X16500499Y-9898720D01*
X16496706Y-9895555D01*
X16489805Y-9890268D01*
X16485699Y-9887984D01*
X16484351Y-9888686D01*
X16314326Y-9888686D01*
X16330712Y-9863444D01*
X16335264Y-9857679D01*
X16350242Y-9838709D01*
X16371188Y-9817111D01*
X16380951Y-9809076D01*
X16393427Y-9798808D01*
X16416834Y-9783960D01*
X16420723Y-9782174D01*
X16441287Y-9772728D01*
X16466659Y-9765272D01*
X16485699Y-9762710D01*
X16492826Y-9761751D01*
X16498476Y-9761533D01*
X16523758Y-9763036D01*
G37*
G36*
X16484127Y-9662324D02*
G01*
X16489664Y-9664674D01*
X16489896Y-9664892D01*
X16493143Y-9670706D01*
X16493341Y-9678348D01*
X16490457Y-9686835D01*
X16490143Y-9687443D01*
X16488313Y-9691319D01*
X16488562Y-9692482D01*
X16490976Y-9691773D01*
X16494472Y-9690528D01*
X16495076Y-9690357D01*
X16505754Y-9687337D01*
X16519723Y-9684213D01*
X16535419Y-9681300D01*
X16551888Y-9678736D01*
X16568170Y-9676662D01*
X16583310Y-9675221D01*
X16596349Y-9674552D01*
X16606333Y-9674796D01*
X16612665Y-9675530D01*
X16625294Y-9678243D01*
X16634283Y-9682215D01*
X16639540Y-9687326D01*
X16640975Y-9693455D01*
X16638494Y-9700485D01*
X16632010Y-9708296D01*
X16622922Y-9717002D01*
X16640659Y-9720487D01*
X16643972Y-9721167D01*
X16657900Y-9724630D01*
X16672462Y-9729292D01*
X16688110Y-9735353D01*
X16705308Y-9743012D01*
X16724513Y-9752474D01*
X16746181Y-9763937D01*
X16770775Y-9777604D01*
X16788141Y-9787651D01*
X16805661Y-9798456D01*
X16820363Y-9808461D01*
X16832792Y-9818098D01*
X16843500Y-9827796D01*
X16853035Y-9837987D01*
X16861945Y-9849101D01*
X16870171Y-9861147D01*
X16875188Y-9871081D01*
X16876874Y-9878710D01*
X16875218Y-9883991D01*
X16870214Y-9886878D01*
X16866884Y-9888383D01*
X16865983Y-9890940D01*
X16866095Y-9891177D01*
X16867958Y-9894274D01*
X16871720Y-9900122D01*
X16877015Y-9908159D01*
X16883466Y-9917823D01*
X16890711Y-9928550D01*
X16897450Y-9938506D01*
X16905474Y-9950522D01*
X16911510Y-9959855D01*
X16915795Y-9966927D01*
X16918565Y-9972160D01*
X16920060Y-9975979D01*
X16920514Y-9978804D01*
X16920168Y-9981059D01*
X16917457Y-9984695D01*
X16912987Y-9986778D01*
X16908773Y-9986260D01*
X16907295Y-9985590D01*
X16906990Y-9986457D01*
X16908367Y-9989489D01*
X16911632Y-9995118D01*
X16916986Y-10003777D01*
X16921195Y-10010826D01*
X16926563Y-10020386D01*
X16932512Y-10031397D01*
X16938668Y-10043133D01*
X16944664Y-10054868D01*
X16950125Y-10065877D01*
X16954685Y-10075433D01*
X16957973Y-10082813D01*
X16959616Y-10087289D01*
X16959944Y-10092910D01*
X16956969Y-10099015D01*
X16950331Y-10103447D01*
X16949874Y-10103639D01*
X16945729Y-10105710D01*
X16944027Y-10107179D01*
X16944061Y-10107380D01*
X16945461Y-10110393D01*
X16948622Y-10116128D01*
X16953150Y-10123923D01*
X16958648Y-10133113D01*
X16964721Y-10143037D01*
X16970974Y-10153032D01*
X16977013Y-10162435D01*
X16990431Y-10183006D01*
X16985903Y-10195634D01*
X16983421Y-10202660D01*
X16981938Y-10207662D01*
X16981890Y-10210253D01*
X16983289Y-10211226D01*
X16986147Y-10211373D01*
X16989435Y-10211853D01*
X16993410Y-10213863D01*
X16993918Y-10214416D01*
X16995588Y-10217999D01*
X16995321Y-10222931D01*
X16992956Y-10229690D01*
X16988339Y-10238756D01*
X16981313Y-10250604D01*
X16976838Y-10257891D01*
X16972416Y-10265375D01*
X16969779Y-10270463D01*
X16968659Y-10273791D01*
X16968788Y-10275992D01*
X16969902Y-10277700D01*
X16970087Y-10277908D01*
X16972249Y-10281240D01*
X16972641Y-10284963D01*
X16971041Y-10289777D01*
X16967222Y-10296376D01*
X16960963Y-10305457D01*
X16955875Y-10312878D01*
X16948762Y-10323976D01*
X16941097Y-10336563D01*
X16933279Y-10349924D01*
X16925708Y-10363350D01*
X16918783Y-10376130D01*
X16912904Y-10387553D01*
X16908470Y-10396907D01*
X16905881Y-10403480D01*
X16905592Y-10406339D01*
X16907589Y-10408376D01*
X16912796Y-10410284D01*
X16914276Y-10410780D01*
X16920184Y-10413732D01*
X16924138Y-10417161D01*
X16925387Y-10419511D01*
X16925812Y-10423060D01*
X16924622Y-10427629D01*
X16921582Y-10433781D01*
X16916454Y-10442077D01*
X16909003Y-10453076D01*
X16908380Y-10453976D01*
X16902992Y-10461909D01*
X16899712Y-10467259D01*
X16898228Y-10470734D01*
X16898230Y-10473036D01*
X16899408Y-10474872D01*
X16901343Y-10477411D01*
X16902590Y-10481229D01*
X16901674Y-10485587D01*
X16898334Y-10491007D01*
X16892308Y-10498014D01*
X16883337Y-10507133D01*
X16876894Y-10513387D01*
X16870865Y-10518896D01*
X16865214Y-10523433D01*
X16859117Y-10527553D01*
X16851750Y-10531805D01*
X16842290Y-10536745D01*
X16829909Y-10542922D01*
X16822619Y-10546467D01*
X16808469Y-10553093D01*
X16793981Y-10559600D01*
X16780499Y-10565390D01*
X16769360Y-10569867D01*
X16762614Y-10572454D01*
X16754209Y-10575812D01*
X16748935Y-10578211D01*
X16746310Y-10579925D01*
X16745845Y-10581225D01*
X16747055Y-10582383D01*
X16749963Y-10585281D01*
X16751160Y-10590700D01*
X16749125Y-10596925D01*
X16743985Y-10603086D01*
X16743502Y-10603497D01*
X16735992Y-10608360D01*
X16724690Y-10613725D01*
X16709885Y-10619487D01*
X16691865Y-10625546D01*
X16670913Y-10631794D01*
X16647320Y-10638128D01*
X16641444Y-10639643D01*
X16628880Y-10642976D01*
X16617908Y-10646013D01*
X16609138Y-10648579D01*
X16603176Y-10650499D01*
X16600635Y-10651597D01*
X16600365Y-10653040D01*
X16602871Y-10657017D01*
X16608934Y-10663094D01*
X16610587Y-10664614D01*
X16619330Y-10673543D01*
X16624562Y-10681008D01*
X16626416Y-10687428D01*
X16625032Y-10693216D01*
X16620541Y-10698788D01*
X16615733Y-10702323D01*
X16605245Y-10706919D01*
X16591733Y-10710225D01*
X16575784Y-10712149D01*
X16557992Y-10712600D01*
X16538946Y-10711484D01*
X16530535Y-10710582D01*
X16513114Y-10708192D01*
X16495986Y-10705024D01*
X16478129Y-10700847D01*
X16458524Y-10695435D01*
X16436150Y-10688562D01*
X16434370Y-10687994D01*
X16419507Y-10683304D01*
X16408205Y-10679874D01*
X16400123Y-10677657D01*
X16394916Y-10676607D01*
X16392245Y-10676681D01*
X16391767Y-10677829D01*
X16393142Y-10680007D01*
X16396027Y-10683169D01*
X16396089Y-10683232D01*
X16400957Y-10689671D01*
X16402368Y-10695012D01*
X16400351Y-10698814D01*
X16394932Y-10700640D01*
X16390293Y-10700372D01*
X16381936Y-10698347D01*
X16371958Y-10694819D01*
X16361416Y-10690214D01*
X16351364Y-10684964D01*
X16342856Y-10679495D01*
X16335760Y-10673725D01*
X16325369Y-10664032D01*
X16313644Y-10652047D01*
X16301140Y-10638398D01*
X16288412Y-10623709D01*
X16276012Y-10608606D01*
X16264496Y-10593715D01*
X16254419Y-10579664D01*
X16252039Y-10576070D01*
X16246579Y-10567353D01*
X16240584Y-10557320D01*
X16234979Y-10547503D01*
X16232170Y-10542456D01*
X16228323Y-10535718D01*
X16225932Y-10532043D01*
X16224652Y-10531055D01*
X16224139Y-10532378D01*
X16224045Y-10535638D01*
X16223317Y-10541576D01*
X16220759Y-10544745D01*
X16220477Y-10544850D01*
X16218606Y-10545246D01*
X16216730Y-10544809D01*
X16214610Y-10543180D01*
X16212011Y-10540001D01*
X16208698Y-10534917D01*
X16204435Y-10527570D01*
X16198987Y-10517600D01*
X16192118Y-10504652D01*
X16183591Y-10488369D01*
X16182833Y-10486910D01*
X16176371Y-10473524D01*
X16170309Y-10459083D01*
X16164255Y-10442581D01*
X16157809Y-10423011D01*
X16154477Y-10412473D01*
X16150361Y-10399551D01*
X16147180Y-10389832D01*
X16144746Y-10382856D01*
X16142870Y-10378170D01*
X16141363Y-10375319D01*
X16140037Y-10373845D01*
X16138701Y-10373296D01*
X16137169Y-10373214D01*
X16136729Y-10373190D01*
X16133142Y-10370907D01*
X16129805Y-10364728D01*
X16128816Y-10361734D01*
X16126944Y-10354749D01*
X16124692Y-10345367D01*
X16122256Y-10334506D01*
X16119828Y-10323086D01*
X16117602Y-10312027D01*
X16115773Y-10302245D01*
X16114532Y-10294658D01*
X16114076Y-10290187D01*
X16113329Y-10287479D01*
X16110092Y-10284083D01*
X16107087Y-10281254D01*
X16104239Y-10275433D01*
X16101842Y-10266566D01*
X16099861Y-10254434D01*
X16098263Y-10238820D01*
X16097009Y-10219502D01*
X16096067Y-10196264D01*
X16095892Y-10190322D01*
X16095872Y-10189214D01*
X16224392Y-10189214D01*
X16226156Y-10230753D01*
X16230507Y-10272489D01*
X16237531Y-10314179D01*
X16237864Y-10315823D01*
X16247585Y-10356448D01*
X16259656Y-10395020D01*
X16273937Y-10431321D01*
X16290288Y-10465135D01*
X16308570Y-10496245D01*
X16328645Y-10524436D01*
X16350370Y-10549488D01*
X16373607Y-10571188D01*
X16398218Y-10589319D01*
X16424061Y-10603661D01*
X16430616Y-10606664D01*
X16445228Y-10612631D01*
X16458678Y-10616778D01*
X16472279Y-10619391D01*
X16487345Y-10620752D01*
X16505190Y-10621141D01*
X16507805Y-10621138D01*
X16520422Y-10620996D01*
X16530138Y-10620563D01*
X16538013Y-10619734D01*
X16545105Y-10618403D01*
X16552474Y-10616467D01*
X16560002Y-10614134D01*
X16587203Y-10602996D01*
X16613081Y-10588112D01*
X16637531Y-10569663D01*
X16660445Y-10547830D01*
X16681719Y-10522795D01*
X16701244Y-10494740D01*
X16718916Y-10463845D01*
X16734625Y-10430292D01*
X16748267Y-10394264D01*
X16759735Y-10355939D01*
X16768922Y-10315501D01*
X16775722Y-10273131D01*
X16780028Y-10229010D01*
X16780241Y-10225711D01*
X16781414Y-10178658D01*
X16779213Y-10131309D01*
X16773736Y-10084319D01*
X16765083Y-10038345D01*
X16753352Y-9994045D01*
X16738638Y-9952073D01*
X16738617Y-9952021D01*
X16723167Y-9917069D01*
X16705918Y-9885044D01*
X16687024Y-9856046D01*
X16666636Y-9830176D01*
X16644912Y-9807539D01*
X16622003Y-9788233D01*
X16598063Y-9772365D01*
X16573247Y-9760033D01*
X16547708Y-9751340D01*
X16521600Y-9746388D01*
X16495076Y-9745281D01*
X16468293Y-9748118D01*
X16441403Y-9755003D01*
X16422131Y-9762568D01*
X16396888Y-9776177D01*
X16373006Y-9793339D01*
X16350572Y-9813817D01*
X16329674Y-9837369D01*
X16310399Y-9863756D01*
X16292834Y-9892737D01*
X16277068Y-9924074D01*
X16263187Y-9957525D01*
X16251278Y-9992851D01*
X16241430Y-10029814D01*
X16233730Y-10068170D01*
X16228265Y-10107682D01*
X16225123Y-10148111D01*
X16224392Y-10189214D01*
X16095872Y-10189214D01*
X16095599Y-10174444D01*
X16095686Y-10162588D01*
X16096156Y-10154673D01*
X16097012Y-10150615D01*
X16097709Y-10148328D01*
X16098740Y-10142202D01*
X16099648Y-10133797D01*
X16100292Y-10124227D01*
X16100409Y-10122076D01*
X16101576Y-10109433D01*
X16103414Y-10097055D01*
X16105645Y-10086880D01*
X16106639Y-10083033D01*
X16108941Y-10072600D01*
X16111152Y-10060804D01*
X16112908Y-10049533D01*
X16112918Y-10049459D01*
X16115039Y-10034789D01*
X16117096Y-10023093D01*
X16119353Y-10013210D01*
X16122075Y-10003983D01*
X16125523Y-9994253D01*
X16127738Y-9988543D01*
X16130986Y-9981314D01*
X16133829Y-9977116D01*
X16136739Y-9975341D01*
X16140192Y-9975380D01*
X16141371Y-9975533D01*
X16143116Y-9975099D01*
X16144610Y-9973194D01*
X16146139Y-9969173D01*
X16147989Y-9962392D01*
X16150444Y-9952204D01*
X16152320Y-9944249D01*
X16155141Y-9932296D01*
X16157791Y-9921078D01*
X16159878Y-9912249D01*
X16161595Y-9905914D01*
X16166024Y-9893489D01*
X16171671Y-9880972D01*
X16178122Y-9869038D01*
X16184966Y-9858360D01*
X16191789Y-9849613D01*
X16198178Y-9843472D01*
X16203722Y-9840611D01*
X16206571Y-9839685D01*
X16209171Y-9837675D01*
X16211933Y-9833915D01*
X16215356Y-9827722D01*
X16219940Y-9818409D01*
X16226811Y-9804952D01*
X16237165Y-9787068D01*
X16248003Y-9770726D01*
X16258550Y-9757160D01*
X16261658Y-9753772D01*
X16268883Y-9746952D01*
X16276802Y-9740513D01*
X16284520Y-9735108D01*
X16291145Y-9731387D01*
X16295783Y-9730001D01*
X16296478Y-9730036D01*
X16301172Y-9732273D01*
X16304108Y-9736967D01*
X16304308Y-9742663D01*
X16303870Y-9744933D01*
X16304123Y-9746601D01*
X16305693Y-9745721D01*
X16310047Y-9742902D01*
X16316449Y-9738602D01*
X16324180Y-9733298D01*
X16324483Y-9733089D01*
X16335132Y-9726140D01*
X16348484Y-9718021D01*
X16363519Y-9709299D01*
X16379218Y-9700543D01*
X16394560Y-9692325D01*
X16408526Y-9685212D01*
X16420093Y-9679774D01*
X16432414Y-9674586D01*
X16449264Y-9668382D01*
X16463670Y-9664233D01*
X16475377Y-9662195D01*
X16484127Y-9662324D01*
G37*
%TO.C,R1*%
D14*
X14813700Y-10140640D02*
X14813700Y-10105360D01*
X14918700Y-10140640D02*
X14918700Y-10105360D01*
%TO.C,C3*%
X15962500Y-9520140D02*
X15962500Y-9484860D01*
X16067500Y-9520140D02*
X16067500Y-9484860D01*
%TO.C,C117*%
X16662640Y-9497500D02*
X16627360Y-9497500D01*
X16662640Y-9602500D02*
X16627360Y-9602500D01*
%TO.C,U107*%
X15421200Y-9758000D02*
X15421200Y-10078000D01*
X15421200Y-10078000D02*
X15911200Y-10078000D01*
X15911200Y-9758000D02*
X15421200Y-9758000D01*
X15911200Y-10078000D02*
X15911200Y-9758000D01*
X15926700Y-10268000D02*
X15926700Y-10113000D01*
%TO.C,U1*%
X14247400Y-9827000D02*
X14247400Y-10239000D01*
X14247400Y-10239000D02*
X14256900Y-10239000D01*
X14256900Y-9827000D02*
X14247400Y-9827000D01*
X14749900Y-10239000D02*
X14759400Y-10239000D01*
X14759400Y-9827000D02*
X14749900Y-9827000D01*
X14759400Y-10239000D02*
X14759400Y-9827000D01*
X14256400Y-9773000D02*
X14223400Y-9797000D01*
X14223400Y-9749000D01*
X14256400Y-9773000D01*
G36*
X14256400Y-9773000D02*
G01*
X14223400Y-9797000D01*
X14223400Y-9749000D01*
X14256400Y-9773000D01*
G37*
%TO.C,C114*%
X15243700Y-9950640D02*
X15243700Y-9915360D01*
X15348700Y-9950640D02*
X15348700Y-9915360D01*
%TO.C,C4*%
X16102500Y-9612640D02*
X16102500Y-9577360D01*
X16207500Y-9612640D02*
X16207500Y-9577360D01*
%TO.C,R3*%
X16989000Y-9538875D02*
X16989000Y-9591125D01*
X17136000Y-9538875D02*
X17136000Y-9591125D01*
%TO.C,C116*%
X14428560Y-10435500D02*
X14463840Y-10435500D01*
X14428560Y-10540500D02*
X14463840Y-10540500D01*
%TO.C,U106*%
X13014700Y-9468000D02*
X13014700Y-10598000D01*
X13014700Y-10598000D02*
X13057200Y-10598000D01*
X13126200Y-9468000D02*
X13014700Y-9468000D01*
X13436200Y-10598000D02*
X13360200Y-10598000D01*
X13492200Y-9468000D02*
X13409200Y-9468000D01*
X13659700Y-9651000D02*
X13659700Y-9583000D01*
X13659700Y-10069000D02*
X13659700Y-10005000D01*
X13659700Y-10423000D02*
X13659700Y-10598000D01*
X13659700Y-10598000D02*
X13622200Y-10598000D01*
D15*
X12933550Y-9580500D02*
G75*
G02*
X12915850Y-9580500I-8850J0D01*
G01*
X12915850Y-9580500D02*
G75*
G02*
X12933550Y-9580500I8850J0D01*
G01*
%TO.C,C115*%
D14*
X15243700Y-10245360D02*
X15243700Y-10280640D01*
X15348700Y-10245360D02*
X15348700Y-10280640D01*
%TO.C,R2*%
X14803700Y-9715360D02*
X14803700Y-9750640D01*
X14908700Y-9715220D02*
X14908700Y-9750500D01*
%TO.C,R4*%
X16804000Y-9493625D02*
X16804000Y-9441375D01*
X16951000Y-9493625D02*
X16951000Y-9441375D01*
%TD*%
M02*
