%TF.GenerationSoftware,KiCad,Pcbnew,10.0.0*%
%TF.CreationDate,2026-04-01T00:37:24+02:00*%
%TF.ProjectId,YetiX-A_DevBoard,59657469-582d-4415-9f44-6576426f6172,0.0.1*%
%TF.SameCoordinates,Original*%
%TF.FileFunction,Copper,L1,Top*%
%TF.FilePolarity,Positive*%
%FSLAX45Y45*%
G04 Gerber Fmt 4.5, Leading zero omitted, Abs format (unit mm)*
G04 Created by KiCad (PCBNEW 10.0.0) date 2026-04-01 00:37:24*
%MOMM*%
%LPD*%
G01*
G04 APERTURE LIST*
G04 Aperture macros list*
%AMRoundRect*
0 Rectangle with rounded corners*
0 $1 Rounding radius*
0 $2 $3 $4 $5 $6 $7 $8 $9 X,Y pos of 4 corners*
0 Add a 4 corners polygon primitive as box body*
4,1,4,$2,$3,$4,$5,$6,$7,$8,$9,$2,$3,0*
0 Add four circle primitives for the rounded corners*
1,1,$1+$1,$2,$3*
1,1,$1+$1,$4,$5*
1,1,$1+$1,$6,$7*
1,1,$1+$1,$8,$9*
0 Add four rect primitives between the rounded corners*
20,1,$1+$1,$2,$3,$4,$5,0*
20,1,$1+$1,$4,$5,$6,$7,0*
20,1,$1+$1,$6,$7,$8,$9,0*
20,1,$1+$1,$8,$9,$2,$3,0*%
%AMFreePoly0*
4,1,11,0.876300,1.244596,0.241300,0.660396,0.241300,-0.660396,-0.241299,-0.660396,-0.241299,0.203196,-0.241300,0.203196,-0.241300,0.660396,-0.876300,1.244596,-0.876300,4.013196,0.876300,4.013196,0.876300,1.244596,0.876300,1.244596,$1*%
G04 Aperture macros list end*
%TA.AperFunction,SMDPad,CuDef*%
%ADD10R,0.900000X1.000000*%
%TD*%
%TA.AperFunction,SMDPad,CuDef*%
%ADD11R,1.700000X0.550000*%
%TD*%
%TA.AperFunction,SMDPad,CuDef*%
%ADD12RoundRect,0.200000X-0.200000X-0.300000X0.200000X-0.300000X0.200000X0.300000X-0.200000X0.300000X0*%
%TD*%
%TA.AperFunction,SMDPad,CuDef*%
%ADD13RoundRect,0.200000X0.200000X0.300000X-0.200000X0.300000X-0.200000X-0.300000X0.200000X-0.300000X0*%
%TD*%
%TA.AperFunction,SMDPad,CuDef*%
%ADD14RoundRect,0.200000X-0.300000X0.200000X-0.300000X-0.200000X0.300000X-0.200000X0.300000X0.200000X0*%
%TD*%
%TA.AperFunction,SMDPad,CuDef*%
%ADD15RoundRect,0.200000X0.300000X-0.200000X0.300000X0.200000X-0.300000X0.200000X-0.300000X-0.200000X0*%
%TD*%
%TA.AperFunction,SMDPad,CuDef*%
%ADD16RoundRect,0.217391X-0.282609X-0.682609X0.282609X-0.682609X0.282609X0.682609X-0.282609X0.682609X0*%
%TD*%
%TA.AperFunction,SMDPad,CuDef*%
%ADD17R,1.600000X1.400000*%
%TD*%
%TA.AperFunction,SMDPad,CuDef*%
%ADD18RoundRect,0.150000X-0.512500X-0.150000X0.512500X-0.150000X0.512500X0.150000X-0.512500X0.150000X0*%
%TD*%
%TA.AperFunction,SMDPad,CuDef*%
%ADD19R,0.950000X0.600000*%
%TD*%
%TA.AperFunction,SMDPad,CuDef*%
%ADD20R,1.150000X0.600000*%
%TD*%
%TA.AperFunction,SMDPad,CuDef*%
%ADD21R,1.150000X0.300000*%
%TD*%
%TA.AperFunction,ComponentPad*%
%ADD22O,2.100000X1.000000*%
%TD*%
%TA.AperFunction,ComponentPad*%
%ADD23O,1.800000X1.000000*%
%TD*%
%TA.AperFunction,SMDPad,CuDef*%
%ADD24R,0.431800X1.016000*%
%TD*%
%TA.AperFunction,SMDPad,CuDef*%
%ADD25FreePoly0,0.000000*%
%TD*%
%TA.AperFunction,SMDPad,CuDef*%
%ADD26R,0.863600X0.762000*%
%TD*%
%TA.AperFunction,SMDPad,CuDef*%
%ADD27R,1.397000X0.889000*%
%TD*%
%TA.AperFunction,SMDPad,CuDef*%
%ADD28R,2.790000X0.740000*%
%TD*%
%TA.AperFunction,SMDPad,CuDef*%
%ADD29RoundRect,0.125000X0.125000X0.175000X-0.125000X0.175000X-0.125000X-0.175000X0.125000X-0.175000X0*%
%TD*%
%TA.AperFunction,SMDPad,CuDef*%
%ADD30R,0.300000X1.475000*%
%TD*%
%TA.AperFunction,SMDPad,CuDef*%
%ADD31R,1.475000X0.300000*%
%TD*%
%TA.AperFunction,SMDPad,CuDef*%
%ADD32R,0.300000X0.630000*%
%TD*%
%TA.AperFunction,SMDPad,CuDef*%
%ADD33R,1.300000X0.450000*%
%TD*%
%TA.AperFunction,ComponentPad*%
%ADD34R,1.700000X1.700000*%
%TD*%
%TA.AperFunction,ComponentPad*%
%ADD35O,1.700000X1.700000*%
%TD*%
%TA.AperFunction,ViaPad*%
%ADD36C,0.400000*%
%TD*%
%TA.AperFunction,ViaPad*%
%ADD37C,0.350000*%
%TD*%
%TA.AperFunction,Conductor*%
%ADD38C,0.200000*%
%TD*%
%TA.AperFunction,Conductor*%
%ADD39C,0.400000*%
%TD*%
G04 APERTURE END LIST*
D10*
%TO.P,SW101,1,1_1*%
%TO.N,GND*%
X13150000Y-9855000D03*
%TO.P,SW101,2,2_2*%
%TO.N,/~{RST}*%
X13150000Y-10015000D03*
%TO.P,SW101,3,4_3*%
%TO.N,unconnected-(SW101-4-Pad3)*%
X13560000Y-10015000D03*
%TO.P,SW101,4,3_4*%
%TO.N,GND*%
X13560000Y-9855000D03*
D11*
%TO.P,SW101,5,SH_5*%
X13355000Y-9792500D03*
%TD*%
D12*
%TO.P,D103,1,A_1*%
%TO.N,Net-(D103-A)*%
X16747500Y-9910000D03*
%TO.P,D103,2,K_2*%
%TO.N,GND*%
X16587500Y-9910000D03*
%TD*%
D13*
%TO.P,R103,1*%
%TO.N,Net-(J101-DP1)*%
X15566200Y-9843000D03*
%TO.P,R103,2*%
%TO.N,/USB0_DP*%
X15406200Y-9843000D03*
%TD*%
D12*
%TO.P,C107,1*%
%TO.N,Net-(IC101-VDD_ANA{slash}VREFH)*%
X15650000Y-10695000D03*
%TO.P,C107,2*%
%TO.N,GND*%
X15810000Y-10695000D03*
%TD*%
D14*
%TO.P,R113,1*%
%TO.N,+3V3*%
X16296200Y-10093000D03*
%TO.P,R113,2*%
%TO.N,Net-(IC101-P3_29{slash}~{ISPMODE})*%
X16296200Y-10253000D03*
%TD*%
D10*
%TO.P,SW102,1,1_1*%
%TO.N,GND*%
X16730000Y-10280000D03*
%TO.P,SW102,2,2_2*%
%TO.N,Net-(IC101-P3_29{slash}~{ISPMODE})*%
X16730000Y-10440000D03*
%TO.P,SW102,3,4_3*%
%TO.N,unconnected-(SW102-4-Pad3)*%
X17140000Y-10440000D03*
%TO.P,SW102,4,3_4*%
%TO.N,GND*%
X17140000Y-10280000D03*
D11*
%TO.P,SW102,5,SH_5*%
X16935000Y-10217500D03*
%TD*%
D15*
%TO.P,C112,1*%
%TO.N,Net-(IC101-P3_29{slash}~{ISPMODE})*%
X16156200Y-10253000D03*
%TO.P,C112,2*%
%TO.N,GND*%
X16156200Y-10093000D03*
%TD*%
D13*
%TO.P,R107,1*%
%TO.N,+3V3*%
X13245000Y-10590000D03*
%TO.P,R107,2*%
%TO.N,/~{RST}*%
X13085000Y-10590000D03*
%TD*%
%TO.P,D104,1,A_1*%
%TO.N,Net-(D104-A)*%
X13645000Y-10680000D03*
%TO.P,D104,2,K_2*%
%TO.N,Net-(D104-K)*%
X13805000Y-10680000D03*
%TD*%
%TO.P,L102,1*%
%TO.N,SHELL_GND*%
X17406200Y-9443000D03*
%TO.P,L102,2*%
%TO.N,GND*%
X17246200Y-9443000D03*
%TD*%
%TO.P,R101,1*%
%TO.N,Net-(J101-CC2)*%
X17721160Y-9443000D03*
%TO.P,R101,2*%
%TO.N,GND*%
X17561160Y-9443000D03*
%TD*%
D14*
%TO.P,R106,1*%
%TO.N,Net-(IC101-P2_12{slash}VBUS_DET)*%
X15755000Y-10070000D03*
%TO.P,R106,2*%
%TO.N,GND*%
X15755000Y-10230000D03*
%TD*%
D13*
%TO.P,R109,1*%
%TO.N,+3V3*%
X13615000Y-9370000D03*
%TO.P,R109,2*%
%TO.N,/SWDIO{slash}TMS*%
X13455000Y-9370000D03*
%TD*%
D14*
%TO.P,C103,1*%
%TO.N,+3V3*%
X13885000Y-9405000D03*
%TO.P,C103,2*%
%TO.N,GND*%
X13885000Y-9565000D03*
%TD*%
D13*
%TO.P,C111,1*%
%TO.N,+3V3*%
X12461200Y-10470000D03*
%TO.P,C111,2*%
%TO.N,GND*%
X12301200Y-10470000D03*
%TD*%
D16*
%TO.P,C113,1*%
%TO.N,+3V3*%
X12625000Y-10655000D03*
%TO.P,C113,2*%
%TO.N,GND*%
X12925000Y-10655000D03*
%TD*%
D13*
%TO.P,C106,1*%
%TO.N,Net-(IC101-VDD_ANA{slash}VREFH)*%
X15500000Y-10695000D03*
%TO.P,C106,2*%
%TO.N,GND*%
X15340000Y-10695000D03*
%TD*%
D12*
%TO.P,C101,1*%
%TO.N,+3V3*%
X15680000Y-10555000D03*
%TO.P,C101,2*%
%TO.N,GND*%
X15840000Y-10555000D03*
%TD*%
D14*
%TO.P,C1,1*%
%TO.N,+3V3*%
X15686200Y-9423000D03*
%TO.P,C1,2*%
%TO.N,GND*%
X15686200Y-9583000D03*
%TD*%
D15*
%TO.P,R105,1*%
%TO.N,+5V_VBUS*%
X15900000Y-10175000D03*
%TO.P,R105,2*%
%TO.N,Net-(IC101-P2_12{slash}VBUS_DET)*%
X15900000Y-10015000D03*
%TD*%
D13*
%TO.P,C104,1*%
%TO.N,+3V3*%
X13666200Y-10213000D03*
%TO.P,C104,2*%
%TO.N,GND*%
X13506200Y-10213000D03*
%TD*%
%TO.P,C109,1*%
%TO.N,+5V_VBUS*%
X16997500Y-9575000D03*
%TO.P,C109,2*%
%TO.N,GND*%
X16837500Y-9575000D03*
%TD*%
D17*
%TO.P,Y101,1,Crystal_1_1*%
%TO.N,Net-(IC101-P1_30{slash}XTAL48M)*%
X16520000Y-10420000D03*
%TO.P,Y101,2,GND_2*%
%TO.N,GND*%
X16100000Y-10420000D03*
%TO.P,Y101,3,Crystal_1_3*%
%TO.N,Net-(IC101-P1_31{slash}EXTAL48M)*%
X16100000Y-10660000D03*
%TO.P,Y101,4,GND_4*%
%TO.N,GND*%
X16520000Y-10660000D03*
%TD*%
D18*
%TO.P,U103,1,OUT_1*%
%TO.N,+5V*%
X16438700Y-9403000D03*
%TO.P,U103,2,GND_2*%
%TO.N,GND*%
X16438700Y-9498000D03*
%TO.P,U103,3,FAULT_3*%
%TO.N,unconnected-(U103-FAULT-Pad3)*%
X16438700Y-9593000D03*
%TO.P,U103,4,~{EN}_4*%
%TO.N,GND*%
X16666200Y-9593000D03*
%TO.P,U103,5,IN_5*%
%TO.N,Net-(U103-IN)*%
X16666200Y-9403000D03*
%TD*%
D19*
%TO.P,U104,1,I/O_1*%
%TO.N,/SWO{slash}TDO*%
X13198700Y-9570000D03*
%TO.P,U104,2,Vn_2*%
%TO.N,GND*%
X13198700Y-9477500D03*
%TO.P,U104,3,I/O_3*%
%TO.N,/TDI*%
X13198700Y-9380000D03*
%TO.P,U104,4,I/O_4*%
%TO.N,/~{RST}*%
X12973700Y-9380000D03*
%TO.P,U104,5,Vp_5*%
%TO.N,+3V3*%
X12973700Y-9475000D03*
%TO.P,U104,6,I/O_6*%
%TO.N,unconnected-(U104-I{slash}O-Pad6)*%
X12973700Y-9570000D03*
%TD*%
D20*
%TO.P,J101,A1_B12,GND_A1_B12*%
%TO.N,GND*%
X17380700Y-10353000D03*
%TO.P,J101,A4_B9,VBUS_A4_B9*%
%TO.N,VBUS*%
X17380700Y-10273000D03*
D21*
%TO.P,J101,A5,CC1_A5*%
%TO.N,Net-(J101-CC1)*%
X17380700Y-10158000D03*
%TO.P,J101,A6,DP1_A6*%
%TO.N,Net-(J101-DP1)*%
X17380700Y-10058000D03*
%TO.P,J101,A7,DN1_A7*%
%TO.N,Net-(J101-DN1)*%
X17380700Y-10008000D03*
%TO.P,J101,A8,SBU1_A8*%
%TO.N,unconnected-(J101-SBU1-PadA8)*%
X17380700Y-9908000D03*
D20*
%TO.P,J101,B1_A12,GND_B1_A12*%
%TO.N,GND*%
X17380700Y-9713000D03*
%TO.P,J101,B4_A9,VBUS_B4_A9*%
%TO.N,VBUS*%
X17380700Y-9793000D03*
D21*
%TO.P,J101,B5,CC2_B5*%
%TO.N,Net-(J101-CC2)*%
X17380700Y-9858000D03*
%TO.P,J101,B6,DP2_B6*%
%TO.N,Net-(J101-DP1)*%
X17380700Y-9958000D03*
%TO.P,J101,B7,DN2_B7*%
%TO.N,Net-(J101-DN1)*%
X17380700Y-10108000D03*
%TO.P,J101,B8,SBU2_B8*%
%TO.N,unconnected-(J101-SBU2-PadB8)*%
X17380700Y-10208000D03*
D22*
%TO.P,J101,SH1,SHELL_GND_SH1*%
%TO.N,SHELL_GND*%
X17438200Y-10465000D03*
%TO.P,J101,SH2,SHELL_GND_SH2*%
X17438200Y-9601000D03*
D23*
%TO.P,J101,SH3,SHELL_GND_SH3*%
X17856200Y-10465000D03*
%TO.P,J101,SH4,SHELL_GND_SH4*%
X17856200Y-9601000D03*
%TD*%
D12*
%TO.P,C110,1*%
%TO.N,Net-(IC101-P1_29{slash}nReset)*%
X13430000Y-10495000D03*
%TO.P,C110,2*%
%TO.N,GND*%
X13590000Y-10495000D03*
%TD*%
D13*
%TO.P,C105,1*%
%TO.N,+3V3*%
X13666200Y-10353000D03*
%TO.P,C105,2*%
%TO.N,GND*%
X13506200Y-10353000D03*
%TD*%
%TO.P,R102,1*%
%TO.N,Net-(J101-CC1)*%
X17656800Y-10632440D03*
%TO.P,R102,2*%
%TO.N,GND*%
X17496800Y-10632440D03*
%TD*%
D14*
%TO.P,R112,1*%
%TO.N,/SWDCLK{slash}TCK*%
X13745000Y-9405000D03*
%TO.P,R112,2*%
%TO.N,GND*%
X13745000Y-9565000D03*
%TD*%
D13*
%TO.P,L103,1*%
%TO.N,VBUS*%
X16920200Y-9753600D03*
%TO.P,L103,2*%
%TO.N,+5V_VBUS*%
X16760200Y-9753600D03*
%TD*%
D12*
%TO.P,R115,1*%
%TO.N,+3V3*%
X13365000Y-10680000D03*
%TO.P,R115,2*%
%TO.N,Net-(D104-A)*%
X13525000Y-10680000D03*
%TD*%
%TO.P,C108,1*%
%TO.N,+3V3*%
X15286200Y-10123000D03*
%TO.P,C108,2*%
%TO.N,GND*%
X15446200Y-10123000D03*
%TD*%
%TO.P,R114,1*%
%TO.N,+3V3*%
X16586200Y-10063000D03*
%TO.P,R114,2*%
%TO.N,Net-(D103-A)*%
X16746200Y-10063000D03*
%TD*%
%TO.P,C2,1*%
%TO.N,+5V*%
X16406200Y-9763000D03*
%TO.P,C2,2*%
%TO.N,GND*%
X16566200Y-9763000D03*
%TD*%
D24*
%TO.P,U102,1,CE_1*%
%TO.N,+5V*%
X15874720Y-9735260D03*
D25*
%TO.P,U102,2,VSS_2*%
%TO.N,GND*%
X16024720Y-9720020D03*
D24*
%TO.P,U102,3,NC_3*%
%TO.N,unconnected-(U102-NC-Pad3)*%
X16174720Y-9735260D03*
%TO.P,U102,4,VIN_4*%
%TO.N,+5V*%
X16174720Y-9384740D03*
%TO.P,U102,5,VOUT_5*%
%TO.N,+3V3*%
X15874720Y-9384740D03*
%TD*%
D15*
%TO.P,R110,1*%
%TO.N,+3V3*%
X13736200Y-10083000D03*
%TO.P,R110,2*%
%TO.N,/TDI*%
X13736200Y-9923000D03*
%TD*%
D26*
%TO.P,D102,1,K_1*%
%TO.N,Net-(IC101-P1_29{slash}nReset)*%
X13309100Y-10420000D03*
D27*
%TO.P,D102,2,K_2*%
%TO.N,/~{RST}*%
X13132570Y-10420000D03*
%TD*%
D28*
%TO.P,J102,1*%
%TO.N,/JTAG_VREF*%
X12815700Y-10276500D03*
%TO.P,J102,2*%
%TO.N,/SWDIO{slash}TMS*%
X12409300Y-10276500D03*
%TO.P,J102,3*%
%TO.N,GND*%
X12815700Y-10149500D03*
%TO.P,J102,4*%
%TO.N,/SWDCLK{slash}TCK*%
X12409300Y-10149500D03*
%TO.P,J102,5*%
%TO.N,GND*%
X12815700Y-10022500D03*
%TO.P,J102,6*%
%TO.N,/SWO{slash}TDO*%
X12409300Y-10022500D03*
%TO.P,J102,7*%
%TO.N,unconnected-(J102-Pad7)*%
X12815700Y-9895500D03*
%TO.P,J102,8*%
%TO.N,/TDI*%
X12409300Y-9895500D03*
%TO.P,J102,9*%
%TO.N,GND*%
X12815700Y-9768500D03*
%TO.P,J102,10*%
%TO.N,/~{RST}*%
X12409300Y-9768500D03*
%TD*%
D29*
%TO.P,L101,1*%
%TO.N,+3V3*%
X15575000Y-10575000D03*
%TO.P,L101,2*%
%TO.N,Net-(IC101-VDD_ANA{slash}VREFH)*%
X15475000Y-10575000D03*
%TD*%
D13*
%TO.P,R104,1*%
%TO.N,Net-(J101-DN1)*%
X15566200Y-9983000D03*
%TO.P,R104,2*%
%TO.N,/USB0_DM*%
X15406200Y-9983000D03*
%TD*%
D12*
%TO.P,C102,1*%
%TO.N,+3V3*%
X15326200Y-9663000D03*
%TO.P,C102,2*%
%TO.N,GND*%
X15486200Y-9663000D03*
%TD*%
D26*
%TO.P,D101,1,K_1*%
%TO.N,+5V_VBUS*%
X17066600Y-9405000D03*
D27*
%TO.P,D101,2,K_2*%
%TO.N,Net-(U103-IN)*%
X16890070Y-9405000D03*
%TD*%
D30*
%TO.P,IC101,1,P1_7_1*%
%TO.N,/CAN_RXD*%
X14128400Y-10606800D03*
%TO.P,IC101,2,P1_8_2*%
%TO.N,/P1_8*%
X14178400Y-10606800D03*
%TO.P,IC101,3,P1_9_3*%
%TO.N,/P1_9*%
X14228400Y-10606800D03*
%TO.P,IC101,4,P1_10_4*%
%TO.N,Net-(D104-K)*%
X14278400Y-10606800D03*
%TO.P,IC101,5,P1_11_5*%
%TO.N,/I3C_PUR*%
X14328400Y-10606800D03*
%TO.P,IC101,6,P1_12_6*%
%TO.N,/P1_12*%
X14378400Y-10606800D03*
%TO.P,IC101,7,P1_13_7*%
%TO.N,/P1_13*%
X14428400Y-10606800D03*
%TO.P,IC101,8,P1_29/nReset_8*%
%TO.N,Net-(IC101-P1_29{slash}nReset)*%
X14478400Y-10606800D03*
%TO.P,IC101,9,P1_30/XTAL48M_9*%
%TO.N,Net-(IC101-P1_30{slash}XTAL48M)*%
X14528400Y-10606800D03*
%TO.P,IC101,10,P1_31/EXTAL48M_10*%
%TO.N,Net-(IC101-P1_31{slash}EXTAL48M)*%
X14578400Y-10606800D03*
%TO.P,IC101,11,VSS_1_11*%
%TO.N,GND*%
X14628400Y-10606800D03*
%TO.P,IC101,12,VDD_ANA/VREFH_12*%
%TO.N,Net-(IC101-VDD_ANA{slash}VREFH)*%
X14678400Y-10606800D03*
%TO.P,IC101,13,VDD_1_13*%
%TO.N,+3V3*%
X14728400Y-10606800D03*
%TO.P,IC101,14,P2_0_14*%
%TO.N,/P2_0*%
X14778400Y-10606800D03*
%TO.P,IC101,15,P2_1_15*%
%TO.N,/P2_1*%
X14828400Y-10606800D03*
%TO.P,IC101,16,P2_2_16*%
%TO.N,/P2_2*%
X14878400Y-10606800D03*
D31*
%TO.P,IC101,17,P2_3_17*%
%TO.N,/P2_3*%
X15077200Y-10408000D03*
%TO.P,IC101,18,P2_4_18*%
%TO.N,/EEPROM_HOLD*%
X15077200Y-10358000D03*
%TO.P,IC101,19,P2_5_19*%
%TO.N,/CAN_STBY*%
X15077200Y-10308000D03*
%TO.P,IC101,20,P2_6_20*%
%TO.N,/P2_6*%
X15077200Y-10258000D03*
%TO.P,IC101,21,P2_7_21*%
%TO.N,/P2_7*%
X15077200Y-10208000D03*
%TO.P,IC101,22,P2_12/VBUS_DET_22*%
%TO.N,Net-(IC101-P2_12{slash}VBUS_DET)*%
X15077200Y-10158000D03*
%TO.P,IC101,23,P2_13_23*%
%TO.N,/P2_13*%
X15077200Y-10108000D03*
%TO.P,IC101,24,P2_15_24*%
%TO.N,/P2_15*%
X15077200Y-10058000D03*
%TO.P,IC101,25,VDD_USB_25*%
%TO.N,+3V3*%
X15077200Y-10008000D03*
%TO.P,IC101,26,USB0_DM_26*%
%TO.N,/USB0_DM*%
X15077200Y-9958000D03*
%TO.P,IC101,27,USB0_DP_27*%
%TO.N,/USB0_DP*%
X15077200Y-9908000D03*
%TO.P,IC101,28,VSS_2_28*%
%TO.N,GND*%
X15077200Y-9858000D03*
%TO.P,IC101,29,VDD_2_29*%
%TO.N,+3V3*%
X15077200Y-9808000D03*
%TO.P,IC101,30,P3_31_30*%
%TO.N,/P3_31*%
X15077200Y-9758000D03*
%TO.P,IC101,31,P3_30_31*%
%TO.N,/P3_30*%
X15077200Y-9708000D03*
%TO.P,IC101,32,P3_29/~{ISPMODE}_32*%
%TO.N,Net-(IC101-P3_29{slash}~{ISPMODE})*%
X15077200Y-9658000D03*
D30*
%TO.P,IC101,33,P3_28_33*%
%TO.N,/P3_28*%
X14878400Y-9459200D03*
%TO.P,IC101,34,P3_27_34*%
%TO.N,/P3_27*%
X14828400Y-9459200D03*
%TO.P,IC101,35,P3_15_35*%
%TO.N,/P3_15*%
X14778400Y-9459200D03*
%TO.P,IC101,36,P3_14_36*%
%TO.N,/P3_14*%
X14728400Y-9459200D03*
%TO.P,IC101,37,P3_13_37*%
%TO.N,/P3_13*%
X14678400Y-9459200D03*
%TO.P,IC101,38,P3_12_38*%
%TO.N,/SD_SW*%
X14628400Y-9459200D03*
%TO.P,IC101,39,P3_11_39*%
%TO.N,/SPI1_CS0*%
X14578400Y-9459200D03*
%TO.P,IC101,40,P3_10_40*%
%TO.N,/SPI1_SCK*%
X14528400Y-9459200D03*
%TO.P,IC101,41,P3_9_41*%
%TO.N,/SPI1_MISO*%
X14478400Y-9459200D03*
%TO.P,IC101,42,P3_8_42*%
%TO.N,/SPI1_MOSI*%
X14428400Y-9459200D03*
%TO.P,IC101,43,P3_7_43*%
%TO.N,/SPI1_CS2*%
X14378400Y-9459200D03*
%TO.P,IC101,44,P3_6_44*%
%TO.N,/P3_6*%
X14328400Y-9459200D03*
%TO.P,IC101,45,P3_1_45*%
%TO.N,/P3_1*%
X14278400Y-9459200D03*
%TO.P,IC101,46,P3_0_46*%
%TO.N,/P3_0*%
X14228400Y-9459200D03*
%TO.P,IC101,47,VSS_3_47*%
%TO.N,GND*%
X14178400Y-9459200D03*
%TO.P,IC101,48,VDD_3_48*%
%TO.N,+3V3*%
X14128400Y-9459200D03*
D31*
%TO.P,IC101,49,P0_0/SWDIO/TMS_49*%
%TO.N,/SWDIO{slash}TMS*%
X13929600Y-9658000D03*
%TO.P,IC101,50,P0_1/SWDCLK/TCK_50*%
%TO.N,/SWDCLK{slash}TCK*%
X13929600Y-9708000D03*
%TO.P,IC101,51,P0_2/SWO/TDO_51*%
%TO.N,/SWO{slash}TDO*%
X13929600Y-9758000D03*
%TO.P,IC101,52,P0_3/TDI_52*%
%TO.N,/TDI*%
X13929600Y-9808000D03*
%TO.P,IC101,53,P0_6_53*%
%TO.N,/I2C0_HREQ*%
X13929600Y-9858000D03*
%TO.P,IC101,54,P0_16_54*%
%TO.N,/I2C0_SDA{slash}I3C_SDA*%
X13929600Y-9908000D03*
%TO.P,IC101,55,P0_17_55*%
%TO.N,/I2C0_SCL{slash}I3C_SCL*%
X13929600Y-9958000D03*
%TO.P,IC101,56,P1_0_56*%
%TO.N,/P1_0*%
X13929600Y-10008000D03*
%TO.P,IC101,57,P1_1_57*%
%TO.N,/P1_1*%
X13929600Y-10058000D03*
%TO.P,IC101,58,P1_2_58*%
%TO.N,/P1_2*%
X13929600Y-10108000D03*
%TO.P,IC101,59,P1_3_59*%
%TO.N,/P1_3*%
X13929600Y-10158000D03*
%TO.P,IC101,60,VDD_4_60*%
%TO.N,+3V3*%
X13929600Y-10208000D03*
%TO.P,IC101,61,VSS_4_61*%
%TO.N,GND*%
X13929600Y-10258000D03*
%TO.P,IC101,62,P1_4_62*%
%TO.N,/P1_4*%
X13929600Y-10308000D03*
%TO.P,IC101,63,P1_5_63*%
%TO.N,/P1_5*%
X13929600Y-10358000D03*
%TO.P,IC101,64,P1_6_64*%
%TO.N,/CAN_TXD*%
X13929600Y-10408000D03*
%TD*%
D19*
%TO.P,U105,1,I/O_1*%
%TO.N,/SWDIO{slash}TMS*%
X12500000Y-9380000D03*
%TO.P,U105,2,Vn_2*%
%TO.N,GND*%
X12500000Y-9472500D03*
%TO.P,U105,3,I/O_3*%
%TO.N,/SWDCLK{slash}TCK*%
X12500000Y-9570000D03*
%TO.P,U105,4,I/O_4*%
%TO.N,unconnected-(U105-I{slash}O-Pad4)*%
X12725000Y-9570000D03*
%TO.P,U105,5,Vp_5*%
%TO.N,+3V3*%
X12725000Y-9475000D03*
%TO.P,U105,6,I/O_6*%
%TO.N,unconnected-(U105-I{slash}O-Pad6)*%
X12725000Y-9380000D03*
%TD*%
D32*
%TO.P,U101,1,DM_1*%
%TO.N,Net-(J101-DN1)*%
X17079987Y-9888500D03*
%TO.P,U101,2,DP_2*%
%TO.N,Net-(J101-DP1)*%
X17130000Y-9888500D03*
%TO.P,U101,3,USB_ID_3*%
%TO.N,unconnected-(U101-USB_ID-Pad3)*%
X17180013Y-9888500D03*
%TO.P,U101,4,NC_4*%
%TO.N,unconnected-(U101-NC-Pad4)*%
X17180025Y-9736510D03*
%TO.P,U101,5,NC_5*%
%TO.N,unconnected-(U101-NC-Pad5)*%
X17130013Y-9736500D03*
%TO.P,U101,6,VBUS_6*%
%TO.N,VBUS*%
X17080000Y-9736500D03*
D33*
%TO.P,U101,7,GND_7*%
%TO.N,GND*%
X17130000Y-9812500D03*
%TD*%
D12*
%TO.P,R108,1*%
%TO.N,+3V3*%
X12581200Y-10470000D03*
%TO.P,R108,2*%
%TO.N,/JTAG_VREF*%
X12741200Y-10470000D03*
%TD*%
D34*
%TO.P,J1,1*%
%TO.N,/I2C0_HREQ*%
X12522200Y-10922000D03*
D35*
%TO.P,J1,2*%
%TO.N,/I2C0_SCL{slash}I3C_SCL*%
X12776200Y-10922000D03*
%TO.P,J1,3*%
%TO.N,/I2C0_SDA{slash}I3C_SDA*%
X13030200Y-10922000D03*
%TO.P,J1,4*%
%TO.N,/I3C_PUR*%
X13284200Y-10922000D03*
%TO.P,J1,5*%
%TO.N,/P1_5*%
X13538200Y-10922000D03*
%TO.P,J1,6*%
%TO.N,/P1_4*%
X13792200Y-10922000D03*
%TO.P,J1,7*%
%TO.N,/P1_3*%
X14046200Y-10922000D03*
%TO.P,J1,8*%
%TO.N,/P1_2*%
X14300200Y-10922000D03*
%TO.P,J1,9*%
%TO.N,/P1_1*%
X14554200Y-10922000D03*
%TO.P,J1,10*%
%TO.N,/P1_0*%
X14808200Y-10922000D03*
%TO.P,J1,11*%
%TO.N,/P1_8*%
X15062200Y-10922000D03*
%TO.P,J1,12*%
%TO.N,/P1_9*%
X15316200Y-10922000D03*
%TO.P,J1,13*%
%TO.N,/P1_12*%
X15570200Y-10922000D03*
%TO.P,J1,14*%
%TO.N,/P1_13*%
X15824200Y-10922000D03*
%TO.P,J1,15*%
%TO.N,/P2_0*%
X16078200Y-10922000D03*
%TO.P,J1,16*%
%TO.N,/P2_1*%
X16332200Y-10922000D03*
%TO.P,J1,17*%
%TO.N,/P2_2*%
X16586200Y-10922000D03*
%TO.P,J1,18*%
%TO.N,/P2_3*%
X16840200Y-10922000D03*
%TO.P,J1,19*%
%TO.N,/P2_6*%
X17094200Y-10922000D03*
%TO.P,J1,20*%
%TO.N,/P2_7*%
X17348200Y-10922000D03*
%TO.P,J1,21*%
%TO.N,GND*%
X17602200Y-10922000D03*
%TD*%
D34*
%TO.P,J2,1*%
%TO.N,GND*%
X17602200Y-9144000D03*
D35*
%TO.P,J2,2*%
%TO.N,/CAN+*%
X17348200Y-9144000D03*
%TO.P,J2,3*%
%TO.N,/CAN-*%
X17094200Y-9144000D03*
%TO.P,J2,4*%
%TO.N,/P2_13*%
X16840200Y-9144000D03*
%TO.P,J2,5*%
%TO.N,/P2_15*%
X16586200Y-9144000D03*
%TO.P,J2,6*%
%TO.N,/P3_31*%
X16332200Y-9144000D03*
%TO.P,J2,7*%
%TO.N,/P3_30*%
X16078200Y-9144000D03*
%TO.P,J2,8*%
%TO.N,/P3_28*%
X15824200Y-9144000D03*
%TO.P,J2,9*%
%TO.N,/P3_27*%
X15570200Y-9144000D03*
%TO.P,J2,10*%
%TO.N,/P3_15*%
X15316200Y-9144000D03*
%TO.P,J2,11*%
%TO.N,/P3_14*%
X15062200Y-9144000D03*
%TO.P,J2,12*%
%TO.N,/P3_13*%
X14808200Y-9144000D03*
%TO.P,J2,13*%
%TO.N,/SPI1_SCK*%
X14554200Y-9144000D03*
%TO.P,J2,14*%
%TO.N,/SPI1_MISO*%
X14300200Y-9144000D03*
%TO.P,J2,15*%
%TO.N,/SPI1_MOSI*%
X14046200Y-9144000D03*
%TO.P,J2,16*%
%TO.N,/P3_6*%
X13792200Y-9144000D03*
%TO.P,J2,17*%
%TO.N,/P3_1*%
X13538200Y-9144000D03*
%TO.P,J2,18*%
%TO.N,/P3_0*%
X13284200Y-9144000D03*
%TO.P,J2,19*%
%TO.N,GND*%
X13030200Y-9144000D03*
%TO.P,J2,20*%
%TO.N,+3V3*%
X12776200Y-9144000D03*
%TO.P,J2,21*%
%TO.N,+5V*%
X12522200Y-9144000D03*
%TD*%
D36*
%TO.N,GND*%
X16501200Y-9858000D03*
X17396200Y-10623000D03*
X17236440Y-9591040D03*
X14686200Y-9953000D03*
X15665000Y-10033000D03*
X14628400Y-10483000D03*
X13040000Y-10675000D03*
X16556200Y-9658000D03*
X16096200Y-9723000D03*
X16741200Y-9493000D03*
X15937145Y-10657855D03*
X16231200Y-9908000D03*
X16576200Y-9513000D03*
X13700000Y-10518000D03*
X15486200Y-9773000D03*
X17216120Y-10353040D03*
X14066200Y-10238000D03*
X15770365Y-9849635D03*
X13391200Y-10343000D03*
X16967200Y-9880600D03*
X12300000Y-10615000D03*
X13240000Y-9846500D03*
X15408123Y-10573123D03*
X17261200Y-9338000D03*
X17551200Y-9313000D03*
X16096200Y-9798000D03*
X13101200Y-9520000D03*
X14186200Y-9633000D03*
X16850000Y-10325000D03*
X12631200Y-10248000D03*
X13356200Y-10793000D03*
X16240000Y-10490000D03*
X13460000Y-9940000D03*
X12375000Y-9500000D03*
X15357009Y-10254576D03*
X13401200Y-9532162D03*
X13020000Y-9955000D03*
%TO.N,/~{RST}*%
X12871200Y-9447500D03*
D37*
X12616200Y-9598000D03*
X13066200Y-9739000D03*
%TO.N,Net-(J101-DP1)*%
X15692120Y-9843000D03*
X17134087Y-9955804D03*
D36*
%TO.N,+3V3*%
X14351200Y-10128000D03*
X12460000Y-10610000D03*
X13281745Y-10686745D03*
X15896590Y-9488537D03*
X15301555Y-9768355D03*
X14851200Y-9933000D03*
X12478700Y-10738000D03*
X12340000Y-9360000D03*
X16441200Y-10088000D03*
X13584700Y-10293000D03*
X15396200Y-9588000D03*
X12825000Y-9370000D03*
X15366555Y-10083355D03*
X13535000Y-9365000D03*
X15562400Y-9491800D03*
X13825000Y-9485000D03*
X15760000Y-10525000D03*
D37*
%TO.N,Net-(IC101-P3_29{slash}~{ISPMODE})*%
X16006200Y-10233000D03*
X15986200Y-10103000D03*
D36*
%TO.N,+5V*%
X15681200Y-9903000D03*
X15992980Y-9831220D03*
X15826200Y-9903000D03*
D37*
%TO.N,/SWO{slash}TDO*%
X13292500Y-9589000D03*
X13392500Y-9589000D03*
D36*
%TO.N,VBUS*%
X17277080Y-10236200D03*
X17246600Y-9687560D03*
D37*
%TO.N,Net-(J101-DN1)*%
X17257956Y-10007600D03*
X15696200Y-9983000D03*
X17115682Y-10007633D03*
%TO.N,/SWDCLK{slash}TCK*%
X13760000Y-9485000D03*
X13339188Y-9390812D03*
%TO.N,/I2C0_HREQ*%
X13135000Y-10263000D03*
X13251523Y-10257677D03*
%TO.N,/I2C0_SCL{slash}I3C_SCL*%
X14042809Y-9964116D03*
%TO.N,/I2C0_SDA{slash}I3C_SDA*%
X14068700Y-9908000D03*
%TO.N,/P1_5*%
X13797200Y-10433000D03*
%TO.N,/P1_4*%
X13806200Y-10313000D03*
%TO.N,/P1_3*%
X14050000Y-10160000D03*
%TO.N,/P1_2*%
X14068700Y-10105500D03*
%TO.N,/P1_1*%
X14127688Y-10097312D03*
%TO.N,/P1_0*%
X14150000Y-10030000D03*
%TO.N,/P1_9*%
X14245000Y-10717500D03*
%TO.N,/P1_12*%
X14591200Y-10718050D03*
%TO.N,/P1_13*%
X14523975Y-10718050D03*
%TO.N,/P2_0*%
X14776200Y-10473000D03*
%TO.N,/P2_1*%
X14831200Y-10473000D03*
X15732500Y-10690000D03*
%TO.N,/P2_2*%
X14884798Y-10485342D03*
X15977500Y-10757038D03*
%TO.N,/P2_3*%
X15969787Y-10415767D03*
%TO.N,/P2_6*%
X15970000Y-10357500D03*
%TO.N,/P2_7*%
X16025000Y-10312500D03*
%TO.N,/CAN_RXD*%
X14992718Y-10588098D03*
X14075000Y-10606800D03*
X15243699Y-10582500D03*
%TO.N,/EEPROM_HOLD*%
X14933700Y-10335500D03*
%TO.N,/CAN_STBY*%
X14956200Y-10278000D03*
%TO.N,/P2_13*%
X14946200Y-10153000D03*
%TO.N,/P2_15*%
X14956200Y-10063000D03*
%TO.N,/P3_31*%
X15222612Y-9649412D03*
%TO.N,/SD_SW*%
X14627224Y-9592467D03*
%TO.N,/SPI1_CS0*%
X14576200Y-9613000D03*
%TO.N,/SPI1_SCK*%
X14566900Y-9973700D03*
%TO.N,/SPI1_MISO*%
X14476200Y-9618000D03*
X14506200Y-10053000D03*
%TO.N,/SPI1_MOSI*%
X14636200Y-10123000D03*
X14436200Y-9923000D03*
%TO.N,/SPI1_CS2*%
X14351200Y-9588000D03*
%TO.N,/P3_6*%
X14328400Y-9318400D03*
%TO.N,/P3_1*%
X14262559Y-9327443D03*
%TO.N,/CAN_TXD*%
X15320860Y-10522500D03*
X14376200Y-10388000D03*
X14956444Y-10546756D03*
%TD*%
%TO.N,GND*%
D38*
X16915000Y-10260000D02*
X16915000Y-10237500D01*
X12925000Y-10660000D02*
X12925000Y-10655000D01*
X13295000Y-9852500D02*
X13355000Y-9792500D01*
X13506200Y-10353000D02*
X13401200Y-10353000D01*
X17561160Y-9322960D02*
X17551200Y-9313000D01*
X17246200Y-9353000D02*
X17261200Y-9338000D01*
X15408123Y-10573123D02*
X15400623Y-10580623D01*
X13246000Y-9852500D02*
X13295000Y-9852500D01*
X14186200Y-9633000D02*
X14156400Y-9633000D01*
X16666200Y-9593000D02*
X16656200Y-9593000D01*
X16561200Y-9498000D02*
X16576200Y-9513000D01*
X16656200Y-9593000D02*
X16576200Y-9513000D01*
X16156200Y-10093000D02*
X16156200Y-9983000D01*
X13158500Y-9846500D02*
X13150000Y-9855000D01*
X15652351Y-10230000D02*
X15627776Y-10254576D01*
X16730000Y-10315000D02*
X16730000Y-10280000D01*
X17140000Y-10280000D02*
X16997500Y-10280000D01*
X16779000Y-9493000D02*
X16741200Y-9493000D01*
X13240000Y-9846500D02*
X13246000Y-9852500D01*
X15755000Y-10230000D02*
X15652351Y-10230000D01*
X14628400Y-10606800D02*
X14628400Y-10483000D01*
D39*
X17216160Y-10353000D02*
X17216120Y-10353040D01*
D38*
X16438700Y-9498000D02*
X16561200Y-9498000D01*
X13491200Y-10218000D02*
X13506200Y-10233000D01*
X14178400Y-9625200D02*
X14186200Y-9633000D01*
X15516200Y-9693000D02*
X15486200Y-9663000D01*
X16100000Y-10420000D02*
X16170000Y-10420000D01*
X13560000Y-9855000D02*
X13417500Y-9855000D01*
X17007600Y-9804400D02*
X17119400Y-9804400D01*
D39*
X17358400Y-9713000D02*
X17236440Y-9591040D01*
D38*
X15865000Y-10695000D02*
X15810000Y-10695000D01*
X13700000Y-10518000D02*
X13677000Y-10495000D01*
X13506200Y-10233000D02*
X13506200Y-10353000D01*
X15400623Y-10580623D02*
X15400623Y-10615623D01*
X13677000Y-10495000D02*
X13590000Y-10495000D01*
X13929600Y-10258000D02*
X14046200Y-10258000D01*
X16070920Y-9697720D02*
X16096200Y-9723000D01*
X16837500Y-9575000D02*
X16837500Y-9551500D01*
X16837500Y-9551500D02*
X16779000Y-9493000D01*
X15686200Y-9583000D02*
X15910000Y-9583000D01*
X15618000Y-9693000D02*
X15516200Y-9693000D01*
X16967200Y-9844800D02*
X17007600Y-9804400D01*
X16997500Y-10280000D02*
X16935000Y-10217500D01*
X15627776Y-10254576D02*
X15357009Y-10254576D01*
X16024720Y-9697720D02*
X16024720Y-9720020D01*
X15897855Y-10657855D02*
X15870000Y-10630000D01*
X17561160Y-9443000D02*
X17561160Y-9322960D01*
X16156200Y-9983000D02*
X16231200Y-9908000D01*
X12816200Y-9769000D02*
X12815700Y-9768500D01*
X16024720Y-9720020D02*
X16047020Y-9697720D01*
X15937145Y-10657855D02*
X15902145Y-10657855D01*
X12500000Y-9472500D02*
X12402500Y-9472500D01*
X12300000Y-10615000D02*
X12300000Y-10604200D01*
X16850000Y-10325000D02*
X16915000Y-10260000D01*
X12402500Y-9472500D02*
X12375000Y-9500000D01*
X15937145Y-10657855D02*
X15897855Y-10657855D01*
X13020000Y-9852100D02*
X12936900Y-9769000D01*
X14178400Y-9459200D02*
X14178400Y-9625200D01*
X15486200Y-9663000D02*
X15486200Y-9773000D01*
X12815700Y-10149500D02*
X12815700Y-10022500D01*
X15870000Y-10565000D02*
X15860000Y-10555000D01*
X13240000Y-9846500D02*
X13158500Y-9846500D01*
X13506200Y-10213000D02*
X13496200Y-10213000D01*
X12816200Y-10023000D02*
X12815700Y-10022500D01*
X16024720Y-9712960D02*
X16024720Y-9726520D01*
X13401200Y-10353000D02*
X13391200Y-10343000D01*
X15860000Y-10555000D02*
X15840000Y-10555000D01*
X12301200Y-10603000D02*
X12301200Y-10470000D01*
X17496800Y-10632440D02*
X17405640Y-10632440D01*
X16566200Y-9763000D02*
X16566200Y-9668000D01*
X15665000Y-10044200D02*
X15646200Y-10063000D01*
X13198700Y-9477500D02*
X13193700Y-9482500D01*
X15870000Y-10630000D02*
X15870000Y-10565000D01*
X13020000Y-9955000D02*
X13020000Y-9984200D01*
X14046200Y-10258000D02*
X14066200Y-10238000D01*
X15770365Y-9845365D02*
X15618000Y-9693000D01*
X15665000Y-10033000D02*
X15665000Y-10044200D01*
X16587500Y-9910000D02*
X16574500Y-9923000D01*
X13138700Y-9482500D02*
X13101200Y-9520000D01*
X17246200Y-9443000D02*
X17246200Y-9353000D01*
X16915000Y-10237500D02*
X16935000Y-10217500D01*
X16574500Y-9923000D02*
X16566200Y-9923000D01*
X13020000Y-9984200D02*
X12981200Y-10023000D01*
X15770365Y-9849635D02*
X15770365Y-9845365D01*
X17119400Y-9804400D02*
X17127500Y-9812500D01*
D39*
X17380700Y-10353000D02*
X17216160Y-10353000D01*
D38*
X12940000Y-10675000D02*
X12925000Y-10660000D01*
X15077200Y-9858000D02*
X14781200Y-9858000D01*
X16566200Y-9668000D02*
X16556200Y-9658000D01*
X13020000Y-9955000D02*
X13020000Y-9852100D01*
X15506200Y-10063000D02*
X15446200Y-10123000D01*
X16850000Y-10325000D02*
X16740000Y-10325000D01*
X17127500Y-9812500D02*
X17130000Y-9812500D01*
X16740000Y-10325000D02*
X16730000Y-10315000D01*
X12300000Y-10604200D02*
X12301200Y-10603000D01*
X16967200Y-9880600D02*
X16967200Y-9844800D01*
X14781200Y-9858000D02*
X14686200Y-9953000D01*
X17405640Y-10632440D02*
X17396200Y-10623000D01*
X15400623Y-10615623D02*
X15420000Y-10635000D01*
X13417500Y-9855000D02*
X13355000Y-9792500D01*
X15902145Y-10657855D02*
X15865000Y-10695000D01*
X15420000Y-10665000D02*
X15390000Y-10695000D01*
X12981200Y-10023000D02*
X12816200Y-10023000D01*
X15910000Y-9583000D02*
X16024720Y-9697720D01*
X13496200Y-10213000D02*
X13491200Y-10218000D01*
X16024720Y-9726520D02*
X16096200Y-9798000D01*
X13040000Y-10675000D02*
X12940000Y-10675000D01*
D39*
X17380700Y-9713000D02*
X17358400Y-9713000D01*
D38*
X14156400Y-9633000D02*
X14088400Y-9565000D01*
X12936900Y-9769000D02*
X12816200Y-9769000D01*
X16047020Y-9697720D02*
X16070920Y-9697720D01*
X15420000Y-10635000D02*
X15420000Y-10665000D01*
X16566200Y-9923000D02*
X16501200Y-9858000D01*
X15646200Y-10063000D02*
X15506200Y-10063000D01*
X16170000Y-10420000D02*
X16240000Y-10490000D01*
X13193700Y-9482500D02*
X13138700Y-9482500D01*
X15390000Y-10695000D02*
X15340000Y-10695000D01*
X14088400Y-9565000D02*
X13745000Y-9565000D01*
%TO.N,/~{RST}*%
X13145230Y-10310500D02*
X13132695Y-10323035D01*
X13132695Y-10415125D02*
X13132570Y-10415249D01*
X13132695Y-10323035D02*
X13132695Y-10415125D01*
X13066200Y-9739000D02*
X13066200Y-9931200D01*
X13085000Y-10590000D02*
X13085000Y-10466651D01*
X12906200Y-9378000D02*
X12973700Y-9378000D01*
X13150000Y-10015000D02*
X13191200Y-10056200D01*
X13066200Y-9931200D02*
X13150000Y-10015000D01*
X12409300Y-9768500D02*
X12409800Y-9769000D01*
X12445200Y-9769000D02*
X12616200Y-9598000D01*
X13182500Y-10273230D02*
X13182500Y-10282675D01*
X13085000Y-10466651D02*
X13131650Y-10420000D01*
X13132570Y-10415249D02*
X13132570Y-10420000D01*
X12871200Y-9447500D02*
X12871200Y-9413000D01*
X12871200Y-9413000D02*
X12906200Y-9378000D01*
X13154675Y-10310500D02*
X13145230Y-10310500D01*
X13131650Y-10420000D02*
X13132570Y-10420000D01*
X13182500Y-10282675D02*
X13154675Y-10310500D01*
X13191200Y-10056200D02*
X13191200Y-10264530D01*
X13191200Y-10264530D02*
X13182500Y-10273230D01*
X12409800Y-9769000D02*
X12445200Y-9769000D01*
%TO.N,Net-(D103-A)*%
X16746200Y-9911300D02*
X16746200Y-10063000D01*
X16747500Y-9910000D02*
X16746200Y-9911300D01*
%TO.N,Net-(J101-DP1)*%
X17131156Y-9955931D02*
X17131156Y-9892156D01*
X17360380Y-10058000D02*
X17233224Y-10058000D01*
X17134087Y-9955804D02*
X17133959Y-9955931D01*
X17233224Y-10058000D02*
X17131156Y-9955931D01*
X17360380Y-9958000D02*
X17136283Y-9958000D01*
X17133959Y-9955931D02*
X17131156Y-9955931D01*
X17136283Y-9958000D02*
X17134087Y-9955804D01*
X15566200Y-9843000D02*
X15692120Y-9843000D01*
X17131156Y-9892156D02*
X17130000Y-9891000D01*
X17130000Y-9891000D02*
X17130000Y-9888500D01*
%TO.N,/USB0_DP*%
X15398991Y-9843000D02*
X15406200Y-9843000D01*
X15077200Y-9908000D02*
X15333991Y-9908000D01*
X15333991Y-9908000D02*
X15398991Y-9843000D01*
%TO.N,Net-(IC101-VDD_ANA{slash}VREFH)*%
X15500000Y-10725000D02*
X15500000Y-10695000D01*
X15215000Y-10785000D02*
X15440000Y-10785000D01*
X15485000Y-10680000D02*
X15485000Y-10585000D01*
X15500000Y-10695000D02*
X15485000Y-10680000D01*
X14678400Y-10606800D02*
X14678400Y-10711769D01*
X14726631Y-10760000D02*
X15190000Y-10760000D01*
X14678400Y-10711769D02*
X14726631Y-10760000D01*
X15440000Y-10785000D02*
X15500000Y-10725000D01*
X15190000Y-10760000D02*
X15215000Y-10785000D01*
X15485000Y-10585000D02*
X15475000Y-10575000D01*
X15650000Y-10695000D02*
X15500000Y-10695000D01*
%TO.N,+3V3*%
X13535000Y-9365000D02*
X13610000Y-9365000D01*
X13681200Y-10208000D02*
X13929600Y-10208000D01*
D39*
X12478700Y-10738000D02*
X12562000Y-10738000D01*
X12625000Y-10675000D02*
X12625000Y-10655000D01*
D38*
X13666200Y-10213000D02*
X13676200Y-10213000D01*
X15620000Y-10555000D02*
X15600000Y-10575000D01*
X15191200Y-9808000D02*
X15077200Y-9808000D01*
D39*
X15562400Y-9491800D02*
X15631200Y-9423000D01*
D38*
X12461200Y-10483000D02*
X12461200Y-10470000D01*
X13610000Y-9365000D02*
X13615000Y-9370000D01*
X13676200Y-10213000D02*
X13681200Y-10208000D01*
D39*
X15874720Y-9451520D02*
X15874720Y-9384740D01*
X15814160Y-9423000D02*
X15852420Y-9384740D01*
D38*
X15326911Y-10123000D02*
X15366555Y-10083355D01*
X14743200Y-10720000D02*
X14728400Y-10705200D01*
X13281745Y-10684255D02*
X13285000Y-10681000D01*
D39*
X15631200Y-9423000D02*
X15686200Y-9423000D01*
D38*
X13666200Y-10353000D02*
X13666200Y-10213000D01*
X12973700Y-9475000D02*
X12973700Y-9480000D01*
X13285000Y-10681000D02*
X13285000Y-10630000D01*
X15515000Y-10515000D02*
X15395535Y-10515000D01*
X13358255Y-10686745D02*
X13365000Y-10680000D01*
X14728400Y-10705200D02*
X14728400Y-10606800D01*
X12460000Y-10610000D02*
X12460000Y-10484200D01*
X13666200Y-10353000D02*
X13644700Y-10353000D01*
X12820000Y-9375000D02*
X12825000Y-9370000D01*
X13285000Y-10630000D02*
X13245000Y-10590000D01*
X12973700Y-9480000D02*
X12946200Y-9507500D01*
X13885000Y-9405000D02*
X14074200Y-9405000D01*
X13644700Y-10353000D02*
X13584700Y-10293000D01*
X13885000Y-9425000D02*
X13825000Y-9485000D01*
D39*
X15686200Y-9423000D02*
X15814160Y-9423000D01*
D38*
X14074200Y-9405000D02*
X14128400Y-9459200D01*
X15680000Y-10555000D02*
X15730000Y-10555000D01*
X13885000Y-9405000D02*
X13885000Y-9425000D01*
X15326200Y-9658000D02*
X15396200Y-9588000D01*
D39*
X15896590Y-9488537D02*
X15896590Y-9473390D01*
D38*
X12844989Y-9507500D02*
X12820000Y-9482511D01*
D39*
X15852420Y-9384740D02*
X15874720Y-9384740D01*
D38*
X12946200Y-9507500D02*
X12844989Y-9507500D01*
X15326200Y-9673000D02*
X15191200Y-9808000D01*
D39*
X15896590Y-9473390D02*
X15874720Y-9451520D01*
D38*
X15286200Y-10123000D02*
X15171200Y-10008000D01*
X15326200Y-9663000D02*
X15326200Y-9658000D01*
X15600000Y-10575000D02*
X15575000Y-10575000D01*
X12725000Y-9475000D02*
X12752631Y-9475000D01*
X15730000Y-10555000D02*
X15760000Y-10525000D01*
X15326200Y-9663000D02*
X15326200Y-9673000D01*
X15395535Y-10515000D02*
X15190535Y-10720000D01*
X16436200Y-10093000D02*
X16441200Y-10088000D01*
X12825000Y-9402632D02*
X12825000Y-9370000D01*
X13281745Y-10686745D02*
X13281745Y-10684255D01*
X12820000Y-9482511D02*
X12820000Y-9375000D01*
X15190535Y-10720000D02*
X14743200Y-10720000D01*
X16466200Y-10063000D02*
X16441200Y-10088000D01*
X15575000Y-10575000D02*
X15515000Y-10515000D01*
X13736200Y-10143000D02*
X13666200Y-10213000D01*
X15286200Y-10123000D02*
X15326911Y-10123000D01*
X15680000Y-10555000D02*
X15620000Y-10555000D01*
X13281745Y-10686745D02*
X13358255Y-10686745D01*
X16296200Y-10093000D02*
X16436200Y-10093000D01*
X16586200Y-10063000D02*
X16466200Y-10063000D01*
X12752631Y-9475000D02*
X12825000Y-9402632D01*
X13736200Y-10083000D02*
X13736200Y-10143000D01*
X15171200Y-10008000D02*
X15077200Y-10008000D01*
D39*
X12562000Y-10738000D02*
X12625000Y-10675000D01*
D38*
X12460000Y-10484200D02*
X12461200Y-10483000D01*
X12461200Y-10470000D02*
X12581200Y-10470000D01*
%TO.N,Net-(IC101-P3_29{slash}~{ISPMODE})*%
X15601200Y-9653000D02*
X15668000Y-9653000D01*
X15197200Y-9538000D02*
X15486200Y-9538000D01*
X16296200Y-10253000D02*
X16156200Y-10253000D01*
X15486200Y-9538000D02*
X15601200Y-9653000D01*
X16026200Y-10253000D02*
X16156200Y-10253000D01*
X16299200Y-10250000D02*
X16296200Y-10253000D01*
X15668000Y-9653000D02*
X15986200Y-9971200D01*
X16555000Y-10250000D02*
X16299200Y-10250000D01*
X16006200Y-10233000D02*
X16026200Y-10253000D01*
X16730000Y-10425000D02*
X16555000Y-10250000D01*
X15986200Y-9971200D02*
X15986200Y-10103000D01*
X16730000Y-10440000D02*
X16730000Y-10425000D01*
X15077200Y-9658000D02*
X15197200Y-9538000D01*
%TO.N,Net-(D104-A)*%
X13525000Y-10680000D02*
X13645000Y-10680000D01*
%TO.N,Net-(D104-K)*%
X14278400Y-10606800D02*
X14278400Y-10513400D01*
X14278400Y-10513400D02*
X14265000Y-10500000D01*
X14100000Y-10500000D02*
X13920000Y-10680000D01*
X14265000Y-10500000D02*
X14100000Y-10500000D01*
X13920000Y-10680000D02*
X13805000Y-10680000D01*
%TO.N,SHELL_GND*%
D39*
X17438200Y-9601000D02*
X17438200Y-9590880D01*
X17406200Y-9558880D02*
X17406200Y-9443000D01*
X17438200Y-9590880D02*
X17406200Y-9558880D01*
X17856200Y-9601000D02*
X17856200Y-10465000D01*
%TO.N,Net-(J101-CC2)*%
D38*
X17595840Y-9731819D02*
X17595840Y-9568320D01*
X17469659Y-9858000D02*
X17595840Y-9731819D01*
X17380700Y-9858000D02*
X17469659Y-9858000D01*
X17595840Y-9568320D02*
X17721160Y-9443000D01*
%TO.N,Net-(IC101-P2_12{slash}VBUS_DET)*%
X15196200Y-10158000D02*
X15077200Y-10158000D01*
X15755000Y-10070000D02*
X15692000Y-10133000D01*
X15779200Y-10070000D02*
X15820000Y-10029200D01*
X15885800Y-10029200D02*
X15900000Y-10015000D01*
X15526200Y-10203000D02*
X15241200Y-10203000D01*
X15755000Y-10070000D02*
X15779200Y-10070000D01*
X15692000Y-10133000D02*
X15596200Y-10133000D01*
X15241200Y-10203000D02*
X15196200Y-10158000D01*
X15820000Y-10029200D02*
X15885800Y-10029200D01*
X15596200Y-10133000D02*
X15526200Y-10203000D01*
%TO.N,/SWDIO{slash}TMS*%
X12239800Y-10216500D02*
X12239800Y-10198300D01*
X12600000Y-9280000D02*
X12500000Y-9380000D01*
X12239800Y-10198300D02*
X12137500Y-10096000D01*
X12318500Y-10277000D02*
X12258000Y-10216500D01*
X13698000Y-9658000D02*
X13320000Y-9280000D01*
X12415000Y-9380000D02*
X12500000Y-9380000D01*
X12258000Y-10216500D02*
X12239800Y-10216500D01*
X12137500Y-9657500D02*
X12415000Y-9380000D01*
X12137500Y-10096000D02*
X12137500Y-9657500D01*
X13320000Y-9280000D02*
X12600000Y-9280000D01*
X13929600Y-9658000D02*
X13698000Y-9658000D01*
X12408800Y-10277000D02*
X12318500Y-10277000D01*
X12409300Y-10276500D02*
X12408800Y-10277000D01*
%TO.N,+5V_VBUS*%
D39*
X17066600Y-9505900D02*
X16997500Y-9575000D01*
D38*
X15910000Y-10165000D02*
X16787100Y-10165000D01*
D39*
X16760200Y-9753600D02*
X16784793Y-9753600D01*
X16874793Y-9663600D02*
X16908900Y-9663600D01*
X17066600Y-9405000D02*
X17066600Y-9505900D01*
D38*
X15900000Y-10175000D02*
X15910000Y-10165000D01*
X16842500Y-10109600D02*
X16842500Y-9835900D01*
D39*
X16784793Y-9753600D02*
X16874793Y-9663600D01*
D38*
X16842500Y-9835900D02*
X16760200Y-9753600D01*
D39*
X16908900Y-9663600D02*
X16997500Y-9575000D01*
D38*
X16787100Y-10165000D02*
X16842500Y-10109600D01*
%TO.N,Net-(IC101-P1_30{slash}XTAL48M)*%
X14973450Y-10450250D02*
X14976200Y-10453000D01*
X14973450Y-10450000D02*
X14973450Y-10450250D01*
X16520000Y-10425000D02*
X16520000Y-10420000D01*
X15899701Y-10435000D02*
X16004701Y-10540000D01*
X14528400Y-10606800D02*
X14528400Y-10415800D01*
X15260000Y-10435000D02*
X15899701Y-10435000D01*
X14976200Y-10453000D02*
X15242000Y-10453000D01*
X15242000Y-10453000D02*
X15260000Y-10435000D01*
X14973200Y-10450000D02*
X14973450Y-10450000D01*
X14528400Y-10415800D02*
X14564200Y-10380000D01*
X14564200Y-10380000D02*
X14903200Y-10380000D01*
X16405000Y-10540000D02*
X16520000Y-10425000D01*
X14903200Y-10380000D02*
X14973200Y-10450000D01*
X16004701Y-10540000D02*
X16405000Y-10540000D01*
%TO.N,Net-(IC101-P1_31{slash}EXTAL48M)*%
X15276568Y-10475000D02*
X15883132Y-10475000D01*
X14959632Y-10493000D02*
X15258568Y-10493000D01*
X16015000Y-10665000D02*
X16095000Y-10665000D01*
X16095000Y-10665000D02*
X16100000Y-10660000D01*
X15935000Y-10526868D02*
X15935000Y-10585000D01*
X15935000Y-10585000D02*
X16015000Y-10665000D01*
X15883132Y-10475000D02*
X15935000Y-10526868D01*
X14578400Y-10606800D02*
X14578400Y-10440800D01*
X14578400Y-10440800D02*
X14599200Y-10420000D01*
X15258568Y-10493000D02*
X15276568Y-10475000D01*
X14599200Y-10420000D02*
X14886631Y-10420000D01*
X14886631Y-10420000D02*
X14959632Y-10493000D01*
%TO.N,+5V*%
D39*
X16316200Y-9763000D02*
X16287240Y-9763000D01*
X16401380Y-9362440D02*
X16434900Y-9395960D01*
X16316200Y-9762720D02*
X16286480Y-9733000D01*
X15875000Y-9712680D02*
X15874720Y-9712960D01*
X16286480Y-9763760D02*
X16286480Y-9733000D01*
X15992980Y-9831220D02*
X16039760Y-9878000D01*
X16174720Y-9384740D02*
X16197020Y-9362440D01*
X16197020Y-9362440D02*
X16401380Y-9362440D01*
X15874720Y-9712960D02*
X15874720Y-9735260D01*
X16287240Y-9763000D02*
X16286480Y-9763760D01*
X16172240Y-9878000D02*
X16286480Y-9763760D01*
X16286480Y-9469120D02*
X16286480Y-9733000D01*
D38*
X15826200Y-9903000D02*
X15681200Y-9903000D01*
D39*
X16406200Y-9763000D02*
X16316200Y-9763000D01*
X15874720Y-9735260D02*
X15970680Y-9831220D01*
X15970680Y-9831220D02*
X15992980Y-9831220D01*
X16359640Y-9395960D02*
X16286480Y-9469120D01*
X16039760Y-9878000D02*
X16172240Y-9878000D01*
X16316200Y-9763000D02*
X16316200Y-9762720D01*
X16434900Y-9395960D02*
X16359640Y-9395960D01*
%TO.N,Net-(U103-IN)*%
X16888070Y-9403000D02*
X16890070Y-9405000D01*
X16666200Y-9403000D02*
X16888070Y-9403000D01*
%TO.N,/SWO{slash}TDO*%
D38*
X12409800Y-10023000D02*
X12583000Y-10023000D01*
X13559069Y-9660000D02*
X13657069Y-9758000D01*
X13041568Y-9690000D02*
X13156568Y-9575000D01*
X12655769Y-9690000D02*
X13041568Y-9690000D01*
X13193700Y-9575000D02*
X13198700Y-9570000D01*
X13465000Y-9660000D02*
X13559069Y-9660000D01*
X12583000Y-10023000D02*
X12625000Y-9981000D01*
X12625000Y-9981000D02*
X12625000Y-9720769D01*
X13394000Y-9589000D02*
X13465000Y-9660000D01*
X12625000Y-9720769D02*
X12655769Y-9690000D01*
X13280000Y-9575000D02*
X13203700Y-9575000D01*
X12409300Y-10022500D02*
X12409800Y-10023000D01*
X13657069Y-9758000D02*
X13929600Y-9758000D01*
X13203700Y-9575000D02*
X13198700Y-9570000D01*
X13156568Y-9575000D02*
X13193700Y-9575000D01*
X13392500Y-9589000D02*
X13394000Y-9589000D01*
X13292500Y-9589000D02*
X13292500Y-9587500D01*
X13292500Y-9587500D02*
X13280000Y-9575000D01*
%TO.N,/TDI*%
X12537500Y-9896000D02*
X12409800Y-9896000D01*
X13345000Y-9650000D02*
X13345000Y-9463800D01*
X13051200Y-9623800D02*
X13037000Y-9638000D01*
X13741200Y-9893000D02*
X13741200Y-9808000D01*
X13133700Y-9380500D02*
X13198700Y-9380500D01*
X12585000Y-9848500D02*
X12537500Y-9896000D01*
X13741200Y-9808000D02*
X13650500Y-9808000D01*
X13266200Y-9385000D02*
X13203700Y-9385000D01*
X13092100Y-9422100D02*
X13051200Y-9463000D01*
X13203700Y-9385000D02*
X13198700Y-9380000D01*
X13051200Y-9463000D02*
X13051200Y-9623800D01*
X13736200Y-9923000D02*
X13726200Y-9913000D01*
X13741200Y-9808000D02*
X13929600Y-9808000D01*
X13650500Y-9808000D02*
X13542500Y-9700000D01*
X12585000Y-9704200D02*
X12585000Y-9848500D01*
X13092100Y-9422100D02*
X13133700Y-9380500D01*
X13037000Y-9638000D02*
X12651200Y-9638000D01*
X12409800Y-9896000D02*
X12409300Y-9895500D01*
X13542500Y-9700000D02*
X13395000Y-9700000D01*
X13726200Y-9908000D02*
X13741200Y-9893000D01*
X12651200Y-9638000D02*
X12585000Y-9704200D01*
X13726200Y-9913000D02*
X13726200Y-9908000D01*
X13395000Y-9700000D02*
X13345000Y-9650000D01*
X13345000Y-9463800D02*
X13266200Y-9385000D01*
%TO.N,VBUS*%
D39*
X17312640Y-10271760D02*
X17277080Y-10236200D01*
X17358360Y-10271760D02*
X17312640Y-10271760D01*
X17224040Y-9665000D02*
X17008800Y-9665000D01*
X17006300Y-9667500D02*
X17008500Y-9667500D01*
X17380700Y-10273000D02*
X17359600Y-10273000D01*
X17359600Y-10273000D02*
X17358360Y-10271760D01*
X17380700Y-9793000D02*
X17272880Y-9793000D01*
X17272880Y-9793000D02*
X17246600Y-9766720D01*
X17008800Y-9665000D02*
X17006300Y-9667500D01*
X17008500Y-9667500D02*
X17075013Y-9734013D01*
X17006300Y-9667500D02*
X16920200Y-9753600D01*
X17246600Y-9687560D02*
X17224040Y-9665000D01*
X17075013Y-9734013D02*
X17075013Y-9739000D01*
X17246600Y-9766720D02*
X17246600Y-9687560D01*
%TO.N,Net-(J101-CC1)*%
D38*
X17656800Y-10351600D02*
X17656800Y-10632440D01*
X17463200Y-10158000D02*
X17656800Y-10351600D01*
X17380700Y-10158000D02*
X17463200Y-10158000D01*
%TO.N,Net-(J101-DN1)*%
X17360380Y-10108000D02*
X17216306Y-10108000D01*
X17278676Y-10008000D02*
X17278276Y-10007600D01*
X17081143Y-9892156D02*
X17079987Y-9891000D01*
X17216306Y-10108000D02*
X17081143Y-9972837D01*
X17081143Y-9972837D02*
X17081143Y-9892156D01*
X17079987Y-9891000D02*
X17079987Y-9888500D01*
X17380700Y-10008000D02*
X17278676Y-10008000D01*
X15566200Y-9983000D02*
X15696200Y-9983000D01*
%TO.N,Net-(IC101-P1_29{slash}nReset)*%
X13510000Y-10575000D02*
X13725000Y-10575000D01*
X14355489Y-10453000D02*
X14411150Y-10453000D01*
X14478400Y-10535200D02*
X14478400Y-10606800D01*
X13309100Y-10420000D02*
X13314100Y-10420000D01*
X14473400Y-10515250D02*
X14473400Y-10530200D01*
X14411150Y-10453000D02*
X14473400Y-10515250D01*
X14029500Y-10453000D02*
X14119500Y-10363000D01*
X13314100Y-10420000D02*
X13315144Y-10418956D01*
X13725000Y-10575000D02*
X13847000Y-10453000D01*
X14265489Y-10363000D02*
X14355489Y-10453000D01*
X13353956Y-10418956D02*
X13510000Y-10575000D01*
X13847000Y-10453000D02*
X14029500Y-10453000D01*
X14119500Y-10363000D02*
X14265489Y-10363000D01*
X14473400Y-10530200D02*
X14478400Y-10535200D01*
X13315144Y-10418956D02*
X13353956Y-10418956D01*
%TO.N,/SWDCLK{slash}TCK*%
X13760000Y-9420000D02*
X13745000Y-9405000D01*
X12615000Y-9360000D02*
X12615000Y-9490000D01*
X12212500Y-10067500D02*
X12212500Y-9720000D01*
X12409300Y-10149500D02*
X12408800Y-10150000D01*
X13663637Y-9708000D02*
X13575637Y-9620000D01*
X12295000Y-10150000D02*
X12212500Y-10067500D01*
X13575000Y-9620000D02*
X13275000Y-9320000D01*
X13275000Y-9320000D02*
X12655000Y-9320000D01*
X12615000Y-9490000D02*
X12535000Y-9570000D01*
X13760000Y-9485000D02*
X13760000Y-9420000D01*
X12362500Y-9570000D02*
X12500000Y-9570000D01*
X12408800Y-10150000D02*
X12295000Y-10150000D01*
X12212500Y-9720000D02*
X12362500Y-9570000D01*
X13575637Y-9620000D02*
X13575000Y-9620000D01*
X12655000Y-9320000D02*
X12615000Y-9360000D01*
X13929600Y-9708000D02*
X13663637Y-9708000D01*
X12535000Y-9570000D02*
X12500000Y-9570000D01*
%TO.N,/I2C0_HREQ*%
X13135000Y-10263000D02*
X13127000Y-10263000D01*
X13667500Y-10030435D02*
X13667500Y-10030000D01*
X13694500Y-10003000D02*
X13777465Y-10003000D01*
X12522200Y-10922000D02*
X12522200Y-10967800D01*
X13127000Y-10263000D02*
X12765000Y-10625000D01*
X13645000Y-10085000D02*
X13645000Y-10052935D01*
X13821200Y-9878000D02*
X13841200Y-9858000D01*
X13821200Y-9959265D02*
X13821200Y-9878000D01*
X12765000Y-10625000D02*
X12765000Y-10705294D01*
X12765000Y-10705294D02*
X12548294Y-10922000D01*
X12548294Y-10922000D02*
X12522200Y-10922000D01*
X13251523Y-10257677D02*
X13394200Y-10115000D01*
X13394200Y-10115000D02*
X13615000Y-10115000D01*
X13841200Y-9858000D02*
X13929600Y-9858000D01*
X13645000Y-10052935D02*
X13667500Y-10030435D01*
X13615000Y-10115000D02*
X13645000Y-10085000D01*
X13777465Y-10003000D02*
X13821200Y-9959265D01*
X13667500Y-10030000D02*
X13694500Y-10003000D01*
%TO.N,/I2C0_SCL{slash}I3C_SCL*%
X14031200Y-9958000D02*
X13929600Y-9958000D01*
X14042809Y-9964116D02*
X14037316Y-9964116D01*
X14037316Y-9964116D02*
X14031200Y-9958000D01*
%TO.N,/I2C0_SDA{slash}I3C_SDA*%
X14068700Y-9908000D02*
X13929600Y-9908000D01*
%TO.N,/I3C_PUR*%
X13721569Y-10635000D02*
X13721569Y-10724696D01*
X13994069Y-10545000D02*
X13811569Y-10545000D01*
X13639265Y-10807000D02*
X13412911Y-10807000D01*
X14328400Y-10606800D02*
X14328400Y-10506832D01*
X13297911Y-10922000D02*
X13284200Y-10922000D01*
X13811569Y-10545000D02*
X13721569Y-10635000D01*
X14328400Y-10506832D02*
X14281568Y-10460000D01*
X14281568Y-10460000D02*
X14079069Y-10460000D01*
X14079069Y-10460000D02*
X13994069Y-10545000D01*
X13721569Y-10724696D02*
X13639265Y-10807000D01*
X13412911Y-10807000D02*
X13297911Y-10922000D01*
%TO.N,/P1_5*%
X13830850Y-10358000D02*
X13797200Y-10391650D01*
X13929600Y-10358000D02*
X13830850Y-10358000D01*
X13797200Y-10391650D02*
X13797200Y-10433000D01*
%TO.N,/P1_4*%
X13929600Y-10308000D02*
X13811200Y-10308000D01*
X13811200Y-10308000D02*
X13806200Y-10313000D01*
%TO.N,/P1_3*%
X13929600Y-10158000D02*
X14048000Y-10158000D01*
X14048000Y-10158000D02*
X14050000Y-10160000D01*
%TO.N,/P1_2*%
X13929600Y-10108000D02*
X14066200Y-10108000D01*
X14066200Y-10108000D02*
X14068700Y-10105500D01*
%TO.N,/P1_1*%
X14093000Y-10058000D02*
X13929600Y-10058000D01*
X14127688Y-10097312D02*
X14127688Y-10092688D01*
X14127688Y-10092688D02*
X14093000Y-10058000D01*
%TO.N,/P1_0*%
X14023134Y-10011616D02*
X14131616Y-10011616D01*
X13929600Y-10008000D02*
X13930635Y-10009035D01*
X14131616Y-10011616D02*
X14150000Y-10030000D01*
X14020553Y-10009035D02*
X14023134Y-10011616D01*
X13930635Y-10009035D02*
X14020553Y-10009035D01*
%TO.N,/P1_8*%
X15062200Y-10922000D02*
X14947200Y-10807000D01*
X14178400Y-10718075D02*
X14178400Y-10606800D01*
X14947200Y-10807000D02*
X14267325Y-10807000D01*
X14267325Y-10807000D02*
X14178400Y-10718075D01*
%TO.N,/P1_9*%
X14245000Y-10717500D02*
X14228400Y-10700900D01*
X14228400Y-10700900D02*
X14228400Y-10606800D01*
%TO.N,/P1_12*%
X14378400Y-10606800D02*
X14378400Y-10695200D01*
X14571250Y-10738000D02*
X14591200Y-10718050D01*
X14378400Y-10695200D02*
X14448750Y-10765550D01*
X14543650Y-10765550D02*
X14571200Y-10738000D01*
X14571200Y-10738000D02*
X14571250Y-10738000D01*
X14448750Y-10765550D02*
X14543650Y-10765550D01*
%TO.N,/P1_13*%
X14491200Y-10718000D02*
X14458375Y-10718000D01*
X14458375Y-10718000D02*
X14428400Y-10688025D01*
X14428400Y-10688025D02*
X14428400Y-10606800D01*
X14523975Y-10718050D02*
X14491250Y-10718050D01*
X14491250Y-10718050D02*
X14491200Y-10718000D01*
%TO.N,/P2_0*%
X14778400Y-10475200D02*
X14776200Y-10473000D01*
X14778400Y-10606800D02*
X14778400Y-10475200D01*
%TO.N,/P2_1*%
X14828400Y-10606800D02*
X14828400Y-10475800D01*
X15792038Y-10804538D02*
X16214738Y-10804538D01*
X14828400Y-10475800D02*
X14831200Y-10473000D01*
X16214738Y-10804538D02*
X16332200Y-10922000D01*
X15732500Y-10690000D02*
X15732500Y-10745000D01*
X15732500Y-10745000D02*
X15792038Y-10804538D01*
%TO.N,/P2_2*%
X14878400Y-10606800D02*
X14878400Y-10491739D01*
X16429200Y-10765000D02*
X16586200Y-10922000D01*
X16231306Y-10764538D02*
X16231768Y-10765000D01*
X16231768Y-10765000D02*
X16429200Y-10765000D01*
X14878400Y-10491739D02*
X14884798Y-10485342D01*
X15984538Y-10764538D02*
X16231306Y-10764538D01*
X15977500Y-10757500D02*
X15984538Y-10764538D01*
X15977500Y-10757038D02*
X15977500Y-10757500D01*
%TO.N,/P2_3*%
X15245000Y-10390000D02*
X15227000Y-10408000D01*
X15960767Y-10415767D02*
X15935000Y-10390000D01*
X15227000Y-10408000D02*
X15077200Y-10408000D01*
X15969787Y-10415767D02*
X15960767Y-10415767D01*
X15935000Y-10390000D02*
X15245000Y-10390000D01*
%TO.N,/P2_6*%
X15166200Y-10258000D02*
X15077200Y-10258000D01*
X15962500Y-10350000D02*
X15258200Y-10350000D01*
X15970000Y-10357500D02*
X15962500Y-10350000D01*
X15258200Y-10350000D02*
X15166200Y-10258000D01*
%TO.N,/P2_7*%
X15291631Y-10310000D02*
X15189631Y-10208000D01*
X15189631Y-10208000D02*
X15077200Y-10208000D01*
X16025000Y-10312500D02*
X16022500Y-10310000D01*
X16022500Y-10310000D02*
X15291631Y-10310000D01*
%TO.N,/JTAG_VREF*%
X12741200Y-10470000D02*
X12741200Y-10370200D01*
X12741200Y-10370200D02*
X12815700Y-10295700D01*
X12815700Y-10295700D02*
X12815700Y-10276500D01*
%TO.N,/USB0_DM*%
X15077200Y-9958000D02*
X15381200Y-9958000D01*
X15381200Y-9958000D02*
X15406200Y-9983000D01*
%TO.N,/CAN_RXD*%
X14992718Y-10588098D02*
X15238101Y-10588098D01*
X15238101Y-10588098D02*
X15243699Y-10582500D01*
X14075000Y-10606800D02*
X14128400Y-10606800D01*
%TO.N,/EEPROM_HOLD*%
X14956200Y-10358000D02*
X14933700Y-10335500D01*
X15077200Y-10358000D02*
X14956200Y-10358000D01*
%TO.N,/CAN_STBY*%
X15072200Y-10303000D02*
X15077200Y-10308000D01*
X14956200Y-10278000D02*
X14981200Y-10303000D01*
X14981200Y-10303000D02*
X15072200Y-10303000D01*
%TO.N,/P2_13*%
X15077200Y-10108000D02*
X14991200Y-10108000D01*
X14991200Y-10108000D02*
X14946200Y-10153000D01*
%TO.N,/P2_15*%
X14956200Y-10063000D02*
X15072200Y-10063000D01*
X15072200Y-10063000D02*
X15077200Y-10058000D01*
%TO.N,/P3_31*%
X15222612Y-9711338D02*
X15175950Y-9758000D01*
X15175950Y-9758000D02*
X15077200Y-9758000D01*
X15222612Y-9649412D02*
X15222612Y-9711338D01*
%TO.N,/P3_30*%
X15685000Y-9280000D02*
X15900000Y-9280000D01*
X14978450Y-9708000D02*
X14973450Y-9703000D01*
X14973450Y-9703000D02*
X14973450Y-9613000D01*
X14973450Y-9613000D02*
X15093450Y-9493000D01*
X15093450Y-9493000D02*
X15472000Y-9493000D01*
X15472000Y-9493000D02*
X15685000Y-9280000D01*
X15900000Y-9280000D02*
X16036000Y-9144000D01*
X15077200Y-9708000D02*
X14978450Y-9708000D01*
X16036000Y-9144000D02*
X16078200Y-9144000D01*
%TO.N,/P3_28*%
X14878400Y-9459200D02*
X14884600Y-9453000D01*
X15455431Y-9453000D02*
X15668431Y-9240000D01*
X15668431Y-9240000D02*
X15728200Y-9240000D01*
X14884600Y-9453000D02*
X15455431Y-9453000D01*
X15728200Y-9240000D02*
X15824200Y-9144000D01*
%TO.N,/P3_27*%
X14828400Y-9459200D02*
X14828400Y-9360450D01*
X14828400Y-9360450D02*
X14838850Y-9350000D01*
X15364200Y-9350000D02*
X15570200Y-9144000D01*
X14838850Y-9350000D02*
X15364200Y-9350000D01*
%TO.N,/P3_15*%
X14822281Y-9310000D02*
X15219200Y-9310000D01*
X15316200Y-9213000D02*
X15316200Y-9144000D01*
X14778400Y-9459200D02*
X14778400Y-9353882D01*
X15219200Y-9310000D02*
X15316200Y-9213000D01*
X14778400Y-9353882D02*
X14822281Y-9310000D01*
%TO.N,/P3_14*%
X14728400Y-9347313D02*
X14805713Y-9270000D01*
X14805713Y-9270000D02*
X14936200Y-9270000D01*
X14728400Y-9459200D02*
X14728400Y-9347313D01*
X15062200Y-9144000D02*
X15062200Y-9137000D01*
X14936200Y-9270000D02*
X15062200Y-9144000D01*
%TO.N,/P3_13*%
X14678400Y-9273800D02*
X14808200Y-9144000D01*
X14678400Y-9459200D02*
X14678400Y-9273800D01*
%TO.N,/SD_SW*%
X14627224Y-9460376D02*
X14628400Y-9459200D01*
X14627224Y-9592467D02*
X14627224Y-9460376D01*
%TO.N,/SPI1_CS0*%
X14578400Y-9459200D02*
X14578400Y-9610800D01*
X14578400Y-9610800D02*
X14576200Y-9613000D01*
%TO.N,/SPI1_SCK*%
X14566900Y-9969300D02*
X14528400Y-9930800D01*
X14528400Y-9459200D02*
X14528400Y-9169800D01*
X14566900Y-9973700D02*
X14566900Y-9969300D01*
X14528400Y-9930800D02*
X14528400Y-9459200D01*
X14528400Y-9169800D02*
X14554200Y-9144000D01*
%TO.N,/SPI1_MISO*%
X14486200Y-10033000D02*
X14486200Y-9628000D01*
X14478400Y-9459200D02*
X14478400Y-9322200D01*
X14506200Y-10053000D02*
X14486200Y-10033000D01*
X14476200Y-9618000D02*
X14476200Y-9573000D01*
X14478400Y-9570800D02*
X14478400Y-9459200D01*
X14476200Y-9573000D02*
X14478400Y-9570800D01*
X14486200Y-9628000D02*
X14476200Y-9618000D01*
X14478400Y-9322200D02*
X14300200Y-9144000D01*
%TO.N,/SPI1_MOSI*%
X14428400Y-9915200D02*
X14436200Y-9923000D01*
X14436200Y-10068000D02*
X14491200Y-10123000D01*
X14347175Y-9270000D02*
X14172200Y-9270000D01*
X14172200Y-9270000D02*
X14046200Y-9144000D01*
X14428400Y-9459200D02*
X14428400Y-9915200D01*
X14491200Y-10123000D02*
X14636200Y-10123000D01*
X14428400Y-9351225D02*
X14347175Y-9270000D01*
X14436200Y-9923000D02*
X14436200Y-10068000D01*
X14428400Y-9459200D02*
X14428400Y-9351225D01*
%TO.N,/SPI1_CS2*%
X14378400Y-9560800D02*
X14378400Y-9459200D01*
X14351200Y-9588000D02*
X14378400Y-9560800D01*
%TO.N,/P3_6*%
X14328400Y-9318400D02*
X14328400Y-9459200D01*
%TO.N,/P3_1*%
X14262559Y-9327559D02*
X14278400Y-9343400D01*
X14262559Y-9327443D02*
X14262559Y-9327559D01*
X14278400Y-9343400D02*
X14278400Y-9459200D01*
%TO.N,/P3_0*%
X14228400Y-9459200D02*
X14228400Y-9360450D01*
X13895000Y-9285000D02*
X13425200Y-9285000D01*
X14220950Y-9353000D02*
X13963000Y-9353000D01*
X14228400Y-9360450D02*
X14220950Y-9353000D01*
X13963000Y-9353000D02*
X13895000Y-9285000D01*
X13425200Y-9285000D02*
X13284200Y-9144000D01*
%TO.N,/CAN_TXD*%
X15308360Y-10535000D02*
X15320860Y-10522500D01*
X14956444Y-10546756D02*
X14968200Y-10535000D01*
X14102000Y-10323000D02*
X14017000Y-10408000D01*
X14017000Y-10408000D02*
X13929600Y-10408000D01*
X14311200Y-10323000D02*
X14102000Y-10323000D01*
X14376200Y-10388000D02*
X14311200Y-10323000D01*
X14968200Y-10535000D02*
X15308360Y-10535000D01*
%TO.N,unconnected-(U105-I{slash}O-Pad6)*%
X12718700Y-9388000D02*
X12761200Y-9388000D01*
%TD*%
%TA.AperFunction,Conductor*%
%TO.N,GND*%
G36*
X17592809Y-9193248D02*
G01*
X17595617Y-9194000D01*
X17608783Y-9194000D01*
X17608783Y-9194000D01*
X17611591Y-9193248D01*
X17618576Y-9193414D01*
X17624362Y-9197330D01*
X17627112Y-9203753D01*
X17627200Y-9205225D01*
X17627200Y-9279000D01*
X17691983Y-9279000D01*
X17691984Y-9279000D01*
X17691985Y-9279000D01*
X17695556Y-9278616D01*
X17697937Y-9278360D01*
X17697938Y-9278360D01*
X17711409Y-9273335D01*
X17711409Y-9273335D01*
X17722919Y-9264719D01*
X17723128Y-9264439D01*
X17724126Y-9263106D01*
X17725624Y-9261105D01*
X17728120Y-9258609D01*
X17729231Y-9257777D01*
X17735778Y-9255336D01*
X17742605Y-9256821D01*
X17743164Y-9257126D01*
X17747532Y-9261120D01*
X17749936Y-9264719D01*
X17750367Y-9265364D01*
X17750367Y-9265364D01*
X17750368Y-9265365D01*
X17760235Y-9275232D01*
X17760236Y-9275233D01*
X17771840Y-9282986D01*
X17771840Y-9282986D01*
X17773999Y-9283881D01*
X17784616Y-9288279D01*
X17784698Y-9288320D01*
X17798421Y-9291050D01*
X17798422Y-9291050D01*
X17798422Y-9291050D01*
X17801412Y-9291050D01*
X18068112Y-9291050D01*
X18070638Y-9291050D01*
X18071610Y-9291088D01*
X18072385Y-9291149D01*
X18072576Y-9291164D01*
X18073543Y-9291279D01*
X18078700Y-9292095D01*
X18080591Y-9292549D01*
X18082425Y-9293145D01*
X18084220Y-9293889D01*
X18087555Y-9295588D01*
X18089214Y-9296605D01*
X18090774Y-9297738D01*
X18092253Y-9299002D01*
X18094898Y-9301646D01*
X18096162Y-9303126D01*
X18097295Y-9304686D01*
X18098312Y-9306345D01*
X18100010Y-9309678D01*
X18100755Y-9311476D01*
X18100996Y-9312218D01*
X18101351Y-9313310D01*
X18101805Y-9315202D01*
X18102621Y-9320354D01*
X18102735Y-9321320D01*
X18102812Y-9322290D01*
X18102850Y-9323263D01*
X18102850Y-10742736D01*
X18102812Y-10743710D01*
X18102735Y-10744680D01*
X18102621Y-10745646D01*
X18101805Y-10750798D01*
X18101351Y-10752690D01*
X18100755Y-10754524D01*
X18100010Y-10756321D01*
X18098312Y-10759655D01*
X18097295Y-10761314D01*
X18096162Y-10762874D01*
X18094898Y-10764353D01*
X18092253Y-10766998D01*
X18090774Y-10768262D01*
X18090447Y-10768499D01*
X18089214Y-10769395D01*
X18087555Y-10770412D01*
X18084222Y-10772110D01*
X18082425Y-10772855D01*
X18080590Y-10773451D01*
X18078698Y-10773905D01*
X18073546Y-10774721D01*
X18072580Y-10774835D01*
X18071610Y-10774912D01*
X18070637Y-10774950D01*
X17798421Y-10774950D01*
X17784736Y-10777672D01*
X17784735Y-10777672D01*
X17784733Y-10777673D01*
X17771840Y-10783013D01*
X17771839Y-10783014D01*
X17760236Y-10790767D01*
X17760234Y-10790768D01*
X17750368Y-10800634D01*
X17750367Y-10800636D01*
X17742614Y-10812239D01*
X17742613Y-10812240D01*
X17737273Y-10825133D01*
X17737272Y-10825135D01*
X17737272Y-10825135D01*
X17734859Y-10837270D01*
X17733684Y-10840598D01*
X17733160Y-10841600D01*
X17728309Y-10846628D01*
X17721509Y-10848235D01*
X17714921Y-10845911D01*
X17714152Y-10845357D01*
X17711373Y-10842587D01*
X17705173Y-10834054D01*
X17705172Y-10834054D01*
X17705172Y-10834053D01*
X17690147Y-10819028D01*
X17690147Y-10819028D01*
X17690146Y-10819028D01*
X17690146Y-10819027D01*
X17678362Y-10810466D01*
X17672956Y-10806538D01*
X17672956Y-10806538D01*
X17672956Y-10806538D01*
X17654022Y-10796890D01*
X17654021Y-10796890D01*
X17654021Y-10796890D01*
X17633813Y-10790324D01*
X17633813Y-10790324D01*
X17627200Y-10789277D01*
X17627200Y-10860775D01*
X17625232Y-10867479D01*
X17619951Y-10872054D01*
X17613035Y-10873049D01*
X17611591Y-10872752D01*
X17608783Y-10872000D01*
X17608783Y-10872000D01*
X17595617Y-10872000D01*
X17595617Y-10872000D01*
X17592809Y-10872752D01*
X17585824Y-10872586D01*
X17580038Y-10868670D01*
X17577288Y-10862247D01*
X17577200Y-10860775D01*
X17577200Y-10789277D01*
X17577200Y-10789277D01*
X17577200Y-10789277D01*
X17570587Y-10790324D01*
X17550379Y-10796890D01*
X17550378Y-10796890D01*
X17550378Y-10796890D01*
X17548286Y-10797957D01*
X17531444Y-10806538D01*
X17514256Y-10819026D01*
X17514253Y-10819028D01*
X17499228Y-10834053D01*
X17499226Y-10834056D01*
X17486737Y-10851245D01*
X17486683Y-10851334D01*
X17486483Y-10851595D01*
X17486451Y-10851638D01*
X17486450Y-10851638D01*
X17485125Y-10853369D01*
X17484163Y-10854388D01*
X17478128Y-10857910D01*
X17471148Y-10857610D01*
X17465777Y-10853993D01*
X17465168Y-10853290D01*
X17463941Y-10851607D01*
X17463755Y-10851301D01*
X17463710Y-10851225D01*
X17451211Y-10834022D01*
X17436179Y-10818989D01*
X17436179Y-10818989D01*
X17418982Y-10806495D01*
X17415724Y-10804835D01*
X17402225Y-10797957D01*
X17402224Y-10797957D01*
X17400041Y-10796844D01*
X17400041Y-10796844D01*
X17400041Y-10796844D01*
X17388798Y-10793191D01*
X17380707Y-10790562D01*
X17380255Y-10790377D01*
X17379336Y-10790160D01*
X17378860Y-10790123D01*
X17363104Y-10787627D01*
X17362019Y-10787455D01*
X17358829Y-10786950D01*
X17358829Y-10786950D01*
X17337571Y-10786950D01*
X17337571Y-10786950D01*
X17334381Y-10787455D01*
X17333296Y-10787627D01*
X17316576Y-10790275D01*
X17296358Y-10796845D01*
X17277418Y-10806495D01*
X17277418Y-10806495D01*
X17277418Y-10806495D01*
X17271740Y-10810620D01*
X17260221Y-10818989D01*
X17245189Y-10834021D01*
X17245189Y-10834021D01*
X17232695Y-10851218D01*
X17232695Y-10851219D01*
X17232663Y-10851270D01*
X17232550Y-10851418D01*
X17232409Y-10851613D01*
X17232404Y-10851609D01*
X17231106Y-10853304D01*
X17230135Y-10854332D01*
X17224101Y-10857854D01*
X17217121Y-10857555D01*
X17211749Y-10853938D01*
X17211129Y-10853222D01*
X17209927Y-10851581D01*
X17209705Y-10851219D01*
X17209705Y-10851218D01*
X17209705Y-10851218D01*
X17197211Y-10834021D01*
X17182179Y-10818989D01*
X17164982Y-10806495D01*
X17161724Y-10804835D01*
X17148225Y-10797957D01*
X17148224Y-10797957D01*
X17146041Y-10796844D01*
X17146041Y-10796844D01*
X17146041Y-10796844D01*
X17134798Y-10793191D01*
X17126707Y-10790562D01*
X17126255Y-10790377D01*
X17125336Y-10790160D01*
X17124860Y-10790123D01*
X17109104Y-10787627D01*
X17108019Y-10787455D01*
X17104829Y-10786950D01*
X17104829Y-10786950D01*
X17083571Y-10786950D01*
X17083571Y-10786950D01*
X17080381Y-10787455D01*
X17079296Y-10787627D01*
X17062576Y-10790275D01*
X17042358Y-10796845D01*
X17023418Y-10806495D01*
X17023418Y-10806495D01*
X17023418Y-10806495D01*
X17017740Y-10810620D01*
X17006221Y-10818989D01*
X16991189Y-10834021D01*
X16991189Y-10834021D01*
X16978695Y-10851218D01*
X16978695Y-10851219D01*
X16978663Y-10851270D01*
X16978550Y-10851418D01*
X16978409Y-10851613D01*
X16978404Y-10851609D01*
X16977106Y-10853304D01*
X16976135Y-10854332D01*
X16970101Y-10857854D01*
X16963121Y-10857555D01*
X16957749Y-10853938D01*
X16957129Y-10853222D01*
X16955927Y-10851581D01*
X16955705Y-10851219D01*
X16955705Y-10851218D01*
X16955705Y-10851218D01*
X16943211Y-10834021D01*
X16928179Y-10818989D01*
X16910982Y-10806495D01*
X16907724Y-10804835D01*
X16894225Y-10797957D01*
X16894224Y-10797957D01*
X16892041Y-10796844D01*
X16892041Y-10796844D01*
X16892041Y-10796844D01*
X16880798Y-10793191D01*
X16872707Y-10790562D01*
X16872255Y-10790377D01*
X16871336Y-10790160D01*
X16870860Y-10790123D01*
X16855104Y-10787627D01*
X16854019Y-10787455D01*
X16850829Y-10786950D01*
X16850829Y-10786950D01*
X16829571Y-10786950D01*
X16829571Y-10786950D01*
X16826381Y-10787455D01*
X16825296Y-10787627D01*
X16808576Y-10790275D01*
X16788358Y-10796845D01*
X16769418Y-10806495D01*
X16769418Y-10806495D01*
X16769418Y-10806495D01*
X16763740Y-10810620D01*
X16752221Y-10818989D01*
X16737189Y-10834021D01*
X16737189Y-10834021D01*
X16724695Y-10851218D01*
X16724694Y-10851219D01*
X16724663Y-10851270D01*
X16724550Y-10851418D01*
X16724408Y-10851613D01*
X16724404Y-10851609D01*
X16723106Y-10853304D01*
X16722135Y-10854332D01*
X16716101Y-10857854D01*
X16709120Y-10857555D01*
X16703749Y-10853938D01*
X16703128Y-10853222D01*
X16701927Y-10851581D01*
X16701705Y-10851219D01*
X16701705Y-10851218D01*
X16701705Y-10851218D01*
X16689211Y-10834021D01*
X16674179Y-10818989D01*
X16656982Y-10806495D01*
X16654023Y-10804988D01*
X16638042Y-10796845D01*
X16638042Y-10796845D01*
X16638042Y-10796844D01*
X16631866Y-10794838D01*
X16628699Y-10793281D01*
X16627634Y-10792553D01*
X16627609Y-10792536D01*
X16623186Y-10787127D01*
X16622389Y-10780186D01*
X16625065Y-10774382D01*
X16625635Y-10773695D01*
X16627745Y-10771688D01*
X16634229Y-10766834D01*
X16635719Y-10765719D01*
X16635719Y-10765719D01*
X16635719Y-10765719D01*
X16644335Y-10754209D01*
X16644335Y-10754209D01*
X16649360Y-10740738D01*
X16649360Y-10740737D01*
X16649670Y-10737848D01*
X16650000Y-10734786D01*
X16650000Y-10734783D01*
X16650000Y-10685000D01*
X16390000Y-10685000D01*
X16390000Y-10690767D01*
X16389497Y-10694261D01*
X16389385Y-10694643D01*
X16389057Y-10695761D01*
X16385283Y-10701636D01*
X16385146Y-10701754D01*
X16379660Y-10704502D01*
X16378904Y-10704666D01*
X16376267Y-10704950D01*
X16243468Y-10704950D01*
X16237008Y-10703134D01*
X16236376Y-10702749D01*
X16231680Y-10697576D01*
X16231293Y-10696777D01*
X16230050Y-10691366D01*
X16230050Y-10668099D01*
X17406800Y-10668099D01*
X17407441Y-10675149D01*
X17407441Y-10675150D01*
X17407441Y-10675151D01*
X17407441Y-10675152D01*
X17412498Y-10691379D01*
X17412498Y-10691380D01*
X17421292Y-10705927D01*
X17421292Y-10705927D01*
X17421293Y-10705927D01*
X17421293Y-10705928D01*
X17428116Y-10712751D01*
X17433312Y-10717947D01*
X17435148Y-10719057D01*
X17447860Y-10726742D01*
X17447860Y-10726742D01*
X17455707Y-10729187D01*
X17456420Y-10729513D01*
X17458469Y-10731288D01*
X17464089Y-10731799D01*
X17464089Y-10731799D01*
X17464089Y-10731799D01*
X17471141Y-10732440D01*
X17471143Y-10732440D01*
X17471800Y-10732440D01*
X17471800Y-10732440D01*
X17471800Y-10657440D01*
X17406800Y-10657440D01*
X17406800Y-10668099D01*
X16230050Y-10668099D01*
X16230050Y-10614233D01*
X16230552Y-10610739D01*
X16230993Y-10609240D01*
X16234767Y-10603364D01*
X16234904Y-10603246D01*
X16240392Y-10600498D01*
X16241148Y-10600333D01*
X16243783Y-10600050D01*
X16375817Y-10600050D01*
X16379311Y-10600552D01*
X16380810Y-10600993D01*
X16386685Y-10604767D01*
X16386804Y-10604904D01*
X16389552Y-10610390D01*
X16389716Y-10611146D01*
X16390000Y-10613783D01*
X16390000Y-10635000D01*
X16650000Y-10635000D01*
X16650000Y-10585217D01*
X16650000Y-10585216D01*
X16650000Y-10585214D01*
X16649360Y-10579263D01*
X16649360Y-10579262D01*
X16649360Y-10579262D01*
X16644335Y-10565791D01*
X16644335Y-10565791D01*
X16635719Y-10554281D01*
X16635719Y-10554281D01*
X16635718Y-10554281D01*
X16635718Y-10554280D01*
X16631371Y-10551026D01*
X16628875Y-10548531D01*
X16628044Y-10547420D01*
X16625602Y-10540873D01*
X16627087Y-10534046D01*
X16627460Y-10533363D01*
X16630911Y-10529380D01*
X16631501Y-10528939D01*
X16633642Y-10527336D01*
X16636739Y-10525645D01*
X16638204Y-10525098D01*
X16645173Y-10524600D01*
X16646103Y-10524802D01*
X16650899Y-10526992D01*
X16656305Y-10531039D01*
X16656305Y-10531039D01*
X16659409Y-10533363D01*
X16660767Y-10534380D01*
X16660767Y-10534380D01*
X16660767Y-10534380D01*
X16660767Y-10534380D01*
X16664185Y-10535655D01*
X16674252Y-10539409D01*
X16674252Y-10539409D01*
X16674944Y-10539484D01*
X16680213Y-10540050D01*
X16779787Y-10540050D01*
X16785748Y-10539409D01*
X16799233Y-10534380D01*
X16810755Y-10525755D01*
X16819380Y-10514233D01*
X16824409Y-10500748D01*
X16825050Y-10494787D01*
X16825050Y-10385213D01*
X16824409Y-10379252D01*
X16824315Y-10378998D01*
X16824289Y-10378929D01*
X16819787Y-10366858D01*
X16819288Y-10365161D01*
X16818635Y-10362156D01*
X16818853Y-10356026D01*
X16818860Y-10356004D01*
X16819131Y-10355079D01*
X16819131Y-10355079D01*
X16819454Y-10353981D01*
X16819733Y-10353143D01*
X16821980Y-10347117D01*
X16824359Y-10340739D01*
X16824359Y-10340738D01*
X16824360Y-10340738D01*
X16824360Y-10340737D01*
X16824686Y-10337703D01*
X16825000Y-10334786D01*
X16825000Y-10334783D01*
X16825000Y-10308414D01*
X16825502Y-10304921D01*
X16825914Y-10303518D01*
X16829691Y-10297641D01*
X16835828Y-10294772D01*
X16837078Y-10294569D01*
X16840386Y-10294481D01*
X16845216Y-10295000D01*
X16845217Y-10295000D01*
X16845217Y-10295000D01*
X16845217Y-10295000D01*
X16910000Y-10295000D01*
X16910000Y-10140000D01*
X16908885Y-10138885D01*
X16907545Y-10138090D01*
X16907687Y-10137851D01*
X16903762Y-10135328D01*
X16900860Y-10128974D01*
X16900739Y-10128132D01*
X16901036Y-10123157D01*
X16901266Y-10122298D01*
X16901944Y-10119767D01*
X16902550Y-10117506D01*
X16902550Y-10101694D01*
X16902550Y-9867833D01*
X16903052Y-9864339D01*
X16903493Y-9862840D01*
X16907267Y-9856964D01*
X16907404Y-9856846D01*
X16912892Y-9854098D01*
X16913648Y-9853933D01*
X16916283Y-9853650D01*
X16945861Y-9853650D01*
X16945862Y-9853650D01*
X16952920Y-9853009D01*
X16969161Y-9847948D01*
X16983719Y-9839147D01*
X16988599Y-9834267D01*
X16992571Y-9830294D01*
X16995396Y-9828180D01*
X16996390Y-9827637D01*
X17003217Y-9826152D01*
X17009763Y-9828594D01*
X17013950Y-9834187D01*
X17013990Y-9834293D01*
X17014345Y-9835247D01*
X17015096Y-9838695D01*
X17015463Y-9843828D01*
X17015494Y-9844713D01*
X17015494Y-9846368D01*
X17015424Y-9847689D01*
X17015396Y-9847948D01*
X17015141Y-9850316D01*
X17015064Y-9851039D01*
X17015064Y-9851039D01*
X17014937Y-9852212D01*
X17014937Y-9852213D01*
X17014937Y-9924787D01*
X17014938Y-9924788D01*
X17015578Y-9930748D01*
X17016187Y-9932380D01*
X17016560Y-9933379D01*
X17016560Y-9933379D01*
X17019923Y-9942398D01*
X17020508Y-9944530D01*
X17020896Y-9946679D01*
X17021093Y-9948881D01*
X17021093Y-9964170D01*
X17021093Y-9964172D01*
X17021093Y-9972786D01*
X17021093Y-9976534D01*
X17020503Y-9978542D01*
X17021093Y-9980743D01*
X17022169Y-9984759D01*
X17025031Y-9995439D01*
X17025185Y-9996016D01*
X17026358Y-9998046D01*
X17026358Y-9998047D01*
X17026358Y-9998047D01*
X17027540Y-10000094D01*
X17027540Y-10000095D01*
X17029588Y-10003641D01*
X17032481Y-10008652D01*
X17033091Y-10009709D01*
X17033091Y-10009709D01*
X17033091Y-10009709D01*
X17033092Y-10009710D01*
X17045175Y-10021793D01*
X17045179Y-10021797D01*
X17048127Y-10024745D01*
X17049669Y-10026624D01*
X17051000Y-10028616D01*
X17052146Y-10030760D01*
X17055587Y-10039067D01*
X17055752Y-10039528D01*
X17063213Y-10050694D01*
X17063213Y-10050694D01*
X17063214Y-10050695D01*
X17072621Y-10060102D01*
X17072621Y-10060103D01*
X17072622Y-10060103D01*
X17083684Y-10067495D01*
X17083685Y-10067495D01*
X17083686Y-10067495D01*
X17083686Y-10067495D01*
X17083686Y-10067495D01*
X17084092Y-10067664D01*
X17086661Y-10068728D01*
X17092556Y-10071170D01*
X17094699Y-10072315D01*
X17096692Y-10073647D01*
X17098571Y-10075188D01*
X17168254Y-10144871D01*
X17168254Y-10144872D01*
X17179434Y-10156052D01*
X17181200Y-10157071D01*
X17182257Y-10158070D01*
X17183015Y-10159370D01*
X17183582Y-10159928D01*
X17183746Y-10159803D01*
X17183864Y-10159958D01*
X17184015Y-10160354D01*
X17184379Y-10160712D01*
X17184515Y-10160939D01*
X17184290Y-10161074D01*
X17184821Y-10162465D01*
X17185778Y-10164105D01*
X17185744Y-10164883D01*
X17186356Y-10166485D01*
X17185499Y-10170577D01*
X17185478Y-10171085D01*
X17185357Y-10171256D01*
X17184924Y-10173324D01*
X17180528Y-10177791D01*
X17180620Y-10177933D01*
X17180618Y-10177935D01*
X17180241Y-10178082D01*
X17180026Y-10178300D01*
X17179856Y-10178395D01*
X17179782Y-10178262D01*
X17175885Y-10179790D01*
X17175663Y-10179827D01*
X17173600Y-10180000D01*
X17165000Y-10180000D01*
X17165000Y-10265817D01*
X17164498Y-10269311D01*
X17164057Y-10270811D01*
X17160283Y-10276686D01*
X17160146Y-10276804D01*
X17154660Y-10279552D01*
X17153904Y-10279716D01*
X17151267Y-10280000D01*
X17129183Y-10280000D01*
X17125689Y-10279498D01*
X17124189Y-10279057D01*
X17118314Y-10275283D01*
X17118196Y-10275146D01*
X17115448Y-10269658D01*
X17115283Y-10268902D01*
X17115000Y-10266267D01*
X17115000Y-10180000D01*
X17090216Y-10180000D01*
X17090215Y-10180000D01*
X17084263Y-10180640D01*
X17084263Y-10180640D01*
X17084261Y-10180640D01*
X17084059Y-10180698D01*
X17081550Y-10181140D01*
X17080594Y-10181208D01*
X17079911Y-10181257D01*
X17073088Y-10179773D01*
X17072929Y-10179687D01*
X17068436Y-10175504D01*
X17068018Y-10174853D01*
X17066832Y-10172484D01*
X17064336Y-10165792D01*
X17064335Y-10165791D01*
X17064334Y-10165790D01*
X17055720Y-10154282D01*
X17055719Y-10154281D01*
X17055719Y-10154281D01*
X17047906Y-10148432D01*
X17044209Y-10145665D01*
X17044209Y-10145665D01*
X17044209Y-10145665D01*
X17030738Y-10140640D01*
X17030737Y-10140640D01*
X17024785Y-10140000D01*
X17024784Y-10140000D01*
X16960000Y-10140000D01*
X16960000Y-10295000D01*
X17024783Y-10295000D01*
X17024783Y-10295000D01*
X17024783Y-10295000D01*
X17024784Y-10295000D01*
X17029502Y-10294493D01*
X17033029Y-10294619D01*
X17034467Y-10294878D01*
X17040715Y-10298005D01*
X17044223Y-10303800D01*
X17044531Y-10304921D01*
X17044558Y-10305020D01*
X17045000Y-10308301D01*
X17045000Y-10334785D01*
X17045640Y-10340737D01*
X17045640Y-10340738D01*
X17050194Y-10352946D01*
X17050692Y-10354643D01*
X17051365Y-10357739D01*
X17051147Y-10363868D01*
X17050599Y-10365734D01*
X17050319Y-10366574D01*
X17045591Y-10379252D01*
X17045113Y-10383696D01*
X17044950Y-10385213D01*
X17044950Y-10494788D01*
X17044966Y-10494981D01*
X17044989Y-10495145D01*
X17045591Y-10500748D01*
X17047422Y-10505658D01*
X17050620Y-10514233D01*
X17050621Y-10514234D01*
X17052302Y-10516480D01*
X17059245Y-10525754D01*
X17059246Y-10525755D01*
X17060899Y-10526992D01*
X17070766Y-10534379D01*
X17070767Y-10534380D01*
X17084252Y-10539409D01*
X17084252Y-10539409D01*
X17084944Y-10539484D01*
X17090213Y-10540050D01*
X17189787Y-10540050D01*
X17195748Y-10539409D01*
X17209233Y-10534380D01*
X17220755Y-10525755D01*
X17229380Y-10514233D01*
X17234409Y-10500748D01*
X17235050Y-10494787D01*
X17235050Y-10385213D01*
X17234409Y-10379252D01*
X17234315Y-10378998D01*
X17234289Y-10378929D01*
X17229787Y-10366858D01*
X17229288Y-10365161D01*
X17228635Y-10362156D01*
X17228853Y-10356026D01*
X17228860Y-10356004D01*
X17229131Y-10355079D01*
X17229131Y-10355079D01*
X17229454Y-10353981D01*
X17229733Y-10353143D01*
X17231980Y-10347117D01*
X17234359Y-10340739D01*
X17234359Y-10340738D01*
X17234360Y-10340738D01*
X17234360Y-10340737D01*
X17234686Y-10337703D01*
X17235000Y-10334786D01*
X17235000Y-10334783D01*
X17235000Y-10324905D01*
X17235502Y-10321412D01*
X17235821Y-10320327D01*
X17239598Y-10314449D01*
X17245953Y-10311546D01*
X17252869Y-10312540D01*
X17253567Y-10312859D01*
X17257184Y-10315370D01*
X17263171Y-10321357D01*
X17267986Y-10326171D01*
X17267986Y-10326172D01*
X17279561Y-10333906D01*
X17280019Y-10334069D01*
X17281014Y-10334482D01*
X17283875Y-10336145D01*
X17288950Y-10340087D01*
X17289079Y-10340117D01*
X17290472Y-10341021D01*
X17298966Y-10347379D01*
X17298966Y-10347379D01*
X17298967Y-10347379D01*
X17298967Y-10347379D01*
X17298967Y-10347380D01*
X17303462Y-10349056D01*
X17312452Y-10352409D01*
X17313386Y-10352510D01*
X17318413Y-10353050D01*
X17328089Y-10353050D01*
X17330295Y-10353698D01*
X17332319Y-10353779D01*
X17333579Y-10354662D01*
X17334793Y-10355018D01*
X17335883Y-10356276D01*
X17338041Y-10357789D01*
X17338799Y-10359641D01*
X17339368Y-10360299D01*
X17339531Y-10361432D01*
X17340687Y-10364255D01*
X17340265Y-10366535D01*
X17340363Y-10367215D01*
X17340279Y-10367724D01*
X17340251Y-10367874D01*
X17340025Y-10367832D01*
X17339416Y-10371126D01*
X17334633Y-10376219D01*
X17331367Y-10377555D01*
X17331075Y-10377628D01*
X17328061Y-10378000D01*
X17273200Y-10378000D01*
X17273200Y-10387785D01*
X17273840Y-10393737D01*
X17273840Y-10393738D01*
X17278864Y-10407208D01*
X17278865Y-10407209D01*
X17286427Y-10417311D01*
X17288119Y-10420409D01*
X17288790Y-10422209D01*
X17289412Y-10428526D01*
X17289256Y-10429489D01*
X17288472Y-10432249D01*
X17287788Y-10433902D01*
X17287138Y-10435471D01*
X17287045Y-10435696D01*
X17286995Y-10435817D01*
X17286995Y-10435818D01*
X17286994Y-10435818D01*
X17283150Y-10455145D01*
X17283150Y-10470417D01*
X17282624Y-10472209D01*
X17286995Y-10494182D01*
X17286995Y-10494183D01*
X17286995Y-10494183D01*
X17286995Y-10494184D01*
X17286995Y-10494185D01*
X17286996Y-10494186D01*
X17294536Y-10512390D01*
X17294537Y-10512391D01*
X17294538Y-10512393D01*
X17305486Y-10528778D01*
X17305486Y-10528778D01*
X17305487Y-10528779D01*
X17319421Y-10542713D01*
X17319421Y-10542714D01*
X17319422Y-10542714D01*
X17335808Y-10553663D01*
X17335809Y-10553664D01*
X17335809Y-10553664D01*
X17335810Y-10553664D01*
X17340842Y-10555748D01*
X17351870Y-10560316D01*
X17353456Y-10560973D01*
X17353896Y-10561181D01*
X17354017Y-10561205D01*
X17354017Y-10561205D01*
X17356813Y-10561761D01*
X17373345Y-10565050D01*
X17373346Y-10565050D01*
X17396496Y-10565050D01*
X17399990Y-10565552D01*
X17401321Y-10565943D01*
X17407199Y-10569721D01*
X17410102Y-10576076D01*
X17410102Y-10576076D01*
X17410206Y-10576800D01*
X17409771Y-10582253D01*
X17407441Y-10589729D01*
X17407441Y-10589730D01*
X17406916Y-10595501D01*
X17406800Y-10596783D01*
X17406800Y-10607440D01*
X17482617Y-10607440D01*
X17486111Y-10607942D01*
X17487610Y-10608383D01*
X17493486Y-10612157D01*
X17493604Y-10612294D01*
X17496352Y-10617780D01*
X17496516Y-10618536D01*
X17496800Y-10621173D01*
X17496800Y-10632440D01*
X17507617Y-10632440D01*
X17511111Y-10632942D01*
X17512610Y-10633383D01*
X17518486Y-10637157D01*
X17518604Y-10637294D01*
X17521352Y-10642780D01*
X17521516Y-10643536D01*
X17521800Y-10646173D01*
X17521800Y-10732440D01*
X17522458Y-10732440D01*
X17522458Y-10732440D01*
X17524219Y-10732280D01*
X17529509Y-10731799D01*
X17529510Y-10731799D01*
X17529510Y-10731799D01*
X17529511Y-10731799D01*
X17545740Y-10726742D01*
X17554952Y-10721173D01*
X17560821Y-10717625D01*
X17561487Y-10716748D01*
X17566736Y-10711499D01*
X17569560Y-10709384D01*
X17570933Y-10708635D01*
X17577759Y-10707150D01*
X17577941Y-10707163D01*
X17583760Y-10709099D01*
X17584411Y-10709518D01*
X17586475Y-10711181D01*
X17593281Y-10717987D01*
X17593281Y-10717987D01*
X17593282Y-10717987D01*
X17593282Y-10717988D01*
X17593415Y-10718084D01*
X17593706Y-10718244D01*
X17607839Y-10726788D01*
X17624080Y-10731849D01*
X17631138Y-10732490D01*
X17631139Y-10732490D01*
X17682461Y-10732490D01*
X17682462Y-10732490D01*
X17689520Y-10731849D01*
X17705761Y-10726788D01*
X17720319Y-10717987D01*
X17732347Y-10705959D01*
X17741148Y-10691401D01*
X17746209Y-10675160D01*
X17746850Y-10668102D01*
X17746850Y-10596778D01*
X17746209Y-10589720D01*
X17741148Y-10573479D01*
X17732347Y-10558922D01*
X17732347Y-10558921D01*
X17732347Y-10558921D01*
X17721743Y-10548317D01*
X17720198Y-10545634D01*
X17719577Y-10545162D01*
X17718973Y-10543506D01*
X17718525Y-10542728D01*
X17718118Y-10541191D01*
X17718128Y-10541188D01*
X17717183Y-10538597D01*
X17717658Y-10534319D01*
X17717668Y-10534283D01*
X17721441Y-10528403D01*
X17727795Y-10525495D01*
X17734711Y-10526484D01*
X17735255Y-10526733D01*
X17738992Y-10529366D01*
X17740945Y-10531374D01*
X17741674Y-10531967D01*
X17752421Y-10542714D01*
X17752422Y-10542714D01*
X17768808Y-10553663D01*
X17768809Y-10553664D01*
X17768809Y-10553664D01*
X17768810Y-10553664D01*
X17773842Y-10555748D01*
X17784870Y-10560316D01*
X17786456Y-10560973D01*
X17786896Y-10561181D01*
X17787017Y-10561205D01*
X17787017Y-10561205D01*
X17789813Y-10561761D01*
X17806345Y-10565050D01*
X17906054Y-10565050D01*
X17906054Y-10565050D01*
X17908222Y-10564619D01*
X17919058Y-10562463D01*
X17919058Y-10562463D01*
X17920330Y-10562210D01*
X17925384Y-10561205D01*
X17943591Y-10553663D01*
X17959978Y-10542714D01*
X17973914Y-10528778D01*
X17984863Y-10512391D01*
X17992405Y-10494184D01*
X17993031Y-10491039D01*
X17994554Y-10483381D01*
X17994554Y-10483381D01*
X17995236Y-10479950D01*
X17996250Y-10474854D01*
X17996250Y-10455146D01*
X17996250Y-10455145D01*
X17992381Y-10435696D01*
X17992173Y-10435255D01*
X17990375Y-10430915D01*
X17984864Y-10417610D01*
X17984863Y-10417609D01*
X17984863Y-10417608D01*
X17973914Y-10401222D01*
X17973914Y-10401221D01*
X17973913Y-10401221D01*
X17959979Y-10387287D01*
X17959978Y-10387286D01*
X17959978Y-10387286D01*
X17943593Y-10376338D01*
X17943592Y-10376337D01*
X17943592Y-10376337D01*
X17940106Y-10374893D01*
X17935551Y-10373006D01*
X17932516Y-10371206D01*
X17931299Y-10370225D01*
X17927315Y-10364486D01*
X17926884Y-10363193D01*
X17926250Y-10359278D01*
X17926250Y-9706914D01*
X17926752Y-9703421D01*
X17927193Y-9701921D01*
X17930970Y-9696044D01*
X17931393Y-9695677D01*
X17931999Y-9695152D01*
X17935374Y-9693067D01*
X17943591Y-9689663D01*
X17959978Y-9678714D01*
X17973914Y-9664778D01*
X17984863Y-9648391D01*
X17985013Y-9648031D01*
X17986525Y-9644380D01*
X17992405Y-9630184D01*
X17992494Y-9629739D01*
X17994306Y-9620629D01*
X17994306Y-9620628D01*
X17994306Y-9620628D01*
X17995488Y-9614686D01*
X17996250Y-9610854D01*
X17996250Y-9591145D01*
X17993005Y-9574832D01*
X17992405Y-9571817D01*
X17992405Y-9571817D01*
X17992405Y-9571817D01*
X17992404Y-9571814D01*
X17992082Y-9571035D01*
X17991116Y-9568705D01*
X17991116Y-9568705D01*
X17987175Y-9559190D01*
X17984864Y-9553609D01*
X17984863Y-9553608D01*
X17973914Y-9537222D01*
X17973914Y-9537221D01*
X17973913Y-9537221D01*
X17959979Y-9523287D01*
X17959978Y-9523286D01*
X17959978Y-9523286D01*
X17943593Y-9512338D01*
X17943593Y-9512337D01*
X17943592Y-9512337D01*
X17943591Y-9512336D01*
X17943590Y-9512336D01*
X17925386Y-9504796D01*
X17925385Y-9504795D01*
X17925384Y-9504795D01*
X17925383Y-9504795D01*
X17925383Y-9504795D01*
X17925382Y-9504795D01*
X17906055Y-9500950D01*
X17906054Y-9500950D01*
X17906054Y-9500950D01*
X17824432Y-9500950D01*
X17820938Y-9500448D01*
X17819606Y-9500057D01*
X17813728Y-9496279D01*
X17810826Y-9489924D01*
X17810641Y-9488638D01*
X17810566Y-9485751D01*
X17810569Y-9485720D01*
X17810569Y-9485720D01*
X17811210Y-9478662D01*
X17811210Y-9407338D01*
X17810569Y-9400280D01*
X17805508Y-9384039D01*
X17796707Y-9369482D01*
X17796707Y-9369481D01*
X17796707Y-9369481D01*
X17784679Y-9357453D01*
X17770121Y-9348652D01*
X17770120Y-9348652D01*
X17770120Y-9348652D01*
X17770120Y-9348652D01*
X17767595Y-9347865D01*
X17767594Y-9347865D01*
X17767594Y-9347865D01*
X17754838Y-9343890D01*
X17754403Y-9343715D01*
X17753746Y-9343560D01*
X17753319Y-9343540D01*
X17748938Y-9343142D01*
X17748938Y-9343142D01*
X17747014Y-9342967D01*
X17746822Y-9342950D01*
X17746822Y-9342950D01*
X17695498Y-9342950D01*
X17694399Y-9343050D01*
X17693575Y-9343125D01*
X17691863Y-9343280D01*
X17688441Y-9343591D01*
X17672199Y-9348652D01*
X17667987Y-9351199D01*
X17657641Y-9357453D01*
X17657641Y-9357453D01*
X17657641Y-9357453D01*
X17651153Y-9363941D01*
X17648327Y-9366056D01*
X17646956Y-9366805D01*
X17640130Y-9368290D01*
X17639949Y-9368277D01*
X17634129Y-9366341D01*
X17633478Y-9365922D01*
X17631414Y-9364259D01*
X17624648Y-9357493D01*
X17624648Y-9357493D01*
X17624648Y-9357493D01*
X17617802Y-9353354D01*
X17617802Y-9353354D01*
X17610100Y-9348698D01*
X17610100Y-9348698D01*
X17602254Y-9346253D01*
X17601540Y-9345927D01*
X17599491Y-9344152D01*
X17588191Y-9343125D01*
X17586817Y-9343000D01*
X17586817Y-9343000D01*
X17586160Y-9343000D01*
X17586160Y-9428817D01*
X17585658Y-9432311D01*
X17585217Y-9433811D01*
X17581443Y-9439686D01*
X17581306Y-9439804D01*
X17575820Y-9442552D01*
X17575064Y-9442716D01*
X17572427Y-9443000D01*
X17550343Y-9443000D01*
X17546849Y-9442498D01*
X17545349Y-9442057D01*
X17539474Y-9438283D01*
X17539356Y-9438146D01*
X17536608Y-9432658D01*
X17536443Y-9431902D01*
X17536160Y-9429267D01*
X17536160Y-9343000D01*
X17536160Y-9343000D01*
X17535506Y-9343000D01*
X17535501Y-9343000D01*
X17535501Y-9343000D01*
X17528451Y-9343641D01*
X17528450Y-9343641D01*
X17528449Y-9343641D01*
X17528448Y-9343641D01*
X17512221Y-9348698D01*
X17512220Y-9348698D01*
X17497673Y-9357492D01*
X17497672Y-9357493D01*
X17493744Y-9361421D01*
X17490919Y-9363536D01*
X17489546Y-9364285D01*
X17482720Y-9365770D01*
X17482653Y-9365765D01*
X17482540Y-9365757D01*
X17476718Y-9363820D01*
X17476068Y-9363402D01*
X17474005Y-9361739D01*
X17469719Y-9357453D01*
X17469719Y-9357453D01*
X17469719Y-9357453D01*
X17455161Y-9348652D01*
X17455160Y-9348652D01*
X17455160Y-9348652D01*
X17455160Y-9348652D01*
X17452635Y-9347865D01*
X17452634Y-9347865D01*
X17452634Y-9347865D01*
X17439878Y-9343890D01*
X17439443Y-9343715D01*
X17438786Y-9343560D01*
X17438359Y-9343540D01*
X17433978Y-9343142D01*
X17433978Y-9343142D01*
X17432054Y-9342967D01*
X17431862Y-9342950D01*
X17431862Y-9342950D01*
X17380538Y-9342950D01*
X17379439Y-9343050D01*
X17378615Y-9343125D01*
X17376903Y-9343280D01*
X17373481Y-9343591D01*
X17357239Y-9348652D01*
X17353027Y-9351199D01*
X17342681Y-9357453D01*
X17342681Y-9357453D01*
X17342681Y-9357453D01*
X17336193Y-9363941D01*
X17333367Y-9366056D01*
X17331996Y-9366805D01*
X17325170Y-9368290D01*
X17324989Y-9368277D01*
X17319169Y-9366341D01*
X17318518Y-9365922D01*
X17316454Y-9364259D01*
X17309688Y-9357493D01*
X17309688Y-9357493D01*
X17309688Y-9357493D01*
X17302842Y-9353354D01*
X17302842Y-9353354D01*
X17295140Y-9348698D01*
X17295140Y-9348698D01*
X17287294Y-9346253D01*
X17286580Y-9345927D01*
X17284531Y-9344152D01*
X17273231Y-9343125D01*
X17271857Y-9343000D01*
X17271857Y-9343000D01*
X17271200Y-9343000D01*
X17271200Y-9543000D01*
X17271858Y-9543000D01*
X17271859Y-9543000D01*
X17275411Y-9542677D01*
X17277787Y-9542461D01*
X17281310Y-9542645D01*
X17282672Y-9542914D01*
X17288868Y-9546144D01*
X17292334Y-9552210D01*
X17292369Y-9552358D01*
X17292402Y-9552499D01*
X17292433Y-9558101D01*
X17292374Y-9558362D01*
X17291735Y-9560372D01*
X17290901Y-9562387D01*
X17290187Y-9564110D01*
X17289335Y-9566168D01*
X17287318Y-9571035D01*
X17287318Y-9571037D01*
X17286995Y-9571817D01*
X17286995Y-9571817D01*
X17286995Y-9571817D01*
X17286995Y-9571817D01*
X17286955Y-9572017D01*
X17286954Y-9572019D01*
X17286952Y-9572031D01*
X17283150Y-9591145D01*
X17283150Y-9595266D01*
X17282647Y-9598760D01*
X17282264Y-9600067D01*
X17278486Y-9605945D01*
X17272130Y-9608846D01*
X17265930Y-9608152D01*
X17265159Y-9607856D01*
X17262706Y-9606587D01*
X17260481Y-9605101D01*
X17260471Y-9605094D01*
X17257221Y-9602923D01*
X17257221Y-9602922D01*
X17257216Y-9602919D01*
X17257216Y-9602919D01*
X17257117Y-9602853D01*
X17256655Y-9602688D01*
X17244475Y-9597643D01*
X17244473Y-9597642D01*
X17244472Y-9597642D01*
X17230940Y-9594950D01*
X17230940Y-9594950D01*
X17230939Y-9594950D01*
X17230939Y-9594950D01*
X17108335Y-9594950D01*
X17104841Y-9594448D01*
X17103756Y-9594129D01*
X17097878Y-9590352D01*
X17094976Y-9583996D01*
X17095970Y-9577081D01*
X17096289Y-9576382D01*
X17098800Y-9572766D01*
X17121011Y-9550555D01*
X17121011Y-9550554D01*
X17128678Y-9539081D01*
X17129234Y-9537737D01*
X17132700Y-9529370D01*
X17133958Y-9526333D01*
X17135580Y-9518181D01*
X17136650Y-9512800D01*
X17136650Y-9504172D01*
X17137802Y-9500247D01*
X17138750Y-9496920D01*
X17143992Y-9492302D01*
X17150900Y-9491251D01*
X17157279Y-9494101D01*
X17159612Y-9496749D01*
X17159941Y-9497252D01*
X17161403Y-9500352D01*
X17161871Y-9501852D01*
X17161898Y-9501940D01*
X17162451Y-9502854D01*
X17170693Y-9516488D01*
X17182712Y-9528507D01*
X17184140Y-9529370D01*
X17197260Y-9537302D01*
X17197260Y-9537302D01*
X17205107Y-9539747D01*
X17205820Y-9540073D01*
X17207869Y-9541848D01*
X17213489Y-9542359D01*
X17213489Y-9542359D01*
X17213489Y-9542359D01*
X17220541Y-9543000D01*
X17220543Y-9543000D01*
X17221200Y-9543000D01*
X17221200Y-9543000D01*
X17221200Y-9343000D01*
X17221200Y-9343000D01*
X17220546Y-9343000D01*
X17220541Y-9343000D01*
X17220541Y-9343000D01*
X17213491Y-9343641D01*
X17213490Y-9343641D01*
X17213489Y-9343641D01*
X17213488Y-9343641D01*
X17197261Y-9348698D01*
X17197260Y-9348698D01*
X17182713Y-9357492D01*
X17182712Y-9357493D01*
X17180848Y-9359357D01*
X17178023Y-9361472D01*
X17176804Y-9362137D01*
X17169977Y-9363623D01*
X17163431Y-9361181D01*
X17163061Y-9360904D01*
X17158876Y-9355313D01*
X17154160Y-9342667D01*
X17154159Y-9342666D01*
X17146661Y-9332650D01*
X17145535Y-9331146D01*
X17145534Y-9331145D01*
X17137052Y-9324795D01*
X17134014Y-9322521D01*
X17134013Y-9322520D01*
X17134013Y-9322520D01*
X17134013Y-9322520D01*
X17120528Y-9317491D01*
X17120528Y-9317491D01*
X17114568Y-9316850D01*
X17114568Y-9316850D01*
X17114567Y-9316850D01*
X17114566Y-9316850D01*
X17114464Y-9316850D01*
X17019000Y-9316850D01*
X17018633Y-9316850D01*
X17018632Y-9316850D01*
X17012672Y-9317491D01*
X17002288Y-9321364D01*
X17001728Y-9321515D01*
X17001254Y-9321504D01*
X16999380Y-9321912D01*
X16997346Y-9322058D01*
X16991309Y-9320968D01*
X16990605Y-9320647D01*
X16988327Y-9319295D01*
X16985852Y-9317442D01*
X16985061Y-9316850D01*
X16984153Y-9316170D01*
X16984153Y-9316170D01*
X16979204Y-9314325D01*
X16975670Y-9311678D01*
X16965478Y-9310583D01*
X16964994Y-9310500D01*
X16964708Y-9310500D01*
X16964707Y-9310500D01*
X16964706Y-9310500D01*
X16815433Y-9310500D01*
X16815432Y-9310500D01*
X16815239Y-9310516D01*
X16815075Y-9310539D01*
X16809472Y-9311141D01*
X16809471Y-9311141D01*
X16795987Y-9316170D01*
X16795613Y-9316411D01*
X16795277Y-9316702D01*
X16784736Y-9324593D01*
X16784513Y-9324751D01*
X16784465Y-9324796D01*
X16783149Y-9326554D01*
X16780653Y-9329049D01*
X16778833Y-9330412D01*
X16773606Y-9332688D01*
X16773248Y-9332753D01*
X16771044Y-9332950D01*
X16757212Y-9332950D01*
X16753940Y-9332511D01*
X16750841Y-9331663D01*
X16747801Y-9330375D01*
X16744838Y-9328623D01*
X16744177Y-9328110D01*
X16742566Y-9327443D01*
X16741795Y-9327333D01*
X16737020Y-9325946D01*
X16727708Y-9323240D01*
X16727707Y-9323240D01*
X16727707Y-9323240D01*
X16727707Y-9323240D01*
X16724021Y-9322950D01*
X16724020Y-9322950D01*
X16724019Y-9322950D01*
X16608381Y-9322950D01*
X16608380Y-9322950D01*
X16608379Y-9322950D01*
X16604693Y-9323240D01*
X16604693Y-9323240D01*
X16604692Y-9323240D01*
X16604692Y-9323240D01*
X16588911Y-9327825D01*
X16588910Y-9327826D01*
X16574764Y-9336191D01*
X16574763Y-9336192D01*
X16574762Y-9336193D01*
X16563100Y-9347855D01*
X16562953Y-9347999D01*
X16562904Y-9348047D01*
X16562885Y-9348057D01*
X16562745Y-9348198D01*
X16560805Y-9350010D01*
X16554561Y-9353145D01*
X16547614Y-9352408D01*
X16547400Y-9352320D01*
X16542758Y-9348978D01*
X16542516Y-9348698D01*
X16542264Y-9348408D01*
X16542022Y-9348129D01*
X16542022Y-9348128D01*
X16541833Y-9347910D01*
X16541832Y-9347909D01*
X16541777Y-9347846D01*
X16541758Y-9347814D01*
X16541758Y-9347813D01*
X16541691Y-9347747D01*
X16541463Y-9347483D01*
X16541463Y-9347483D01*
X16540428Y-9346289D01*
X16540303Y-9346239D01*
X16539220Y-9345276D01*
X16530137Y-9336192D01*
X16530136Y-9336192D01*
X16530136Y-9336191D01*
X16522318Y-9331568D01*
X16517338Y-9328623D01*
X16516677Y-9328110D01*
X16515066Y-9327443D01*
X16514295Y-9327333D01*
X16509520Y-9325946D01*
X16500208Y-9323240D01*
X16500207Y-9323240D01*
X16500207Y-9323240D01*
X16500207Y-9323240D01*
X16496521Y-9322950D01*
X16496520Y-9322950D01*
X16496519Y-9322950D01*
X16467875Y-9322950D01*
X16464381Y-9322448D01*
X16461857Y-9321707D01*
X16456583Y-9318577D01*
X16446034Y-9308029D01*
X16442382Y-9305588D01*
X16434561Y-9300362D01*
X16421815Y-9295083D01*
X16421814Y-9295082D01*
X16421813Y-9295082D01*
X16421812Y-9295082D01*
X16421812Y-9295082D01*
X16408280Y-9292390D01*
X16408280Y-9292390D01*
X16408279Y-9292390D01*
X16408279Y-9292390D01*
X16391874Y-9292390D01*
X16388026Y-9291260D01*
X16385140Y-9290697D01*
X16383874Y-9289484D01*
X16383646Y-9289310D01*
X16383665Y-9289284D01*
X16380095Y-9285863D01*
X16378464Y-9279069D01*
X16380765Y-9272472D01*
X16383207Y-9269923D01*
X16383518Y-9269680D01*
X16385529Y-9268397D01*
X16388729Y-9266767D01*
X16402982Y-9259505D01*
X16409193Y-9254992D01*
X16420179Y-9247011D01*
X16420179Y-9247011D01*
X16420179Y-9247010D01*
X16420180Y-9247010D01*
X16420185Y-9247006D01*
X16420260Y-9246929D01*
X16435210Y-9231979D01*
X16435211Y-9231979D01*
X16435211Y-9231979D01*
X16447705Y-9214782D01*
X16447705Y-9214782D01*
X16447705Y-9214782D01*
X16447705Y-9214781D01*
X16447991Y-9214387D01*
X16447991Y-9214387D01*
X16448506Y-9213678D01*
X16449523Y-9212453D01*
X16450265Y-9211668D01*
X16456298Y-9208146D01*
X16463279Y-9208445D01*
X16468650Y-9212061D01*
X16469271Y-9212777D01*
X16470473Y-9214419D01*
X16470695Y-9214782D01*
X16470695Y-9214782D01*
X16483189Y-9231979D01*
X16483189Y-9231979D01*
X16498222Y-9247011D01*
X16515417Y-9259504D01*
X16515420Y-9259506D01*
X16515444Y-9259518D01*
X16534359Y-9269156D01*
X16554576Y-9275725D01*
X16575571Y-9279050D01*
X16575571Y-9279050D01*
X16596829Y-9279050D01*
X16596829Y-9279050D01*
X16617824Y-9275725D01*
X16638041Y-9269156D01*
X16656982Y-9259505D01*
X16663193Y-9254992D01*
X16674179Y-9247011D01*
X16674179Y-9247011D01*
X16674179Y-9247010D01*
X16674180Y-9247010D01*
X16674185Y-9247006D01*
X16674260Y-9246929D01*
X16689210Y-9231979D01*
X16689211Y-9231979D01*
X16689211Y-9231979D01*
X16701705Y-9214782D01*
X16701705Y-9214782D01*
X16701705Y-9214782D01*
X16701705Y-9214781D01*
X16701991Y-9214387D01*
X16701991Y-9214387D01*
X16702506Y-9213678D01*
X16703523Y-9212453D01*
X16704265Y-9211668D01*
X16710298Y-9208146D01*
X16717279Y-9208445D01*
X16722650Y-9212061D01*
X16723271Y-9212777D01*
X16724473Y-9214419D01*
X16724695Y-9214782D01*
X16724695Y-9214782D01*
X16737189Y-9231979D01*
X16737189Y-9231979D01*
X16752222Y-9247011D01*
X16769417Y-9259504D01*
X16769420Y-9259506D01*
X16769444Y-9259518D01*
X16788359Y-9269156D01*
X16808576Y-9275725D01*
X16829571Y-9279050D01*
X16829571Y-9279050D01*
X16850829Y-9279050D01*
X16850829Y-9279050D01*
X16871824Y-9275725D01*
X16892041Y-9269156D01*
X16910982Y-9259505D01*
X16917193Y-9254992D01*
X16928179Y-9247011D01*
X16928179Y-9247011D01*
X16928179Y-9247010D01*
X16928180Y-9247010D01*
X16928185Y-9247006D01*
X16928261Y-9246929D01*
X16943210Y-9231979D01*
X16943211Y-9231979D01*
X16943211Y-9231979D01*
X16955705Y-9214782D01*
X16955705Y-9214782D01*
X16955705Y-9214782D01*
X16955705Y-9214781D01*
X16955992Y-9214387D01*
X16955992Y-9214387D01*
X16956507Y-9213678D01*
X16957523Y-9212453D01*
X16958265Y-9211668D01*
X16964299Y-9208146D01*
X16971279Y-9208445D01*
X16976650Y-9212061D01*
X16977271Y-9212777D01*
X16978473Y-9214419D01*
X16978695Y-9214782D01*
X16978695Y-9214782D01*
X16991189Y-9231979D01*
X16991189Y-9231979D01*
X17006222Y-9247011D01*
X17023417Y-9259504D01*
X17023420Y-9259506D01*
X17023444Y-9259518D01*
X17042359Y-9269156D01*
X17062576Y-9275725D01*
X17083571Y-9279050D01*
X17083571Y-9279050D01*
X17104829Y-9279050D01*
X17104829Y-9279050D01*
X17125824Y-9275725D01*
X17146041Y-9269156D01*
X17164982Y-9259505D01*
X17171193Y-9254992D01*
X17182179Y-9247011D01*
X17182179Y-9247011D01*
X17182179Y-9247010D01*
X17182180Y-9247010D01*
X17182185Y-9247006D01*
X17182261Y-9246929D01*
X17197210Y-9231979D01*
X17197211Y-9231979D01*
X17197211Y-9231979D01*
X17209705Y-9214782D01*
X17209705Y-9214782D01*
X17209705Y-9214782D01*
X17209705Y-9214781D01*
X17209992Y-9214387D01*
X17209992Y-9214387D01*
X17210507Y-9213678D01*
X17211523Y-9212453D01*
X17212265Y-9211668D01*
X17218299Y-9208146D01*
X17225279Y-9208445D01*
X17230650Y-9212061D01*
X17231271Y-9212777D01*
X17232473Y-9214419D01*
X17232695Y-9214782D01*
X17232695Y-9214782D01*
X17245189Y-9231979D01*
X17245189Y-9231979D01*
X17260222Y-9247011D01*
X17277417Y-9259504D01*
X17277420Y-9259506D01*
X17277444Y-9259518D01*
X17296359Y-9269156D01*
X17316576Y-9275725D01*
X17337571Y-9279050D01*
X17337571Y-9279050D01*
X17358829Y-9279050D01*
X17358829Y-9279050D01*
X17379824Y-9275725D01*
X17400041Y-9269156D01*
X17418982Y-9259505D01*
X17432133Y-9249950D01*
X17436178Y-9247011D01*
X17436178Y-9247011D01*
X17436397Y-9246852D01*
X17436397Y-9246852D01*
X17436398Y-9246852D01*
X17436983Y-9246426D01*
X17437567Y-9245623D01*
X17446311Y-9236878D01*
X17449136Y-9234764D01*
X17450354Y-9234098D01*
X17457182Y-9232613D01*
X17463727Y-9235055D01*
X17464095Y-9235330D01*
X17468282Y-9240923D01*
X17468282Y-9240923D01*
X17472865Y-9253209D01*
X17472865Y-9253209D01*
X17481481Y-9264719D01*
X17481481Y-9264719D01*
X17492991Y-9273335D01*
X17492991Y-9273335D01*
X17506462Y-9278360D01*
X17506463Y-9278360D01*
X17507147Y-9278433D01*
X17512414Y-9279000D01*
X17512416Y-9279000D01*
X17512417Y-9279000D01*
X17577200Y-9279000D01*
X17577200Y-9205225D01*
X17579169Y-9198521D01*
X17584449Y-9193946D01*
X17591365Y-9192951D01*
X17592809Y-9193248D01*
G37*
%TD.AperFunction*%
%TA.AperFunction,Conductor*%
G36*
X12939311Y-10655502D02*
G01*
X12940810Y-10655943D01*
X12946685Y-10659717D01*
X12946804Y-10659854D01*
X12948791Y-10664200D01*
X12949136Y-10664091D01*
X12949419Y-10664984D01*
X12949558Y-10665879D01*
X12949709Y-10666209D01*
X12949661Y-10666542D01*
X12950000Y-10668733D01*
X12950000Y-10795000D01*
X12950282Y-10795681D01*
X12951209Y-10796919D01*
X12951775Y-10797957D01*
X12951874Y-10798138D01*
X12953359Y-10804965D01*
X12950918Y-10811511D01*
X12950918Y-10811512D01*
X12950138Y-10812554D01*
X12947500Y-10815154D01*
X12942222Y-10818988D01*
X12942222Y-10818988D01*
X12942220Y-10818990D01*
X12927189Y-10834021D01*
X12927189Y-10834021D01*
X12914695Y-10851218D01*
X12914694Y-10851219D01*
X12914663Y-10851270D01*
X12914550Y-10851418D01*
X12914408Y-10851613D01*
X12914404Y-10851609D01*
X12913106Y-10853304D01*
X12912135Y-10854332D01*
X12906101Y-10857854D01*
X12899120Y-10857555D01*
X12893749Y-10853938D01*
X12893128Y-10853222D01*
X12891927Y-10851581D01*
X12891705Y-10851219D01*
X12891705Y-10851218D01*
X12891705Y-10851218D01*
X12879211Y-10834021D01*
X12864179Y-10818989D01*
X12846982Y-10806495D01*
X12843724Y-10804835D01*
X12830224Y-10797957D01*
X12830224Y-10797957D01*
X12828041Y-10796844D01*
X12828041Y-10796844D01*
X12828041Y-10796844D01*
X12816798Y-10793191D01*
X12808707Y-10790562D01*
X12808255Y-10790377D01*
X12807336Y-10790160D01*
X12806860Y-10790123D01*
X12796603Y-10788498D01*
X12793231Y-10787455D01*
X12792061Y-10786901D01*
X12786846Y-10782250D01*
X12784974Y-10775518D01*
X12786754Y-10769293D01*
X12787233Y-10768499D01*
X12789083Y-10766135D01*
X12800851Y-10754367D01*
X12800852Y-10754366D01*
X12804420Y-10750798D01*
X12808374Y-10746843D01*
X12811200Y-10744728D01*
X12812418Y-10744063D01*
X12819245Y-10742578D01*
X12825791Y-10745020D01*
X12825792Y-10745021D01*
X12826075Y-10745232D01*
X12829635Y-10749418D01*
X12829710Y-10749563D01*
X12830489Y-10751401D01*
X12830916Y-10752690D01*
X12831279Y-10753786D01*
X12831279Y-10753786D01*
X12831279Y-10753786D01*
X12840082Y-10768059D01*
X12840083Y-10768059D01*
X12851941Y-10779917D01*
X12866214Y-10788721D01*
X12866215Y-10788721D01*
X12873169Y-10791026D01*
X12876651Y-10793436D01*
X12882134Y-10793996D01*
X12882134Y-10793996D01*
X12882133Y-10793996D01*
X12891958Y-10795000D01*
X12891958Y-10795000D01*
X12891959Y-10795000D01*
X12891959Y-10795000D01*
X12900000Y-10795000D01*
X12900000Y-10669183D01*
X12900502Y-10665689D01*
X12900530Y-10665596D01*
X12900943Y-10664189D01*
X12904717Y-10658314D01*
X12904854Y-10658196D01*
X12910342Y-10655448D01*
X12911098Y-10655283D01*
X12913733Y-10655000D01*
X12935817Y-10655000D01*
X12939311Y-10655502D01*
G37*
%TD.AperFunction*%
%TA.AperFunction,Conductor*%
G36*
X13166423Y-10664776D02*
G01*
X13166612Y-10664846D01*
X13166831Y-10664814D01*
X13166837Y-10664815D01*
X13167138Y-10664859D01*
X13167113Y-10665032D01*
X13172970Y-10667215D01*
X13173288Y-10667461D01*
X13173289Y-10667462D01*
X13174310Y-10668376D01*
X13181481Y-10675547D01*
X13196039Y-10684348D01*
X13202021Y-10686212D01*
X13205206Y-10687730D01*
X13206702Y-10688727D01*
X13211009Y-10693687D01*
X13211520Y-10694753D01*
X13212500Y-10697693D01*
X13214381Y-10707150D01*
X13214386Y-10707177D01*
X13214387Y-10707178D01*
X13214387Y-10707179D01*
X13214387Y-10707180D01*
X13219666Y-10719924D01*
X13219667Y-10719925D01*
X13219668Y-10719927D01*
X13227333Y-10731399D01*
X13227333Y-10731399D01*
X13227334Y-10731400D01*
X13237089Y-10741155D01*
X13237090Y-10741156D01*
X13237090Y-10741156D01*
X13248563Y-10748822D01*
X13248564Y-10748822D01*
X13260547Y-10753786D01*
X13260687Y-10753844D01*
X13260754Y-10753871D01*
X13260754Y-10753872D01*
X13261191Y-10754079D01*
X13261312Y-10754103D01*
X13261312Y-10754103D01*
X13261312Y-10754103D01*
X13261312Y-10754103D01*
X13261312Y-10754103D01*
X13263431Y-10754524D01*
X13274845Y-10756795D01*
X13274845Y-10756795D01*
X13285810Y-10756795D01*
X13289303Y-10757297D01*
X13291827Y-10758038D01*
X13297102Y-10761168D01*
X13300455Y-10764521D01*
X13302571Y-10767347D01*
X13303113Y-10768340D01*
X13304598Y-10775167D01*
X13302156Y-10781714D01*
X13296563Y-10785900D01*
X13295844Y-10786168D01*
X13291511Y-10786950D01*
X13273571Y-10786950D01*
X13270381Y-10787455D01*
X13269296Y-10787627D01*
X13252576Y-10790275D01*
X13232358Y-10796845D01*
X13213418Y-10806495D01*
X13213418Y-10806495D01*
X13213418Y-10806495D01*
X13207740Y-10810620D01*
X13196221Y-10818989D01*
X13181189Y-10834021D01*
X13181189Y-10834021D01*
X13168695Y-10851218D01*
X13168694Y-10851219D01*
X13168663Y-10851270D01*
X13168550Y-10851418D01*
X13168408Y-10851613D01*
X13168404Y-10851609D01*
X13167106Y-10853304D01*
X13166135Y-10854332D01*
X13160101Y-10857854D01*
X13153120Y-10857555D01*
X13147749Y-10853938D01*
X13147128Y-10853222D01*
X13145927Y-10851581D01*
X13145705Y-10851219D01*
X13145705Y-10851218D01*
X13145705Y-10851218D01*
X13133211Y-10834021D01*
X13118179Y-10818989D01*
X13100982Y-10806495D01*
X13097724Y-10804835D01*
X13084224Y-10797957D01*
X13084224Y-10797957D01*
X13082041Y-10796844D01*
X13082041Y-10796844D01*
X13082041Y-10796844D01*
X13070798Y-10793191D01*
X13062707Y-10790562D01*
X13062255Y-10790377D01*
X13061336Y-10790160D01*
X13060860Y-10790123D01*
X13045104Y-10787627D01*
X13044019Y-10787455D01*
X13040829Y-10786950D01*
X13040829Y-10786950D01*
X13022266Y-10786950D01*
X13018772Y-10786448D01*
X13017440Y-10786057D01*
X13011562Y-10782279D01*
X13008660Y-10775923D01*
X13008660Y-10775922D01*
X13008650Y-10775854D01*
X13009266Y-10769867D01*
X13009494Y-10769238D01*
X13010598Y-10766955D01*
X13018721Y-10753786D01*
X13018721Y-10753785D01*
X13023996Y-10737866D01*
X13025000Y-10728042D01*
X13025000Y-10728041D01*
X13025000Y-10699543D01*
X13025502Y-10696049D01*
X13025534Y-10695940D01*
X13025893Y-10694718D01*
X13029671Y-10688840D01*
X13036026Y-10685937D01*
X13036027Y-10685937D01*
X13036750Y-10685833D01*
X13042203Y-10686268D01*
X13052280Y-10689409D01*
X13059338Y-10690050D01*
X13059339Y-10690050D01*
X13110661Y-10690050D01*
X13110662Y-10690050D01*
X13117720Y-10689409D01*
X13133961Y-10684348D01*
X13148518Y-10675547D01*
X13152312Y-10671754D01*
X13154971Y-10669094D01*
X13156038Y-10668296D01*
X13156018Y-10668273D01*
X13156393Y-10667949D01*
X13156917Y-10667638D01*
X13157797Y-10666979D01*
X13158197Y-10666761D01*
X13158246Y-10666850D01*
X13159670Y-10666005D01*
X13159639Y-10665937D01*
X13159916Y-10665811D01*
X13160023Y-10665795D01*
X13160183Y-10665700D01*
X13160462Y-10665596D01*
X13160510Y-10665725D01*
X13166242Y-10664899D01*
X13166252Y-10664763D01*
X13166423Y-10664776D01*
G37*
%TD.AperFunction*%
%TA.AperFunction,Conductor*%
G36*
X12281658Y-9291552D02*
G01*
X12282743Y-9291871D01*
X12288621Y-9295648D01*
X12291524Y-9302003D01*
X12290530Y-9308919D01*
X12290530Y-9308919D01*
X12290212Y-9309616D01*
X12287700Y-9313234D01*
X12285589Y-9315345D01*
X12285589Y-9315345D01*
X12285588Y-9315346D01*
X12277923Y-9326818D01*
X12277922Y-9326819D01*
X12277922Y-9326820D01*
X12272643Y-9339564D01*
X12272642Y-9339568D01*
X12269950Y-9353100D01*
X12269950Y-9362463D01*
X12269424Y-9364255D01*
X12272642Y-9380432D01*
X12272642Y-9380432D01*
X12272642Y-9380432D01*
X12272642Y-9380433D01*
X12272642Y-9380434D01*
X12272643Y-9380435D01*
X12277922Y-9393180D01*
X12277922Y-9393181D01*
X12277923Y-9393182D01*
X12285589Y-9404654D01*
X12285589Y-9404654D01*
X12285877Y-9404987D01*
X12285836Y-9405022D01*
X12287592Y-9407368D01*
X12288341Y-9408740D01*
X12289826Y-9415566D01*
X12289813Y-9415746D01*
X12287876Y-9421567D01*
X12287458Y-9422217D01*
X12285795Y-9424282D01*
X12100747Y-9609329D01*
X12100744Y-9609333D01*
X12100629Y-9609448D01*
X12089448Y-9620628D01*
X12089448Y-9620628D01*
X12088530Y-9622218D01*
X12088530Y-9622218D01*
X12085636Y-9627231D01*
X12085265Y-9627873D01*
X12082872Y-9632019D01*
X12081546Y-9634316D01*
X12081542Y-9634322D01*
X12077450Y-9649594D01*
X12077450Y-9649595D01*
X12077450Y-9666640D01*
X12077450Y-9666645D01*
X12077450Y-10087333D01*
X12077450Y-10087335D01*
X12077450Y-10093806D01*
X12077450Y-10099696D01*
X12076860Y-10101705D01*
X12077450Y-10103905D01*
X12081542Y-10119179D01*
X12083344Y-10122299D01*
X12083344Y-10122299D01*
X12083669Y-10122863D01*
X12083670Y-10122863D01*
X12089447Y-10132871D01*
X12089448Y-10132872D01*
X12089448Y-10132872D01*
X12101531Y-10144955D01*
X12101536Y-10144959D01*
X12175795Y-10219218D01*
X12177765Y-10221786D01*
X12179342Y-10224518D01*
X12180581Y-10227508D01*
X12180656Y-10227787D01*
X12180656Y-10227788D01*
X12183842Y-10239678D01*
X12183845Y-10239684D01*
X12183891Y-10239763D01*
X12184467Y-10240761D01*
X12191563Y-10253051D01*
X12191701Y-10253308D01*
X12191740Y-10253363D01*
X12191748Y-10253372D01*
X12202928Y-10264552D01*
X12212006Y-10269793D01*
X12214780Y-10271975D01*
X12216079Y-10273336D01*
X12219155Y-10278969D01*
X12219400Y-10279982D01*
X12219750Y-10282905D01*
X12219750Y-10318287D01*
X12219755Y-10318357D01*
X12219773Y-10318502D01*
X12220391Y-10324248D01*
X12222559Y-10330061D01*
X12225420Y-10337733D01*
X12225421Y-10337734D01*
X12228176Y-10341414D01*
X12234045Y-10349254D01*
X12234045Y-10349254D01*
X12234045Y-10349255D01*
X12244990Y-10357448D01*
X12246326Y-10358605D01*
X12247882Y-10360161D01*
X12251231Y-10366293D01*
X12250732Y-10373263D01*
X12250731Y-10373266D01*
X12250678Y-10373407D01*
X12247386Y-10378261D01*
X12246999Y-10378612D01*
X12245089Y-10380033D01*
X12237713Y-10384492D01*
X12237712Y-10384493D01*
X12225693Y-10396512D01*
X12216898Y-10411060D01*
X12211841Y-10427290D01*
X12211390Y-10432249D01*
X12211200Y-10434343D01*
X12211200Y-10445000D01*
X12287017Y-10445000D01*
X12290511Y-10445502D01*
X12292010Y-10445943D01*
X12297885Y-10449717D01*
X12298004Y-10449854D01*
X12300752Y-10455340D01*
X12300916Y-10456096D01*
X12301200Y-10458733D01*
X12301200Y-10470000D01*
X12312017Y-10470000D01*
X12315511Y-10470502D01*
X12317010Y-10470943D01*
X12322885Y-10474717D01*
X12323004Y-10474854D01*
X12325752Y-10480340D01*
X12325916Y-10481096D01*
X12326200Y-10483733D01*
X12326200Y-10570000D01*
X12326858Y-10570000D01*
X12326858Y-10570000D01*
X12328618Y-10569840D01*
X12333909Y-10569359D01*
X12333909Y-10569359D01*
X12333910Y-10569359D01*
X12333911Y-10569359D01*
X12350140Y-10564302D01*
X12364289Y-10555748D01*
X12365221Y-10555185D01*
X12365887Y-10554308D01*
X12371136Y-10549059D01*
X12373960Y-10546944D01*
X12375333Y-10546195D01*
X12382159Y-10544710D01*
X12382339Y-10544722D01*
X12388160Y-10546659D01*
X12388811Y-10547078D01*
X12390875Y-10548741D01*
X12395057Y-10552923D01*
X12397172Y-10555748D01*
X12398433Y-10558057D01*
X12399950Y-10564000D01*
X12399950Y-10568240D01*
X12399448Y-10571734D01*
X12398220Y-10575915D01*
X12397778Y-10577167D01*
X12392643Y-10589564D01*
X12392642Y-10589568D01*
X12389950Y-10603100D01*
X12389950Y-10612463D01*
X12389424Y-10614255D01*
X12392642Y-10630432D01*
X12392642Y-10630432D01*
X12392642Y-10630432D01*
X12392642Y-10630433D01*
X12392642Y-10630434D01*
X12392643Y-10630435D01*
X12397922Y-10643180D01*
X12397922Y-10643181D01*
X12397923Y-10643182D01*
X12405589Y-10654654D01*
X12405589Y-10654654D01*
X12405589Y-10654655D01*
X12415345Y-10664411D01*
X12415345Y-10664411D01*
X12415346Y-10664411D01*
X12424006Y-10670198D01*
X12426631Y-10672556D01*
X12427166Y-10673196D01*
X12427522Y-10673622D01*
X12430310Y-10680028D01*
X12429192Y-10686924D01*
X12428717Y-10687918D01*
X12426299Y-10691334D01*
X12424289Y-10693344D01*
X12424289Y-10693345D01*
X12424288Y-10693346D01*
X12416623Y-10704818D01*
X12416622Y-10704819D01*
X12416621Y-10704820D01*
X12411343Y-10717564D01*
X12411341Y-10717568D01*
X12408650Y-10731100D01*
X12408650Y-10740463D01*
X12408123Y-10742255D01*
X12411341Y-10758432D01*
X12411341Y-10758432D01*
X12411341Y-10758432D01*
X12411342Y-10758433D01*
X12411342Y-10758434D01*
X12411343Y-10758435D01*
X12416621Y-10771179D01*
X12416622Y-10771181D01*
X12416622Y-10771181D01*
X12416622Y-10771182D01*
X12417243Y-10772110D01*
X12417663Y-10772739D01*
X12419186Y-10775922D01*
X12419601Y-10777247D01*
X12419726Y-10784233D01*
X12416054Y-10790177D01*
X12414978Y-10791143D01*
X12413304Y-10792329D01*
X12413338Y-10792382D01*
X12412966Y-10792621D01*
X12401446Y-10801245D01*
X12401445Y-10801245D01*
X12398746Y-10804851D01*
X12396250Y-10807347D01*
X12395139Y-10808179D01*
X12388592Y-10810620D01*
X12381765Y-10809135D01*
X12381206Y-10808829D01*
X12376838Y-10804835D01*
X12374033Y-10800636D01*
X12374033Y-10800636D01*
X12364165Y-10790768D01*
X12364164Y-10790767D01*
X12363906Y-10790595D01*
X12359449Y-10787617D01*
X12357213Y-10784941D01*
X12339667Y-10777673D01*
X12339665Y-10777672D01*
X12339664Y-10777672D01*
X12325979Y-10774950D01*
X12325978Y-10774950D01*
X12325978Y-10774950D01*
X12322988Y-10774950D01*
X12041063Y-10774950D01*
X12040090Y-10774912D01*
X12039120Y-10774835D01*
X12038154Y-10774721D01*
X12033002Y-10773905D01*
X12031110Y-10773451D01*
X12031109Y-10773451D01*
X12029276Y-10772855D01*
X12027479Y-10772110D01*
X12025651Y-10771179D01*
X12024144Y-10770412D01*
X12022486Y-10769395D01*
X12020926Y-10768262D01*
X12019446Y-10766998D01*
X12016801Y-10764353D01*
X12015538Y-10762874D01*
X12014405Y-10761314D01*
X12013388Y-10759655D01*
X12012934Y-10758763D01*
X12011689Y-10756320D01*
X12010945Y-10754525D01*
X12010349Y-10752690D01*
X12009895Y-10750799D01*
X12009895Y-10750798D01*
X12009078Y-10745643D01*
X12008964Y-10744676D01*
X12008888Y-10743710D01*
X12008850Y-10742738D01*
X12008850Y-10505659D01*
X12211200Y-10505659D01*
X12211841Y-10512709D01*
X12211841Y-10512710D01*
X12211841Y-10512711D01*
X12211841Y-10512712D01*
X12216898Y-10528939D01*
X12216898Y-10528940D01*
X12225692Y-10543487D01*
X12225692Y-10543487D01*
X12225692Y-10543487D01*
X12225693Y-10543488D01*
X12232163Y-10549958D01*
X12237712Y-10555507D01*
X12238111Y-10555748D01*
X12252260Y-10564302D01*
X12252260Y-10564302D01*
X12260107Y-10566747D01*
X12260820Y-10567073D01*
X12262869Y-10568848D01*
X12268489Y-10569359D01*
X12268489Y-10569359D01*
X12268489Y-10569359D01*
X12275541Y-10570000D01*
X12275543Y-10570000D01*
X12276200Y-10570000D01*
X12276200Y-10570000D01*
X12276200Y-10495000D01*
X12211200Y-10495000D01*
X12211200Y-10505659D01*
X12008850Y-10505659D01*
X12008850Y-9323263D01*
X12008888Y-9322290D01*
X12008964Y-9321323D01*
X12009079Y-9320355D01*
X12009895Y-9315201D01*
X12010349Y-9313310D01*
X12010945Y-9311476D01*
X12011688Y-9309681D01*
X12013389Y-9306343D01*
X12014405Y-9304686D01*
X12015538Y-9303125D01*
X12016801Y-9301648D01*
X12019447Y-9299001D01*
X12020925Y-9297739D01*
X12022486Y-9296604D01*
X12024144Y-9295589D01*
X12027480Y-9293889D01*
X12029276Y-9293145D01*
X12031109Y-9292549D01*
X12033000Y-9292095D01*
X12033001Y-9292095D01*
X12038156Y-9291279D01*
X12039123Y-9291164D01*
X12040090Y-9291088D01*
X12041062Y-9291050D01*
X12278165Y-9291050D01*
X12281658Y-9291552D01*
G37*
%TD.AperFunction*%
%TA.AperFunction,Conductor*%
G36*
X15917868Y-10654277D02*
G01*
X15918567Y-10654596D01*
X15922184Y-10657108D01*
X15943598Y-10678522D01*
X15945714Y-10681347D01*
X15946379Y-10682566D01*
X15947864Y-10689393D01*
X15945422Y-10695939D01*
X15945422Y-10695940D01*
X15944762Y-10696822D01*
X15941725Y-10699700D01*
X15934439Y-10704569D01*
X15925031Y-10713976D01*
X15925030Y-10713978D01*
X15925029Y-10713979D01*
X15921977Y-10718547D01*
X15919618Y-10721173D01*
X15918553Y-10722062D01*
X15912147Y-10724851D01*
X15905250Y-10723733D01*
X15905250Y-10723733D01*
X15904257Y-10723258D01*
X15900840Y-10720840D01*
X15900000Y-10720000D01*
X15824183Y-10720000D01*
X15820689Y-10719498D01*
X15819189Y-10719057D01*
X15813314Y-10715283D01*
X15813196Y-10715146D01*
X15810448Y-10709658D01*
X15810283Y-10708902D01*
X15810000Y-10706267D01*
X15810000Y-10684183D01*
X15810502Y-10680689D01*
X15810642Y-10680213D01*
X15810943Y-10679189D01*
X15814717Y-10673314D01*
X15814854Y-10673196D01*
X15820342Y-10670448D01*
X15821098Y-10670283D01*
X15823733Y-10670000D01*
X15900000Y-10670000D01*
X15900000Y-10666643D01*
X15900502Y-10663150D01*
X15900715Y-10662423D01*
X15900821Y-10662064D01*
X15904598Y-10656186D01*
X15910953Y-10653284D01*
X15917868Y-10654277D01*
G37*
%TD.AperFunction*%
%TA.AperFunction,Conductor*%
G36*
X13724746Y-10447006D02*
G01*
X13730519Y-10450940D01*
X13731366Y-10451972D01*
X13733235Y-10455092D01*
X13733614Y-10456007D01*
X13737018Y-10464225D01*
X13737702Y-10466443D01*
X13737932Y-10467550D01*
X13738123Y-10468465D01*
X13737562Y-10475430D01*
X13737562Y-10475430D01*
X13737212Y-10476344D01*
X13734401Y-10480675D01*
X13705019Y-10510057D01*
X13702194Y-10512172D01*
X13699885Y-10513433D01*
X13693942Y-10514950D01*
X13604183Y-10514950D01*
X13600689Y-10514448D01*
X13599189Y-10514007D01*
X13593314Y-10510233D01*
X13593196Y-10510096D01*
X13590448Y-10504608D01*
X13590283Y-10503852D01*
X13590000Y-10501217D01*
X13590000Y-10484183D01*
X13590502Y-10480689D01*
X13590867Y-10479448D01*
X13590943Y-10479189D01*
X13594717Y-10473314D01*
X13594854Y-10473196D01*
X13600342Y-10470448D01*
X13601098Y-10470283D01*
X13603733Y-10470000D01*
X13680000Y-10470000D01*
X13680000Y-10467221D01*
X13680502Y-10463728D01*
X13680655Y-10463207D01*
X13680943Y-10462228D01*
X13684717Y-10456353D01*
X13684967Y-10456136D01*
X13690179Y-10453451D01*
X13690949Y-10453266D01*
X13692734Y-10452971D01*
X13698920Y-10452409D01*
X13711556Y-10448471D01*
X13712072Y-10448322D01*
X13715959Y-10447294D01*
X13715959Y-10447294D01*
X13717762Y-10446817D01*
X13724746Y-10447006D01*
G37*
%TD.AperFunction*%
%TA.AperFunction,Conductor*%
G36*
X16385522Y-10328256D02*
G01*
X16389180Y-10332633D01*
X16389297Y-10332866D01*
X16390538Y-10339742D01*
X16390538Y-10339743D01*
X16389950Y-10345213D01*
X16389950Y-10345213D01*
X16389950Y-10463207D01*
X16389448Y-10466701D01*
X16388706Y-10469225D01*
X16385577Y-10474499D01*
X16385019Y-10475057D01*
X16382194Y-10477172D01*
X16379885Y-10478433D01*
X16373942Y-10479950D01*
X16244183Y-10479950D01*
X16240689Y-10479448D01*
X16239189Y-10479007D01*
X16233314Y-10475233D01*
X16233196Y-10475096D01*
X16230448Y-10469608D01*
X16230283Y-10468852D01*
X16230000Y-10466217D01*
X16230000Y-10445000D01*
X16114183Y-10445000D01*
X16110689Y-10444498D01*
X16109189Y-10444057D01*
X16103314Y-10440283D01*
X16103196Y-10440146D01*
X16100448Y-10434658D01*
X16100283Y-10433902D01*
X16100000Y-10431267D01*
X16100000Y-10409183D01*
X16100502Y-10405689D01*
X16100943Y-10404190D01*
X16104717Y-10398314D01*
X16104854Y-10398196D01*
X16110342Y-10395448D01*
X16111098Y-10395283D01*
X16113733Y-10395000D01*
X16230000Y-10395000D01*
X16230000Y-10353727D01*
X16230502Y-10350234D01*
X16230893Y-10348902D01*
X16234671Y-10343024D01*
X16241026Y-10340121D01*
X16241027Y-10340121D01*
X16241750Y-10340017D01*
X16247203Y-10340453D01*
X16253480Y-10342409D01*
X16260538Y-10343050D01*
X16260539Y-10343050D01*
X16331861Y-10343050D01*
X16331862Y-10343050D01*
X16338920Y-10342409D01*
X16355161Y-10337348D01*
X16368095Y-10329529D01*
X16368561Y-10329261D01*
X16370431Y-10328239D01*
X16370431Y-10328239D01*
X16372046Y-10327357D01*
X16372046Y-10327357D01*
X16372148Y-10327301D01*
X16378975Y-10325815D01*
X16385522Y-10328256D01*
G37*
%TD.AperFunction*%
%TA.AperFunction,Conductor*%
G36*
X14045900Y-9465552D02*
G01*
X14048425Y-9466293D01*
X14053699Y-9469423D01*
X14058457Y-9474181D01*
X14060572Y-9477006D01*
X14061833Y-9479315D01*
X14063350Y-9485258D01*
X14063350Y-9537737D01*
X14063366Y-9537931D01*
X14063388Y-9538095D01*
X14063991Y-9543698D01*
X14066570Y-9550615D01*
X14069020Y-9557183D01*
X14069021Y-9557184D01*
X14072916Y-9562387D01*
X14077645Y-9568704D01*
X14077645Y-9568704D01*
X14077645Y-9568705D01*
X14089166Y-9577329D01*
X14089167Y-9577330D01*
X14093662Y-9579006D01*
X14102652Y-9582359D01*
X14108613Y-9583000D01*
X14148187Y-9583000D01*
X14154148Y-9582359D01*
X14167633Y-9577330D01*
X14169542Y-9575901D01*
X14172639Y-9574209D01*
X14174104Y-9573663D01*
X14181072Y-9573164D01*
X14181073Y-9573165D01*
X14182004Y-9573367D01*
X14186798Y-9575556D01*
X14187004Y-9575710D01*
X14189499Y-9578206D01*
X14192011Y-9581561D01*
X14193400Y-9582950D01*
X14198181Y-9582950D01*
X14198182Y-9582950D01*
X14198183Y-9582950D01*
X14201178Y-9582628D01*
X14202504Y-9582557D01*
X14203826Y-9582557D01*
X14205150Y-9582628D01*
X14208613Y-9583000D01*
X14248187Y-9583000D01*
X14249213Y-9583000D01*
X14249959Y-9582809D01*
X14251662Y-9582626D01*
X14252487Y-9582566D01*
X14253097Y-9582541D01*
X14254915Y-9582602D01*
X14258613Y-9583000D01*
X14269632Y-9583000D01*
X14273450Y-9583602D01*
X14274793Y-9584037D01*
X14280347Y-9587715D01*
X14280682Y-9588101D01*
X14283282Y-9592991D01*
X14283363Y-9593293D01*
X14283585Y-9594356D01*
X14283590Y-9594355D01*
X14286246Y-9607702D01*
X14286246Y-9607703D01*
X14286246Y-9607704D01*
X14291338Y-9619996D01*
X14291338Y-9619996D01*
X14291338Y-9619997D01*
X14291338Y-9619997D01*
X14291338Y-9619998D01*
X14291339Y-9619998D01*
X14298244Y-9630333D01*
X14298730Y-9631060D01*
X14298730Y-9631061D01*
X14298731Y-9631061D01*
X14308138Y-9640469D01*
X14308139Y-9640469D01*
X14308140Y-9640470D01*
X14319202Y-9647861D01*
X14319202Y-9647861D01*
X14319203Y-9647862D01*
X14319204Y-9647862D01*
X14319204Y-9647862D01*
X14324552Y-9650078D01*
X14330935Y-9652722D01*
X14331376Y-9652930D01*
X14344546Y-9655550D01*
X14344547Y-9655550D01*
X14354167Y-9655550D01*
X14357661Y-9656052D01*
X14359160Y-9656493D01*
X14365035Y-9660267D01*
X14365154Y-9660404D01*
X14367902Y-9665890D01*
X14368066Y-9666646D01*
X14368350Y-9669283D01*
X14368350Y-9907294D01*
X14368350Y-9907294D01*
X14368350Y-9923106D01*
X14368523Y-9923753D01*
X14368538Y-9925228D01*
X14368087Y-9926823D01*
X14368650Y-9929653D01*
X14371236Y-9942655D01*
X14371246Y-9942702D01*
X14371246Y-9942704D01*
X14371246Y-9942705D01*
X14374739Y-9951136D01*
X14375444Y-9953462D01*
X14375912Y-9955812D01*
X14376150Y-9958230D01*
X14376150Y-10044648D01*
X14375647Y-10048142D01*
X14375256Y-10049474D01*
X14371479Y-10055351D01*
X14365124Y-10058254D01*
X14364034Y-10058410D01*
X14359850Y-10058298D01*
X14358099Y-10057950D01*
X14358099Y-10057950D01*
X14344301Y-10057950D01*
X14344300Y-10057950D01*
X14344300Y-10057950D01*
X14330768Y-10060642D01*
X14330768Y-10060642D01*
X14330767Y-10060642D01*
X14330766Y-10060642D01*
X14330764Y-10060643D01*
X14318020Y-10065922D01*
X14318019Y-10065922D01*
X14318017Y-10065923D01*
X14306545Y-10073589D01*
X14306545Y-10073589D01*
X14306545Y-10073589D01*
X14296789Y-10083345D01*
X14296789Y-10083345D01*
X14296789Y-10083346D01*
X14289123Y-10094818D01*
X14289122Y-10094819D01*
X14289122Y-10094820D01*
X14283843Y-10107564D01*
X14283842Y-10107566D01*
X14283842Y-10107568D01*
X14281150Y-10121100D01*
X14281150Y-10130463D01*
X14280624Y-10132255D01*
X14283842Y-10148432D01*
X14283842Y-10148432D01*
X14283842Y-10148432D01*
X14283842Y-10148433D01*
X14283842Y-10148434D01*
X14283843Y-10148435D01*
X14289122Y-10161180D01*
X14289122Y-10161181D01*
X14289123Y-10161182D01*
X14296789Y-10172654D01*
X14296789Y-10172654D01*
X14296789Y-10172655D01*
X14306545Y-10182411D01*
X14306545Y-10182411D01*
X14306546Y-10182411D01*
X14318018Y-10190077D01*
X14318019Y-10190078D01*
X14330194Y-10195120D01*
X14330215Y-10195129D01*
X14330289Y-10195160D01*
X14330301Y-10195166D01*
X14330313Y-10195175D01*
X14330649Y-10195335D01*
X14344300Y-10198050D01*
X14358099Y-10198050D01*
X14358100Y-10198050D01*
X14360409Y-10197591D01*
X14368428Y-10195995D01*
X14371633Y-10195358D01*
X14383240Y-10190550D01*
X14383726Y-10190349D01*
X14384005Y-10190251D01*
X14384149Y-10190185D01*
X14384616Y-10189980D01*
X14385542Y-10189596D01*
X14386431Y-10188708D01*
X14395854Y-10182411D01*
X14405611Y-10172654D01*
X14413277Y-10161181D01*
X14414626Y-10157925D01*
X14416427Y-10154890D01*
X14417298Y-10153809D01*
X14423037Y-10149825D01*
X14430018Y-10149575D01*
X14430525Y-10149705D01*
X14436228Y-10152952D01*
X14442608Y-10159332D01*
X14442611Y-10159334D01*
X14454329Y-10171052D01*
X14454397Y-10171101D01*
X14454647Y-10171236D01*
X14462539Y-10175792D01*
X14465411Y-10177450D01*
X14465411Y-10177450D01*
X14466469Y-10178061D01*
X14468022Y-10178958D01*
X14476310Y-10181179D01*
X14483294Y-10183050D01*
X14483294Y-10183050D01*
X14600969Y-10183050D01*
X14603388Y-10183288D01*
X14605067Y-10183622D01*
X14605738Y-10183756D01*
X14608064Y-10184461D01*
X14609083Y-10184883D01*
X14612811Y-10186427D01*
X14615935Y-10187721D01*
X14616376Y-10187930D01*
X14629546Y-10190550D01*
X14642853Y-10190550D01*
X14642853Y-10190550D01*
X14651632Y-10188804D01*
X14651632Y-10188804D01*
X14653465Y-10188439D01*
X14655904Y-10187954D01*
X14668197Y-10182862D01*
X14679261Y-10175470D01*
X14688669Y-10166061D01*
X14696062Y-10154997D01*
X14701154Y-10142704D01*
X14702706Y-10134899D01*
X14703128Y-10132779D01*
X14703128Y-10132778D01*
X14703134Y-10132751D01*
X14703750Y-10129653D01*
X14703750Y-10116347D01*
X14703750Y-10116346D01*
X14701130Y-10103176D01*
X14700921Y-10102735D01*
X14700519Y-10101763D01*
X14700514Y-10101752D01*
X14696230Y-10091409D01*
X14696100Y-10091059D01*
X14695614Y-10090333D01*
X14695614Y-10090333D01*
X14693493Y-10087159D01*
X14688670Y-10079940D01*
X14688669Y-10079939D01*
X14688669Y-10079939D01*
X14688669Y-10079939D01*
X14679261Y-10070531D01*
X14679261Y-10070531D01*
X14679260Y-10070530D01*
X14678684Y-10070145D01*
X14668198Y-10063139D01*
X14668198Y-10063139D01*
X14668197Y-10063138D01*
X14668197Y-10063138D01*
X14668196Y-10063138D01*
X14668196Y-10063138D01*
X14668196Y-10063137D01*
X14658309Y-10059042D01*
X14655904Y-10058046D01*
X14655903Y-10058046D01*
X14655903Y-10058046D01*
X14655902Y-10058046D01*
X14642853Y-10055450D01*
X14642853Y-10055450D01*
X14642853Y-10055450D01*
X14629547Y-10055450D01*
X14629547Y-10055450D01*
X14629546Y-10055450D01*
X14616498Y-10058046D01*
X14616497Y-10058046D01*
X14616496Y-10058046D01*
X14616495Y-10058047D01*
X14614091Y-10059042D01*
X14614091Y-10059042D01*
X14608063Y-10061539D01*
X14605738Y-10062244D01*
X14603389Y-10062712D01*
X14600969Y-10062950D01*
X14591887Y-10062950D01*
X14588393Y-10062447D01*
X14587780Y-10062268D01*
X14581903Y-10058490D01*
X14579001Y-10052134D01*
X14579996Y-10045218D01*
X14584525Y-10039969D01*
X14585504Y-10039333D01*
X14587508Y-10038279D01*
X14598897Y-10033562D01*
X14609961Y-10026170D01*
X14614534Y-10021596D01*
X14619369Y-10016761D01*
X14619370Y-10016760D01*
X14619871Y-10016010D01*
X14626762Y-10005697D01*
X14631854Y-9993404D01*
X14633383Y-9985717D01*
X14634048Y-9982375D01*
X14634450Y-9980353D01*
X14634450Y-9967046D01*
X14631854Y-9953997D01*
X14631621Y-9953435D01*
X14631621Y-9953435D01*
X14631621Y-9953435D01*
X14631322Y-9952711D01*
X14628483Y-9945859D01*
X14626930Y-9942109D01*
X14626799Y-9941759D01*
X14623790Y-9937255D01*
X14780624Y-9937255D01*
X14783842Y-9953432D01*
X14783842Y-9953432D01*
X14783842Y-9953432D01*
X14783842Y-9953433D01*
X14783842Y-9953434D01*
X14783843Y-9953435D01*
X14789122Y-9966180D01*
X14789122Y-9966181D01*
X14789123Y-9966182D01*
X14796789Y-9977654D01*
X14796789Y-9977654D01*
X14796789Y-9977655D01*
X14806545Y-9987411D01*
X14806545Y-9987411D01*
X14806546Y-9987411D01*
X14818018Y-9995077D01*
X14818019Y-9995078D01*
X14818020Y-9995078D01*
X14818020Y-9995078D01*
X14830131Y-10000094D01*
X14830205Y-10000125D01*
X14830647Y-10000334D01*
X14844300Y-10003050D01*
X14858099Y-10003050D01*
X14858100Y-10003050D01*
X14864968Y-10001684D01*
X14867204Y-10001239D01*
X14871633Y-10000358D01*
X14882887Y-9995696D01*
X14884380Y-9995078D01*
X14884380Y-9995078D01*
X14884381Y-9995078D01*
X14895854Y-9987411D01*
X14905611Y-9977654D01*
X14913277Y-9966181D01*
X14918558Y-9953433D01*
X14920065Y-9945859D01*
X14920259Y-9944882D01*
X14921173Y-9942655D01*
X14921190Y-9940506D01*
X14921250Y-9939900D01*
X14921250Y-9926100D01*
X14918534Y-9912447D01*
X14918326Y-9912006D01*
X14917870Y-9910906D01*
X14917406Y-9909785D01*
X14913278Y-9899820D01*
X14913278Y-9899819D01*
X14913277Y-9899818D01*
X14905611Y-9888346D01*
X14905611Y-9888345D01*
X14905611Y-9888345D01*
X14895855Y-9878589D01*
X14895854Y-9878589D01*
X14895854Y-9878589D01*
X14884382Y-9870923D01*
X14884382Y-9870923D01*
X14884382Y-9870923D01*
X14884380Y-9870922D01*
X14884380Y-9870922D01*
X14871635Y-9865643D01*
X14871634Y-9865642D01*
X14871633Y-9865642D01*
X14871632Y-9865642D01*
X14871632Y-9865642D01*
X14871631Y-9865642D01*
X14858100Y-9862950D01*
X14858099Y-9862950D01*
X14858099Y-9862950D01*
X14844301Y-9862950D01*
X14844300Y-9862950D01*
X14844300Y-9862950D01*
X14830768Y-9865642D01*
X14830768Y-9865642D01*
X14830767Y-9865642D01*
X14830766Y-9865642D01*
X14830764Y-9865643D01*
X14818020Y-9870922D01*
X14818019Y-9870922D01*
X14818017Y-9870923D01*
X14806545Y-9878589D01*
X14806545Y-9878589D01*
X14806545Y-9878589D01*
X14796789Y-9888345D01*
X14796789Y-9888345D01*
X14796789Y-9888346D01*
X14789123Y-9899818D01*
X14789122Y-9899819D01*
X14789122Y-9899820D01*
X14783843Y-9912564D01*
X14783842Y-9912568D01*
X14781150Y-9926100D01*
X14781150Y-9935463D01*
X14780624Y-9937255D01*
X14623790Y-9937255D01*
X14622839Y-9935832D01*
X14622839Y-9935831D01*
X14620533Y-9932380D01*
X14620533Y-9932380D01*
X14619371Y-9930641D01*
X14619369Y-9930639D01*
X14619368Y-9930638D01*
X14609961Y-9921231D01*
X14609961Y-9921231D01*
X14609960Y-9921230D01*
X14609048Y-9920621D01*
X14601648Y-9915676D01*
X14598897Y-9913838D01*
X14598897Y-9913838D01*
X14598897Y-9913838D01*
X14598897Y-9913838D01*
X14598896Y-9913838D01*
X14597976Y-9913457D01*
X14595832Y-9912311D01*
X14594827Y-9911639D01*
X14590833Y-9907271D01*
X14589966Y-9905684D01*
X14588450Y-9899742D01*
X14588450Y-9691110D01*
X14588952Y-9687616D01*
X14589393Y-9686116D01*
X14593169Y-9680239D01*
X14594199Y-9679347D01*
X14597574Y-9677262D01*
X14608197Y-9672862D01*
X14619261Y-9665470D01*
X14619819Y-9664911D01*
X14622645Y-9662795D01*
X14624955Y-9661534D01*
X14630897Y-9660017D01*
X14633877Y-9660017D01*
X14642656Y-9658271D01*
X14642656Y-9658271D01*
X14644489Y-9657906D01*
X14646927Y-9657421D01*
X14659221Y-9652329D01*
X14670284Y-9644937D01*
X14679693Y-9635528D01*
X14687086Y-9624464D01*
X14692178Y-9612171D01*
X14693615Y-9604948D01*
X14694774Y-9599121D01*
X14694774Y-9596260D01*
X14694887Y-9595427D01*
X14695074Y-9595009D01*
X14695276Y-9593607D01*
X14695688Y-9592204D01*
X14699465Y-9586327D01*
X14705601Y-9583457D01*
X14707439Y-9583160D01*
X14709421Y-9583000D01*
X14748187Y-9583000D01*
X14749213Y-9583000D01*
X14749960Y-9582809D01*
X14751414Y-9582653D01*
X14752739Y-9582582D01*
X14754061Y-9582582D01*
X14755386Y-9582653D01*
X14758613Y-9583000D01*
X14798187Y-9583000D01*
X14799213Y-9583000D01*
X14799960Y-9582809D01*
X14801414Y-9582653D01*
X14802739Y-9582582D01*
X14804061Y-9582582D01*
X14805386Y-9582653D01*
X14808613Y-9583000D01*
X14848187Y-9583000D01*
X14849213Y-9583000D01*
X14849960Y-9582809D01*
X14851414Y-9582653D01*
X14852739Y-9582582D01*
X14854061Y-9582582D01*
X14855386Y-9582653D01*
X14858613Y-9583000D01*
X14898187Y-9583000D01*
X14898473Y-9583000D01*
X14898955Y-9582917D01*
X14900190Y-9582785D01*
X14903716Y-9582911D01*
X14905083Y-9583157D01*
X14911331Y-9586285D01*
X14914896Y-9592294D01*
X14914896Y-9592294D01*
X14915037Y-9592848D01*
X14915000Y-9599123D01*
X14913400Y-9605094D01*
X14913400Y-9622140D01*
X14913400Y-9622145D01*
X14913400Y-9694333D01*
X14913400Y-9694335D01*
X14913400Y-9701120D01*
X14913400Y-9706696D01*
X14912810Y-9708705D01*
X14913400Y-9710905D01*
X14915648Y-9719297D01*
X14917492Y-9726179D01*
X14918308Y-9727592D01*
X14918308Y-9727592D01*
X14919501Y-9729659D01*
X14919503Y-9729662D01*
X14925213Y-9739551D01*
X14925347Y-9739802D01*
X14925397Y-9739871D01*
X14925397Y-9739871D01*
X14925398Y-9739871D01*
X14925398Y-9739872D01*
X14930398Y-9744872D01*
X14933578Y-9748052D01*
X14941578Y-9756052D01*
X14945656Y-9758406D01*
X14948430Y-9760588D01*
X14949815Y-9762040D01*
X14952834Y-9767447D01*
X14952993Y-9768053D01*
X14953400Y-9771204D01*
X14953400Y-9777787D01*
X14953400Y-9777788D01*
X14953747Y-9781014D01*
X14953818Y-9782339D01*
X14953818Y-9783660D01*
X14953747Y-9784986D01*
X14953400Y-9788212D01*
X14953400Y-9827787D01*
X14953769Y-9831226D01*
X14953770Y-9831227D01*
X14954041Y-9833748D01*
X14959070Y-9847233D01*
X14959070Y-9847233D01*
X14960499Y-9849141D01*
X14962191Y-9852240D01*
X14962737Y-9853705D01*
X14963235Y-9860673D01*
X14963033Y-9861603D01*
X14960843Y-9866399D01*
X14960689Y-9866604D01*
X14958194Y-9869100D01*
X14954840Y-9871610D01*
X14954838Y-9871612D01*
X14953450Y-9873000D01*
X14953450Y-9877783D01*
X14953772Y-9880779D01*
X14953843Y-9882105D01*
X14953843Y-9883426D01*
X14953772Y-9884751D01*
X14953400Y-9888212D01*
X14953400Y-9927787D01*
X14953400Y-9927790D01*
X14953403Y-9927815D01*
X14953747Y-9931014D01*
X14953818Y-9932339D01*
X14953818Y-9933660D01*
X14953747Y-9934986D01*
X14953400Y-9938212D01*
X14953400Y-9977787D01*
X14953400Y-9977790D01*
X14953403Y-9977815D01*
X14953747Y-9981014D01*
X14953818Y-9982339D01*
X14953818Y-9982926D01*
X14952874Y-9987671D01*
X14952382Y-9988858D01*
X14947999Y-9994298D01*
X14947172Y-9994872D01*
X14942519Y-9996848D01*
X14936497Y-9998046D01*
X14936495Y-9998046D01*
X14924204Y-10003137D01*
X14924204Y-10003138D01*
X14924202Y-10003138D01*
X14913140Y-10010530D01*
X14913139Y-10010531D01*
X14913138Y-10010531D01*
X14903731Y-10019939D01*
X14903730Y-10019939D01*
X14903730Y-10019940D01*
X14896338Y-10031003D01*
X14896338Y-10031003D01*
X14896338Y-10031004D01*
X14896338Y-10031004D01*
X14892624Y-10039969D01*
X14891246Y-10043297D01*
X14891246Y-10043298D01*
X14888650Y-10056346D01*
X14888650Y-10065217D01*
X14888124Y-10067009D01*
X14891246Y-10082702D01*
X14891246Y-10082703D01*
X14891246Y-10082704D01*
X14891520Y-10083364D01*
X14895844Y-10093806D01*
X14896528Y-10096023D01*
X14896981Y-10098200D01*
X14896421Y-10105164D01*
X14896071Y-10106078D01*
X14894163Y-10109019D01*
X14894315Y-10109128D01*
X14893439Y-10110343D01*
X14893298Y-10110587D01*
X14886338Y-10121002D01*
X14886338Y-10121004D01*
X14886338Y-10121004D01*
X14886338Y-10121004D01*
X14881422Y-10132872D01*
X14881246Y-10133297D01*
X14881246Y-10133298D01*
X14878650Y-10146346D01*
X14878650Y-10155217D01*
X14878124Y-10157009D01*
X14881246Y-10172702D01*
X14881246Y-10172703D01*
X14881246Y-10172704D01*
X14886338Y-10184996D01*
X14886338Y-10184996D01*
X14886338Y-10184997D01*
X14886338Y-10184997D01*
X14886338Y-10184998D01*
X14886339Y-10184998D01*
X14893284Y-10195393D01*
X14893730Y-10196060D01*
X14893730Y-10196061D01*
X14893731Y-10196061D01*
X14903138Y-10205469D01*
X14903139Y-10205469D01*
X14903139Y-10205469D01*
X14903139Y-10205470D01*
X14907114Y-10208126D01*
X14909740Y-10210484D01*
X14909779Y-10210531D01*
X14910630Y-10211549D01*
X14913418Y-10217956D01*
X14912301Y-10224852D01*
X14911826Y-10225845D01*
X14909408Y-10229262D01*
X14903731Y-10234939D01*
X14903730Y-10234939D01*
X14903730Y-10234940D01*
X14896338Y-10246002D01*
X14896338Y-10246003D01*
X14896338Y-10246003D01*
X14896338Y-10246004D01*
X14896338Y-10246004D01*
X14892317Y-10255711D01*
X14891246Y-10258297D01*
X14891246Y-10258298D01*
X14888650Y-10271346D01*
X14888650Y-10278101D01*
X14888148Y-10281594D01*
X14887406Y-10284118D01*
X14884277Y-10289393D01*
X14882878Y-10290792D01*
X14881230Y-10292439D01*
X14881230Y-10292440D01*
X14873839Y-10303502D01*
X14873838Y-10303503D01*
X14873837Y-10303505D01*
X14870878Y-10310648D01*
X14869077Y-10313684D01*
X14868096Y-10314901D01*
X14862358Y-10318885D01*
X14861066Y-10319315D01*
X14857150Y-10319950D01*
X14556294Y-10319950D01*
X14546140Y-10322671D01*
X14546135Y-10322672D01*
X14541021Y-10324042D01*
X14541021Y-10324043D01*
X14539815Y-10324738D01*
X14539815Y-10324739D01*
X14527330Y-10331947D01*
X14527329Y-10331947D01*
X14527329Y-10331948D01*
X14527328Y-10331948D01*
X14527328Y-10331948D01*
X14527328Y-10331948D01*
X14480348Y-10378928D01*
X14480298Y-10378998D01*
X14480162Y-10379250D01*
X14476719Y-10385213D01*
X14476719Y-10385214D01*
X14476188Y-10386134D01*
X14476145Y-10386208D01*
X14476096Y-10386291D01*
X14476043Y-10386380D01*
X14473482Y-10390665D01*
X14472736Y-10391912D01*
X14472442Y-10392622D01*
X14470696Y-10399136D01*
X14469307Y-10402380D01*
X14468585Y-10403565D01*
X14463415Y-10408265D01*
X14456525Y-10409423D01*
X14456525Y-10409423D01*
X14456363Y-10409404D01*
X14450888Y-10407363D01*
X14450833Y-10407325D01*
X14447571Y-10404092D01*
X14446419Y-10402421D01*
X14446351Y-10402327D01*
X14446346Y-10402314D01*
X14446323Y-10402281D01*
X14446331Y-10402276D01*
X14444059Y-10396540D01*
X14443844Y-10394809D01*
X14443750Y-10393283D01*
X14443750Y-10381346D01*
X14441130Y-10368176D01*
X14440922Y-10367736D01*
X14437334Y-10359075D01*
X14436230Y-10356409D01*
X14436100Y-10356059D01*
X14435766Y-10355561D01*
X14435766Y-10355560D01*
X14435418Y-10355040D01*
X14428670Y-10344940D01*
X14428669Y-10344939D01*
X14428669Y-10344939D01*
X14428669Y-10344939D01*
X14419261Y-10335531D01*
X14419261Y-10335531D01*
X14419260Y-10335530D01*
X14418469Y-10335002D01*
X14413000Y-10331347D01*
X14408599Y-10328407D01*
X14408598Y-10328406D01*
X14408198Y-10328139D01*
X14408197Y-10328138D01*
X14408197Y-10328138D01*
X14407864Y-10328000D01*
X14405625Y-10327073D01*
X14399765Y-10324645D01*
X14397621Y-10323500D01*
X14395628Y-10322168D01*
X14393749Y-10320626D01*
X14360393Y-10287269D01*
X14360392Y-10287268D01*
X14355130Y-10282007D01*
X14348072Y-10274948D01*
X14348072Y-10274948D01*
X14338900Y-10269653D01*
X14338900Y-10269653D01*
X14335793Y-10267859D01*
X14335792Y-10267858D01*
X14334379Y-10267042D01*
X14333127Y-10266707D01*
X14333127Y-10266707D01*
X14325085Y-10264552D01*
X14319106Y-10262950D01*
X14319106Y-10262950D01*
X14302344Y-10262950D01*
X14302338Y-10262950D01*
X14110862Y-10262950D01*
X14110856Y-10262950D01*
X14110665Y-10262950D01*
X14109906Y-10262950D01*
X14094094Y-10262950D01*
X14084833Y-10265431D01*
X14084833Y-10265431D01*
X14078822Y-10267042D01*
X14078821Y-10267043D01*
X14068680Y-10272897D01*
X14065403Y-10274209D01*
X14063721Y-10274617D01*
X14057036Y-10274382D01*
X14055804Y-10273989D01*
X14052886Y-10272621D01*
X14051926Y-10272007D01*
X14051905Y-10271988D01*
X14051332Y-10271622D01*
X14049563Y-10270251D01*
X14047991Y-10268787D01*
X14046516Y-10267145D01*
X14046439Y-10267043D01*
X14046302Y-10266861D01*
X14044609Y-10263761D01*
X14044063Y-10262296D01*
X14043564Y-10255327D01*
X14043767Y-10254397D01*
X14045956Y-10249602D01*
X14046111Y-10249396D01*
X14048606Y-10246900D01*
X14051960Y-10244389D01*
X14053350Y-10243000D01*
X14053350Y-10240166D01*
X14053852Y-10236673D01*
X14054118Y-10235767D01*
X14054293Y-10235173D01*
X14058070Y-10229296D01*
X14058625Y-10228814D01*
X14064326Y-10226024D01*
X14067461Y-10225400D01*
X14069704Y-10224954D01*
X14081997Y-10219862D01*
X14093061Y-10212470D01*
X14102469Y-10203061D01*
X14109862Y-10191997D01*
X14114954Y-10179704D01*
X14115573Y-10176591D01*
X14116747Y-10173263D01*
X14117472Y-10171878D01*
X14122323Y-10166850D01*
X14122963Y-10166486D01*
X14129098Y-10164862D01*
X14134341Y-10164862D01*
X14143120Y-10163116D01*
X14143120Y-10163116D01*
X14144953Y-10162751D01*
X14147391Y-10162266D01*
X14159684Y-10157174D01*
X14170748Y-10149782D01*
X14180157Y-10140373D01*
X14187550Y-10129309D01*
X14192642Y-10117016D01*
X14193160Y-10114409D01*
X14193491Y-10112745D01*
X14193491Y-10112744D01*
X14194492Y-10107716D01*
X14195238Y-10103966D01*
X14195238Y-10090659D01*
X14195238Y-10090659D01*
X14195159Y-10090262D01*
X14194969Y-10086738D01*
X14195157Y-10084647D01*
X14197136Y-10078955D01*
X14197505Y-10078392D01*
X14199107Y-10076423D01*
X14202469Y-10073061D01*
X14203421Y-10071637D01*
X14209100Y-10063137D01*
X14209862Y-10061997D01*
X14214954Y-10049704D01*
X14216978Y-10039528D01*
X14217152Y-10038654D01*
X14217325Y-10037782D01*
X14217550Y-10036653D01*
X14217550Y-10023347D01*
X14217550Y-10023346D01*
X14214960Y-10010325D01*
X14214960Y-10010325D01*
X14214930Y-10010176D01*
X14214722Y-10009737D01*
X14209862Y-9998004D01*
X14209862Y-9998004D01*
X14209862Y-9998003D01*
X14209715Y-9997783D01*
X14209526Y-9997500D01*
X14209525Y-9997499D01*
X14209090Y-9996848D01*
X14202470Y-9986940D01*
X14202469Y-9986939D01*
X14202469Y-9986939D01*
X14202469Y-9986939D01*
X14193061Y-9977531D01*
X14193061Y-9977531D01*
X14193060Y-9977530D01*
X14192918Y-9977435D01*
X14181997Y-9970138D01*
X14181997Y-9970138D01*
X14181997Y-9970138D01*
X14172895Y-9966368D01*
X14171993Y-9965951D01*
X14171442Y-9965669D01*
X14169166Y-9964013D01*
X14169132Y-9964058D01*
X14168487Y-9963563D01*
X14159603Y-9958435D01*
X14159603Y-9958435D01*
X14159438Y-9958339D01*
X14159436Y-9958338D01*
X14155139Y-9955857D01*
X14154884Y-9955698D01*
X14154794Y-9955658D01*
X14140723Y-9951888D01*
X14137479Y-9950498D01*
X14136272Y-9949763D01*
X14131573Y-9944593D01*
X14130406Y-9937777D01*
X14130557Y-9936438D01*
X14131422Y-9933092D01*
X14133654Y-9927704D01*
X14134941Y-9921231D01*
X14135063Y-9920621D01*
X14135063Y-9920620D01*
X14136250Y-9914653D01*
X14136250Y-9901346D01*
X14133635Y-9888199D01*
X14133500Y-9887920D01*
X14133462Y-9887833D01*
X14128562Y-9876003D01*
X14128560Y-9876000D01*
X14121170Y-9864940D01*
X14121169Y-9864939D01*
X14121169Y-9864939D01*
X14121169Y-9864939D01*
X14111761Y-9855531D01*
X14111761Y-9855531D01*
X14111760Y-9855530D01*
X14110542Y-9854716D01*
X14100698Y-9848139D01*
X14100698Y-9848139D01*
X14100697Y-9848138D01*
X14100697Y-9848138D01*
X14100696Y-9848138D01*
X14100696Y-9848138D01*
X14100696Y-9848137D01*
X14088404Y-9843046D01*
X14088404Y-9843046D01*
X14088404Y-9843046D01*
X14088403Y-9843046D01*
X14088403Y-9843046D01*
X14088402Y-9843046D01*
X14075353Y-9840450D01*
X14075353Y-9840450D01*
X14075353Y-9840450D01*
X14067583Y-9840450D01*
X14064089Y-9839948D01*
X14062589Y-9839507D01*
X14056714Y-9835733D01*
X14056596Y-9835596D01*
X14053848Y-9830109D01*
X14053683Y-9829353D01*
X14053400Y-9826718D01*
X14053400Y-9788213D01*
X14053400Y-9788211D01*
X14053053Y-9784986D01*
X14052982Y-9783661D01*
X14052982Y-9782339D01*
X14053053Y-9781013D01*
X14053307Y-9778648D01*
X14053400Y-9777787D01*
X14053400Y-9738213D01*
X14053400Y-9738211D01*
X14053053Y-9734987D01*
X14052982Y-9733661D01*
X14052982Y-9732339D01*
X14053053Y-9731013D01*
X14053181Y-9729819D01*
X14053400Y-9727787D01*
X14053400Y-9688213D01*
X14053400Y-9688211D01*
X14053327Y-9687537D01*
X14053053Y-9684987D01*
X14052982Y-9683661D01*
X14052982Y-9682339D01*
X14053053Y-9681013D01*
X14053136Y-9680239D01*
X14053400Y-9677787D01*
X14053400Y-9638213D01*
X14052759Y-9632252D01*
X14052672Y-9632019D01*
X14047730Y-9618767D01*
X14047729Y-9618766D01*
X14040753Y-9609448D01*
X14039105Y-9607246D01*
X14039104Y-9607245D01*
X14029426Y-9600000D01*
X14027583Y-9598621D01*
X14027583Y-9598620D01*
X14027583Y-9598620D01*
X14027583Y-9598620D01*
X14014098Y-9593591D01*
X14014098Y-9593591D01*
X14008138Y-9592950D01*
X14008138Y-9592950D01*
X14008137Y-9592950D01*
X14008136Y-9592950D01*
X14008034Y-9592950D01*
X13994869Y-9592950D01*
X13991375Y-9592448D01*
X13988748Y-9591676D01*
X13986330Y-9590411D01*
X13985164Y-9590000D01*
X13759183Y-9590000D01*
X13755689Y-9589498D01*
X13754189Y-9589057D01*
X13748314Y-9585283D01*
X13748196Y-9585146D01*
X13745448Y-9579658D01*
X13745283Y-9578902D01*
X13745000Y-9576267D01*
X13745000Y-9566733D01*
X13745502Y-9563239D01*
X13745943Y-9561740D01*
X13749717Y-9555864D01*
X13749854Y-9555746D01*
X13755342Y-9552998D01*
X13756098Y-9552833D01*
X13758733Y-9552550D01*
X13766653Y-9552550D01*
X13771448Y-9551596D01*
X13776380Y-9550615D01*
X13779704Y-9549954D01*
X13783404Y-9548421D01*
X13783986Y-9548245D01*
X13784463Y-9548240D01*
X13786260Y-9547782D01*
X13788876Y-9547500D01*
X13794947Y-9548373D01*
X13804006Y-9552126D01*
X13804447Y-9552334D01*
X13818100Y-9555050D01*
X13831899Y-9555050D01*
X13831900Y-9555050D01*
X13836796Y-9554076D01*
X13841004Y-9553239D01*
X13845433Y-9552358D01*
X13858181Y-9547078D01*
X13864163Y-9543080D01*
X13867347Y-9541557D01*
X13870511Y-9540566D01*
X13874216Y-9540000D01*
X13985000Y-9540000D01*
X13985000Y-9539342D01*
X13984359Y-9532290D01*
X13984359Y-9532290D01*
X13984359Y-9532290D01*
X13984359Y-9532289D01*
X13979302Y-9516060D01*
X13978126Y-9514115D01*
X13970508Y-9501513D01*
X13970507Y-9501512D01*
X13964059Y-9495064D01*
X13961944Y-9492239D01*
X13961195Y-9490866D01*
X13959709Y-9484040D01*
X13959712Y-9484003D01*
X13959722Y-9483860D01*
X13961659Y-9478040D01*
X13962078Y-9477388D01*
X13963740Y-9475325D01*
X13967771Y-9471295D01*
X13969124Y-9469942D01*
X13969124Y-9469942D01*
X13971949Y-9467827D01*
X13972739Y-9467396D01*
X13974258Y-9466567D01*
X13980200Y-9465050D01*
X14042407Y-9465050D01*
X14045900Y-9465552D01*
G37*
%TD.AperFunction*%
%TA.AperFunction,Conductor*%
G36*
X13017725Y-9973710D02*
G01*
X13017731Y-9973708D01*
X13017772Y-9973716D01*
X13023069Y-9974478D01*
X13023767Y-9974797D01*
X13024237Y-9975123D01*
X13024559Y-9975193D01*
X13027383Y-9977307D01*
X13027384Y-9977308D01*
X13028432Y-9978356D01*
X13028859Y-9978783D01*
X13050057Y-9999981D01*
X13052172Y-10002806D01*
X13053433Y-10005115D01*
X13054950Y-10011058D01*
X13054950Y-10069788D01*
X13054966Y-10069981D01*
X13054988Y-10070145D01*
X13055591Y-10075748D01*
X13057798Y-10081667D01*
X13060620Y-10089233D01*
X13060621Y-10089234D01*
X13063440Y-10093000D01*
X13069245Y-10100754D01*
X13069245Y-10100754D01*
X13069245Y-10100755D01*
X13080766Y-10109379D01*
X13080767Y-10109380D01*
X13082290Y-10109948D01*
X13082291Y-10109948D01*
X13082291Y-10109948D01*
X13094252Y-10114409D01*
X13100213Y-10115050D01*
X13116967Y-10115050D01*
X13120461Y-10115552D01*
X13121960Y-10115993D01*
X13127835Y-10119767D01*
X13127954Y-10119904D01*
X13130702Y-10125390D01*
X13130866Y-10126146D01*
X13131150Y-10128783D01*
X13131150Y-10182933D01*
X13130647Y-10186427D01*
X13130207Y-10187927D01*
X13126430Y-10193804D01*
X13125875Y-10194285D01*
X13120173Y-10197076D01*
X13115298Y-10198046D01*
X13115297Y-10198046D01*
X13115295Y-10198046D01*
X13103004Y-10203137D01*
X13103003Y-10203138D01*
X13103002Y-10203138D01*
X13091940Y-10210530D01*
X13091939Y-10210531D01*
X13091938Y-10210531D01*
X13082531Y-10219939D01*
X13082531Y-10219939D01*
X13078299Y-10226273D01*
X13077574Y-10227250D01*
X13076804Y-10228188D01*
X13075987Y-10229089D01*
X13027679Y-10277398D01*
X13024854Y-10279513D01*
X13023861Y-10280055D01*
X13017034Y-10281540D01*
X13010487Y-10279099D01*
X13006300Y-10273505D01*
X13006299Y-10273504D01*
X13006031Y-10272785D01*
X13005250Y-10268453D01*
X13005250Y-10235079D01*
X13005250Y-10234713D01*
X13005250Y-10234712D01*
X13005250Y-10234712D01*
X13004609Y-10228752D01*
X13000744Y-10218390D01*
X13000593Y-10217830D01*
X13000604Y-10217356D01*
X13000196Y-10215483D01*
X12999996Y-10212680D01*
X13000746Y-10207462D01*
X13004560Y-10197238D01*
X13004560Y-10197237D01*
X13004847Y-10194567D01*
X13005200Y-10191286D01*
X13005200Y-10191283D01*
X13005200Y-10174500D01*
X12626200Y-10174500D01*
X12626200Y-10191285D01*
X12626840Y-10197237D01*
X12626840Y-10197238D01*
X12630453Y-10206925D01*
X12631203Y-10210373D01*
X12631302Y-10211758D01*
X12629817Y-10218585D01*
X12627123Y-10221279D01*
X12626478Y-10223043D01*
X12627051Y-10226892D01*
X12627042Y-10227015D01*
X12626834Y-10228365D01*
X12626856Y-10228369D01*
X12626791Y-10228750D01*
X12626732Y-10229296D01*
X12626476Y-10231680D01*
X12626433Y-10232080D01*
X12626150Y-10234713D01*
X12626150Y-10318288D01*
X12626192Y-10318798D01*
X12625989Y-10318814D01*
X12625642Y-10321768D01*
X12626612Y-10323493D01*
X12626791Y-10324248D01*
X12628242Y-10328139D01*
X12631820Y-10337733D01*
X12631821Y-10337734D01*
X12634576Y-10341414D01*
X12640445Y-10349254D01*
X12640446Y-10349255D01*
X12641510Y-10350052D01*
X12651966Y-10357879D01*
X12651967Y-10357880D01*
X12665452Y-10362909D01*
X12665452Y-10362909D01*
X12665452Y-10362909D01*
X12668303Y-10363216D01*
X12671722Y-10364088D01*
X12672915Y-10364583D01*
X12678356Y-10368966D01*
X12680562Y-10375596D01*
X12680068Y-10379531D01*
X12679907Y-10380082D01*
X12676777Y-10385357D01*
X12671229Y-10390905D01*
X12668403Y-10393021D01*
X12667031Y-10393770D01*
X12660205Y-10395255D01*
X12660024Y-10395242D01*
X12654204Y-10393305D01*
X12653553Y-10392887D01*
X12651489Y-10391224D01*
X12644719Y-10384453D01*
X12644718Y-10384453D01*
X12641333Y-10382406D01*
X12641333Y-10382406D01*
X12630161Y-10375652D01*
X12630160Y-10375652D01*
X12630160Y-10375652D01*
X12630160Y-10375652D01*
X12615439Y-10371065D01*
X12615437Y-10371064D01*
X12613920Y-10370591D01*
X12613919Y-10370591D01*
X12613919Y-10370591D01*
X12608978Y-10370142D01*
X12608978Y-10370142D01*
X12606926Y-10369956D01*
X12606862Y-10369950D01*
X12606861Y-10369950D01*
X12595578Y-10369950D01*
X12592085Y-10369448D01*
X12590999Y-10369129D01*
X12585122Y-10365352D01*
X12582219Y-10358996D01*
X12583214Y-10352080D01*
X12583871Y-10350640D01*
X12585223Y-10348361D01*
X12592649Y-10338442D01*
X12592939Y-10338107D01*
X12592940Y-10338106D01*
X12593445Y-10337378D01*
X12594424Y-10336070D01*
X12594355Y-10335685D01*
X12595065Y-10332677D01*
X12598209Y-10324248D01*
X12598850Y-10318287D01*
X12598850Y-10234713D01*
X12598268Y-10229301D01*
X12598209Y-10228752D01*
X12596476Y-10224105D01*
X12595260Y-10220846D01*
X12595260Y-10220845D01*
X12594573Y-10219004D01*
X12593823Y-10215555D01*
X12593623Y-10212752D01*
X12594373Y-10207534D01*
X12594399Y-10207462D01*
X12598209Y-10197248D01*
X12598850Y-10191287D01*
X12598850Y-10107713D01*
X12598209Y-10101752D01*
X12597837Y-10100755D01*
X12596594Y-10097421D01*
X12595844Y-10093973D01*
X12595732Y-10092413D01*
X12597217Y-10085587D01*
X12597377Y-10085293D01*
X12602318Y-10080353D01*
X12605050Y-10079260D01*
X12606178Y-10078958D01*
X12610516Y-10076454D01*
X12611616Y-10075819D01*
X12614889Y-10074508D01*
X12616074Y-10074220D01*
X12623053Y-10074551D01*
X12628746Y-10078602D01*
X12631344Y-10085088D01*
X12631369Y-10085386D01*
X12631430Y-10086249D01*
X12630680Y-10091466D01*
X12626840Y-10101761D01*
X12626840Y-10101765D01*
X12626200Y-10107715D01*
X12626200Y-10107716D01*
X12626200Y-10124500D01*
X12790700Y-10124500D01*
X12840700Y-10124500D01*
X13005200Y-10124500D01*
X13005200Y-10107717D01*
X13005200Y-10107716D01*
X13005200Y-10107715D01*
X13005200Y-10107714D01*
X13004560Y-10101763D01*
X13004560Y-10101762D01*
X13004560Y-10101762D01*
X13000920Y-10092004D01*
X13000170Y-10088555D01*
X13000145Y-10088213D01*
X12999969Y-10085752D01*
X13000719Y-10080534D01*
X13004560Y-10070238D01*
X13004560Y-10070237D01*
X13004784Y-10068149D01*
X13005200Y-10064286D01*
X13005200Y-10064283D01*
X13005200Y-10047500D01*
X12840700Y-10047500D01*
X12840700Y-10124500D01*
X12790700Y-10124500D01*
X12790700Y-10036683D01*
X12791202Y-10033189D01*
X12791423Y-10032436D01*
X12791643Y-10031689D01*
X12792607Y-10030189D01*
X12792668Y-10029979D01*
X12792833Y-10029836D01*
X12795417Y-10025814D01*
X12795554Y-10025696D01*
X12801042Y-10022948D01*
X12801798Y-10022783D01*
X12804433Y-10022500D01*
X12815700Y-10022500D01*
X12815700Y-10011683D01*
X12816202Y-10008189D01*
X12816442Y-10007374D01*
X12816643Y-10006689D01*
X12820417Y-10000814D01*
X12820554Y-10000696D01*
X12826042Y-9997948D01*
X12826798Y-9997783D01*
X12829433Y-9997500D01*
X13005200Y-9997500D01*
X13005200Y-9986843D01*
X13005702Y-9983350D01*
X13006021Y-9982265D01*
X13009798Y-9976387D01*
X13016153Y-9973484D01*
X13017725Y-9973710D01*
G37*
%TD.AperFunction*%
%TA.AperFunction,Conductor*%
G36*
X13493335Y-10188190D02*
G01*
X13493338Y-10188160D01*
X13493833Y-10188195D01*
X13494424Y-10188346D01*
X13495510Y-10188502D01*
X13495947Y-10188631D01*
X13495919Y-10188727D01*
X13497530Y-10189139D01*
X13497556Y-10189070D01*
X13497840Y-10189176D01*
X13497925Y-10189240D01*
X13498102Y-10189285D01*
X13498373Y-10189408D01*
X13498316Y-10189532D01*
X13502957Y-10193006D01*
X13503059Y-10192918D01*
X13503367Y-10193273D01*
X13503415Y-10193349D01*
X13503431Y-10193361D01*
X13503614Y-10193605D01*
X13503587Y-10193626D01*
X13504575Y-10195214D01*
X13504709Y-10195368D01*
X13504725Y-10195393D01*
X13504828Y-10195619D01*
X13505419Y-10196569D01*
X13505716Y-10197271D01*
X13505761Y-10197672D01*
X13506200Y-10198636D01*
X13510374Y-10213000D01*
X13510374Y-10213000D01*
X13517017Y-10213000D01*
X13520511Y-10213502D01*
X13522010Y-10213943D01*
X13527885Y-10217717D01*
X13528004Y-10217854D01*
X13530752Y-10223340D01*
X13530916Y-10224096D01*
X13531200Y-10226733D01*
X13531200Y-10241437D01*
X13530698Y-10244931D01*
X13529764Y-10248111D01*
X13528176Y-10251507D01*
X13522623Y-10259818D01*
X13522622Y-10259819D01*
X13522621Y-10259820D01*
X13517343Y-10272564D01*
X13517341Y-10272568D01*
X13514650Y-10286100D01*
X13514650Y-10295463D01*
X13514123Y-10297255D01*
X13517341Y-10313432D01*
X13517341Y-10313432D01*
X13517342Y-10313432D01*
X13517342Y-10313433D01*
X13517342Y-10313434D01*
X13517343Y-10313435D01*
X13522621Y-10326180D01*
X13522622Y-10326180D01*
X13522623Y-10326182D01*
X13523218Y-10327073D01*
X13526663Y-10332228D01*
X13528186Y-10335412D01*
X13528593Y-10336712D01*
X13528718Y-10343698D01*
X13525046Y-10349642D01*
X13519504Y-10352510D01*
X13519255Y-10352566D01*
X13518699Y-10352692D01*
X13515954Y-10353000D01*
X13506200Y-10353000D01*
X13506200Y-10363817D01*
X13505697Y-10367311D01*
X13505257Y-10368811D01*
X13501483Y-10374686D01*
X13501346Y-10374804D01*
X13495860Y-10377552D01*
X13495104Y-10377716D01*
X13492467Y-10378000D01*
X13414636Y-10378000D01*
X13411142Y-10377498D01*
X13409642Y-10377057D01*
X13403765Y-10373280D01*
X13402979Y-10372373D01*
X13400732Y-10368586D01*
X13396660Y-10357667D01*
X13396659Y-10357666D01*
X13393272Y-10353141D01*
X13388035Y-10346146D01*
X13388034Y-10346145D01*
X13382242Y-10341809D01*
X13376513Y-10337521D01*
X13376513Y-10337520D01*
X13376513Y-10337520D01*
X13376513Y-10337520D01*
X13363028Y-10332491D01*
X13363028Y-10332491D01*
X13357068Y-10331850D01*
X13357068Y-10331850D01*
X13357067Y-10331850D01*
X13357066Y-10331850D01*
X13356964Y-10331850D01*
X13304576Y-10331850D01*
X13301082Y-10331347D01*
X13299923Y-10331007D01*
X13294046Y-10327229D01*
X13291144Y-10320873D01*
X13291460Y-10317343D01*
X13416200Y-10317343D01*
X13416200Y-10328000D01*
X13481200Y-10328000D01*
X13481200Y-10238000D01*
X13416200Y-10238000D01*
X13416200Y-10248659D01*
X13416841Y-10255709D01*
X13416841Y-10255710D01*
X13416841Y-10255711D01*
X13416841Y-10255712D01*
X13421898Y-10271940D01*
X13422278Y-10272568D01*
X13423137Y-10273989D01*
X13423784Y-10275059D01*
X13425161Y-10278309D01*
X13425312Y-10278879D01*
X13425607Y-10279999D01*
X13425516Y-10286657D01*
X13425160Y-10287870D01*
X13423874Y-10290792D01*
X13421898Y-10294060D01*
X13421898Y-10294061D01*
X13416841Y-10310290D01*
X13416841Y-10310290D01*
X13416284Y-10316418D01*
X13416200Y-10317343D01*
X13291460Y-10317343D01*
X13291653Y-10315192D01*
X13291783Y-10314801D01*
X13294780Y-10309950D01*
X13303992Y-10300738D01*
X13311385Y-10289674D01*
X13314877Y-10281241D01*
X13316023Y-10279098D01*
X13317354Y-10277106D01*
X13318895Y-10275228D01*
X13401231Y-10192892D01*
X13404056Y-10190777D01*
X13406365Y-10189516D01*
X13412308Y-10188000D01*
X13492017Y-10188000D01*
X13493335Y-10188190D01*
G37*
%TD.AperFunction*%
%TA.AperFunction,Conductor*%
G36*
X15644311Y-10193552D02*
G01*
X15645810Y-10193993D01*
X15651685Y-10197767D01*
X15651804Y-10197904D01*
X15654552Y-10203391D01*
X15654875Y-10204875D01*
X15655000Y-10205000D01*
X15740817Y-10205000D01*
X15744311Y-10205502D01*
X15745810Y-10205943D01*
X15751685Y-10209717D01*
X15751804Y-10209854D01*
X15754552Y-10215340D01*
X15754716Y-10216096D01*
X15755000Y-10218733D01*
X15755000Y-10235767D01*
X15754497Y-10239261D01*
X15754057Y-10240761D01*
X15750283Y-10246636D01*
X15750146Y-10246754D01*
X15744660Y-10249502D01*
X15743904Y-10249666D01*
X15741267Y-10249950D01*
X15595893Y-10249950D01*
X15592399Y-10249448D01*
X15591314Y-10249129D01*
X15585436Y-10245352D01*
X15582533Y-10238996D01*
X15583528Y-10232080D01*
X15583847Y-10231382D01*
X15586357Y-10227766D01*
X15598356Y-10215767D01*
X15616181Y-10197942D01*
X15619006Y-10195828D01*
X15621315Y-10194567D01*
X15627258Y-10193050D01*
X15640817Y-10193050D01*
X15644311Y-10193552D01*
G37*
%TD.AperFunction*%
%TA.AperFunction,Conductor*%
G36*
X13369311Y-9793002D02*
G01*
X13370810Y-9793443D01*
X13376685Y-9797217D01*
X13376804Y-9797354D01*
X13379552Y-9802840D01*
X13379716Y-9803596D01*
X13380000Y-9806233D01*
X13380000Y-9870000D01*
X13444783Y-9870000D01*
X13444783Y-9870000D01*
X13444783Y-9870000D01*
X13444784Y-9870000D01*
X13449502Y-9869493D01*
X13453029Y-9869619D01*
X13454467Y-9869878D01*
X13460715Y-9873005D01*
X13464223Y-9878800D01*
X13464531Y-9879921D01*
X13464558Y-9880020D01*
X13465000Y-9883301D01*
X13465000Y-9909785D01*
X13465640Y-9915737D01*
X13465640Y-9915738D01*
X13470193Y-9927946D01*
X13470692Y-9929643D01*
X13471365Y-9932739D01*
X13471147Y-9938868D01*
X13470599Y-9940734D01*
X13470319Y-9941574D01*
X13465591Y-9954252D01*
X13464950Y-9960212D01*
X13464950Y-10040767D01*
X13464448Y-10044261D01*
X13464007Y-10045760D01*
X13460233Y-10051636D01*
X13460096Y-10051754D01*
X13454610Y-10054502D01*
X13453854Y-10054666D01*
X13451217Y-10054950D01*
X13402106Y-10054950D01*
X13386294Y-10054950D01*
X13371021Y-10059042D01*
X13371021Y-10059042D01*
X13371021Y-10059042D01*
X13371021Y-10059043D01*
X13357329Y-10066948D01*
X13357328Y-10066948D01*
X13357328Y-10066948D01*
X13357328Y-10066948D01*
X13273679Y-10150598D01*
X13270854Y-10152712D01*
X13269861Y-10153255D01*
X13263034Y-10154740D01*
X13256487Y-10152299D01*
X13252300Y-10146705D01*
X13252031Y-10145985D01*
X13251250Y-10141653D01*
X13251250Y-10065345D01*
X13251250Y-10065340D01*
X13251250Y-10048295D01*
X13251250Y-10048294D01*
X13247158Y-10033022D01*
X13247157Y-10033021D01*
X13247157Y-10033021D01*
X13246847Y-10032270D01*
X13246935Y-10032233D01*
X13246289Y-10030671D01*
X13245472Y-10027625D01*
X13245050Y-10024415D01*
X13245050Y-9960635D01*
X13245050Y-9960213D01*
X13245050Y-9960212D01*
X13245050Y-9960212D01*
X13244409Y-9954252D01*
X13244285Y-9953919D01*
X13239610Y-9941384D01*
X13239472Y-9940897D01*
X13239473Y-9940791D01*
X13239288Y-9940161D01*
X13238864Y-9938211D01*
X13238634Y-9937156D01*
X13238853Y-9931026D01*
X13238966Y-9930641D01*
X13239131Y-9930079D01*
X13239131Y-9930079D01*
X13239454Y-9928981D01*
X13239733Y-9928143D01*
X13242883Y-9919696D01*
X13244359Y-9915739D01*
X13244359Y-9915738D01*
X13244360Y-9915738D01*
X13244360Y-9915737D01*
X13244655Y-9912989D01*
X13245000Y-9909786D01*
X13245000Y-9909783D01*
X13245000Y-9883414D01*
X13245502Y-9879921D01*
X13245914Y-9878518D01*
X13249691Y-9872641D01*
X13255828Y-9869772D01*
X13257077Y-9869569D01*
X13260386Y-9869481D01*
X13265216Y-9870000D01*
X13265217Y-9870000D01*
X13265217Y-9870000D01*
X13265217Y-9870000D01*
X13330000Y-9870000D01*
X13330000Y-9806683D01*
X13330502Y-9803189D01*
X13330943Y-9801690D01*
X13334717Y-9795814D01*
X13334854Y-9795696D01*
X13340342Y-9792948D01*
X13341098Y-9792783D01*
X13343733Y-9792500D01*
X13365817Y-9792500D01*
X13369311Y-9793002D01*
G37*
%TD.AperFunction*%
%TA.AperFunction,Conductor*%
G36*
X16580511Y-9763502D02*
G01*
X16582010Y-9763943D01*
X16587885Y-9767717D01*
X16588004Y-9767854D01*
X16590752Y-9773340D01*
X16590916Y-9774096D01*
X16591200Y-9776733D01*
X16591200Y-9793264D01*
X16591200Y-9793264D01*
X16592247Y-9793621D01*
X16602415Y-9797088D01*
X16604734Y-9798157D01*
X16605157Y-9798408D01*
X16605345Y-9798540D01*
X16605416Y-9798561D01*
X16605992Y-9798902D01*
X16606310Y-9799244D01*
X16607988Y-9800374D01*
X16608208Y-9800573D01*
X16609475Y-9802640D01*
X16610756Y-9804014D01*
X16610939Y-9805028D01*
X16611859Y-9806529D01*
X16612007Y-9807132D01*
X16612104Y-9807582D01*
X16612216Y-9808095D01*
X16612500Y-9810733D01*
X16612500Y-9895817D01*
X16611997Y-9899311D01*
X16611557Y-9900811D01*
X16607783Y-9906686D01*
X16607646Y-9906804D01*
X16602160Y-9909552D01*
X16601404Y-9909716D01*
X16598767Y-9910000D01*
X16587500Y-9910000D01*
X16587500Y-9920817D01*
X16586997Y-9924311D01*
X16586557Y-9925811D01*
X16582783Y-9931686D01*
X16582646Y-9931804D01*
X16577160Y-9934552D01*
X16576404Y-9934716D01*
X16573767Y-9935000D01*
X16497500Y-9935000D01*
X16497500Y-9945658D01*
X16497500Y-9945659D01*
X16498141Y-9952709D01*
X16498141Y-9952710D01*
X16498141Y-9952710D01*
X16498141Y-9952712D01*
X16502608Y-9967046D01*
X16503198Y-9968940D01*
X16507789Y-9976534D01*
X16508334Y-9977435D01*
X16509711Y-9980685D01*
X16510158Y-9982375D01*
X16510066Y-9989034D01*
X16509710Y-9990247D01*
X16508424Y-9993168D01*
X16507051Y-9995439D01*
X16504813Y-9998169D01*
X16503376Y-9999485D01*
X16497806Y-10002419D01*
X16496901Y-10002629D01*
X16494098Y-10002950D01*
X16458294Y-10002950D01*
X16448844Y-10005482D01*
X16448840Y-10005483D01*
X16443021Y-10007042D01*
X16443021Y-10007043D01*
X16441791Y-10007753D01*
X16441790Y-10007753D01*
X16429329Y-10014947D01*
X16429329Y-10014948D01*
X16428266Y-10016010D01*
X16425441Y-10018125D01*
X16421616Y-10020213D01*
X16420419Y-10020786D01*
X16408020Y-10025922D01*
X16408019Y-10025922D01*
X16408019Y-10025923D01*
X16402111Y-10029870D01*
X16398928Y-10031393D01*
X16395801Y-10032372D01*
X16388815Y-10032497D01*
X16388602Y-10032436D01*
X16386117Y-10031707D01*
X16380843Y-10028577D01*
X16369719Y-10017453D01*
X16368574Y-10016761D01*
X16368574Y-10016761D01*
X16355161Y-10008652D01*
X16355160Y-10008652D01*
X16355160Y-10008652D01*
X16355160Y-10008652D01*
X16340439Y-10004065D01*
X16340437Y-10004064D01*
X16338920Y-10003591D01*
X16338919Y-10003591D01*
X16338919Y-10003591D01*
X16333926Y-10003138D01*
X16333926Y-10003138D01*
X16332205Y-10002981D01*
X16331862Y-10002950D01*
X16331861Y-10002950D01*
X16260538Y-10002950D01*
X16259439Y-10003050D01*
X16258614Y-10003125D01*
X16258101Y-10003171D01*
X16253481Y-10003591D01*
X16242405Y-10007043D01*
X16238725Y-10008189D01*
X16237239Y-10008652D01*
X16234092Y-10010555D01*
X16230842Y-10011932D01*
X16229152Y-10012378D01*
X16222495Y-10012287D01*
X16221847Y-10012097D01*
X16221281Y-10011931D01*
X16218360Y-10010645D01*
X16215140Y-10008698D01*
X16215140Y-10008698D01*
X16215139Y-10008698D01*
X16215139Y-10008698D01*
X16215139Y-10008698D01*
X16208042Y-10006486D01*
X16204538Y-10004152D01*
X16193231Y-10003125D01*
X16191857Y-10003000D01*
X16191857Y-10003000D01*
X16181200Y-10003000D01*
X16181200Y-10078817D01*
X16180697Y-10082311D01*
X16180636Y-10082519D01*
X16180257Y-10083811D01*
X16176483Y-10089686D01*
X16176346Y-10089804D01*
X16170860Y-10092552D01*
X16170104Y-10092716D01*
X16167467Y-10093000D01*
X16145383Y-10093000D01*
X16141889Y-10092498D01*
X16140389Y-10092057D01*
X16134514Y-10088283D01*
X16134396Y-10088146D01*
X16131648Y-10082658D01*
X16131483Y-10081902D01*
X16131200Y-10079267D01*
X16131200Y-10003000D01*
X16120542Y-10003000D01*
X16120101Y-10003040D01*
X16113490Y-10003641D01*
X16113488Y-10003641D01*
X16097261Y-10008698D01*
X16097260Y-10008698D01*
X16082713Y-10017492D01*
X16082713Y-10017492D01*
X16070693Y-10029512D01*
X16070184Y-10030354D01*
X16068274Y-10032257D01*
X16067850Y-10033113D01*
X16066758Y-10033767D01*
X16065949Y-10034574D01*
X16065027Y-10035127D01*
X16064885Y-10034890D01*
X16061857Y-10036704D01*
X16054873Y-10036485D01*
X16049117Y-10032525D01*
X16048498Y-10031695D01*
X16048426Y-10031590D01*
X16046417Y-10026523D01*
X16046400Y-10026417D01*
X16046250Y-10024492D01*
X16046250Y-9980106D01*
X16046250Y-9980105D01*
X16046250Y-9963295D01*
X16046250Y-9963294D01*
X16046250Y-9963294D01*
X16046239Y-9963208D01*
X16046250Y-9962855D01*
X16046250Y-9962482D01*
X16046262Y-9962482D01*
X16046354Y-9959665D01*
X16046355Y-9959454D01*
X16046363Y-9959401D01*
X16046370Y-9959172D01*
X16046458Y-9958729D01*
X16046466Y-9958701D01*
X16046466Y-9958688D01*
X16046532Y-9958356D01*
X16048014Y-9955521D01*
X16049353Y-9952618D01*
X16049621Y-9952446D01*
X16049769Y-9952164D01*
X16052548Y-9950581D01*
X16054370Y-9949419D01*
X16054291Y-9949235D01*
X16054721Y-9949051D01*
X16055056Y-9948982D01*
X16055244Y-9948862D01*
X16055247Y-9948861D01*
X16055723Y-9948723D01*
X16055735Y-9948765D01*
X16055840Y-9948705D01*
X16056289Y-9948729D01*
X16059601Y-9948050D01*
X16179140Y-9948050D01*
X16183479Y-9947187D01*
X16191164Y-9945658D01*
X16192673Y-9945358D01*
X16201495Y-9941704D01*
X16205194Y-9940172D01*
X16205374Y-9940104D01*
X16205383Y-9940103D01*
X16205420Y-9940078D01*
X16205421Y-9940078D01*
X16205421Y-9940078D01*
X16205421Y-9940078D01*
X16216894Y-9932411D01*
X16311363Y-9837942D01*
X16314188Y-9835828D01*
X16315737Y-9834982D01*
X16322564Y-9833497D01*
X16325172Y-9833968D01*
X16326282Y-9834293D01*
X16331557Y-9837423D01*
X16342681Y-9848547D01*
X16342681Y-9848547D01*
X16342681Y-9848547D01*
X16342682Y-9848548D01*
X16342815Y-9848644D01*
X16343106Y-9848804D01*
X16357239Y-9857348D01*
X16373480Y-9862409D01*
X16380538Y-9863050D01*
X16380539Y-9863050D01*
X16431861Y-9863050D01*
X16431862Y-9863050D01*
X16438920Y-9862409D01*
X16455161Y-9857348D01*
X16469718Y-9848547D01*
X16476207Y-9842059D01*
X16479032Y-9839944D01*
X16480404Y-9839195D01*
X16487230Y-9837710D01*
X16487411Y-9837723D01*
X16493230Y-9839659D01*
X16493882Y-9840078D01*
X16495946Y-9841741D01*
X16497128Y-9842923D01*
X16499243Y-9845748D01*
X16500080Y-9847282D01*
X16501585Y-9853770D01*
X16501530Y-9855033D01*
X16500980Y-9858177D01*
X16498141Y-9867290D01*
X16498141Y-9867290D01*
X16497500Y-9874342D01*
X16497500Y-9874343D01*
X16497500Y-9885000D01*
X16562500Y-9885000D01*
X16562500Y-9876000D01*
X16555383Y-9876000D01*
X16551889Y-9875498D01*
X16550389Y-9875057D01*
X16544514Y-9871283D01*
X16544396Y-9871146D01*
X16541648Y-9865658D01*
X16541483Y-9864902D01*
X16541200Y-9862267D01*
X16541200Y-9777183D01*
X16541702Y-9773689D01*
X16541902Y-9773009D01*
X16542143Y-9772189D01*
X16545917Y-9766314D01*
X16546054Y-9766196D01*
X16551542Y-9763448D01*
X16552298Y-9763283D01*
X16554933Y-9763000D01*
X16577017Y-9763000D01*
X16580511Y-9763502D01*
G37*
%TD.AperFunction*%
%TA.AperFunction,Conductor*%
G36*
X13259213Y-9649553D02*
G01*
X13262201Y-9649982D01*
X13265181Y-9650800D01*
X13272796Y-9653954D01*
X13275204Y-9654433D01*
X13278533Y-9655607D01*
X13279762Y-9656251D01*
X13284790Y-9661102D01*
X13286397Y-9667902D01*
X13286331Y-9669135D01*
X13286331Y-9669135D01*
X13286331Y-9669135D01*
X13287377Y-9670570D01*
X13287919Y-9671313D01*
X13288676Y-9672485D01*
X13288966Y-9672995D01*
X13289042Y-9673179D01*
X13291000Y-9676570D01*
X13291011Y-9676589D01*
X13296327Y-9685797D01*
X13296947Y-9686871D01*
X13296948Y-9686872D01*
X13302648Y-9692571D01*
X13304763Y-9695397D01*
X13305305Y-9696389D01*
X13306790Y-9703217D01*
X13304348Y-9709763D01*
X13298755Y-9713950D01*
X13298036Y-9714218D01*
X13293703Y-9715000D01*
X13265215Y-9715000D01*
X13259263Y-9715640D01*
X13259262Y-9715640D01*
X13245791Y-9720665D01*
X13245791Y-9720665D01*
X13234281Y-9729281D01*
X13234281Y-9729281D01*
X13225665Y-9740790D01*
X13225665Y-9740791D01*
X13225664Y-9740792D01*
X13223325Y-9747063D01*
X13221634Y-9750161D01*
X13220697Y-9751412D01*
X13215103Y-9755599D01*
X13215102Y-9755600D01*
X13214932Y-9755663D01*
X13208836Y-9756318D01*
X13208071Y-9756208D01*
X13206278Y-9755750D01*
X13206269Y-9755786D01*
X13205738Y-9755640D01*
X13205739Y-9755640D01*
X13205737Y-9755640D01*
X13205737Y-9755640D01*
X13205736Y-9755640D01*
X13205735Y-9755640D01*
X13199785Y-9755000D01*
X13199784Y-9755000D01*
X13175000Y-9755000D01*
X13175000Y-9840817D01*
X13174497Y-9844311D01*
X13174057Y-9845811D01*
X13170283Y-9851686D01*
X13170146Y-9851804D01*
X13164660Y-9854552D01*
X13163904Y-9854716D01*
X13161267Y-9855000D01*
X13140433Y-9855000D01*
X13136939Y-9854498D01*
X13135439Y-9854057D01*
X13129564Y-9850283D01*
X13129446Y-9850146D01*
X13126698Y-9844658D01*
X13126533Y-9843902D01*
X13126250Y-9841267D01*
X13126250Y-9774230D01*
X13126488Y-9771811D01*
X13126934Y-9769569D01*
X13126956Y-9769462D01*
X13127661Y-9767135D01*
X13128410Y-9765328D01*
X13128813Y-9764354D01*
X13131154Y-9758704D01*
X13133273Y-9748052D01*
X13133750Y-9745653D01*
X13133750Y-9732346D01*
X13131134Y-9719198D01*
X13130997Y-9718914D01*
X13130957Y-9718821D01*
X13126062Y-9707003D01*
X13126024Y-9706946D01*
X13125444Y-9706078D01*
X13124998Y-9705047D01*
X13124952Y-9704681D01*
X13124545Y-9703829D01*
X13124077Y-9702336D01*
X13123953Y-9695351D01*
X13124147Y-9694643D01*
X13127337Y-9689155D01*
X13161550Y-9654942D01*
X13164375Y-9652827D01*
X13166684Y-9651567D01*
X13172626Y-9650050D01*
X13251273Y-9650050D01*
X13251758Y-9649967D01*
X13251966Y-9649945D01*
X13252240Y-9649915D01*
X13254563Y-9649665D01*
X13256124Y-9649498D01*
X13259213Y-9649553D01*
G37*
%TD.AperFunction*%
%TA.AperFunction,Conductor*%
G36*
X15585116Y-9711099D02*
G01*
X15587484Y-9711493D01*
X15593294Y-9713050D01*
X15593294Y-9713050D01*
X15610059Y-9713050D01*
X15610059Y-9713156D01*
X15616437Y-9714814D01*
X15617979Y-9716486D01*
X15633749Y-9713296D01*
X15639700Y-9713552D01*
X15642225Y-9714293D01*
X15647499Y-9717423D01*
X15684534Y-9754457D01*
X15686649Y-9757282D01*
X15686742Y-9757453D01*
X15687314Y-9758501D01*
X15688799Y-9765328D01*
X15686357Y-9771874D01*
X15686356Y-9771877D01*
X15686214Y-9772066D01*
X15680620Y-9776252D01*
X15678708Y-9776794D01*
X15672417Y-9778046D01*
X15663937Y-9781558D01*
X15661514Y-9782283D01*
X15661004Y-9782380D01*
X15660972Y-9782381D01*
X15660330Y-9782508D01*
X15660271Y-9782520D01*
X15659835Y-9782477D01*
X15654455Y-9782237D01*
X15653303Y-9781899D01*
X15647909Y-9778648D01*
X15647261Y-9777982D01*
X15645537Y-9775750D01*
X15643194Y-9771874D01*
X15642232Y-9770284D01*
X15641907Y-9769642D01*
X15629719Y-9757453D01*
X15627841Y-9756318D01*
X15627401Y-9756052D01*
X15615161Y-9748652D01*
X15615160Y-9748652D01*
X15615160Y-9748652D01*
X15615160Y-9748652D01*
X15599878Y-9743890D01*
X15599444Y-9743715D01*
X15598786Y-9743560D01*
X15598359Y-9743540D01*
X15593978Y-9743142D01*
X15593978Y-9743142D01*
X15592054Y-9742967D01*
X15591862Y-9742950D01*
X15591861Y-9742950D01*
X15581569Y-9742950D01*
X15578076Y-9742448D01*
X15576744Y-9742057D01*
X15570866Y-9738279D01*
X15567964Y-9731923D01*
X15567964Y-9731923D01*
X15567928Y-9731675D01*
X15567897Y-9731459D01*
X15568862Y-9724610D01*
X15569175Y-9723914D01*
X15571070Y-9719699D01*
X15572961Y-9716719D01*
X15573606Y-9715965D01*
X15573606Y-9715965D01*
X15573850Y-9715681D01*
X15573943Y-9715761D01*
X15575007Y-9714955D01*
X15575652Y-9713986D01*
X15578650Y-9712123D01*
X15578757Y-9712076D01*
X15578829Y-9712064D01*
X15578902Y-9712009D01*
X15579228Y-9711882D01*
X15580511Y-9711771D01*
X15584573Y-9711063D01*
X15585116Y-9711099D01*
G37*
%TD.AperFunction*%
%TA.AperFunction,Conductor*%
G36*
X16566782Y-9466907D02*
G01*
X16572891Y-9468739D01*
X16574051Y-9469453D01*
X16574051Y-9469453D01*
X16576714Y-9471091D01*
X16578114Y-9471790D01*
X16588910Y-9478174D01*
X16590585Y-9478661D01*
X16593071Y-9479383D01*
X16593072Y-9479383D01*
X16593072Y-9479384D01*
X16603613Y-9482446D01*
X16603733Y-9482493D01*
X16604617Y-9482739D01*
X16604690Y-9482760D01*
X16604692Y-9482760D01*
X16604693Y-9482760D01*
X16604693Y-9482760D01*
X16604693Y-9482760D01*
X16604693Y-9482760D01*
X16608381Y-9483050D01*
X16608381Y-9483050D01*
X16724019Y-9483050D01*
X16724019Y-9483050D01*
X16727707Y-9482760D01*
X16727707Y-9482760D01*
X16727707Y-9482760D01*
X16727707Y-9482760D01*
X16727709Y-9482760D01*
X16727781Y-9482739D01*
X16728667Y-9482493D01*
X16728787Y-9482446D01*
X16729116Y-9482351D01*
X16732203Y-9481454D01*
X16743490Y-9478174D01*
X16747801Y-9475625D01*
X16750841Y-9474337D01*
X16753941Y-9473489D01*
X16757212Y-9473050D01*
X16758736Y-9473050D01*
X16762228Y-9473552D01*
X16763314Y-9473871D01*
X16769192Y-9477648D01*
X16772095Y-9484003D01*
X16771101Y-9490919D01*
X16771101Y-9490919D01*
X16770782Y-9491616D01*
X16768271Y-9495234D01*
X16761994Y-9501511D01*
X16761994Y-9501511D01*
X16761992Y-9501512D01*
X16756662Y-9510330D01*
X16754425Y-9513060D01*
X16753272Y-9514115D01*
X16746999Y-9517191D01*
X16746126Y-9517342D01*
X16740567Y-9517028D01*
X16727699Y-9513290D01*
X16727698Y-9513290D01*
X16724016Y-9513000D01*
X16724015Y-9513000D01*
X16691200Y-9513000D01*
X16691200Y-9568000D01*
X16734500Y-9568000D01*
X16734500Y-9564183D01*
X16735002Y-9560689D01*
X16735433Y-9559223D01*
X16735443Y-9559189D01*
X16739217Y-9553314D01*
X16739354Y-9553196D01*
X16744842Y-9550448D01*
X16745598Y-9550283D01*
X16748233Y-9550000D01*
X16823317Y-9550000D01*
X16826811Y-9550502D01*
X16828310Y-9550943D01*
X16834186Y-9554717D01*
X16834304Y-9554854D01*
X16837052Y-9560340D01*
X16837216Y-9561096D01*
X16837500Y-9563733D01*
X16837500Y-9585817D01*
X16836998Y-9589311D01*
X16836557Y-9590811D01*
X16832783Y-9596686D01*
X16832646Y-9596804D01*
X16827160Y-9599552D01*
X16826404Y-9599716D01*
X16823767Y-9600000D01*
X16795450Y-9600000D01*
X16795450Y-9603817D01*
X16794948Y-9607311D01*
X16794835Y-9607693D01*
X16794507Y-9608811D01*
X16790733Y-9614686D01*
X16790596Y-9614804D01*
X16785110Y-9617552D01*
X16784354Y-9617716D01*
X16781717Y-9618000D01*
X16691200Y-9618000D01*
X16691200Y-9666615D01*
X16690698Y-9670109D01*
X16689956Y-9672633D01*
X16686827Y-9677907D01*
X16684653Y-9680081D01*
X16684653Y-9680081D01*
X16684653Y-9680081D01*
X16680146Y-9687537D01*
X16680146Y-9687537D01*
X16676664Y-9693296D01*
X16676664Y-9693297D01*
X16676036Y-9694335D01*
X16675852Y-9694640D01*
X16673918Y-9700846D01*
X16673818Y-9701120D01*
X16673601Y-9701415D01*
X16672485Y-9703756D01*
X16671805Y-9704778D01*
X16670035Y-9706260D01*
X16669677Y-9706747D01*
X16669268Y-9706904D01*
X16666449Y-9709265D01*
X16659518Y-9710146D01*
X16654624Y-9708232D01*
X16654349Y-9708049D01*
X16651976Y-9705917D01*
X16651957Y-9705934D01*
X16651877Y-9705851D01*
X16651817Y-9705774D01*
X16651672Y-9705644D01*
X16651347Y-9705253D01*
X16651386Y-9705220D01*
X16650267Y-9703781D01*
X16641135Y-9689052D01*
X16639868Y-9686312D01*
X16639789Y-9686067D01*
X16639632Y-9685496D01*
X16639569Y-9685381D01*
X16639367Y-9684753D01*
X16639289Y-9681699D01*
X16638987Y-9678660D01*
X16638987Y-9678660D01*
X16639018Y-9678498D01*
X16639197Y-9678048D01*
X16639190Y-9677768D01*
X16639533Y-9677202D01*
X16640772Y-9674092D01*
X16641138Y-9673522D01*
X16641138Y-9673522D01*
X16641200Y-9673426D01*
X16641200Y-9513000D01*
X16608384Y-9513000D01*
X16605334Y-9513240D01*
X16604701Y-9513290D01*
X16604700Y-9513290D01*
X16604700Y-9513290D01*
X16604699Y-9513290D01*
X16588933Y-9517871D01*
X16588930Y-9517872D01*
X16588929Y-9517872D01*
X16577156Y-9524835D01*
X16576785Y-9525046D01*
X16572075Y-9527617D01*
X16565268Y-9529102D01*
X16565216Y-9529099D01*
X16559173Y-9527026D01*
X16558348Y-9526472D01*
X16556152Y-9524592D01*
X16554680Y-9523000D01*
X16554680Y-9523000D01*
X16529797Y-9523000D01*
X16526525Y-9522561D01*
X16524975Y-9522137D01*
X16523426Y-9521713D01*
X16520385Y-9520425D01*
X16520120Y-9520268D01*
X16520119Y-9520267D01*
X16517338Y-9518623D01*
X16516677Y-9518110D01*
X16515066Y-9517443D01*
X16514295Y-9517333D01*
X16509520Y-9515946D01*
X16500208Y-9513240D01*
X16500207Y-9513240D01*
X16500207Y-9513240D01*
X16500207Y-9513240D01*
X16496521Y-9512950D01*
X16496520Y-9512950D01*
X16496519Y-9512950D01*
X16452883Y-9512950D01*
X16449389Y-9512448D01*
X16447889Y-9512007D01*
X16442014Y-9508233D01*
X16441896Y-9508096D01*
X16439148Y-9502608D01*
X16438983Y-9501852D01*
X16438700Y-9499217D01*
X16438700Y-9497233D01*
X16439202Y-9493739D01*
X16439257Y-9493552D01*
X16439643Y-9492239D01*
X16443417Y-9486364D01*
X16443554Y-9486246D01*
X16449042Y-9483498D01*
X16449798Y-9483333D01*
X16452433Y-9483050D01*
X16496519Y-9483050D01*
X16496519Y-9483050D01*
X16500207Y-9482760D01*
X16500207Y-9482760D01*
X16500207Y-9482760D01*
X16500207Y-9482760D01*
X16500209Y-9482760D01*
X16500281Y-9482739D01*
X16501167Y-9482493D01*
X16501287Y-9482446D01*
X16501616Y-9482351D01*
X16504703Y-9481454D01*
X16515990Y-9478174D01*
X16520386Y-9475575D01*
X16523426Y-9474287D01*
X16523815Y-9474181D01*
X16526525Y-9473440D01*
X16529797Y-9473000D01*
X16554679Y-9473000D01*
X16554679Y-9473000D01*
X16555896Y-9471684D01*
X16558636Y-9469460D01*
X16559978Y-9468657D01*
X16566731Y-9466905D01*
X16566782Y-9466907D01*
G37*
%TD.AperFunction*%
%TA.AperFunction,Conductor*%
G36*
X15813758Y-9493552D02*
G01*
X15814265Y-9493701D01*
X15816283Y-9494293D01*
X15821557Y-9497423D01*
X15823351Y-9499217D01*
X15824350Y-9500216D01*
X15826465Y-9503041D01*
X15828073Y-9505986D01*
X15829071Y-9508540D01*
X15829088Y-9508534D01*
X15829195Y-9508858D01*
X15829220Y-9508923D01*
X15829232Y-9508971D01*
X15834512Y-9521717D01*
X15834512Y-9521718D01*
X15834513Y-9521720D01*
X15842179Y-9533192D01*
X15842179Y-9533192D01*
X15842179Y-9533192D01*
X15851935Y-9542948D01*
X15851935Y-9542948D01*
X15851936Y-9542949D01*
X15863408Y-9550614D01*
X15863409Y-9550615D01*
X15875676Y-9555696D01*
X15876157Y-9555895D01*
X15876191Y-9555902D01*
X15876730Y-9556119D01*
X15876884Y-9556240D01*
X15877856Y-9556637D01*
X15879573Y-9557536D01*
X15884601Y-9562387D01*
X15884965Y-9563025D01*
X15886590Y-9569162D01*
X15886590Y-9595561D01*
X15888233Y-9608339D01*
X15888234Y-9608340D01*
X15891272Y-9615554D01*
X15892165Y-9618969D01*
X15892322Y-9620347D01*
X15891122Y-9627231D01*
X15886392Y-9632372D01*
X15885953Y-9632636D01*
X15879562Y-9634410D01*
X15848343Y-9634410D01*
X15848343Y-9634410D01*
X15848272Y-9634415D01*
X15848128Y-9634433D01*
X15842382Y-9635051D01*
X15828897Y-9640080D01*
X15828896Y-9640081D01*
X15817376Y-9648705D01*
X15817375Y-9648706D01*
X15808750Y-9660227D01*
X15808750Y-9660227D01*
X15807309Y-9664091D01*
X15804616Y-9671313D01*
X15803721Y-9673712D01*
X15803542Y-9674467D01*
X15803476Y-9674451D01*
X15802888Y-9676756D01*
X15802428Y-9677867D01*
X15798043Y-9683307D01*
X15791413Y-9685512D01*
X15784835Y-9683895D01*
X15783924Y-9683376D01*
X15781293Y-9681370D01*
X15769088Y-9669164D01*
X15766973Y-9666339D01*
X15766223Y-9664966D01*
X15764738Y-9658140D01*
X15764751Y-9657960D01*
X15766687Y-9652141D01*
X15766767Y-9652018D01*
X15767107Y-9651489D01*
X15768769Y-9649426D01*
X15770508Y-9647687D01*
X15771385Y-9647021D01*
X15771707Y-9646488D01*
X15771707Y-9646488D01*
X15780502Y-9631940D01*
X15785559Y-9615711D01*
X15786200Y-9608657D01*
X15786200Y-9608000D01*
X15714732Y-9608000D01*
X15711444Y-9607556D01*
X15708834Y-9606838D01*
X15705637Y-9605248D01*
X15705575Y-9605354D01*
X15693944Y-9598639D01*
X15691168Y-9596456D01*
X15690314Y-9595560D01*
X15689870Y-9595094D01*
X15686794Y-9589460D01*
X15686549Y-9588448D01*
X15686200Y-9585526D01*
X15686200Y-9572183D01*
X15686702Y-9568689D01*
X15687143Y-9567190D01*
X15690917Y-9561314D01*
X15691054Y-9561196D01*
X15696542Y-9558448D01*
X15697298Y-9558283D01*
X15699933Y-9558000D01*
X15786200Y-9558000D01*
X15786200Y-9557342D01*
X15786089Y-9556119D01*
X15785903Y-9554077D01*
X15785559Y-9550290D01*
X15785559Y-9550290D01*
X15785559Y-9550290D01*
X15785559Y-9550289D01*
X15780502Y-9534060D01*
X15779977Y-9533192D01*
X15771708Y-9519513D01*
X15771707Y-9519512D01*
X15767674Y-9515479D01*
X15765559Y-9512654D01*
X15765017Y-9511661D01*
X15763531Y-9504834D01*
X15765973Y-9498287D01*
X15771566Y-9494100D01*
X15771954Y-9493955D01*
X15772287Y-9493831D01*
X15776619Y-9493050D01*
X15810265Y-9493050D01*
X15813758Y-9493552D01*
G37*
%TD.AperFunction*%
%TA.AperFunction,Conductor*%
G36*
X16201432Y-9485626D02*
G01*
X16204459Y-9485734D01*
X16205897Y-9485993D01*
X16212145Y-9489121D01*
X16215653Y-9494915D01*
X16215932Y-9495931D01*
X16215988Y-9496135D01*
X16216430Y-9499416D01*
X16216430Y-9620471D01*
X16215927Y-9623965D01*
X16215516Y-9625367D01*
X16211738Y-9631245D01*
X16205602Y-9634113D01*
X16204354Y-9634316D01*
X16201430Y-9634394D01*
X16201430Y-9634404D01*
X16201430Y-9634410D01*
X16201430Y-9634410D01*
X16201429Y-9634428D01*
X16201099Y-9634410D01*
X16201098Y-9634410D01*
X16201097Y-9634410D01*
X16170637Y-9634410D01*
X16167143Y-9633908D01*
X16165812Y-9633517D01*
X16159934Y-9629739D01*
X16157032Y-9623384D01*
X16156967Y-9622930D01*
X16157961Y-9616014D01*
X16159684Y-9612241D01*
X16160634Y-9610972D01*
X16160804Y-9609787D01*
X16160804Y-9609787D01*
X16162628Y-9597101D01*
X16162850Y-9596293D01*
X16162850Y-9576510D01*
X16038903Y-9576510D01*
X16035409Y-9576007D01*
X16033909Y-9575567D01*
X16028034Y-9571792D01*
X16027916Y-9571655D01*
X16025168Y-9566168D01*
X16025003Y-9565412D01*
X16024720Y-9562776D01*
X16024720Y-9542433D01*
X16025222Y-9538939D01*
X16025663Y-9537439D01*
X16029437Y-9531564D01*
X16029574Y-9531445D01*
X16035062Y-9528697D01*
X16035818Y-9528533D01*
X16038453Y-9528250D01*
X16162850Y-9528250D01*
X16162850Y-9499773D01*
X16163352Y-9496279D01*
X16163548Y-9495614D01*
X16163793Y-9494779D01*
X16167567Y-9488904D01*
X16167704Y-9488786D01*
X16173192Y-9486038D01*
X16173948Y-9485873D01*
X16176583Y-9485590D01*
X16201097Y-9485590D01*
X16201097Y-9485590D01*
X16201097Y-9485590D01*
X16201429Y-9485572D01*
X16201432Y-9485626D01*
G37*
%TD.AperFunction*%
%TD*%
M02*
