%TF.GenerationSoftware,KiCad,Pcbnew,10.0.0*%
%TF.CreationDate,2026-04-01T00:37:25+02:00*%
%TF.ProjectId,YetiX-A_DevBoard,59657469-582d-4415-9f44-6576426f6172,0.0.1*%
%TF.SameCoordinates,Original*%
%TF.FileFunction,Soldermask,Bot*%
%TF.FilePolarity,Negative*%
%FSLAX45Y45*%
G04 Gerber Fmt 4.5, Leading zero omitted, Abs format (unit mm)*
G04 Created by KiCad (PCBNEW 10.0.0) date 2026-04-01 00:37:25*
%MOMM*%
%LPD*%
G01*
G04 APERTURE LIST*
G04 Aperture macros list*
%AMRoundRect*
0 Rectangle with rounded corners*
0 $1 Rounding radius*
0 $2 $3 $4 $5 $6 $7 $8 $9 X,Y pos of 4 corners*
0 Add a 4 corners polygon primitive as box body*
4,1,4,$2,$3,$4,$5,$6,$7,$8,$9,$2,$3,0*
0 Add four circle primitives for the rounded corners*
1,1,$1+$1,$2,$3*
1,1,$1+$1,$4,$5*
1,1,$1+$1,$6,$7*
1,1,$1+$1,$8,$9*
0 Add four rect primitives between the rounded corners*
20,1,$1+$1,$2,$3,$4,$5,0*
20,1,$1+$1,$4,$5,$6,$7,0*
20,1,$1+$1,$6,$7,$8,$9,0*
20,1,$1+$1,$8,$9,$2,$3,0*%
G04 Aperture macros list end*
%ADD10C,0.650000*%
%ADD11O,2.100000X1.000000*%
%ADD12O,1.800000X1.000000*%
%ADD13RoundRect,0.200000X-0.300000X0.200000X-0.300000X-0.200000X0.300000X-0.200000X0.300000X0.200000X0*%
%ADD14R,0.700000X1.550000*%
%ADD15RoundRect,0.150000X-0.150000X0.825000X-0.150000X-0.825000X0.150000X-0.825000X0.150000X0.825000X0*%
%ADD16R,1.700000X1.700000*%
%ADD17O,1.700000X1.700000*%
%ADD18RoundRect,0.200000X0.200000X0.300000X-0.200000X0.300000X-0.200000X-0.300000X0.200000X-0.300000X0*%
%ADD19R,1.000000X0.500000*%
%ADD20R,0.780000X0.720000*%
%ADD21R,2.390000X1.050000*%
%ADD22R,1.200000X1.050000*%
%ADD23R,0.550000X2.910000*%
%ADD24R,1.080000X1.050000*%
%ADD25RoundRect,0.200000X0.300000X-0.200000X0.300000X0.200000X-0.300000X0.200000X-0.300000X-0.200000X0*%
G04 APERTURE END LIST*
D10*
%TO.C,J101*%
X17488200Y-10322000D03*
X17488200Y-9744000D03*
D11*
X17438200Y-10465000D03*
X17438200Y-9601000D03*
D12*
X17856200Y-10465000D03*
X17856200Y-9601000D03*
%TD*%
D13*
%TO.C,R1*%
X14866200Y-10043000D03*
X14866200Y-10203000D03*
%TD*%
D14*
%TO.C,U107*%
X15856700Y-10190500D03*
X15729700Y-10190500D03*
X15602700Y-10190500D03*
X15475700Y-10190500D03*
X15475700Y-9645500D03*
X15602700Y-9645500D03*
X15729700Y-9645500D03*
X15856700Y-9645500D03*
%TD*%
D15*
%TO.C,U1*%
X14312900Y-9785500D03*
X14439900Y-9785500D03*
X14566900Y-9785500D03*
X14693900Y-9785500D03*
X14693900Y-10280500D03*
X14566900Y-10280500D03*
X14439900Y-10280500D03*
X14312900Y-10280500D03*
%TD*%
D13*
%TO.C,C114*%
X15296200Y-9853000D03*
X15296200Y-10013000D03*
%TD*%
D16*
%TO.C,J1*%
X12522200Y-10922000D03*
D17*
X12776200Y-10922000D03*
X13030200Y-10922000D03*
X13284200Y-10922000D03*
X13538200Y-10922000D03*
X13792200Y-10922000D03*
X14046200Y-10922000D03*
X14300200Y-10922000D03*
X14554200Y-10922000D03*
X14808200Y-10922000D03*
X15062200Y-10922000D03*
X15316200Y-10922000D03*
X15570200Y-10922000D03*
X15824200Y-10922000D03*
X16078200Y-10922000D03*
X16332200Y-10922000D03*
X16586200Y-10922000D03*
X16840200Y-10922000D03*
X17094200Y-10922000D03*
X17348200Y-10922000D03*
X17602200Y-10922000D03*
%TD*%
D18*
%TO.C,C116*%
X14526200Y-10488000D03*
X14366200Y-10488000D03*
%TD*%
D19*
%TO.C,U106*%
X12928700Y-9676500D03*
X12928700Y-9786500D03*
X12928700Y-9896500D03*
X12928700Y-10006500D03*
X12928700Y-10116500D03*
X12928700Y-10226500D03*
X12928700Y-10336500D03*
X12928700Y-10446500D03*
D20*
X13196700Y-9500500D03*
D21*
X13209200Y-10564000D03*
D22*
X13527700Y-10564000D03*
D23*
X13652200Y-10246000D03*
X13652200Y-9828000D03*
D22*
X13584700Y-9499000D03*
D24*
X13323700Y-9499000D03*
%TD*%
D25*
%TO.C,C115*%
X15296200Y-10343000D03*
X15296200Y-10183000D03*
%TD*%
%TO.C,R2*%
X14856200Y-9813000D03*
X14856200Y-9653000D03*
%TD*%
D16*
%TO.C,J2*%
X17602200Y-9144000D03*
D17*
X17348200Y-9144000D03*
X17094200Y-9144000D03*
X16840200Y-9144000D03*
X16586200Y-9144000D03*
X16332200Y-9144000D03*
X16078200Y-9144000D03*
X15824200Y-9144000D03*
X15570200Y-9144000D03*
X15316200Y-9144000D03*
X15062200Y-9144000D03*
X14808200Y-9144000D03*
X14554200Y-9144000D03*
X14300200Y-9144000D03*
X14046200Y-9144000D03*
X13792200Y-9144000D03*
X13538200Y-9144000D03*
X13284200Y-9144000D03*
X13030200Y-9144000D03*
X12776200Y-9144000D03*
X12522200Y-9144000D03*
%TD*%
M02*
