%TF.GenerationSoftware,KiCad,Pcbnew,10.0.0*%
%TF.CreationDate,2026-04-01T00:37:25+02:00*%
%TF.ProjectId,YetiX-A_DevBoard,59657469-582d-4415-9f44-6576426f6172,0.0.1*%
%TF.SameCoordinates,Original*%
%TF.FileFunction,Copper,L4,Bot*%
%TF.FilePolarity,Positive*%
%FSLAX45Y45*%
G04 Gerber Fmt 4.5, Leading zero omitted, Abs format (unit mm)*
G04 Created by KiCad (PCBNEW 10.0.0) date 2026-04-01 00:37:25*
%MOMM*%
%LPD*%
G01*
G04 APERTURE LIST*
G04 Aperture macros list*
%AMRoundRect*
0 Rectangle with rounded corners*
0 $1 Rounding radius*
0 $2 $3 $4 $5 $6 $7 $8 $9 X,Y pos of 4 corners*
0 Add a 4 corners polygon primitive as box body*
4,1,4,$2,$3,$4,$5,$6,$7,$8,$9,$2,$3,0*
0 Add four circle primitives for the rounded corners*
1,1,$1+$1,$2,$3*
1,1,$1+$1,$4,$5*
1,1,$1+$1,$6,$7*
1,1,$1+$1,$8,$9*
0 Add four rect primitives between the rounded corners*
20,1,$1+$1,$2,$3,$4,$5,0*
20,1,$1+$1,$4,$5,$6,$7,0*
20,1,$1+$1,$6,$7,$8,$9,0*
20,1,$1+$1,$8,$9,$2,$3,0*%
G04 Aperture macros list end*
%TA.AperFunction,ComponentPad*%
%ADD10O,2.100000X1.000000*%
%TD*%
%TA.AperFunction,ComponentPad*%
%ADD11O,1.800000X1.000000*%
%TD*%
%TA.AperFunction,SMDPad,CuDef*%
%ADD12RoundRect,0.200000X-0.300000X0.200000X-0.300000X-0.200000X0.300000X-0.200000X0.300000X0.200000X0*%
%TD*%
%TA.AperFunction,SMDPad,CuDef*%
%ADD13R,0.700000X1.550000*%
%TD*%
%TA.AperFunction,SMDPad,CuDef*%
%ADD14RoundRect,0.150000X-0.150000X0.825000X-0.150000X-0.825000X0.150000X-0.825000X0.150000X0.825000X0*%
%TD*%
%TA.AperFunction,ComponentPad*%
%ADD15R,1.700000X1.700000*%
%TD*%
%TA.AperFunction,ComponentPad*%
%ADD16O,1.700000X1.700000*%
%TD*%
%TA.AperFunction,SMDPad,CuDef*%
%ADD17RoundRect,0.200000X0.200000X0.300000X-0.200000X0.300000X-0.200000X-0.300000X0.200000X-0.300000X0*%
%TD*%
%TA.AperFunction,SMDPad,CuDef*%
%ADD18R,1.000000X0.500000*%
%TD*%
%TA.AperFunction,SMDPad,CuDef*%
%ADD19R,0.780000X0.720000*%
%TD*%
%TA.AperFunction,SMDPad,CuDef*%
%ADD20R,2.390000X1.050000*%
%TD*%
%TA.AperFunction,SMDPad,CuDef*%
%ADD21R,1.200000X1.050000*%
%TD*%
%TA.AperFunction,SMDPad,CuDef*%
%ADD22R,0.550000X2.910000*%
%TD*%
%TA.AperFunction,SMDPad,CuDef*%
%ADD23R,1.080000X1.050000*%
%TD*%
%TA.AperFunction,SMDPad,CuDef*%
%ADD24RoundRect,0.200000X0.300000X-0.200000X0.300000X0.200000X-0.300000X0.200000X-0.300000X-0.200000X0*%
%TD*%
%TA.AperFunction,ViaPad*%
%ADD25C,0.400000*%
%TD*%
%TA.AperFunction,ViaPad*%
%ADD26C,0.350000*%
%TD*%
%TA.AperFunction,Conductor*%
%ADD27C,0.200000*%
%TD*%
%TA.AperFunction,Conductor*%
%ADD28C,0.400000*%
%TD*%
G04 APERTURE END LIST*
D10*
%TO.P,J101,SH1,SHELL_GND_SH1*%
%TO.N,SHELL_GND*%
X17438200Y-10465000D03*
%TO.P,J101,SH2,SHELL_GND_SH2*%
X17438200Y-9601000D03*
D11*
%TO.P,J101,SH3,SHELL_GND_SH3*%
X17856200Y-10465000D03*
%TO.P,J101,SH4,SHELL_GND_SH4*%
X17856200Y-9601000D03*
%TD*%
D12*
%TO.P,R1,1*%
%TO.N,Net-(U1-~{W})*%
X14866200Y-10043000D03*
%TO.P,R1,2*%
%TO.N,GND*%
X14866200Y-10203000D03*
%TD*%
D13*
%TO.P,U107,1,TXD_1*%
%TO.N,/CAN_TXD*%
X15856700Y-10190500D03*
%TO.P,U107,2,GND_2*%
%TO.N,GND*%
X15729700Y-10190500D03*
%TO.P,U107,3,Vcc_3*%
%TO.N,+5V*%
X15602700Y-10190500D03*
%TO.P,U107,4,RXD_4*%
%TO.N,/CAN_RXD*%
X15475700Y-10190500D03*
%TO.P,U107,5,Vio_5*%
%TO.N,+3V3*%
X15475700Y-9645500D03*
%TO.P,U107,6,CANL_6*%
%TO.N,/CAN-*%
X15602700Y-9645500D03*
%TO.P,U107,7,CANH_7*%
%TO.N,/CAN+*%
X15729700Y-9645500D03*
%TO.P,U107,8,STB_8*%
%TO.N,/CAN_STBY*%
X15856700Y-9645500D03*
%TD*%
D14*
%TO.P,U1,1,~{CS}_1*%
%TO.N,/SPI1_CS2*%
X14312900Y-9785500D03*
%TO.P,U1,2,MISO_2*%
%TO.N,/SPI1_MISO*%
X14439900Y-9785500D03*
%TO.P,U1,3,~{W}_3*%
%TO.N,Net-(U1-~{W})*%
X14566900Y-9785500D03*
%TO.P,U1,4,VSS_4*%
%TO.N,GND*%
X14693900Y-9785500D03*
%TO.P,U1,5,MOSI_5*%
%TO.N,/SPI1_MOSI*%
X14693900Y-10280500D03*
%TO.P,U1,6,SCLK_6*%
%TO.N,/SPI1_SCK*%
X14566900Y-10280500D03*
%TO.P,U1,7,~{HOLD}_7*%
%TO.N,/EEPROM_HOLD*%
X14439900Y-10280500D03*
%TO.P,U1,8,VCC_8*%
%TO.N,+3V3*%
X14312900Y-10280500D03*
%TD*%
D12*
%TO.P,C114,1*%
%TO.N,+3V3*%
X15296200Y-9853000D03*
%TO.P,C114,2*%
%TO.N,+5V*%
X15296200Y-10013000D03*
%TD*%
D15*
%TO.P,J1,1*%
%TO.N,/I2C0_HREQ*%
X12522200Y-10922000D03*
D16*
%TO.P,J1,2*%
%TO.N,/I2C0_SCL{slash}I3C_SCL*%
X12776200Y-10922000D03*
%TO.P,J1,3*%
%TO.N,/I2C0_SDA{slash}I3C_SDA*%
X13030200Y-10922000D03*
%TO.P,J1,4*%
%TO.N,/I3C_PUR*%
X13284200Y-10922000D03*
%TO.P,J1,5*%
%TO.N,/P1_5*%
X13538200Y-10922000D03*
%TO.P,J1,6*%
%TO.N,/P1_4*%
X13792200Y-10922000D03*
%TO.P,J1,7*%
%TO.N,/P1_3*%
X14046200Y-10922000D03*
%TO.P,J1,8*%
%TO.N,/P1_2*%
X14300200Y-10922000D03*
%TO.P,J1,9*%
%TO.N,/P1_1*%
X14554200Y-10922000D03*
%TO.P,J1,10*%
%TO.N,/P1_0*%
X14808200Y-10922000D03*
%TO.P,J1,11*%
%TO.N,/P1_8*%
X15062200Y-10922000D03*
%TO.P,J1,12*%
%TO.N,/P1_9*%
X15316200Y-10922000D03*
%TO.P,J1,13*%
%TO.N,/P1_12*%
X15570200Y-10922000D03*
%TO.P,J1,14*%
%TO.N,/P1_13*%
X15824200Y-10922000D03*
%TO.P,J1,15*%
%TO.N,/P2_0*%
X16078200Y-10922000D03*
%TO.P,J1,16*%
%TO.N,/P2_1*%
X16332200Y-10922000D03*
%TO.P,J1,17*%
%TO.N,/P2_2*%
X16586200Y-10922000D03*
%TO.P,J1,18*%
%TO.N,/P2_3*%
X16840200Y-10922000D03*
%TO.P,J1,19*%
%TO.N,/P2_6*%
X17094200Y-10922000D03*
%TO.P,J1,20*%
%TO.N,/P2_7*%
X17348200Y-10922000D03*
%TO.P,J1,21*%
%TO.N,GND*%
X17602200Y-10922000D03*
%TD*%
D17*
%TO.P,C116,1*%
%TO.N,GND*%
X14526200Y-10488000D03*
%TO.P,C116,2*%
%TO.N,+3V3*%
X14366200Y-10488000D03*
%TD*%
D18*
%TO.P,U106,1,DAT2_1*%
%TO.N,unconnected-(U106-DAT2-Pad1)*%
X12928700Y-9676500D03*
%TO.P,U106,2,CD/DAT3(CS)_2*%
%TO.N,/SPI1_CS0*%
X12928700Y-9786500D03*
%TO.P,U106,3,CMD(MOSI)_3*%
%TO.N,/SPI1_MOSI*%
X12928700Y-9896500D03*
%TO.P,U106,4,VDD(VDD)_4*%
%TO.N,+3V3*%
X12928700Y-10006500D03*
%TO.P,U106,5,CLK(SCLK)_5*%
%TO.N,/SPI1_SCK*%
X12928700Y-10116500D03*
%TO.P,U106,6,VSS(VSS)_6*%
%TO.N,GND*%
X12928700Y-10226500D03*
%TO.P,U106,7,DAT0(MISO)_7*%
%TO.N,/SPI1_MISO*%
X12928700Y-10336500D03*
%TO.P,U106,8,DAT1_8*%
%TO.N,unconnected-(U106-DAT1-Pad8)*%
X12928700Y-10446500D03*
D19*
%TO.P,U106,9,SW_9*%
%TO.N,/SD_SW*%
X13196700Y-9500500D03*
D20*
%TO.P,U106,10,Sh_10*%
%TO.N,GND*%
X13209200Y-10564000D03*
D21*
%TO.P,U106,11,Sh_11*%
X13527700Y-10564000D03*
D22*
%TO.P,U106,12,Sh_12*%
X13652200Y-10246000D03*
%TO.P,U106,13,Sh_13*%
X13652200Y-9828000D03*
D21*
%TO.P,U106,14,Sh_14*%
X13584700Y-9499000D03*
D23*
%TO.P,U106,15,Sh_15*%
X13323700Y-9499000D03*
%TD*%
D24*
%TO.P,C115,1*%
%TO.N,GND*%
X15296200Y-10343000D03*
%TO.P,C115,2*%
%TO.N,+5V*%
X15296200Y-10183000D03*
%TD*%
%TO.P,R2,1*%
%TO.N,+3V3*%
X14856200Y-9813000D03*
%TO.P,R2,2*%
%TO.N,Net-(U1-~{W})*%
X14856200Y-9653000D03*
%TD*%
D15*
%TO.P,J2,1*%
%TO.N,GND*%
X17602200Y-9144000D03*
D16*
%TO.P,J2,2*%
%TO.N,/CAN+*%
X17348200Y-9144000D03*
%TO.P,J2,3*%
%TO.N,/CAN-*%
X17094200Y-9144000D03*
%TO.P,J2,4*%
%TO.N,/P2_13*%
X16840200Y-9144000D03*
%TO.P,J2,5*%
%TO.N,/P2_15*%
X16586200Y-9144000D03*
%TO.P,J2,6*%
%TO.N,/P3_31*%
X16332200Y-9144000D03*
%TO.P,J2,7*%
%TO.N,/P3_30*%
X16078200Y-9144000D03*
%TO.P,J2,8*%
%TO.N,/P3_28*%
X15824200Y-9144000D03*
%TO.P,J2,9*%
%TO.N,/P3_27*%
X15570200Y-9144000D03*
%TO.P,J2,10*%
%TO.N,/P3_15*%
X15316200Y-9144000D03*
%TO.P,J2,11*%
%TO.N,/P3_14*%
X15062200Y-9144000D03*
%TO.P,J2,12*%
%TO.N,/P3_13*%
X14808200Y-9144000D03*
%TO.P,J2,13*%
%TO.N,/SPI1_SCK*%
X14554200Y-9144000D03*
%TO.P,J2,14*%
%TO.N,/SPI1_MISO*%
X14300200Y-9144000D03*
%TO.P,J2,15*%
%TO.N,/SPI1_MOSI*%
X14046200Y-9144000D03*
%TO.P,J2,16*%
%TO.N,/P3_6*%
X13792200Y-9144000D03*
%TO.P,J2,17*%
%TO.N,/P3_1*%
X13538200Y-9144000D03*
%TO.P,J2,18*%
%TO.N,/P3_0*%
X13284200Y-9144000D03*
%TO.P,J2,19*%
%TO.N,GND*%
X13030200Y-9144000D03*
%TO.P,J2,20*%
%TO.N,+3V3*%
X12776200Y-9144000D03*
%TO.P,J2,21*%
%TO.N,+5V*%
X12522200Y-9144000D03*
%TD*%
D25*
%TO.N,GND*%
X16501200Y-9858000D03*
X17396200Y-10623000D03*
X17236440Y-9591040D03*
X14686200Y-9953000D03*
X15665000Y-10033000D03*
X14628400Y-10483000D03*
X13040000Y-10675000D03*
X16556200Y-9658000D03*
X16096200Y-9723000D03*
X16741200Y-9493000D03*
X15937145Y-10657855D03*
X16231200Y-9908000D03*
X16576200Y-9513000D03*
X13700000Y-10518000D03*
X15486200Y-9773000D03*
X17216120Y-10353040D03*
X14066200Y-10238000D03*
X15770365Y-9849635D03*
X13391200Y-10343000D03*
X16967200Y-9880600D03*
X12300000Y-10615000D03*
X13240000Y-9846500D03*
X15408123Y-10573123D03*
X17261200Y-9338000D03*
X17551200Y-9313000D03*
X16096200Y-9798000D03*
X13101200Y-9520000D03*
X14186200Y-9633000D03*
X16850000Y-10325000D03*
X12631200Y-10248000D03*
X13356200Y-10793000D03*
X16240000Y-10490000D03*
X13460000Y-9940000D03*
X12375000Y-9500000D03*
X15357009Y-10254576D03*
X13401200Y-9532162D03*
X13020000Y-9955000D03*
%TO.N,/~{RST}*%
X12871200Y-9447500D03*
D26*
X12616200Y-9598000D03*
X13066200Y-9739000D03*
%TO.N,Net-(J101-DP1)*%
X15692120Y-9843000D03*
X17134087Y-9955804D03*
D25*
%TO.N,+3V3*%
X14351200Y-10128000D03*
X12460000Y-10610000D03*
X13281745Y-10686745D03*
X15896590Y-9488537D03*
X15301555Y-9768355D03*
X14851200Y-9933000D03*
X12478700Y-10738000D03*
X12340000Y-9360000D03*
X16441200Y-10088000D03*
X13584700Y-10293000D03*
X15396200Y-9588000D03*
X12825000Y-9370000D03*
X15366555Y-10083355D03*
X13535000Y-9365000D03*
X15562400Y-9491800D03*
X13825000Y-9485000D03*
X15760000Y-10525000D03*
D26*
%TO.N,Net-(IC101-P3_29{slash}~{ISPMODE})*%
X16006200Y-10233000D03*
X15986200Y-10103000D03*
D25*
%TO.N,+5V*%
X15681200Y-9903000D03*
X15992980Y-9831220D03*
X15826200Y-9903000D03*
D26*
%TO.N,/SWO{slash}TDO*%
X13292500Y-9589000D03*
X13392500Y-9589000D03*
D25*
%TO.N,VBUS*%
X17277080Y-10236200D03*
X17246600Y-9687560D03*
D26*
%TO.N,Net-(J101-DN1)*%
X17257956Y-10007600D03*
X15696200Y-9983000D03*
X17115682Y-10007633D03*
%TO.N,/SWDCLK{slash}TCK*%
X13760000Y-9485000D03*
X13339188Y-9390812D03*
%TO.N,/I2C0_HREQ*%
X13135000Y-10263000D03*
X13251523Y-10257677D03*
%TO.N,/I2C0_SCL{slash}I3C_SCL*%
X14042809Y-9964116D03*
%TO.N,/I2C0_SDA{slash}I3C_SDA*%
X14068700Y-9908000D03*
%TO.N,/P1_5*%
X13797200Y-10433000D03*
%TO.N,/P1_4*%
X13806200Y-10313000D03*
%TO.N,/P1_3*%
X14050000Y-10160000D03*
%TO.N,/P1_2*%
X14068700Y-10105500D03*
%TO.N,/P1_1*%
X14127688Y-10097312D03*
%TO.N,/P1_0*%
X14150000Y-10030000D03*
%TO.N,/P1_9*%
X14245000Y-10717500D03*
%TO.N,/P1_12*%
X14591200Y-10718050D03*
%TO.N,/P1_13*%
X14523975Y-10718050D03*
%TO.N,/P2_0*%
X14776200Y-10473000D03*
%TO.N,/P2_1*%
X14831200Y-10473000D03*
X15732500Y-10690000D03*
%TO.N,/P2_2*%
X14884798Y-10485342D03*
X15977500Y-10757038D03*
%TO.N,/P2_3*%
X15969787Y-10415767D03*
%TO.N,/P2_6*%
X15970000Y-10357500D03*
%TO.N,/P2_7*%
X16025000Y-10312500D03*
%TO.N,/CAN_RXD*%
X14992718Y-10588098D03*
X14075000Y-10606800D03*
X15243699Y-10582500D03*
%TO.N,/EEPROM_HOLD*%
X14933700Y-10335500D03*
%TO.N,/CAN_STBY*%
X14956200Y-10278000D03*
%TO.N,/P2_13*%
X14946200Y-10153000D03*
%TO.N,/P2_15*%
X14956200Y-10063000D03*
%TO.N,/P3_31*%
X15222612Y-9649412D03*
%TO.N,/SD_SW*%
X14627224Y-9592467D03*
%TO.N,/SPI1_CS0*%
X14576200Y-9613000D03*
%TO.N,/SPI1_SCK*%
X14566900Y-9973700D03*
%TO.N,/SPI1_MISO*%
X14476200Y-9618000D03*
X14506200Y-10053000D03*
%TO.N,/SPI1_MOSI*%
X14636200Y-10123000D03*
X14436200Y-9923000D03*
%TO.N,/SPI1_CS2*%
X14351200Y-9588000D03*
%TO.N,/P3_6*%
X14328400Y-9318400D03*
%TO.N,/P3_1*%
X14262559Y-9327443D03*
%TO.N,/CAN_TXD*%
X15320860Y-10522500D03*
X14376200Y-10388000D03*
X14956444Y-10546756D03*
%TD*%
%TO.N,GND*%
D27*
X13583700Y-9500000D02*
X13584700Y-9499000D01*
X15357009Y-10282191D02*
X15296200Y-10343000D01*
X15673000Y-10033000D02*
X15729700Y-10089700D01*
X13324700Y-9500000D02*
X13323700Y-9499000D01*
X14866200Y-10203000D02*
X14686200Y-10023000D01*
X14693900Y-9945300D02*
X14686200Y-9953000D01*
X13573000Y-9828000D02*
X13652200Y-9828000D01*
X12928700Y-10226500D02*
X12652700Y-10226500D01*
X13527700Y-10621500D02*
X13356200Y-10793000D01*
X13491200Y-10243000D02*
X13391200Y-10343000D01*
X13369038Y-9500000D02*
X13324700Y-9500000D01*
X14623400Y-10488000D02*
X14628400Y-10483000D01*
X13461000Y-9940000D02*
X13573000Y-9828000D01*
X13209200Y-10610800D02*
X13209200Y-10564000D01*
X15729700Y-10089700D02*
X15729700Y-10190500D01*
X15357009Y-10254576D02*
X15357009Y-10282191D01*
X13433362Y-9500000D02*
X13583700Y-9500000D01*
X13401200Y-9532162D02*
X13433362Y-9500000D01*
X13040000Y-10675000D02*
X13145000Y-10675000D01*
X13460000Y-9940000D02*
X13461000Y-9940000D01*
X13649200Y-10243000D02*
X13491200Y-10243000D01*
X14693900Y-9785500D02*
X14693900Y-9945300D01*
X13527700Y-10564000D02*
X13527700Y-10621500D01*
X14686200Y-10023000D02*
X14686200Y-9953000D01*
X15665000Y-10033000D02*
X15673000Y-10033000D01*
X14526200Y-10488000D02*
X14623400Y-10488000D01*
X13145000Y-10675000D02*
X13209200Y-10610800D01*
X12652700Y-10226500D02*
X12631200Y-10248000D01*
X13652200Y-10246000D02*
X13649200Y-10243000D01*
X13401200Y-9532162D02*
X13369038Y-9500000D01*
%TO.N,/~{RST}*%
X12871200Y-9447500D02*
X12873700Y-9450000D01*
X12871200Y-9447500D02*
X12871200Y-9463000D01*
X12873700Y-9450000D02*
X12873700Y-9463000D01*
X12871200Y-9463000D02*
X12736200Y-9598000D01*
X13066200Y-9739000D02*
X13066200Y-9655500D01*
X12736200Y-9598000D02*
X12616200Y-9598000D01*
X12873700Y-9463000D02*
X13066200Y-9655500D01*
%TO.N,Net-(J101-DP1)*%
X15808020Y-9958000D02*
X15693020Y-9843000D01*
X17134087Y-9955804D02*
X17131891Y-9958000D01*
X15693020Y-9843000D02*
X15692120Y-9843000D01*
X17131891Y-9958000D02*
X15808020Y-9958000D01*
%TO.N,+3V3*%
D28*
X12776200Y-9144000D02*
X12776200Y-9321200D01*
D27*
X14326200Y-10448000D02*
X14326200Y-10293800D01*
X12727700Y-10006500D02*
X12928700Y-10006500D01*
X15455700Y-9645500D02*
X15475700Y-9645500D01*
X15296200Y-9773711D02*
X15301555Y-9768355D01*
X12536200Y-10198000D02*
X12727700Y-10006500D01*
X12478700Y-10738000D02*
X12536200Y-10680500D01*
X15475700Y-9665500D02*
X15475700Y-9645500D01*
X14312900Y-10280500D02*
X14312900Y-10166300D01*
X15398200Y-9588000D02*
X15455700Y-9645500D01*
X14326200Y-10293800D02*
X14312900Y-10280500D01*
X15396200Y-9588000D02*
X15398200Y-9588000D01*
D28*
X12776200Y-9144000D02*
X12560200Y-9360000D01*
D27*
X14312900Y-10166300D02*
X14351200Y-10128000D01*
X12536200Y-10680500D02*
X12536200Y-10198000D01*
D28*
X12776200Y-9321200D02*
X12825000Y-9370000D01*
D27*
X15296200Y-9853000D02*
X15296200Y-9773711D01*
D28*
X12560200Y-9360000D02*
X12340000Y-9360000D01*
X14856200Y-9813000D02*
X14856200Y-9928000D01*
D27*
X14366200Y-10488000D02*
X14326200Y-10448000D01*
D28*
X14856200Y-9928000D02*
X14851200Y-9933000D01*
D27*
X15296200Y-9845000D02*
X15475700Y-9665500D01*
%TO.N,Net-(IC101-P3_29{slash}~{ISPMODE})*%
X15986200Y-10213000D02*
X15986200Y-10103000D01*
X16006200Y-10233000D02*
X15986200Y-10213000D01*
%TO.N,SHELL_GND*%
D28*
X17438200Y-9601000D02*
X17856200Y-9601000D01*
X17438200Y-10465000D02*
X17856200Y-10465000D01*
%TO.N,+5V*%
D27*
X15466200Y-10013000D02*
X15602700Y-10149500D01*
X15921200Y-9903000D02*
X15992980Y-9831220D01*
X15826200Y-9903000D02*
X15921200Y-9903000D01*
X15366200Y-10013000D02*
X15466200Y-10013000D01*
X15296200Y-10013000D02*
X15366200Y-10013000D01*
X15296200Y-10183000D02*
X15296200Y-10083000D01*
X15571200Y-10013000D02*
X15681200Y-9903000D01*
X15296200Y-10013000D02*
X15571200Y-10013000D01*
X15602700Y-10149500D02*
X15602700Y-10190500D01*
X15296200Y-10083000D02*
X15366200Y-10013000D01*
%TO.N,/SWO{slash}TDO*%
X13392500Y-9589000D02*
X13292500Y-9589000D01*
%TO.N,VBUS*%
D28*
X17315456Y-9756416D02*
X17246600Y-9687560D01*
X17277080Y-10236200D02*
X17315456Y-10197824D01*
X17315456Y-10197824D02*
X17315456Y-9756416D01*
%TO.N,Net-(J101-DN1)*%
D27*
X17130956Y-10007600D02*
X17257956Y-10007600D01*
X15720833Y-10007633D02*
X15696200Y-9983000D01*
X17115682Y-10007633D02*
X17130922Y-10007633D01*
X17115682Y-10007633D02*
X15720833Y-10007633D01*
X17130922Y-10007633D02*
X17130956Y-10007600D01*
%TO.N,/SWDCLK{slash}TCK*%
X13700000Y-9415000D02*
X13760000Y-9475000D01*
X13339188Y-9390812D02*
X13343312Y-9390812D01*
X13760000Y-9475000D02*
X13760000Y-9485000D01*
X13367500Y-9415000D02*
X13700000Y-9415000D01*
X13343312Y-9390812D02*
X13367500Y-9415000D01*
%TO.N,/I2C0_HREQ*%
X13135000Y-10263000D02*
X13246200Y-10263000D01*
X13246200Y-10263000D02*
X13251523Y-10257677D01*
%TO.N,/I2C0_SCL{slash}I3C_SCL*%
X13118500Y-10421500D02*
X12776200Y-10763800D01*
X12776200Y-10763800D02*
X12776200Y-10922000D01*
X14042809Y-9964116D02*
X13966200Y-10040725D01*
X13709700Y-10253732D02*
X13709700Y-10421500D01*
X13709700Y-10421500D02*
X13118500Y-10421500D01*
X13716200Y-10222706D02*
X13716200Y-10247232D01*
X13898181Y-10040725D02*
X13716200Y-10222706D01*
X13716200Y-10247232D02*
X13709700Y-10253732D01*
X13966200Y-10040725D02*
X13898181Y-10040725D01*
%TO.N,/I2C0_SDA{slash}I3C_SDA*%
X13749700Y-10438069D02*
X13749700Y-10270300D01*
X14090309Y-9930309D02*
X14068700Y-9908700D01*
X13990000Y-10090000D02*
X14090309Y-9989691D01*
X14068700Y-9908700D02*
X14068700Y-9908000D01*
X14090309Y-9989691D02*
X14090309Y-9930309D01*
X13391200Y-10648000D02*
X13391200Y-10503000D01*
X13749700Y-10270300D02*
X13930000Y-10090000D01*
X13391200Y-10503000D02*
X13426200Y-10468000D01*
X13278700Y-10760500D02*
X13391200Y-10648000D01*
X13030200Y-10922000D02*
X13191700Y-10760500D01*
X13930000Y-10090000D02*
X13990000Y-10090000D01*
X13191700Y-10760500D02*
X13278700Y-10760500D01*
X13426200Y-10468000D02*
X13719768Y-10468000D01*
X13719768Y-10468000D02*
X13749700Y-10438069D01*
%TO.N,/P1_5*%
X13680000Y-10780200D02*
X13538200Y-10922000D01*
X13680000Y-10683489D02*
X13680000Y-10780200D01*
X13797200Y-10566289D02*
X13680000Y-10683489D01*
X13797200Y-10433000D02*
X13797200Y-10566289D01*
%TO.N,/P1_4*%
X13845000Y-10411800D02*
X13845000Y-10869200D01*
X13845000Y-10869200D02*
X13792200Y-10922000D01*
X13806200Y-10313000D02*
X13806200Y-10373000D01*
X13806200Y-10373000D02*
X13845000Y-10411800D01*
%TO.N,/P1_3*%
X13885000Y-10760800D02*
X14046200Y-10922000D01*
X13885000Y-10325000D02*
X13885000Y-10760800D01*
X14050000Y-10160000D02*
X13885000Y-10325000D01*
%TO.N,/P1_2*%
X14093835Y-10807000D02*
X14208835Y-10922000D01*
X14116200Y-10258711D02*
X13925000Y-10449911D01*
X14068700Y-10105500D02*
X14116200Y-10153000D01*
X14002000Y-10807000D02*
X14093835Y-10807000D01*
X13925000Y-10730000D02*
X14002000Y-10807000D01*
X14208835Y-10922000D02*
X14300200Y-10922000D01*
X13925000Y-10449911D02*
X13925000Y-10730000D01*
X14116200Y-10153000D02*
X14116200Y-10258711D01*
%TO.N,/P1_1*%
X14156200Y-10275279D02*
X13965000Y-10466479D01*
X13965000Y-10710000D02*
X14022000Y-10767000D01*
X14148403Y-10805000D02*
X14356100Y-10805000D01*
X13965000Y-10466479D02*
X13965000Y-10710000D01*
X14022000Y-10767000D02*
X14110403Y-10767000D01*
X14473100Y-10922000D02*
X14554200Y-10922000D01*
X14110403Y-10767000D02*
X14148403Y-10805000D01*
X14356100Y-10805000D02*
X14473100Y-10922000D01*
X14156200Y-10125825D02*
X14156200Y-10275279D01*
X14127688Y-10097312D02*
X14156200Y-10125825D01*
%TO.N,/P1_0*%
X14164972Y-10765000D02*
X14126972Y-10727000D01*
X14038569Y-10727000D02*
X14005000Y-10693431D01*
X14196200Y-10076200D02*
X14150000Y-10030000D01*
X14196200Y-10291848D02*
X14196200Y-10076200D01*
X14126972Y-10727000D02*
X14038569Y-10727000D01*
X14414669Y-10807000D02*
X14372669Y-10765000D01*
X14005000Y-10693431D02*
X14005000Y-10483048D01*
X14808200Y-10922000D02*
X14693200Y-10807000D01*
X14693200Y-10807000D02*
X14414669Y-10807000D01*
X14005000Y-10483048D02*
X14196200Y-10291848D01*
X14372669Y-10765000D02*
X14164972Y-10765000D01*
%TO.N,/P1_9*%
X15316200Y-10922000D02*
X15224835Y-10922000D01*
X14381737Y-10717500D02*
X14245000Y-10717500D01*
X15224835Y-10922000D02*
X15068384Y-10765550D01*
X15068384Y-10765550D02*
X14429787Y-10765550D01*
X14429787Y-10765550D02*
X14381737Y-10717500D01*
%TO.N,/P1_12*%
X15438200Y-10790000D02*
X15153726Y-10790000D01*
X15053726Y-10690000D02*
X14619250Y-10690000D01*
X15570200Y-10922000D02*
X15438200Y-10790000D01*
X14619250Y-10690000D02*
X14591200Y-10718050D01*
X15153726Y-10790000D02*
X15053726Y-10690000D01*
%TO.N,/P1_13*%
X14589200Y-10650000D02*
X14523975Y-10715225D01*
X15613756Y-10750000D02*
X15170294Y-10750000D01*
X15785756Y-10922000D02*
X15613756Y-10750000D01*
X14523975Y-10715225D02*
X14523975Y-10718050D01*
X15824200Y-10922000D02*
X15785756Y-10922000D01*
X15170294Y-10750000D02*
X15070294Y-10650000D01*
X15070294Y-10650000D02*
X14589200Y-10650000D01*
%TO.N,/P2_0*%
X15220000Y-10630000D02*
X14987841Y-10397842D01*
X16078200Y-10698200D02*
X15987855Y-10607855D01*
X15987855Y-10607855D02*
X15497855Y-10607855D01*
X14776200Y-10448000D02*
X14776200Y-10473000D01*
X14826358Y-10397842D02*
X14776200Y-10448000D01*
X15475711Y-10630000D02*
X15220000Y-10630000D01*
X16078200Y-10922000D02*
X16078200Y-10698200D01*
X14987841Y-10397842D02*
X14826358Y-10397842D01*
X15497855Y-10607855D02*
X15475711Y-10630000D01*
%TO.N,/P2_1*%
X14971273Y-10437842D02*
X14861358Y-10437842D01*
X15712500Y-10670000D02*
X15203431Y-10670000D01*
X15203431Y-10670000D02*
X14971273Y-10437842D01*
X15732500Y-10690000D02*
X15712500Y-10670000D01*
X14861358Y-10437842D02*
X14831200Y-10468000D01*
X14831200Y-10468000D02*
X14831200Y-10473000D01*
%TO.N,/P2_2*%
X15975462Y-10755000D02*
X15675325Y-10755000D01*
X14884956Y-10485500D02*
X14884798Y-10485342D01*
X15675325Y-10755000D02*
X15630325Y-10710000D01*
X15630325Y-10710000D02*
X15186863Y-10710000D01*
X14962363Y-10485500D02*
X14884956Y-10485500D01*
X15186863Y-10710000D02*
X14962363Y-10485500D01*
X15977500Y-10757038D02*
X15975462Y-10755000D01*
%TO.N,/P2_3*%
X15970554Y-10415000D02*
X16333200Y-10415000D01*
X15969787Y-10415767D02*
X15970554Y-10415000D01*
X16333200Y-10415000D02*
X16840200Y-10922000D01*
%TO.N,/P2_6*%
X15982500Y-10370000D02*
X16542200Y-10370000D01*
X16542200Y-10370000D02*
X17094200Y-10922000D01*
X15970000Y-10357500D02*
X15982500Y-10370000D01*
%TO.N,/P2_7*%
X16025000Y-10312500D02*
X16032500Y-10320000D01*
X16032500Y-10320000D02*
X16746200Y-10320000D01*
X16746200Y-10320000D02*
X17348200Y-10922000D01*
%TO.N,/CAN_RXD*%
X15475700Y-10228500D02*
X15475700Y-10190500D01*
X14972817Y-10608000D02*
X14992718Y-10588098D01*
X14460367Y-10600000D02*
X14468367Y-10608000D01*
X15243699Y-10582500D02*
X15243699Y-10516766D01*
X14468367Y-10608000D02*
X14972817Y-10608000D01*
X14075000Y-10606800D02*
X14081800Y-10600000D01*
X15243699Y-10516766D02*
X15376200Y-10384265D01*
X15376200Y-10384265D02*
X15376200Y-10328000D01*
X15376200Y-10328000D02*
X15475700Y-10228500D01*
X14081800Y-10600000D02*
X14460367Y-10600000D01*
%TO.N,/EEPROM_HOLD*%
X14933700Y-10335500D02*
X14931200Y-10333000D01*
X14931200Y-10333000D02*
X14826200Y-10333000D01*
X14469900Y-10408000D02*
X14439900Y-10378000D01*
X14826200Y-10333000D02*
X14751200Y-10408000D01*
X14439900Y-10378000D02*
X14439900Y-10280500D01*
X14751200Y-10408000D02*
X14469900Y-10408000D01*
%TO.N,/CAN_STBY*%
X15856700Y-9708000D02*
X15856700Y-9645500D01*
X15779700Y-9785000D02*
X15856700Y-9708000D01*
X15644200Y-9785000D02*
X15779700Y-9785000D01*
X14956200Y-10278000D02*
X14956200Y-10231735D01*
X14956200Y-10231735D02*
X15244935Y-9943000D01*
X15244935Y-9943000D02*
X15486200Y-9943000D01*
X15486200Y-9943000D02*
X15644200Y-9785000D01*
%TO.N,/P2_13*%
X14946200Y-10153000D02*
X14978367Y-10153000D01*
X15346200Y-9567289D02*
X15563489Y-9350000D01*
X14978367Y-10153000D02*
X15202283Y-9929083D01*
X15346200Y-9653000D02*
X15346200Y-9567289D01*
X16805200Y-9144000D02*
X16840200Y-9144000D01*
X15202283Y-9796917D02*
X15346200Y-9653000D01*
X16599200Y-9350000D02*
X16805200Y-9144000D01*
X15202283Y-9929083D02*
X15202283Y-9796917D01*
X15563489Y-9350000D02*
X16599200Y-9350000D01*
%TO.N,/P2_15*%
X15546921Y-9310000D02*
X15306200Y-9550721D01*
X16420200Y-9310000D02*
X15546921Y-9310000D01*
X16586200Y-9144000D02*
X16420200Y-9310000D01*
X15306200Y-9550721D02*
X15306200Y-9633000D01*
X15162283Y-9912515D02*
X15011798Y-10063000D01*
X15162283Y-9776917D02*
X15162283Y-9912515D01*
X15011798Y-10063000D02*
X14956200Y-10063000D01*
X15306200Y-9633000D02*
X15162283Y-9776917D01*
%TO.N,/P3_31*%
X15530352Y-9270000D02*
X15222612Y-9577740D01*
X16206200Y-9270000D02*
X15530352Y-9270000D01*
X16332200Y-9144000D02*
X16206200Y-9270000D01*
X15222612Y-9577740D02*
X15222612Y-9649412D01*
%TO.N,/SD_SW*%
X13312025Y-9315000D02*
X13670000Y-9315000D01*
X13196700Y-9430325D02*
X13312025Y-9315000D01*
X13196700Y-9500500D02*
X13196700Y-9430325D01*
X13770000Y-9415000D02*
X14449756Y-9415000D01*
X13670000Y-9315000D02*
X13770000Y-9415000D01*
X14449756Y-9415000D02*
X14627224Y-9592467D01*
%TO.N,/SPI1_CS0*%
X13583431Y-9605000D02*
X13401931Y-9786500D01*
X14503700Y-9540500D02*
X13715700Y-9540500D01*
X13715700Y-9540500D02*
X13651200Y-9605000D01*
X14576200Y-9613000D02*
X14503700Y-9540500D01*
X13651200Y-9605000D02*
X13583431Y-9605000D01*
X13401931Y-9786500D02*
X12928700Y-9786500D01*
%TO.N,/SPI1_SCK*%
X14566900Y-9973700D02*
X14566200Y-9973000D01*
X13709700Y-9999500D02*
X13709700Y-10003500D01*
X13896200Y-9813000D02*
X13709700Y-9999500D01*
X13412700Y-10116500D02*
X12928700Y-10116500D01*
X13526200Y-10003000D02*
X13412700Y-10116500D01*
X13594700Y-10003000D02*
X13526200Y-10003000D01*
X13709700Y-10003500D02*
X13594700Y-10003500D01*
X14566200Y-9973000D02*
X14278700Y-9973000D01*
X14566900Y-9973700D02*
X14566900Y-10280500D01*
X14278700Y-9973000D02*
X14118700Y-9813000D01*
X13594700Y-10003500D02*
X13594700Y-10003000D01*
X14118700Y-9813000D02*
X13896200Y-9813000D01*
%TO.N,/SPI1_MISO*%
X12928700Y-10336500D02*
X13252700Y-10336500D01*
X13916768Y-9853000D02*
X14102131Y-9853000D01*
X14439900Y-9654300D02*
X14439900Y-9785500D01*
X13578131Y-10043500D02*
X13726268Y-10043500D01*
X13726268Y-10043500D02*
X13916768Y-9853000D01*
X14262131Y-10013000D02*
X14466200Y-10013000D01*
X13546200Y-10043000D02*
X13577631Y-10043000D01*
X13252700Y-10336500D02*
X13546200Y-10043000D01*
X14476200Y-9618000D02*
X14439900Y-9654300D01*
X14102131Y-9853000D02*
X14262131Y-10013000D01*
X13577631Y-10043000D02*
X13578131Y-10043500D01*
X14466200Y-10013000D02*
X14506200Y-10053000D01*
%TO.N,/SPI1_MOSI*%
X13600000Y-9645000D02*
X13667769Y-9645000D01*
X14691200Y-10178000D02*
X14691200Y-10277800D01*
X13732269Y-9580500D02*
X13943700Y-9580500D01*
X13348500Y-9896500D02*
X13600000Y-9645000D01*
X13943700Y-9580500D02*
X14286200Y-9923000D01*
X12928700Y-9896500D02*
X13348500Y-9896500D01*
X13667769Y-9645000D02*
X13732269Y-9580500D01*
X14691200Y-10277800D02*
X14693900Y-10280500D01*
X14636200Y-10123000D02*
X14691200Y-10178000D01*
X14286200Y-9923000D02*
X14436200Y-9923000D01*
%TO.N,/SPI1_CS2*%
X14351200Y-9588000D02*
X14312900Y-9626300D01*
X14312900Y-9626300D02*
X14312900Y-9785500D01*
%TO.N,/P3_6*%
X14328400Y-9318400D02*
X14289943Y-9279943D01*
X14289943Y-9279943D02*
X13928143Y-9279943D01*
X13928143Y-9279943D02*
X13792200Y-9144000D01*
%TO.N,/P3_1*%
X14262559Y-9327443D02*
X13739012Y-9327443D01*
X13739012Y-9327443D02*
X13555569Y-9144000D01*
X13555569Y-9144000D02*
X13538200Y-9144000D01*
%TO.N,/CAN_TXD*%
X15320860Y-10522500D02*
X15322500Y-10522500D01*
X14441200Y-10524265D02*
X14441200Y-10435868D01*
X14956444Y-10546756D02*
X14947844Y-10546756D01*
X14484935Y-10568000D02*
X14441200Y-10524265D01*
X14441200Y-10435868D02*
X14413332Y-10408000D01*
X15535000Y-10310000D02*
X15785000Y-10310000D01*
X15785000Y-10310000D02*
X15856700Y-10238300D01*
X14396200Y-10408000D02*
X14376200Y-10388000D01*
X15856700Y-10238300D02*
X15856700Y-10190500D01*
X14926600Y-10568000D02*
X14484935Y-10568000D01*
X15876200Y-10210000D02*
X15856700Y-10190500D01*
X14413332Y-10408000D02*
X14396200Y-10408000D01*
X15322500Y-10522500D02*
X15535000Y-10310000D01*
X14947844Y-10546756D02*
X14926600Y-10568000D01*
%TO.N,/CAN+*%
X15729700Y-9549250D02*
X15688700Y-9508250D01*
X15726020Y-9435000D02*
X16966020Y-9435000D01*
X15729700Y-9645500D02*
X15729700Y-9549250D01*
X15688700Y-9472320D02*
X15726020Y-9435000D01*
X17334880Y-9157320D02*
X17348200Y-9144000D01*
X17243700Y-9157320D02*
X17334880Y-9157320D01*
X15688700Y-9508250D02*
X15688700Y-9472320D01*
X16966020Y-9435000D02*
X17243700Y-9157320D01*
%TO.N,/CAN-*%
X15707380Y-9390000D02*
X16848200Y-9390000D01*
X15643700Y-9508250D02*
X15643700Y-9453680D01*
X16848200Y-9390000D02*
X17116700Y-9121500D01*
X15602700Y-9645500D02*
X15602700Y-9549250D01*
X15643700Y-9453680D02*
X15707380Y-9390000D01*
X15602700Y-9549250D02*
X15643700Y-9508250D01*
%TO.N,Net-(U1-~{W})*%
X14601900Y-9653000D02*
X14856200Y-9653000D01*
X14936200Y-9733000D02*
X14856200Y-9653000D01*
X14566900Y-9785500D02*
X14566900Y-9688000D01*
X14866200Y-10043000D02*
X14936200Y-9973000D01*
X14936200Y-9973000D02*
X14936200Y-9733000D01*
X14566900Y-9688000D02*
X14601900Y-9653000D01*
%TD*%
%TA.AperFunction,Conductor*%
%TO.N,GND*%
G36*
X17627200Y-9279000D02*
G01*
X17691983Y-9279000D01*
X17691984Y-9279000D01*
X17697937Y-9278360D01*
X17697938Y-9278360D01*
X17711409Y-9273335D01*
X17711409Y-9273335D01*
X17722919Y-9264719D01*
X17726693Y-9259678D01*
X17732286Y-9255490D01*
X17739255Y-9254992D01*
X17745388Y-9258341D01*
X17746929Y-9260219D01*
X17749936Y-9264719D01*
X17750368Y-9265365D01*
X17760235Y-9275232D01*
X17760236Y-9275233D01*
X17771840Y-9282986D01*
X17771840Y-9282986D01*
X17775616Y-9284551D01*
X17784734Y-9288327D01*
X17784734Y-9288327D01*
X17784734Y-9288327D01*
X17798422Y-9291050D01*
X17798422Y-9291050D01*
X17801412Y-9291050D01*
X18068112Y-9291050D01*
X18071124Y-9291050D01*
X18073063Y-9291203D01*
X18079663Y-9292248D01*
X18083352Y-9293446D01*
X18088425Y-9296031D01*
X18091563Y-9298311D01*
X18095589Y-9302337D01*
X18097869Y-9305475D01*
X18100454Y-9310548D01*
X18101652Y-9314238D01*
X18102697Y-9320836D01*
X18102850Y-9322776D01*
X18102850Y-10743224D01*
X18102697Y-10745164D01*
X18101652Y-10751762D01*
X18100453Y-10755452D01*
X18099719Y-10756894D01*
X18097869Y-10760525D01*
X18095589Y-10763663D01*
X18091563Y-10767689D01*
X18088425Y-10769969D01*
X18083352Y-10772553D01*
X18079662Y-10773752D01*
X18073064Y-10774797D01*
X18071124Y-10774950D01*
X17798422Y-10774950D01*
X17784734Y-10777673D01*
X17784734Y-10777673D01*
X17771840Y-10783014D01*
X17760236Y-10790767D01*
X17760235Y-10790768D01*
X17750368Y-10800635D01*
X17750367Y-10800636D01*
X17742614Y-10812240D01*
X17737273Y-10825134D01*
X17737273Y-10825134D01*
X17734511Y-10839018D01*
X17731272Y-10845210D01*
X17725201Y-10848667D01*
X17718224Y-10848293D01*
X17712557Y-10844206D01*
X17712317Y-10843888D01*
X17705173Y-10834054D01*
X17705172Y-10834054D01*
X17690146Y-10819028D01*
X17690146Y-10819027D01*
X17672956Y-10806538D01*
X17654022Y-10796890D01*
X17633812Y-10790324D01*
X17627200Y-10789277D01*
X17627200Y-10878699D01*
X17621499Y-10875408D01*
X17608783Y-10872000D01*
X17595617Y-10872000D01*
X17582901Y-10875408D01*
X17577200Y-10878699D01*
X17577200Y-10789277D01*
X17577200Y-10789277D01*
X17570588Y-10790324D01*
X17550378Y-10796890D01*
X17531444Y-10806538D01*
X17514254Y-10819027D01*
X17514254Y-10819028D01*
X17499228Y-10834054D01*
X17499227Y-10834054D01*
X17486738Y-10851244D01*
X17486276Y-10852150D01*
X17481478Y-10857230D01*
X17474696Y-10858909D01*
X17468083Y-10856655D01*
X17464179Y-10852149D01*
X17463705Y-10851218D01*
X17463705Y-10851218D01*
X17463705Y-10851218D01*
X17451211Y-10834021D01*
X17436179Y-10818989D01*
X17418982Y-10806495D01*
X17400041Y-10796844D01*
X17400041Y-10796844D01*
X17400041Y-10796844D01*
X17379824Y-10790275D01*
X17379824Y-10790275D01*
X17379824Y-10790275D01*
X17363104Y-10787627D01*
X17358829Y-10786950D01*
X17337571Y-10786950D01*
X17336601Y-10787104D01*
X17316576Y-10790275D01*
X17312347Y-10791649D01*
X17305363Y-10791849D01*
X17299748Y-10788624D01*
X16985978Y-10474854D01*
X17283150Y-10474854D01*
X17286995Y-10494183D01*
X17286995Y-10494184D01*
X17294536Y-10512391D01*
X17294537Y-10512392D01*
X17305486Y-10528778D01*
X17305486Y-10528779D01*
X17319421Y-10542714D01*
X17319422Y-10542714D01*
X17335808Y-10553663D01*
X17335809Y-10553664D01*
X17350633Y-10559804D01*
X17354017Y-10561205D01*
X17354017Y-10561205D01*
X17354017Y-10561205D01*
X17373346Y-10565050D01*
X17373346Y-10565050D01*
X17503054Y-10565050D01*
X17516058Y-10562463D01*
X17522384Y-10561205D01*
X17540591Y-10553663D01*
X17556978Y-10542714D01*
X17561010Y-10538682D01*
X17567142Y-10535333D01*
X17569778Y-10535050D01*
X17739622Y-10535050D01*
X17746326Y-10537019D01*
X17748390Y-10538682D01*
X17752421Y-10542714D01*
X17752422Y-10542714D01*
X17768808Y-10553663D01*
X17768809Y-10553664D01*
X17783633Y-10559804D01*
X17787017Y-10561205D01*
X17787017Y-10561205D01*
X17787017Y-10561205D01*
X17806346Y-10565050D01*
X17806346Y-10565050D01*
X17906054Y-10565050D01*
X17919058Y-10562463D01*
X17925384Y-10561205D01*
X17943591Y-10553663D01*
X17959978Y-10542714D01*
X17973914Y-10528778D01*
X17984863Y-10512391D01*
X17992405Y-10494184D01*
X17994946Y-10481411D01*
X17996250Y-10474854D01*
X17996250Y-10455146D01*
X17992405Y-10435817D01*
X17992405Y-10435817D01*
X17992405Y-10435817D01*
X17990832Y-10432019D01*
X17984864Y-10417609D01*
X17984863Y-10417608D01*
X17973914Y-10401222D01*
X17973914Y-10401221D01*
X17959979Y-10387286D01*
X17959978Y-10387286D01*
X17943592Y-10376337D01*
X17943591Y-10376336D01*
X17925384Y-10368795D01*
X17925383Y-10368795D01*
X17906054Y-10364950D01*
X17906054Y-10364950D01*
X17806346Y-10364950D01*
X17806346Y-10364950D01*
X17787017Y-10368795D01*
X17787016Y-10368795D01*
X17768809Y-10376336D01*
X17768808Y-10376337D01*
X17752422Y-10387286D01*
X17752421Y-10387286D01*
X17748390Y-10391318D01*
X17742258Y-10394667D01*
X17739622Y-10394950D01*
X17569778Y-10394950D01*
X17563074Y-10392982D01*
X17561010Y-10391318D01*
X17556979Y-10387286D01*
X17556978Y-10387286D01*
X17540592Y-10376337D01*
X17540591Y-10376337D01*
X17539647Y-10375946D01*
X17534207Y-10371562D01*
X17532000Y-10364932D01*
X17533728Y-10358162D01*
X17534043Y-10357697D01*
X17534251Y-10357337D01*
X17534252Y-10357337D01*
X17541828Y-10344214D01*
X17545750Y-10329577D01*
X17545750Y-10314423D01*
X17541828Y-10299787D01*
X17534252Y-10286664D01*
X17523537Y-10275949D01*
X17516357Y-10271804D01*
X17510414Y-10268372D01*
X17500005Y-10265583D01*
X17495777Y-10264450D01*
X17480623Y-10264450D01*
X17465986Y-10268372D01*
X17452864Y-10275949D01*
X17452863Y-10275949D01*
X17442149Y-10286663D01*
X17442149Y-10286664D01*
X17434572Y-10299786D01*
X17431836Y-10309998D01*
X17430650Y-10314423D01*
X17430650Y-10329577D01*
X17432853Y-10337797D01*
X17434572Y-10344214D01*
X17435805Y-10346350D01*
X17437453Y-10353140D01*
X17435168Y-10359743D01*
X17429676Y-10364062D01*
X17425067Y-10364950D01*
X17373346Y-10364950D01*
X17354017Y-10368795D01*
X17354016Y-10368795D01*
X17335809Y-10376336D01*
X17335808Y-10376337D01*
X17319422Y-10387286D01*
X17319421Y-10387286D01*
X17305486Y-10401221D01*
X17305486Y-10401222D01*
X17294537Y-10417608D01*
X17294536Y-10417609D01*
X17286995Y-10435816D01*
X17286995Y-10435817D01*
X17283150Y-10455146D01*
X17283150Y-10455146D01*
X17283150Y-10474854D01*
X17283150Y-10474854D01*
X17283150Y-10474854D01*
X16985978Y-10474854D01*
X16794959Y-10283836D01*
X16794959Y-10283835D01*
X16783072Y-10271948D01*
X16783071Y-10271948D01*
X16772047Y-10265583D01*
X16772047Y-10265583D01*
X16772047Y-10265583D01*
X16769378Y-10264042D01*
X16754106Y-10259950D01*
X16738294Y-10259950D01*
X16737535Y-10259950D01*
X16737533Y-10259950D01*
X16084822Y-10259950D01*
X16078118Y-10257982D01*
X16073543Y-10252701D01*
X16072548Y-10245785D01*
X16072660Y-10245131D01*
X16073750Y-10239653D01*
X16073750Y-10226347D01*
X16071154Y-10213297D01*
X16071154Y-10213297D01*
X16071154Y-10213296D01*
X16067603Y-10204724D01*
X16066062Y-10201004D01*
X16066062Y-10201004D01*
X16066062Y-10201003D01*
X16064086Y-10198046D01*
X16058670Y-10189940D01*
X16058669Y-10189939D01*
X16049882Y-10181152D01*
X16046533Y-10175019D01*
X16046250Y-10172384D01*
X16046250Y-10137009D01*
X16047194Y-10132264D01*
X16047725Y-10130982D01*
X16051154Y-10122704D01*
X16052541Y-10115729D01*
X16053750Y-10109653D01*
X16053750Y-10096347D01*
X16051035Y-10082699D01*
X16051262Y-10082654D01*
X16051209Y-10076696D01*
X16054934Y-10070785D01*
X16061264Y-10067826D01*
X16063137Y-10067683D01*
X16358790Y-10067683D01*
X16365494Y-10069652D01*
X16370070Y-10074932D01*
X16370996Y-10080492D01*
X16371150Y-10080492D01*
X16371150Y-10081101D01*
X16371150Y-10094899D01*
X16371150Y-10094900D01*
X16371150Y-10094900D01*
X16373842Y-10108432D01*
X16373842Y-10108433D01*
X16379122Y-10121180D01*
X16379123Y-10121182D01*
X16386788Y-10132654D01*
X16386789Y-10132655D01*
X16396545Y-10142411D01*
X16396546Y-10142411D01*
X16408018Y-10150077D01*
X16408019Y-10150078D01*
X16415927Y-10153353D01*
X16420767Y-10155358D01*
X16420768Y-10155358D01*
X16420768Y-10155358D01*
X16434300Y-10158050D01*
X16434301Y-10158050D01*
X16448099Y-10158050D01*
X16459757Y-10155731D01*
X16461633Y-10155358D01*
X16472020Y-10151055D01*
X16474380Y-10150078D01*
X16474380Y-10150078D01*
X16474381Y-10150078D01*
X16485854Y-10142411D01*
X16495611Y-10132654D01*
X16503277Y-10121181D01*
X16508558Y-10108433D01*
X16510962Y-10096347D01*
X16511250Y-10094900D01*
X16511250Y-10080492D01*
X16511423Y-10080492D01*
X16512571Y-10074434D01*
X16517378Y-10069363D01*
X16523610Y-10067683D01*
X17081673Y-10067683D01*
X17086418Y-10068627D01*
X17095979Y-10072587D01*
X17095979Y-10072587D01*
X17095979Y-10072587D01*
X17109029Y-10075183D01*
X17109029Y-10075183D01*
X17122336Y-10075183D01*
X17133060Y-10073050D01*
X17135386Y-10072587D01*
X17145027Y-10068594D01*
X17149772Y-10067650D01*
X17223946Y-10067650D01*
X17228691Y-10068594D01*
X17237751Y-10072347D01*
X17243191Y-10076730D01*
X17245398Y-10083360D01*
X17245406Y-10083802D01*
X17245406Y-10163672D01*
X17243437Y-10170376D01*
X17241774Y-10172440D01*
X17222669Y-10191545D01*
X17222669Y-10191545D01*
X17215002Y-10203019D01*
X17209722Y-10215767D01*
X17209722Y-10215768D01*
X17207030Y-10229300D01*
X17207030Y-10229301D01*
X17207030Y-10243099D01*
X17207030Y-10243100D01*
X17207030Y-10243100D01*
X17209722Y-10256632D01*
X17209722Y-10256633D01*
X17215002Y-10269381D01*
X17222669Y-10280855D01*
X17232425Y-10290611D01*
X17243899Y-10298278D01*
X17256647Y-10303558D01*
X17256647Y-10303558D01*
X17256648Y-10303558D01*
X17256648Y-10303558D01*
X17270180Y-10306250D01*
X17270181Y-10306250D01*
X17283980Y-10306250D01*
X17296524Y-10303755D01*
X17297513Y-10303558D01*
X17305314Y-10300327D01*
X17310261Y-10298278D01*
X17310261Y-10298278D01*
X17310261Y-10298278D01*
X17321734Y-10290611D01*
X17369867Y-10242479D01*
X17369946Y-10242361D01*
X17377533Y-10231005D01*
X17382145Y-10219872D01*
X17382814Y-10218257D01*
X17383725Y-10213678D01*
X17385506Y-10204724D01*
X17385506Y-9749516D01*
X17385146Y-9747706D01*
X17382814Y-9735983D01*
X17381888Y-9733748D01*
X17377533Y-9723235D01*
X17377533Y-9723234D01*
X17375599Y-9720339D01*
X17373511Y-9713671D01*
X17375359Y-9706933D01*
X17380557Y-9702264D01*
X17385909Y-9701050D01*
X17425067Y-9701050D01*
X17431771Y-9703019D01*
X17436346Y-9708299D01*
X17437341Y-9715215D01*
X17435805Y-9719650D01*
X17434572Y-9721786D01*
X17434572Y-9721786D01*
X17434572Y-9721786D01*
X17434572Y-9721787D01*
X17430650Y-9736423D01*
X17430650Y-9751577D01*
X17431229Y-9753738D01*
X17434572Y-9766214D01*
X17436263Y-9769143D01*
X17442149Y-9779337D01*
X17452864Y-9790052D01*
X17465987Y-9797628D01*
X17480623Y-9801550D01*
X17480624Y-9801550D01*
X17495776Y-9801550D01*
X17495777Y-9801550D01*
X17510414Y-9797628D01*
X17523537Y-9790052D01*
X17534252Y-9779337D01*
X17541828Y-9766214D01*
X17545750Y-9751577D01*
X17545750Y-9736423D01*
X17541828Y-9721787D01*
X17534252Y-9708664D01*
X17534251Y-9708663D01*
X17533845Y-9707960D01*
X17534078Y-9707825D01*
X17532036Y-9702542D01*
X17533439Y-9695698D01*
X17538321Y-9690699D01*
X17539647Y-9690054D01*
X17540591Y-9689663D01*
X17556978Y-9678714D01*
X17561010Y-9674682D01*
X17567142Y-9671333D01*
X17569778Y-9671050D01*
X17739622Y-9671050D01*
X17746326Y-9673019D01*
X17748390Y-9674682D01*
X17752421Y-9678714D01*
X17752422Y-9678714D01*
X17768808Y-9689663D01*
X17768809Y-9689664D01*
X17787016Y-9697205D01*
X17787017Y-9697205D01*
X17787017Y-9697205D01*
X17787017Y-9697205D01*
X17806346Y-9701050D01*
X17806346Y-9701050D01*
X17906054Y-9701050D01*
X17923768Y-9697526D01*
X17925384Y-9697205D01*
X17943591Y-9689663D01*
X17959978Y-9678714D01*
X17973914Y-9664778D01*
X17984863Y-9648391D01*
X17985193Y-9647595D01*
X17988111Y-9640550D01*
X17992405Y-9630184D01*
X17994375Y-9620280D01*
X17996250Y-9610854D01*
X17996250Y-9591146D01*
X17992405Y-9571817D01*
X17992405Y-9571817D01*
X17992405Y-9571817D01*
X17989997Y-9566004D01*
X17984864Y-9553609D01*
X17984863Y-9553608D01*
X17973914Y-9537222D01*
X17973914Y-9537221D01*
X17959979Y-9523286D01*
X17959978Y-9523286D01*
X17943592Y-9512337D01*
X17943591Y-9512336D01*
X17925384Y-9504795D01*
X17925383Y-9504795D01*
X17906054Y-9500950D01*
X17906054Y-9500950D01*
X17806346Y-9500950D01*
X17806346Y-9500950D01*
X17787017Y-9504795D01*
X17787016Y-9504795D01*
X17768809Y-9512336D01*
X17768808Y-9512337D01*
X17752422Y-9523286D01*
X17752421Y-9523286D01*
X17748390Y-9527318D01*
X17742258Y-9530667D01*
X17739622Y-9530950D01*
X17569778Y-9530950D01*
X17563074Y-9528982D01*
X17561010Y-9527318D01*
X17556979Y-9523286D01*
X17556978Y-9523286D01*
X17540592Y-9512337D01*
X17540591Y-9512336D01*
X17522384Y-9504795D01*
X17522383Y-9504795D01*
X17503054Y-9500950D01*
X17503054Y-9500950D01*
X17373346Y-9500950D01*
X17373346Y-9500950D01*
X17354017Y-9504795D01*
X17354016Y-9504795D01*
X17335809Y-9512336D01*
X17335808Y-9512337D01*
X17319422Y-9523286D01*
X17319421Y-9523286D01*
X17305486Y-9537221D01*
X17305486Y-9537222D01*
X17294537Y-9553608D01*
X17294536Y-9553609D01*
X17286995Y-9571816D01*
X17286995Y-9571817D01*
X17283150Y-9591146D01*
X17283150Y-9608372D01*
X17281182Y-9615076D01*
X17275901Y-9619651D01*
X17268985Y-9620645D01*
X17267151Y-9620238D01*
X17267033Y-9620202D01*
X17253500Y-9617510D01*
X17253499Y-9617510D01*
X17239701Y-9617510D01*
X17239700Y-9617510D01*
X17226168Y-9620202D01*
X17226167Y-9620202D01*
X17213419Y-9625482D01*
X17201945Y-9633149D01*
X17192189Y-9642905D01*
X17184522Y-9654379D01*
X17179242Y-9667127D01*
X17179242Y-9667128D01*
X17176550Y-9680660D01*
X17176550Y-9680661D01*
X17176550Y-9694459D01*
X17176550Y-9694460D01*
X17176550Y-9694460D01*
X17179242Y-9707992D01*
X17179242Y-9707993D01*
X17184522Y-9720741D01*
X17192189Y-9732215D01*
X17192189Y-9732215D01*
X17241774Y-9781800D01*
X17245122Y-9787932D01*
X17245406Y-9790568D01*
X17245406Y-9931397D01*
X17243437Y-9938101D01*
X17238157Y-9942677D01*
X17237751Y-9942854D01*
X17236089Y-9943542D01*
X17228691Y-9946606D01*
X17223946Y-9947550D01*
X17211495Y-9947550D01*
X17204791Y-9945582D01*
X17200215Y-9940301D01*
X17199333Y-9937569D01*
X17199041Y-9936100D01*
X17197643Y-9932725D01*
X17193949Y-9923808D01*
X17193949Y-9923808D01*
X17193949Y-9923807D01*
X17192277Y-9921305D01*
X17186557Y-9912744D01*
X17186556Y-9912743D01*
X17177148Y-9903335D01*
X17177147Y-9903334D01*
X17166085Y-9895942D01*
X17166084Y-9895942D01*
X17166084Y-9895942D01*
X17166083Y-9895942D01*
X17166083Y-9895941D01*
X17153791Y-9890850D01*
X17153790Y-9890850D01*
X17140740Y-9888254D01*
X17140740Y-9888254D01*
X17127434Y-9888254D01*
X17127434Y-9888254D01*
X17114384Y-9890850D01*
X17114383Y-9890850D01*
X17102091Y-9895941D01*
X17101553Y-9896229D01*
X17101478Y-9896090D01*
X17095544Y-9897948D01*
X17095323Y-9897950D01*
X16055252Y-9897950D01*
X16048548Y-9895982D01*
X16043972Y-9890701D01*
X16042978Y-9883785D01*
X16045881Y-9877430D01*
X16046484Y-9876782D01*
X16047391Y-9875875D01*
X16047391Y-9875874D01*
X16055057Y-9864401D01*
X16060338Y-9851653D01*
X16062125Y-9842667D01*
X16063030Y-9838120D01*
X16063030Y-9824320D01*
X16060338Y-9810788D01*
X16060338Y-9810788D01*
X16060338Y-9810787D01*
X16060338Y-9810787D01*
X16055058Y-9798040D01*
X16055057Y-9798038D01*
X16047391Y-9786566D01*
X16047391Y-9786565D01*
X16037634Y-9776809D01*
X16037634Y-9776809D01*
X16026162Y-9769143D01*
X16026160Y-9769142D01*
X16013413Y-9763862D01*
X16013412Y-9763862D01*
X15999879Y-9761170D01*
X15999879Y-9761170D01*
X15986081Y-9761170D01*
X15986080Y-9761170D01*
X15972548Y-9763862D01*
X15972547Y-9763862D01*
X15959799Y-9769142D01*
X15959798Y-9769143D01*
X15948326Y-9776809D01*
X15948325Y-9776809D01*
X15938569Y-9786565D01*
X15938568Y-9786566D01*
X15930903Y-9798038D01*
X15930902Y-9798040D01*
X15925622Y-9810787D01*
X15925445Y-9811371D01*
X15925304Y-9811328D01*
X15922405Y-9816869D01*
X15922250Y-9817026D01*
X15910971Y-9828306D01*
X15899958Y-9839318D01*
X15893826Y-9842667D01*
X15891190Y-9842950D01*
X15866177Y-9842950D01*
X15861890Y-9842185D01*
X15860510Y-9841677D01*
X15859381Y-9840923D01*
X15846633Y-9835642D01*
X15841197Y-9834561D01*
X15840283Y-9834224D01*
X15838228Y-9832698D01*
X15835960Y-9831512D01*
X15835470Y-9830650D01*
X15834674Y-9830059D01*
X15833770Y-9827665D01*
X15832503Y-9825440D01*
X15832556Y-9824450D01*
X15832206Y-9823523D01*
X15832740Y-9821019D01*
X15832877Y-9818463D01*
X15833494Y-9817483D01*
X15833664Y-9816689D01*
X15834571Y-9815775D01*
X15835802Y-9813821D01*
X15872942Y-9776682D01*
X15879074Y-9773333D01*
X15881710Y-9773050D01*
X15896487Y-9773050D01*
X15896487Y-9773050D01*
X15902448Y-9772409D01*
X15915933Y-9767380D01*
X15927455Y-9758755D01*
X15936080Y-9747233D01*
X15941109Y-9733748D01*
X15941750Y-9727787D01*
X15941750Y-9563213D01*
X15941109Y-9557252D01*
X15940045Y-9554399D01*
X15939547Y-9547430D01*
X15942895Y-9541298D01*
X15951001Y-9533192D01*
X15958667Y-9521718D01*
X15963948Y-9508970D01*
X15964732Y-9505031D01*
X15967970Y-9498840D01*
X15974042Y-9495382D01*
X15976893Y-9495050D01*
X16957353Y-9495050D01*
X16957355Y-9495050D01*
X16958114Y-9495050D01*
X16973925Y-9495050D01*
X16973926Y-9495050D01*
X16989198Y-9490958D01*
X16996276Y-9486872D01*
X17002891Y-9483052D01*
X17014072Y-9471872D01*
X17014072Y-9471871D01*
X17015092Y-9470851D01*
X17015093Y-9470851D01*
X17240809Y-9245135D01*
X17246941Y-9241786D01*
X17253910Y-9242284D01*
X17258345Y-9245135D01*
X17260221Y-9247011D01*
X17277418Y-9259505D01*
X17277418Y-9259505D01*
X17277418Y-9259505D01*
X17296359Y-9269156D01*
X17316576Y-9275725D01*
X17337571Y-9279050D01*
X17337571Y-9279050D01*
X17358829Y-9279050D01*
X17358829Y-9279050D01*
X17379824Y-9275725D01*
X17400041Y-9269156D01*
X17418982Y-9259505D01*
X17427009Y-9253673D01*
X17436178Y-9247011D01*
X17436178Y-9247011D01*
X17436179Y-9247010D01*
X17447572Y-9235618D01*
X17453704Y-9232270D01*
X17460673Y-9232768D01*
X17466266Y-9236955D01*
X17467958Y-9240053D01*
X17472865Y-9253209D01*
X17472865Y-9253209D01*
X17481481Y-9264719D01*
X17481481Y-9264719D01*
X17492991Y-9273335D01*
X17492991Y-9273335D01*
X17506462Y-9278360D01*
X17506463Y-9278360D01*
X17512416Y-9279000D01*
X17512417Y-9279000D01*
X17577200Y-9279000D01*
X17577200Y-9187301D01*
X17582901Y-9190593D01*
X17595617Y-9194000D01*
X17608783Y-9194000D01*
X17621499Y-9190593D01*
X17627200Y-9187301D01*
X17627200Y-9279000D01*
G37*
%TD.AperFunction*%
%TA.AperFunction,Conductor*%
G36*
X13228504Y-10565969D02*
G01*
X13233079Y-10571249D01*
X13234200Y-10576400D01*
X13234200Y-10630087D01*
X13232231Y-10636791D01*
X13230568Y-10638855D01*
X13227333Y-10642090D01*
X13227333Y-10642090D01*
X13219667Y-10653563D01*
X13219667Y-10653564D01*
X13214387Y-10666311D01*
X13214386Y-10666312D01*
X13211695Y-10679845D01*
X13211695Y-10688050D01*
X13209726Y-10694754D01*
X13204446Y-10699329D01*
X13199295Y-10700450D01*
X13183794Y-10700450D01*
X13168521Y-10704542D01*
X13168521Y-10704542D01*
X13166070Y-10705958D01*
X13166070Y-10705958D01*
X13154829Y-10712448D01*
X13154828Y-10712448D01*
X13143648Y-10723629D01*
X13078652Y-10788624D01*
X13072520Y-10791973D01*
X13066052Y-10791649D01*
X13061824Y-10790275D01*
X13045104Y-10787627D01*
X13040829Y-10786950D01*
X13019571Y-10786950D01*
X13015296Y-10787627D01*
X12998576Y-10790275D01*
X12978358Y-10796844D01*
X12959418Y-10806495D01*
X12942221Y-10818989D01*
X12927189Y-10834021D01*
X12914695Y-10851218D01*
X12914248Y-10852095D01*
X12909451Y-10857174D01*
X12902669Y-10858854D01*
X12896055Y-10856600D01*
X12892152Y-10852095D01*
X12891705Y-10851218D01*
X12879211Y-10834021D01*
X12864179Y-10818989D01*
X12846982Y-10806495D01*
X12846557Y-10806279D01*
X12843273Y-10804605D01*
X12838194Y-10799808D01*
X12836514Y-10793026D01*
X12838768Y-10786412D01*
X12840134Y-10784789D01*
X13018532Y-10606392D01*
X13024664Y-10603043D01*
X13031633Y-10603542D01*
X13037227Y-10607729D01*
X13039668Y-10614275D01*
X13039700Y-10615160D01*
X13039700Y-10621284D01*
X13040340Y-10627237D01*
X13040340Y-10627238D01*
X13045364Y-10640709D01*
X13045365Y-10640709D01*
X13053981Y-10652219D01*
X13053981Y-10652219D01*
X13065491Y-10660835D01*
X13065491Y-10660835D01*
X13078962Y-10665860D01*
X13078963Y-10665860D01*
X13084915Y-10666500D01*
X13084917Y-10666500D01*
X13184200Y-10666500D01*
X13184200Y-10576400D01*
X13186168Y-10569696D01*
X13191449Y-10565121D01*
X13196600Y-10564000D01*
X13221800Y-10564000D01*
X13228504Y-10565969D01*
G37*
%TD.AperFunction*%
%TA.AperFunction,Conductor*%
G36*
X13711863Y-10528050D02*
G01*
X13720580Y-10528050D01*
X13727284Y-10530019D01*
X13731859Y-10535299D01*
X13732853Y-10542215D01*
X13729951Y-10548571D01*
X13729348Y-10549218D01*
X13658868Y-10619698D01*
X13652736Y-10623046D01*
X13645767Y-10622548D01*
X13640173Y-10618361D01*
X13637732Y-10611814D01*
X13637700Y-10610930D01*
X13637700Y-10589000D01*
X13552700Y-10589000D01*
X13552700Y-10666500D01*
X13592483Y-10666500D01*
X13592484Y-10666500D01*
X13598437Y-10665860D01*
X13598438Y-10665860D01*
X13603216Y-10664077D01*
X13610186Y-10663579D01*
X13616318Y-10666927D01*
X13619666Y-10673060D01*
X13619950Y-10675695D01*
X13619950Y-10691395D01*
X13619950Y-10691395D01*
X13619950Y-10692395D01*
X13619950Y-10750190D01*
X13617981Y-10756894D01*
X13616318Y-10758958D01*
X13586652Y-10788624D01*
X13580520Y-10791973D01*
X13574052Y-10791649D01*
X13569824Y-10790275D01*
X13553104Y-10787627D01*
X13548829Y-10786950D01*
X13527571Y-10786950D01*
X13523296Y-10787627D01*
X13506576Y-10790275D01*
X13486358Y-10796844D01*
X13467418Y-10806495D01*
X13450221Y-10818989D01*
X13435189Y-10834021D01*
X13422695Y-10851218D01*
X13422248Y-10852095D01*
X13417451Y-10857174D01*
X13410669Y-10858854D01*
X13404055Y-10856600D01*
X13400152Y-10852095D01*
X13399705Y-10851218D01*
X13387211Y-10834021D01*
X13372179Y-10818989D01*
X13354982Y-10806495D01*
X13354982Y-10806495D01*
X13354982Y-10806495D01*
X13345443Y-10801635D01*
X13340364Y-10796838D01*
X13338684Y-10790055D01*
X13340938Y-10783442D01*
X13342304Y-10781819D01*
X13427051Y-10697073D01*
X13427051Y-10697072D01*
X13428071Y-10696052D01*
X13428072Y-10696052D01*
X13439252Y-10684872D01*
X13444691Y-10675450D01*
X13446585Y-10672170D01*
X13451039Y-10667923D01*
X13451642Y-10667349D01*
X13451642Y-10667349D01*
X13451642Y-10667348D01*
X13455465Y-10666612D01*
X13458503Y-10666026D01*
X13458650Y-10666041D01*
X13462916Y-10666500D01*
X13462917Y-10666500D01*
X13502700Y-10666500D01*
X13502700Y-10576400D01*
X13504668Y-10569696D01*
X13509949Y-10565121D01*
X13515100Y-10564000D01*
X13527700Y-10564000D01*
X13527700Y-10551400D01*
X13529668Y-10544696D01*
X13534949Y-10540121D01*
X13540100Y-10539000D01*
X13637700Y-10539000D01*
X13638303Y-10538397D01*
X13639668Y-10533746D01*
X13644949Y-10529171D01*
X13650100Y-10528050D01*
X13711102Y-10528050D01*
X13711862Y-10528050D01*
X13711863Y-10528050D01*
G37*
%TD.AperFunction*%
%TA.AperFunction,Conductor*%
G36*
X15901371Y-10320018D02*
G01*
X15905947Y-10325299D01*
X15906941Y-10332215D01*
X15906124Y-10335195D01*
X15905105Y-10337654D01*
X15905046Y-10337797D01*
X15905046Y-10337797D01*
X15902450Y-10350847D01*
X15902450Y-10350847D01*
X15902450Y-10364153D01*
X15902450Y-10364153D01*
X15902450Y-10364153D01*
X15905046Y-10377203D01*
X15905046Y-10377204D01*
X15906880Y-10381631D01*
X15907627Y-10388578D01*
X15906880Y-10391121D01*
X15905238Y-10395086D01*
X15904833Y-10396064D01*
X15902237Y-10409114D01*
X15902237Y-10409114D01*
X15902237Y-10422420D01*
X15902237Y-10422420D01*
X15902237Y-10422420D01*
X15904833Y-10435470D01*
X15904833Y-10435471D01*
X15909924Y-10447763D01*
X15909925Y-10447765D01*
X15917317Y-10458827D01*
X15917318Y-10458828D01*
X15926726Y-10468236D01*
X15926727Y-10468237D01*
X15937789Y-10475628D01*
X15937789Y-10475629D01*
X15937790Y-10475629D01*
X15950083Y-10480721D01*
X15950084Y-10480721D01*
X15950084Y-10480721D01*
X15963133Y-10483317D01*
X15963134Y-10483317D01*
X15976440Y-10483317D01*
X15985323Y-10481550D01*
X15989490Y-10480721D01*
X16000903Y-10475994D01*
X16005648Y-10475050D01*
X16303190Y-10475050D01*
X16309894Y-10477019D01*
X16311958Y-10478682D01*
X16599058Y-10765782D01*
X16602407Y-10771914D01*
X16601908Y-10778883D01*
X16597721Y-10784477D01*
X16591175Y-10786918D01*
X16590290Y-10786950D01*
X16575571Y-10786950D01*
X16571296Y-10787627D01*
X16554576Y-10790275D01*
X16534358Y-10796844D01*
X16515418Y-10806495D01*
X16498221Y-10818989D01*
X16483189Y-10834021D01*
X16470695Y-10851218D01*
X16470248Y-10852095D01*
X16465451Y-10857174D01*
X16458669Y-10858854D01*
X16452055Y-10856600D01*
X16448152Y-10852095D01*
X16447705Y-10851218D01*
X16435211Y-10834021D01*
X16420179Y-10818989D01*
X16402982Y-10806495D01*
X16384041Y-10796844D01*
X16384041Y-10796844D01*
X16384041Y-10796844D01*
X16363824Y-10790275D01*
X16363824Y-10790275D01*
X16363824Y-10790275D01*
X16347104Y-10787627D01*
X16342829Y-10786950D01*
X16321571Y-10786950D01*
X16317296Y-10787627D01*
X16300576Y-10790275D01*
X16280358Y-10796844D01*
X16261418Y-10806495D01*
X16244221Y-10818989D01*
X16229189Y-10834021D01*
X16216695Y-10851218D01*
X16216248Y-10852095D01*
X16211451Y-10857174D01*
X16204669Y-10858854D01*
X16198055Y-10856600D01*
X16194152Y-10852095D01*
X16193705Y-10851218D01*
X16181211Y-10834021D01*
X16166179Y-10818989D01*
X16148981Y-10806495D01*
X16148981Y-10806495D01*
X16145020Y-10804477D01*
X16139941Y-10799679D01*
X16138250Y-10793428D01*
X16138250Y-10707106D01*
X16138250Y-10707105D01*
X16138250Y-10690294D01*
X16138114Y-10689785D01*
X16134158Y-10675022D01*
X16133531Y-10673936D01*
X16126252Y-10661329D01*
X16126252Y-10661328D01*
X16036614Y-10571691D01*
X16036614Y-10571691D01*
X16024727Y-10559804D01*
X16024726Y-10559803D01*
X16014092Y-10553663D01*
X16014092Y-10553663D01*
X16014092Y-10553663D01*
X16011034Y-10551898D01*
X16009176Y-10551400D01*
X15995761Y-10547805D01*
X15979950Y-10547805D01*
X15979190Y-10547805D01*
X15979188Y-10547805D01*
X15841995Y-10547805D01*
X15835292Y-10545837D01*
X15830716Y-10540557D01*
X15829722Y-10533641D01*
X15829833Y-10532988D01*
X15830050Y-10531899D01*
X15830050Y-10518101D01*
X15830050Y-10518100D01*
X15827358Y-10504568D01*
X15827358Y-10504568D01*
X15827358Y-10504567D01*
X15825757Y-10500701D01*
X15822078Y-10491820D01*
X15822077Y-10491818D01*
X15814411Y-10480346D01*
X15814411Y-10480345D01*
X15804654Y-10470589D01*
X15804654Y-10470589D01*
X15793182Y-10462923D01*
X15793180Y-10462922D01*
X15780433Y-10457642D01*
X15780432Y-10457642D01*
X15766899Y-10454950D01*
X15766899Y-10454950D01*
X15753101Y-10454950D01*
X15753100Y-10454950D01*
X15739568Y-10457642D01*
X15739567Y-10457642D01*
X15726819Y-10462922D01*
X15726818Y-10462923D01*
X15715346Y-10470589D01*
X15715345Y-10470589D01*
X15705589Y-10480345D01*
X15705588Y-10480346D01*
X15697923Y-10491818D01*
X15697922Y-10491820D01*
X15692642Y-10504567D01*
X15692642Y-10504568D01*
X15689950Y-10518100D01*
X15689950Y-10518101D01*
X15689950Y-10531899D01*
X15690166Y-10532986D01*
X15689544Y-10539945D01*
X15685257Y-10545463D01*
X15678669Y-10547788D01*
X15678004Y-10547805D01*
X15506522Y-10547805D01*
X15506521Y-10547805D01*
X15505761Y-10547805D01*
X15489950Y-10547805D01*
X15478495Y-10550875D01*
X15474677Y-10551898D01*
X15472235Y-10553308D01*
X15472234Y-10553308D01*
X15471619Y-10553663D01*
X15460984Y-10559803D01*
X15453822Y-10566965D01*
X15453088Y-10567509D01*
X15450632Y-10568413D01*
X15448337Y-10569667D01*
X15446767Y-10569835D01*
X15446531Y-10569922D01*
X15446345Y-10569881D01*
X15445701Y-10569950D01*
X15392879Y-10569950D01*
X15386175Y-10567982D01*
X15381599Y-10562701D01*
X15380605Y-10555785D01*
X15381423Y-10552805D01*
X15383445Y-10547923D01*
X15383522Y-10547736D01*
X15386210Y-10543714D01*
X15556242Y-10373682D01*
X15562374Y-10370333D01*
X15565010Y-10370050D01*
X15776333Y-10370050D01*
X15776335Y-10370050D01*
X15777094Y-10370050D01*
X15792905Y-10370050D01*
X15792906Y-10370050D01*
X15808178Y-10365958D01*
X15813215Y-10363050D01*
X15821872Y-10358052D01*
X15833052Y-10346872D01*
X15833052Y-10346871D01*
X15834072Y-10345851D01*
X15834073Y-10345851D01*
X15858242Y-10321682D01*
X15864374Y-10318333D01*
X15867010Y-10318050D01*
X15894667Y-10318050D01*
X15901371Y-10320018D01*
G37*
%TD.AperFunction*%
%TA.AperFunction,Conductor*%
G36*
X12823717Y-10068519D02*
G01*
X12828293Y-10073799D01*
X12829342Y-10080276D01*
X12828650Y-10086712D01*
X12828650Y-10146287D01*
X12828650Y-10146288D01*
X12829291Y-10152248D01*
X12834630Y-10166564D01*
X12834473Y-10166623D01*
X12835738Y-10172437D01*
X12834569Y-10176421D01*
X12834675Y-10176460D01*
X12829340Y-10190762D01*
X12829340Y-10190763D01*
X12828700Y-10196716D01*
X12828700Y-10201500D01*
X13028700Y-10201500D01*
X13028700Y-10196717D01*
X13028700Y-10196716D01*
X13028007Y-10190276D01*
X13029248Y-10183400D01*
X13034009Y-10178286D01*
X13040336Y-10176550D01*
X13104853Y-10176550D01*
X13111557Y-10178519D01*
X13116133Y-10183799D01*
X13117127Y-10190715D01*
X13114225Y-10197070D01*
X13109598Y-10200406D01*
X13103004Y-10203138D01*
X13103002Y-10203139D01*
X13091940Y-10210530D01*
X13091939Y-10210531D01*
X13082531Y-10219939D01*
X13082530Y-10219940D01*
X13075139Y-10231002D01*
X13075138Y-10231004D01*
X13070046Y-10243296D01*
X13070046Y-10243297D01*
X13067450Y-10256347D01*
X13067450Y-10264050D01*
X13065481Y-10270754D01*
X13060201Y-10275329D01*
X13055050Y-10276450D01*
X13040336Y-10276450D01*
X13033632Y-10274482D01*
X13029057Y-10269201D01*
X13028007Y-10262724D01*
X13028700Y-10256284D01*
X13028700Y-10256283D01*
X13028700Y-10251500D01*
X12828700Y-10251500D01*
X12828700Y-10256284D01*
X12829340Y-10262237D01*
X12829340Y-10262238D01*
X12834675Y-10276540D01*
X12834493Y-10276608D01*
X12835738Y-10282332D01*
X12834543Y-10286403D01*
X12834630Y-10286436D01*
X12829449Y-10300327D01*
X12829291Y-10300752D01*
X12828650Y-10306713D01*
X12828650Y-10306713D01*
X12828650Y-10306714D01*
X12828650Y-10366287D01*
X12828650Y-10366288D01*
X12829291Y-10372248D01*
X12834630Y-10386564D01*
X12834457Y-10386629D01*
X12835709Y-10392385D01*
X12834531Y-10396399D01*
X12834630Y-10396436D01*
X12830881Y-10406488D01*
X12829291Y-10410752D01*
X12828650Y-10416713D01*
X12828650Y-10416713D01*
X12828650Y-10416714D01*
X12828650Y-10476287D01*
X12828650Y-10476288D01*
X12829291Y-10482248D01*
X12834320Y-10495733D01*
X12834321Y-10495734D01*
X12842945Y-10507254D01*
X12842945Y-10507255D01*
X12854466Y-10515879D01*
X12854467Y-10515880D01*
X12858962Y-10517556D01*
X12867952Y-10520909D01*
X12873913Y-10521550D01*
X12903590Y-10521550D01*
X12910294Y-10523518D01*
X12914870Y-10528799D01*
X12915864Y-10535715D01*
X12912961Y-10542070D01*
X12912358Y-10542718D01*
X12739329Y-10715748D01*
X12728148Y-10726928D01*
X12728148Y-10726929D01*
X12723136Y-10735609D01*
X12723136Y-10735610D01*
X12720242Y-10740621D01*
X12720242Y-10740621D01*
X12720242Y-10740622D01*
X12716150Y-10755894D01*
X12716150Y-10755895D01*
X12716150Y-10772705D01*
X12716150Y-10772706D01*
X12716150Y-10793428D01*
X12714181Y-10800132D01*
X12709379Y-10804477D01*
X12705418Y-10806495D01*
X12705418Y-10806495D01*
X12688221Y-10818989D01*
X12676867Y-10830343D01*
X12670735Y-10833692D01*
X12663766Y-10833193D01*
X12658172Y-10829006D01*
X12656481Y-10825908D01*
X12651580Y-10812767D01*
X12651579Y-10812766D01*
X12642955Y-10801246D01*
X12642954Y-10801245D01*
X12631433Y-10792621D01*
X12631433Y-10792620D01*
X12617948Y-10787591D01*
X12617948Y-10787591D01*
X12611988Y-10786950D01*
X12611988Y-10786950D01*
X12611987Y-10786950D01*
X12611986Y-10786950D01*
X12552803Y-10786950D01*
X12546099Y-10784982D01*
X12541524Y-10779701D01*
X12540530Y-10772785D01*
X12541278Y-10769975D01*
X12541312Y-10769889D01*
X12546058Y-10758433D01*
X12546256Y-10757435D01*
X12546672Y-10756387D01*
X12548156Y-10754488D01*
X12549273Y-10752353D01*
X12549424Y-10752199D01*
X12573071Y-10728552D01*
X12573072Y-10728552D01*
X12584252Y-10717371D01*
X12589264Y-10708690D01*
X12592158Y-10703678D01*
X12596250Y-10688405D01*
X12596250Y-10672594D01*
X12596250Y-10671835D01*
X12596250Y-10671833D01*
X12596250Y-10228010D01*
X12598218Y-10221306D01*
X12599882Y-10219242D01*
X12748942Y-10070182D01*
X12755074Y-10066833D01*
X12757710Y-10066550D01*
X12817013Y-10066550D01*
X12823717Y-10068519D01*
G37*
%TD.AperFunction*%
%TA.AperFunction,Conductor*%
G36*
X12286652Y-9293019D02*
G01*
X12291227Y-9298299D01*
X12292222Y-9305215D01*
X12289319Y-9311570D01*
X12288716Y-9312218D01*
X12285589Y-9315345D01*
X12285588Y-9315346D01*
X12277923Y-9326818D01*
X12277922Y-9326820D01*
X12272642Y-9339567D01*
X12272642Y-9339568D01*
X12269950Y-9353100D01*
X12269950Y-9353101D01*
X12269950Y-9366899D01*
X12269950Y-9366900D01*
X12269950Y-9366900D01*
X12272642Y-9380432D01*
X12272642Y-9380433D01*
X12277922Y-9393180D01*
X12277923Y-9393182D01*
X12285588Y-9404654D01*
X12285589Y-9404655D01*
X12295345Y-9414411D01*
X12295346Y-9414411D01*
X12306818Y-9422077D01*
X12306819Y-9422078D01*
X12319312Y-9427253D01*
X12319567Y-9427358D01*
X12319568Y-9427358D01*
X12319568Y-9427358D01*
X12333100Y-9430050D01*
X12333101Y-9430050D01*
X12567100Y-9430050D01*
X12576204Y-9428239D01*
X12580633Y-9427358D01*
X12587673Y-9424442D01*
X12593381Y-9422078D01*
X12593381Y-9422078D01*
X12593381Y-9422078D01*
X12604854Y-9414411D01*
X12687260Y-9332005D01*
X12693392Y-9328657D01*
X12700361Y-9329156D01*
X12705955Y-9333343D01*
X12708190Y-9338354D01*
X12708842Y-9341632D01*
X12708842Y-9341633D01*
X12714122Y-9354381D01*
X12721789Y-9365855D01*
X12780345Y-9424411D01*
X12780346Y-9424411D01*
X12791819Y-9432078D01*
X12791819Y-9432078D01*
X12791820Y-9432078D01*
X12792620Y-9432409D01*
X12798060Y-9436793D01*
X12800267Y-9443423D01*
X12798539Y-9450192D01*
X12796643Y-9452634D01*
X12714958Y-9534318D01*
X12708826Y-9537667D01*
X12706190Y-9537950D01*
X12650209Y-9537950D01*
X12645464Y-9537006D01*
X12635904Y-9533046D01*
X12635903Y-9533046D01*
X12622853Y-9530450D01*
X12622853Y-9530450D01*
X12609547Y-9530450D01*
X12609547Y-9530450D01*
X12596497Y-9533046D01*
X12596496Y-9533046D01*
X12584204Y-9538138D01*
X12584202Y-9538139D01*
X12573140Y-9545530D01*
X12573139Y-9545531D01*
X12563731Y-9554939D01*
X12563730Y-9554940D01*
X12556339Y-9566002D01*
X12556338Y-9566004D01*
X12551246Y-9578296D01*
X12551246Y-9578297D01*
X12548650Y-9591347D01*
X12548650Y-9591347D01*
X12548650Y-9604653D01*
X12548650Y-9604653D01*
X12548650Y-9604653D01*
X12551246Y-9617703D01*
X12551246Y-9617704D01*
X12556338Y-9629996D01*
X12556339Y-9629998D01*
X12563730Y-9641060D01*
X12563731Y-9641061D01*
X12573139Y-9650469D01*
X12573140Y-9650470D01*
X12584202Y-9657861D01*
X12584202Y-9657861D01*
X12584203Y-9657862D01*
X12584204Y-9657862D01*
X12584204Y-9657862D01*
X12596157Y-9662814D01*
X12596496Y-9662954D01*
X12596497Y-9662954D01*
X12596497Y-9662954D01*
X12609547Y-9665550D01*
X12609547Y-9665550D01*
X12622853Y-9665550D01*
X12631632Y-9663804D01*
X12635904Y-9662954D01*
X12645464Y-9658994D01*
X12650209Y-9658050D01*
X12727533Y-9658050D01*
X12727535Y-9658050D01*
X12728294Y-9658050D01*
X12744105Y-9658050D01*
X12744106Y-9658050D01*
X12759378Y-9653958D01*
X12764390Y-9651064D01*
X12773072Y-9646052D01*
X12784252Y-9634872D01*
X12784252Y-9634871D01*
X12785273Y-9633851D01*
X12785273Y-9633850D01*
X12863682Y-9555441D01*
X12869814Y-9552093D01*
X12876783Y-9552591D01*
X12881218Y-9555442D01*
X12906058Y-9580282D01*
X12909407Y-9586414D01*
X12908908Y-9593383D01*
X12904721Y-9598977D01*
X12898175Y-9601418D01*
X12897290Y-9601450D01*
X12873913Y-9601450D01*
X12873912Y-9601450D01*
X12867952Y-9602091D01*
X12854467Y-9607120D01*
X12854466Y-9607121D01*
X12842945Y-9615745D01*
X12842945Y-9615746D01*
X12834321Y-9627266D01*
X12834320Y-9627267D01*
X12831484Y-9634871D01*
X12829291Y-9640752D01*
X12828650Y-9646713D01*
X12828650Y-9646713D01*
X12828650Y-9646714D01*
X12828650Y-9706287D01*
X12828650Y-9706288D01*
X12829291Y-9712248D01*
X12834630Y-9726564D01*
X12834457Y-9726629D01*
X12835709Y-9732385D01*
X12834531Y-9736399D01*
X12834630Y-9736436D01*
X12829393Y-9750477D01*
X12829291Y-9750752D01*
X12828650Y-9756713D01*
X12828650Y-9756713D01*
X12828650Y-9756714D01*
X12828650Y-9816287D01*
X12828650Y-9816288D01*
X12829291Y-9822248D01*
X12834630Y-9836564D01*
X12834457Y-9836629D01*
X12835709Y-9842385D01*
X12834531Y-9846399D01*
X12834630Y-9846436D01*
X12832182Y-9853000D01*
X12829291Y-9860752D01*
X12828650Y-9866713D01*
X12828650Y-9866713D01*
X12828650Y-9866714D01*
X12828650Y-9926287D01*
X12828650Y-9926288D01*
X12829342Y-9932725D01*
X12828101Y-9939601D01*
X12823340Y-9944714D01*
X12817013Y-9946450D01*
X12736367Y-9946450D01*
X12736365Y-9946450D01*
X12735606Y-9946450D01*
X12719794Y-9946450D01*
X12711801Y-9948592D01*
X12704522Y-9950542D01*
X12701543Y-9952262D01*
X12701543Y-9952262D01*
X12690829Y-9958448D01*
X12690828Y-9958448D01*
X12488148Y-10161128D01*
X12486679Y-10163672D01*
X12484572Y-10167322D01*
X12483714Y-10168809D01*
X12480339Y-10174653D01*
X12480242Y-10174822D01*
X12476150Y-10190094D01*
X12476150Y-10190095D01*
X12476150Y-10206905D01*
X12476150Y-10206906D01*
X12476150Y-10527550D01*
X12474181Y-10534254D01*
X12468901Y-10538829D01*
X12463750Y-10539950D01*
X12453100Y-10539950D01*
X12439568Y-10542642D01*
X12439567Y-10542642D01*
X12426819Y-10547922D01*
X12426818Y-10547923D01*
X12415346Y-10555589D01*
X12415345Y-10555589D01*
X12405589Y-10565345D01*
X12405588Y-10565346D01*
X12397923Y-10576818D01*
X12397922Y-10576820D01*
X12392642Y-10589567D01*
X12392642Y-10589568D01*
X12389950Y-10603100D01*
X12389950Y-10603101D01*
X12389950Y-10616899D01*
X12389950Y-10616900D01*
X12389950Y-10616900D01*
X12392642Y-10630432D01*
X12392642Y-10630433D01*
X12397922Y-10643180D01*
X12397923Y-10643182D01*
X12405588Y-10654654D01*
X12405589Y-10654655D01*
X12415345Y-10664411D01*
X12415346Y-10664411D01*
X12425488Y-10671188D01*
X12429969Y-10676550D01*
X12430839Y-10683482D01*
X12427824Y-10689785D01*
X12427367Y-10690267D01*
X12424289Y-10693345D01*
X12424288Y-10693346D01*
X12416622Y-10704818D01*
X12416622Y-10704820D01*
X12411342Y-10717567D01*
X12411341Y-10717568D01*
X12408650Y-10731100D01*
X12408650Y-10731101D01*
X12408650Y-10744899D01*
X12408650Y-10744900D01*
X12408650Y-10744900D01*
X12411341Y-10758432D01*
X12411342Y-10758433D01*
X12416622Y-10771180D01*
X12416622Y-10771182D01*
X12418654Y-10774221D01*
X12420741Y-10780889D01*
X12418893Y-10787627D01*
X12413695Y-10792296D01*
X12413091Y-10792553D01*
X12412966Y-10792621D01*
X12401446Y-10801245D01*
X12397678Y-10806279D01*
X12392084Y-10810466D01*
X12385115Y-10810964D01*
X12378983Y-10807615D01*
X12377441Y-10805736D01*
X12374033Y-10800636D01*
X12364165Y-10790768D01*
X12364164Y-10790767D01*
X12352560Y-10783014D01*
X12352560Y-10783014D01*
X12339666Y-10777673D01*
X12339666Y-10777673D01*
X12325978Y-10774950D01*
X12325978Y-10774950D01*
X12322988Y-10774950D01*
X12040576Y-10774950D01*
X12038636Y-10774797D01*
X12032037Y-10773752D01*
X12028348Y-10772554D01*
X12023275Y-10769969D01*
X12020137Y-10767689D01*
X12016111Y-10763663D01*
X12013831Y-10760525D01*
X12011246Y-10755452D01*
X12010048Y-10751763D01*
X12009002Y-10745163D01*
X12008850Y-10743224D01*
X12008850Y-9322776D01*
X12009002Y-9320837D01*
X12010048Y-9314237D01*
X12011246Y-9310549D01*
X12013831Y-9305475D01*
X12016111Y-9302337D01*
X12020137Y-9298311D01*
X12023275Y-9296031D01*
X12028349Y-9293446D01*
X12032037Y-9292248D01*
X12038637Y-9291203D01*
X12040576Y-9291050D01*
X12279948Y-9291050D01*
X12286652Y-9293019D01*
G37*
%TD.AperFunction*%
%TA.AperFunction,Conductor*%
G36*
X15960611Y-10669874D02*
G01*
X15965187Y-10675154D01*
X15966181Y-10682070D01*
X15963279Y-10688426D01*
X15958283Y-10691668D01*
X15958359Y-10691851D01*
X15957796Y-10692084D01*
X15957796Y-10692084D01*
X15955375Y-10693087D01*
X15953155Y-10694006D01*
X15946208Y-10694753D01*
X15942483Y-10692888D01*
X15812628Y-10694948D01*
X15805894Y-10693087D01*
X15801235Y-10687879D01*
X15800091Y-10683765D01*
X15800050Y-10683347D01*
X15799926Y-10682724D01*
X15800549Y-10675765D01*
X15804836Y-10670247D01*
X15811425Y-10667923D01*
X15812088Y-10667905D01*
X15953907Y-10667905D01*
X15960611Y-10669874D01*
G37*
%TD.AperFunction*%
%TA.AperFunction,Conductor*%
G36*
X14696544Y-10468131D02*
G01*
X14696822Y-10468062D01*
X14699876Y-10469109D01*
X14702972Y-10470019D01*
X14703160Y-10470235D01*
X14703431Y-10470328D01*
X14705436Y-10472862D01*
X14707548Y-10475299D01*
X14707643Y-10475651D01*
X14707767Y-10475808D01*
X14708446Y-10478111D01*
X14708650Y-10479173D01*
X14708650Y-10479653D01*
X14711246Y-10492704D01*
X14711252Y-10492718D01*
X14711347Y-10493211D01*
X14710678Y-10500166D01*
X14706356Y-10505655D01*
X14699752Y-10507936D01*
X14699169Y-10507950D01*
X14538600Y-10507950D01*
X14531896Y-10505982D01*
X14527321Y-10500701D01*
X14526200Y-10495550D01*
X14526200Y-10480450D01*
X14528168Y-10473746D01*
X14533449Y-10469171D01*
X14538600Y-10468050D01*
X14696268Y-10468050D01*
X14696544Y-10468131D01*
G37*
%TD.AperFunction*%
%TA.AperFunction,Conductor*%
G36*
X15207830Y-10075280D02*
G01*
X15212264Y-10078130D01*
X15223212Y-10089078D01*
X15223023Y-10089267D01*
X15226352Y-10093924D01*
X15226696Y-10100903D01*
X15223213Y-10106960D01*
X15222925Y-10107209D01*
X15210653Y-10119481D01*
X15201852Y-10134039D01*
X15196791Y-10150281D01*
X15196150Y-10157339D01*
X15196150Y-10208661D01*
X15196791Y-10215719D01*
X15196791Y-10215719D01*
X15196791Y-10215720D01*
X15201852Y-10231961D01*
X15210234Y-10245826D01*
X15210653Y-10246519D01*
X15218401Y-10254267D01*
X15221750Y-10260400D01*
X15221252Y-10267369D01*
X15218401Y-10271804D01*
X15210693Y-10279512D01*
X15210693Y-10279512D01*
X15201898Y-10294060D01*
X15196841Y-10310289D01*
X15196200Y-10317343D01*
X15196200Y-10318000D01*
X15283800Y-10318000D01*
X15290504Y-10319969D01*
X15295079Y-10325249D01*
X15296200Y-10330400D01*
X15296200Y-10355600D01*
X15294231Y-10362304D01*
X15288951Y-10366879D01*
X15283800Y-10368000D01*
X15196200Y-10368000D01*
X15196200Y-10368658D01*
X15196841Y-10375710D01*
X15196841Y-10375711D01*
X15201898Y-10391940D01*
X15210693Y-10406488D01*
X15222712Y-10418507D01*
X15222712Y-10418507D01*
X15230558Y-10423250D01*
X15235277Y-10428403D01*
X15236461Y-10435289D01*
X15233734Y-10441722D01*
X15232911Y-10442630D01*
X15224323Y-10451218D01*
X15206828Y-10468713D01*
X15195647Y-10479894D01*
X15195647Y-10479894D01*
X15192183Y-10485893D01*
X15192183Y-10485894D01*
X15188782Y-10491784D01*
X15183725Y-10496606D01*
X15176865Y-10497928D01*
X15170378Y-10495331D01*
X15169276Y-10494352D01*
X15036600Y-10361677D01*
X15036600Y-10361677D01*
X15024713Y-10349790D01*
X15024713Y-10349790D01*
X15015055Y-10344214D01*
X15011020Y-10341884D01*
X15011020Y-10341884D01*
X15010323Y-10341482D01*
X15007123Y-10338125D01*
X15005502Y-10336425D01*
X15004179Y-10329564D01*
X15006776Y-10323078D01*
X15006776Y-10323078D01*
X15007754Y-10321976D01*
X15008669Y-10321061D01*
X15016062Y-10309997D01*
X15021154Y-10297704D01*
X15022003Y-10293433D01*
X15023750Y-10284653D01*
X15023750Y-10271347D01*
X15021353Y-10259299D01*
X15021976Y-10252340D01*
X15024747Y-10248112D01*
X15194728Y-10078130D01*
X15200861Y-10074782D01*
X15207830Y-10075280D01*
G37*
%TD.AperFunction*%
%TA.AperFunction,Conductor*%
G36*
X13566633Y-10117742D02*
G01*
X13572227Y-10121929D01*
X13574668Y-10128475D01*
X13574700Y-10129360D01*
X13574700Y-10213390D01*
X13572731Y-10220094D01*
X13567451Y-10224670D01*
X13564719Y-10225552D01*
X13564267Y-10225642D01*
X13564266Y-10225642D01*
X13551519Y-10230922D01*
X13551518Y-10230923D01*
X13540046Y-10238589D01*
X13540045Y-10238589D01*
X13530289Y-10248345D01*
X13530288Y-10248346D01*
X13522623Y-10259818D01*
X13522622Y-10259820D01*
X13517342Y-10272567D01*
X13517342Y-10272568D01*
X13514650Y-10286100D01*
X13514650Y-10286101D01*
X13514650Y-10299899D01*
X13514650Y-10299900D01*
X13514650Y-10299900D01*
X13517342Y-10313432D01*
X13517342Y-10313433D01*
X13522622Y-10326180D01*
X13522623Y-10326182D01*
X13530288Y-10337654D01*
X13530289Y-10337655D01*
X13532916Y-10340282D01*
X13536264Y-10346414D01*
X13535766Y-10353383D01*
X13531579Y-10358977D01*
X13525032Y-10361418D01*
X13524148Y-10361450D01*
X13342610Y-10361450D01*
X13335906Y-10359482D01*
X13331330Y-10354201D01*
X13330336Y-10347285D01*
X13333238Y-10340930D01*
X13333842Y-10340282D01*
X13435697Y-10238426D01*
X13553532Y-10120591D01*
X13559664Y-10117243D01*
X13566633Y-10117742D01*
G37*
%TD.AperFunction*%
%TA.AperFunction,Conductor*%
G36*
X14713204Y-9787469D02*
G01*
X14717779Y-9792749D01*
X14718900Y-9797900D01*
X14718900Y-9932730D01*
X14718900Y-9932730D01*
X14719149Y-9932710D01*
X14734920Y-9928128D01*
X14749055Y-9919769D01*
X14749056Y-9919768D01*
X14760668Y-9908156D01*
X14760800Y-9907985D01*
X14760938Y-9907886D01*
X14761220Y-9907604D01*
X14761265Y-9907649D01*
X14766464Y-9903894D01*
X14773441Y-9903515D01*
X14779515Y-9906968D01*
X14782759Y-9913156D01*
X14782760Y-9918004D01*
X14781150Y-9926100D01*
X14781150Y-9926101D01*
X14781150Y-9939899D01*
X14781150Y-9939900D01*
X14781150Y-9939900D01*
X14783842Y-9953432D01*
X14783842Y-9953433D01*
X14787367Y-9961942D01*
X14788113Y-9968889D01*
X14784986Y-9975137D01*
X14784679Y-9975455D01*
X14780653Y-9979481D01*
X14780653Y-9979481D01*
X14771852Y-9994039D01*
X14766791Y-10010281D01*
X14766278Y-10015928D01*
X14766150Y-10017338D01*
X14766150Y-10068662D01*
X14766240Y-10069652D01*
X14766791Y-10075719D01*
X14766791Y-10075719D01*
X14766791Y-10075720D01*
X14771852Y-10091961D01*
X14774331Y-10096061D01*
X14780653Y-10106519D01*
X14788401Y-10114267D01*
X14791750Y-10120400D01*
X14791252Y-10127369D01*
X14788401Y-10131804D01*
X14780693Y-10139512D01*
X14780692Y-10139513D01*
X14774456Y-10149829D01*
X14769303Y-10154547D01*
X14762417Y-10155731D01*
X14756431Y-10153353D01*
X14755711Y-10152816D01*
X14749086Y-10146192D01*
X14738188Y-10139746D01*
X14737657Y-10139350D01*
X14737439Y-10139060D01*
X14736303Y-10138179D01*
X14728072Y-10129948D01*
X14728071Y-10129948D01*
X14727638Y-10129515D01*
X14727637Y-10129514D01*
X14702710Y-10104587D01*
X14700022Y-10100564D01*
X14699564Y-10099458D01*
X14696062Y-10091003D01*
X14694902Y-10089267D01*
X14688670Y-10079940D01*
X14688669Y-10079939D01*
X14679261Y-10070531D01*
X14679260Y-10070530D01*
X14668198Y-10063139D01*
X14668197Y-10063138D01*
X14668197Y-10063138D01*
X14668196Y-10063138D01*
X14668196Y-10063138D01*
X14655904Y-10058046D01*
X14655903Y-10058046D01*
X14642853Y-10055450D01*
X14642853Y-10055450D01*
X14639350Y-10055450D01*
X14632646Y-10053482D01*
X14628071Y-10048201D01*
X14626950Y-10043050D01*
X14626950Y-10007709D01*
X14627894Y-10002964D01*
X14631854Y-9993404D01*
X14633572Y-9984767D01*
X14634450Y-9980353D01*
X14634450Y-9967047D01*
X14631854Y-9953997D01*
X14631854Y-9953997D01*
X14631854Y-9953996D01*
X14628974Y-9947043D01*
X14626762Y-9941704D01*
X14626762Y-9941704D01*
X14626762Y-9941703D01*
X14624963Y-9939011D01*
X14622875Y-9932343D01*
X14624724Y-9925605D01*
X14629922Y-9920936D01*
X14636819Y-9919818D01*
X14641585Y-9921448D01*
X14652880Y-9928128D01*
X14668651Y-9932710D01*
X14668651Y-9932710D01*
X14668900Y-9932730D01*
X14668900Y-9932730D01*
X14668900Y-9797900D01*
X14670868Y-9791196D01*
X14676149Y-9786621D01*
X14681300Y-9785500D01*
X14706500Y-9785500D01*
X14713204Y-9787469D01*
G37*
%TD.AperFunction*%
%TA.AperFunction,Conductor*%
G36*
X15647730Y-10031645D02*
G01*
X15652028Y-10034407D01*
X15652051Y-10034383D01*
X15652106Y-10034437D01*
X15653139Y-10035470D01*
X15653225Y-10035527D01*
X15653225Y-10035527D01*
X15664202Y-10042861D01*
X15664202Y-10042862D01*
X15664203Y-10042862D01*
X15667711Y-10044315D01*
X15663861Y-10053610D01*
X15663728Y-10055886D01*
X15659613Y-10061532D01*
X15659175Y-10061702D01*
X15656288Y-10066219D01*
X15652881Y-10064042D01*
X15649203Y-10063769D01*
X15648448Y-10063591D01*
X15642488Y-10062950D01*
X15642488Y-10062950D01*
X15642487Y-10062950D01*
X15642486Y-10062950D01*
X15636110Y-10062950D01*
X15629406Y-10060982D01*
X15624830Y-10055701D01*
X15623836Y-10048785D01*
X15626738Y-10042430D01*
X15627340Y-10041783D01*
X15634629Y-10034495D01*
X15640761Y-10031146D01*
X15647730Y-10031645D01*
G37*
%TD.AperFunction*%
%TA.AperFunction,Conductor*%
G36*
X13920394Y-9642519D02*
G01*
X13922458Y-9644182D01*
X14010058Y-9731782D01*
X14013407Y-9737914D01*
X14012908Y-9744883D01*
X14008721Y-9750477D01*
X14002175Y-9752918D01*
X14001290Y-9752950D01*
X13904106Y-9752950D01*
X13888294Y-9752950D01*
X13873021Y-9757042D01*
X13873021Y-9757042D01*
X13873021Y-9757042D01*
X13873021Y-9757043D01*
X13868010Y-9759936D01*
X13868009Y-9759936D01*
X13865311Y-9761494D01*
X13859328Y-9764948D01*
X13859328Y-9764948D01*
X13750868Y-9873408D01*
X13744736Y-9876757D01*
X13737767Y-9876258D01*
X13732173Y-9872071D01*
X13729732Y-9865525D01*
X13729700Y-9864640D01*
X13729700Y-9853000D01*
X13574700Y-9853000D01*
X13574700Y-9930550D01*
X13572731Y-9937254D01*
X13567451Y-9941829D01*
X13562300Y-9942950D01*
X13518294Y-9942950D01*
X13516084Y-9943542D01*
X13516084Y-9943542D01*
X13503021Y-9947042D01*
X13503021Y-9947043D01*
X13489329Y-9954948D01*
X13489328Y-9954948D01*
X13482334Y-9961942D01*
X13478148Y-9966128D01*
X13478148Y-9966129D01*
X13433996Y-10010281D01*
X13391458Y-10052818D01*
X13385326Y-10056167D01*
X13382690Y-10056450D01*
X13040387Y-10056450D01*
X13033683Y-10054482D01*
X13029107Y-10049201D01*
X13028058Y-10042724D01*
X13028750Y-10036288D01*
X13028750Y-10036287D01*
X13028750Y-9976713D01*
X13028109Y-9970752D01*
X13028058Y-9970275D01*
X13029299Y-9963399D01*
X13034060Y-9958286D01*
X13040387Y-9956550D01*
X13339833Y-9956550D01*
X13339835Y-9956550D01*
X13340594Y-9956550D01*
X13356405Y-9956550D01*
X13356406Y-9956550D01*
X13371678Y-9952458D01*
X13379576Y-9947898D01*
X13380179Y-9947550D01*
X13385371Y-9944552D01*
X13385371Y-9944552D01*
X13385372Y-9944552D01*
X13396552Y-9933372D01*
X13396552Y-9933371D01*
X13397572Y-9932351D01*
X13397573Y-9932351D01*
X13553532Y-9776391D01*
X13559664Y-9773043D01*
X13566633Y-9773541D01*
X13572227Y-9777729D01*
X13574668Y-9784275D01*
X13574700Y-9785160D01*
X13574700Y-9803000D01*
X13729700Y-9803000D01*
X13729700Y-9677717D01*
X13729700Y-9677716D01*
X13729390Y-9674835D01*
X13730630Y-9667959D01*
X13732950Y-9664742D01*
X13745586Y-9652106D01*
X13753510Y-9644182D01*
X13759643Y-9640833D01*
X13762278Y-9640550D01*
X13913690Y-9640550D01*
X13920394Y-9642519D01*
G37*
%TD.AperFunction*%
%TA.AperFunction,Conductor*%
G36*
X15543532Y-9767404D02*
G01*
X15549737Y-9769718D01*
X15555330Y-9773905D01*
X15557772Y-9780452D01*
X15556287Y-9787279D01*
X15554172Y-9790105D01*
X15464958Y-9879318D01*
X15458826Y-9882667D01*
X15456190Y-9882950D01*
X15408650Y-9882950D01*
X15401946Y-9880982D01*
X15397371Y-9875701D01*
X15396250Y-9870550D01*
X15396250Y-9835010D01*
X15398218Y-9828306D01*
X15399881Y-9826242D01*
X15449442Y-9776682D01*
X15455574Y-9773333D01*
X15458210Y-9773050D01*
X15515487Y-9773050D01*
X15515487Y-9773050D01*
X15521448Y-9772409D01*
X15534867Y-9767404D01*
X15541836Y-9766906D01*
X15543532Y-9767404D01*
G37*
%TD.AperFunction*%
%TA.AperFunction,Conductor*%
G36*
X14248175Y-9602519D02*
G01*
X14252751Y-9607799D01*
X14253745Y-9614715D01*
X14253449Y-9616159D01*
X14252850Y-9618394D01*
X14252850Y-9635205D01*
X14252850Y-9635206D01*
X14252850Y-9650919D01*
X14250881Y-9657623D01*
X14249218Y-9659687D01*
X14246092Y-9662813D01*
X14246092Y-9662814D01*
X14237725Y-9676960D01*
X14237725Y-9676961D01*
X14233140Y-9692743D01*
X14233140Y-9692743D01*
X14232850Y-9696430D01*
X14232850Y-9754790D01*
X14230881Y-9761494D01*
X14225601Y-9766070D01*
X14218685Y-9767064D01*
X14212330Y-9764162D01*
X14211682Y-9763558D01*
X14069842Y-9621718D01*
X14066493Y-9615586D01*
X14066991Y-9608617D01*
X14071179Y-9603023D01*
X14077725Y-9600582D01*
X14078610Y-9600550D01*
X14241471Y-9600550D01*
X14248175Y-9602519D01*
G37*
%TD.AperFunction*%
%TA.AperFunction,Conductor*%
G36*
X13055200Y-9276723D02*
G01*
X13061813Y-9275676D01*
X13061813Y-9275676D01*
X13082022Y-9269110D01*
X13100956Y-9259462D01*
X13118146Y-9246973D01*
X13118146Y-9246972D01*
X13133172Y-9231946D01*
X13133173Y-9231946D01*
X13145662Y-9214756D01*
X13146123Y-9213851D01*
X13150920Y-9208771D01*
X13157702Y-9207091D01*
X13164316Y-9209345D01*
X13168220Y-9213850D01*
X13168695Y-9214782D01*
X13181189Y-9231979D01*
X13196221Y-9247011D01*
X13213418Y-9259505D01*
X13213418Y-9259505D01*
X13213418Y-9259505D01*
X13232359Y-9269156D01*
X13243747Y-9272856D01*
X13249515Y-9276800D01*
X13252235Y-9283236D01*
X13251043Y-9290120D01*
X13248684Y-9293417D01*
X13159829Y-9382273D01*
X13148648Y-9393453D01*
X13148648Y-9393453D01*
X13145517Y-9398876D01*
X13145187Y-9399448D01*
X13140742Y-9407146D01*
X13139042Y-9413492D01*
X13138651Y-9414375D01*
X13136991Y-9416335D01*
X13135654Y-9418528D01*
X13134343Y-9419461D01*
X13134136Y-9419707D01*
X13133939Y-9419767D01*
X13129746Y-9422906D01*
X13121945Y-9428745D01*
X13121945Y-9428746D01*
X13121945Y-9428746D01*
X13113321Y-9440266D01*
X13113320Y-9440267D01*
X13108291Y-9453752D01*
X13107650Y-9459712D01*
X13107650Y-9459714D01*
X13107650Y-9541287D01*
X13107650Y-9541288D01*
X13108291Y-9547248D01*
X13113320Y-9560733D01*
X13113321Y-9560734D01*
X13121945Y-9572254D01*
X13121945Y-9572255D01*
X13133466Y-9580879D01*
X13133467Y-9580880D01*
X13137401Y-9582347D01*
X13146952Y-9585909D01*
X13152913Y-9586550D01*
X13212963Y-9586550D01*
X13219667Y-9588518D01*
X13224242Y-9593799D01*
X13225124Y-9596531D01*
X13227546Y-9608703D01*
X13227546Y-9608704D01*
X13232638Y-9620996D01*
X13232639Y-9620998D01*
X13240030Y-9632060D01*
X13240031Y-9632061D01*
X13249439Y-9641469D01*
X13249440Y-9641470D01*
X13260502Y-9648862D01*
X13260502Y-9648862D01*
X13260503Y-9648862D01*
X13260504Y-9648862D01*
X13260504Y-9648863D01*
X13268335Y-9652106D01*
X13272796Y-9653954D01*
X13272797Y-9653954D01*
X13272797Y-9653954D01*
X13285847Y-9656550D01*
X13285847Y-9656550D01*
X13299153Y-9656550D01*
X13307932Y-9654804D01*
X13312204Y-9653954D01*
X13321764Y-9649994D01*
X13326509Y-9649050D01*
X13358491Y-9649050D01*
X13363236Y-9649994D01*
X13372796Y-9653954D01*
X13372797Y-9653954D01*
X13372797Y-9653954D01*
X13385847Y-9656550D01*
X13385847Y-9656550D01*
X13399153Y-9656550D01*
X13407932Y-9654804D01*
X13412204Y-9653954D01*
X13418371Y-9651400D01*
X13425317Y-9650653D01*
X13431565Y-9653780D01*
X13435130Y-9659789D01*
X13434881Y-9666772D01*
X13431884Y-9671624D01*
X13380690Y-9722818D01*
X13374557Y-9726167D01*
X13371922Y-9726450D01*
X13142402Y-9726450D01*
X13135699Y-9724482D01*
X13131123Y-9719201D01*
X13130946Y-9718795D01*
X13127194Y-9709736D01*
X13126250Y-9704991D01*
X13126250Y-9647595D01*
X13126250Y-9647594D01*
X13124954Y-9642759D01*
X13122158Y-9632322D01*
X13122157Y-9632321D01*
X13122157Y-9632321D01*
X13122157Y-9632321D01*
X13119239Y-9627267D01*
X13119239Y-9627267D01*
X13118209Y-9625483D01*
X13114252Y-9618628D01*
X13103072Y-9607448D01*
X13103071Y-9607448D01*
X13102638Y-9607015D01*
X13102637Y-9607014D01*
X12944882Y-9449258D01*
X12941533Y-9443126D01*
X12941327Y-9441205D01*
X12941310Y-9441207D01*
X12941250Y-9440600D01*
X12938558Y-9427068D01*
X12938558Y-9427068D01*
X12938558Y-9427067D01*
X12937471Y-9424442D01*
X12933278Y-9414320D01*
X12933277Y-9414318D01*
X12925611Y-9402846D01*
X12925611Y-9402845D01*
X12915854Y-9393089D01*
X12915854Y-9393089D01*
X12904382Y-9385423D01*
X12904380Y-9385422D01*
X12902704Y-9384728D01*
X12897264Y-9380344D01*
X12895058Y-9373714D01*
X12895050Y-9373272D01*
X12895050Y-9363101D01*
X12895050Y-9363100D01*
X12892568Y-9350622D01*
X12892358Y-9349567D01*
X12892358Y-9349567D01*
X12887078Y-9336819D01*
X12879411Y-9325345D01*
X12849882Y-9295816D01*
X12846533Y-9289684D01*
X12846250Y-9287048D01*
X12846250Y-9266355D01*
X12848218Y-9259651D01*
X12851361Y-9256323D01*
X12864179Y-9247010D01*
X12879210Y-9231979D01*
X12879211Y-9231979D01*
X12879211Y-9231979D01*
X12887768Y-9220200D01*
X12891705Y-9214782D01*
X12892179Y-9213851D01*
X12896976Y-9208771D01*
X12903758Y-9207091D01*
X12910372Y-9209345D01*
X12914276Y-9213850D01*
X12914738Y-9214756D01*
X12927227Y-9231946D01*
X12927228Y-9231946D01*
X12942253Y-9246972D01*
X12942254Y-9246973D01*
X12959444Y-9259462D01*
X12978378Y-9269110D01*
X12998587Y-9275676D01*
X13005200Y-9276723D01*
X13005200Y-9187301D01*
X13010901Y-9190593D01*
X13023617Y-9194000D01*
X13036783Y-9194000D01*
X13049499Y-9190593D01*
X13055200Y-9187301D01*
X13055200Y-9276723D01*
G37*
%TD.AperFunction*%
%TA.AperFunction,Conductor*%
G36*
X13357252Y-9474422D02*
G01*
X13359594Y-9475050D01*
X13359594Y-9475050D01*
X13572300Y-9475050D01*
X13579004Y-9477019D01*
X13583579Y-9482299D01*
X13584700Y-9487450D01*
X13584700Y-9511600D01*
X13582731Y-9518304D01*
X13577451Y-9522879D01*
X13572300Y-9524000D01*
X13474700Y-9524000D01*
X13474700Y-9549557D01*
X13472731Y-9556261D01*
X13467451Y-9560837D01*
X13460535Y-9561831D01*
X13454180Y-9558928D01*
X13451990Y-9556446D01*
X13444969Y-9545940D01*
X13435561Y-9536531D01*
X13435560Y-9536530D01*
X13433211Y-9534961D01*
X13428730Y-9529599D01*
X13427700Y-9524650D01*
X13427700Y-9524000D01*
X13413193Y-9524000D01*
X13410773Y-9523762D01*
X13399153Y-9521450D01*
X13399153Y-9521450D01*
X13385847Y-9521450D01*
X13385847Y-9521450D01*
X13374227Y-9523762D01*
X13371807Y-9524000D01*
X13336100Y-9524000D01*
X13329396Y-9522032D01*
X13324821Y-9516751D01*
X13323700Y-9511600D01*
X13323700Y-9486400D01*
X13325668Y-9479696D01*
X13330949Y-9475121D01*
X13336100Y-9474000D01*
X13354043Y-9474000D01*
X13357252Y-9474422D01*
G37*
%TD.AperFunction*%
%TD*%
M02*
