%TF.GenerationSoftware,KiCad,Pcbnew,10.0.0*%
%TF.CreationDate,2026-04-01T00:37:25+02:00*%
%TF.ProjectId,YetiX-A_DevBoard,59657469-582d-4415-9f44-6576426f6172,0.0.1*%
%TF.SameCoordinates,Original*%
%TF.FileFunction,Legend,Top*%
%TF.FilePolarity,Positive*%
%FSLAX45Y45*%
G04 Gerber Fmt 4.5, Leading zero omitted, Abs format (unit mm)*
G04 Created by KiCad (PCBNEW 10.0.0) date 2026-04-01 00:37:25*
%MOMM*%
%LPD*%
G01*
G04 APERTURE LIST*
%ADD10C,0.154000*%
%ADD11C,0.300000*%
%ADD12C,0.177000*%
%ADD13C,0.127000*%
G04 APERTURE END LIST*
D10*
X12561560Y-10762013D02*
X12492989Y-10762013D01*
X12527274Y-10762013D02*
X12527274Y-10642013D01*
X12527274Y-10642013D02*
X12515846Y-10659156D01*
X12515846Y-10659156D02*
X12504417Y-10670585D01*
X12504417Y-10670585D02*
X12492989Y-10676299D01*
X15039060Y-10762013D02*
X14970489Y-10762013D01*
X15004774Y-10762013D02*
X15004774Y-10642013D01*
X15004774Y-10642013D02*
X14993346Y-10659156D01*
X14993346Y-10659156D02*
X14981917Y-10670585D01*
X14981917Y-10670585D02*
X14970489Y-10676299D01*
X15153346Y-10762013D02*
X15084774Y-10762013D01*
X15119060Y-10762013D02*
X15119060Y-10642013D01*
X15119060Y-10642013D02*
X15107631Y-10659156D01*
X15107631Y-10659156D02*
X15096203Y-10670585D01*
X15096203Y-10670585D02*
X15084774Y-10676299D01*
X17810489Y-10625942D02*
X17816203Y-10620228D01*
X17816203Y-10620228D02*
X17827632Y-10614513D01*
X17827632Y-10614513D02*
X17856203Y-10614513D01*
X17856203Y-10614513D02*
X17867632Y-10620228D01*
X17867632Y-10620228D02*
X17873346Y-10625942D01*
X17873346Y-10625942D02*
X17879060Y-10637371D01*
X17879060Y-10637371D02*
X17879060Y-10648799D01*
X17879060Y-10648799D02*
X17873346Y-10665942D01*
X17873346Y-10665942D02*
X17804774Y-10734513D01*
X17804774Y-10734513D02*
X17879060Y-10734513D01*
X17993346Y-10734513D02*
X17924774Y-10734513D01*
X17959060Y-10734513D02*
X17959060Y-10614513D01*
X17959060Y-10614513D02*
X17947631Y-10631656D01*
X17947631Y-10631656D02*
X17936203Y-10643085D01*
X17936203Y-10643085D02*
X17924774Y-10648799D01*
X12327368Y-9407987D02*
X12327368Y-9327987D01*
X12355940Y-9453701D02*
X12384511Y-9367987D01*
X12384511Y-9367987D02*
X12310226Y-9367987D01*
X12270226Y-9436558D02*
X12264511Y-9442272D01*
X12264511Y-9442272D02*
X12253083Y-9447987D01*
X12253083Y-9447987D02*
X12224511Y-9447987D01*
X12224511Y-9447987D02*
X12213083Y-9442272D01*
X12213083Y-9442272D02*
X12207368Y-9436558D01*
X12207368Y-9436558D02*
X12201654Y-9425129D01*
X12201654Y-9425129D02*
X12201654Y-9413701D01*
X12201654Y-9413701D02*
X12207368Y-9396558D01*
X12207368Y-9396558D02*
X12275940Y-9327987D01*
X12275940Y-9327987D02*
X12201654Y-9327987D01*
X15155226Y-9425487D02*
X15080940Y-9425487D01*
X15080940Y-9425487D02*
X15120940Y-9379772D01*
X15120940Y-9379772D02*
X15103797Y-9379772D01*
X15103797Y-9379772D02*
X15092368Y-9374058D01*
X15092368Y-9374058D02*
X15086654Y-9368344D01*
X15086654Y-9368344D02*
X15080940Y-9356915D01*
X15080940Y-9356915D02*
X15080940Y-9328344D01*
X15080940Y-9328344D02*
X15086654Y-9316915D01*
X15086654Y-9316915D02*
X15092368Y-9311201D01*
X15092368Y-9311201D02*
X15103797Y-9305487D01*
X15103797Y-9305487D02*
X15138083Y-9305487D01*
X15138083Y-9305487D02*
X15149511Y-9311201D01*
X15149511Y-9311201D02*
X15155226Y-9316915D01*
X15035226Y-9414058D02*
X15029511Y-9419772D01*
X15029511Y-9419772D02*
X15018083Y-9425487D01*
X15018083Y-9425487D02*
X14989511Y-9425487D01*
X14989511Y-9425487D02*
X14978083Y-9419772D01*
X14978083Y-9419772D02*
X14972368Y-9414058D01*
X14972368Y-9414058D02*
X14966654Y-9402629D01*
X14966654Y-9402629D02*
X14966654Y-9391201D01*
X14966654Y-9391201D02*
X14972368Y-9374058D01*
X14972368Y-9374058D02*
X15040940Y-9305487D01*
X15040940Y-9305487D02*
X14966654Y-9305487D01*
X18017011Y-9419058D02*
X18011297Y-9424772D01*
X18011297Y-9424772D02*
X17999869Y-9430487D01*
X17999869Y-9430487D02*
X17971297Y-9430487D01*
X17971297Y-9430487D02*
X17959869Y-9424772D01*
X17959869Y-9424772D02*
X17954154Y-9419058D01*
X17954154Y-9419058D02*
X17948440Y-9407629D01*
X17948440Y-9407629D02*
X17948440Y-9396201D01*
X17948440Y-9396201D02*
X17954154Y-9379058D01*
X17954154Y-9379058D02*
X18022726Y-9310487D01*
X18022726Y-9310487D02*
X17948440Y-9310487D01*
X17902726Y-9419058D02*
X17897011Y-9424772D01*
X17897011Y-9424772D02*
X17885583Y-9430487D01*
X17885583Y-9430487D02*
X17857011Y-9430487D01*
X17857011Y-9430487D02*
X17845583Y-9424772D01*
X17845583Y-9424772D02*
X17839869Y-9419058D01*
X17839869Y-9419058D02*
X17834154Y-9407629D01*
X17834154Y-9407629D02*
X17834154Y-9396201D01*
X17834154Y-9396201D02*
X17839869Y-9379058D01*
X17839869Y-9379058D02*
X17908440Y-9310487D01*
X17908440Y-9310487D02*
X17834154Y-9310487D01*
D11*
X13381165Y-9705083D02*
X13331165Y-9633654D01*
X13295451Y-9705083D02*
X13295451Y-9555083D01*
X13295451Y-9555083D02*
X13352594Y-9555083D01*
X13352594Y-9555083D02*
X13366880Y-9562226D01*
X13366880Y-9562226D02*
X13374022Y-9569369D01*
X13374022Y-9569369D02*
X13381165Y-9583654D01*
X13381165Y-9583654D02*
X13381165Y-9605083D01*
X13381165Y-9605083D02*
X13374022Y-9619369D01*
X13374022Y-9619369D02*
X13366880Y-9626511D01*
X13366880Y-9626511D02*
X13352594Y-9633654D01*
X13352594Y-9633654D02*
X13295451Y-9633654D01*
X13438308Y-9697940D02*
X13459737Y-9705083D01*
X13459737Y-9705083D02*
X13495451Y-9705083D01*
X13495451Y-9705083D02*
X13509737Y-9697940D01*
X13509737Y-9697940D02*
X13516880Y-9690797D01*
X13516880Y-9690797D02*
X13524022Y-9676511D01*
X13524022Y-9676511D02*
X13524022Y-9662226D01*
X13524022Y-9662226D02*
X13516880Y-9647940D01*
X13516880Y-9647940D02*
X13509737Y-9640797D01*
X13509737Y-9640797D02*
X13495451Y-9633654D01*
X13495451Y-9633654D02*
X13466880Y-9626511D01*
X13466880Y-9626511D02*
X13452594Y-9619369D01*
X13452594Y-9619369D02*
X13445451Y-9612226D01*
X13445451Y-9612226D02*
X13438308Y-9597940D01*
X13438308Y-9597940D02*
X13438308Y-9583654D01*
X13438308Y-9583654D02*
X13445451Y-9569369D01*
X13445451Y-9569369D02*
X13452594Y-9562226D01*
X13452594Y-9562226D02*
X13466880Y-9555083D01*
X13466880Y-9555083D02*
X13502594Y-9555083D01*
X13502594Y-9555083D02*
X13524022Y-9562226D01*
X13566880Y-9555083D02*
X13652594Y-9555083D01*
X13609737Y-9705083D02*
X13609737Y-9555083D01*
X16830451Y-10705083D02*
X16830451Y-10555083D01*
X16894737Y-10697940D02*
X16916165Y-10705083D01*
X16916165Y-10705083D02*
X16951880Y-10705083D01*
X16951880Y-10705083D02*
X16966165Y-10697940D01*
X16966165Y-10697940D02*
X16973308Y-10690797D01*
X16973308Y-10690797D02*
X16980451Y-10676511D01*
X16980451Y-10676511D02*
X16980451Y-10662226D01*
X16980451Y-10662226D02*
X16973308Y-10647940D01*
X16973308Y-10647940D02*
X16966165Y-10640797D01*
X16966165Y-10640797D02*
X16951880Y-10633654D01*
X16951880Y-10633654D02*
X16923308Y-10626511D01*
X16923308Y-10626511D02*
X16909023Y-10619369D01*
X16909023Y-10619369D02*
X16901880Y-10612226D01*
X16901880Y-10612226D02*
X16894737Y-10597940D01*
X16894737Y-10597940D02*
X16894737Y-10583654D01*
X16894737Y-10583654D02*
X16901880Y-10569369D01*
X16901880Y-10569369D02*
X16909023Y-10562226D01*
X16909023Y-10562226D02*
X16923308Y-10555083D01*
X16923308Y-10555083D02*
X16959023Y-10555083D01*
X16959023Y-10555083D02*
X16980451Y-10562226D01*
X17044737Y-10705083D02*
X17044737Y-10555083D01*
X17044737Y-10555083D02*
X17101880Y-10555083D01*
X17101880Y-10555083D02*
X17116165Y-10562226D01*
X17116165Y-10562226D02*
X17123308Y-10569369D01*
X17123308Y-10569369D02*
X17130451Y-10583654D01*
X17130451Y-10583654D02*
X17130451Y-10605083D01*
X17130451Y-10605083D02*
X17123308Y-10619369D01*
X17123308Y-10619369D02*
X17116165Y-10626511D01*
X17116165Y-10626511D02*
X17101880Y-10633654D01*
X17101880Y-10633654D02*
X17044737Y-10633654D01*
%TO.C,SW101*%
D10*
X13228000Y-10075000D02*
X13482000Y-10074700D01*
%TO.C,D103*%
X16520180Y-9870000D02*
X16520180Y-9950000D01*
X16692900Y-9850000D02*
X16642100Y-9850000D01*
X16692900Y-9970000D02*
X16642100Y-9970000D01*
%TO.C,R103*%
X15468560Y-9790500D02*
X15503840Y-9790500D01*
X15468420Y-9895500D02*
X15503700Y-9895500D01*
%TO.C,C107*%
X15747640Y-10642500D02*
X15712360Y-10642500D01*
X15747640Y-10747500D02*
X15712360Y-10747500D01*
%TO.C,R113*%
X16243700Y-10190640D02*
X16243700Y-10155360D01*
X16348700Y-10190780D02*
X16348700Y-10155500D01*
%TO.C,SW102*%
X16808000Y-10500000D02*
X17062000Y-10499700D01*
%TO.C,C112*%
X16103700Y-10155360D02*
X16103700Y-10190640D01*
X16208700Y-10155360D02*
X16208700Y-10190640D01*
%TO.C,R107*%
X13147360Y-10537500D02*
X13182640Y-10537500D01*
X13147220Y-10642500D02*
X13182500Y-10642500D01*
%TO.C,D104*%
X13872320Y-10720000D02*
X13872320Y-10640000D01*
X13699600Y-10740000D02*
X13750400Y-10740000D01*
X13699600Y-10620000D02*
X13750400Y-10620000D01*
%TO.C,L102*%
X17308560Y-9495500D02*
X17343840Y-9495500D01*
X17308560Y-9390500D02*
X17343840Y-9390500D01*
%TO.C,R101*%
X17623520Y-9390500D02*
X17658800Y-9390500D01*
X17623380Y-9495500D02*
X17658660Y-9495500D01*
%TO.C,R106*%
X15702500Y-10167640D02*
X15702500Y-10132360D01*
X15807500Y-10167780D02*
X15807500Y-10132500D01*
%TO.C,R109*%
X13517360Y-9317500D02*
X13552640Y-9317500D01*
X13517220Y-9422500D02*
X13552500Y-9422500D01*
%TO.C,C103*%
X13937500Y-9502640D02*
X13937500Y-9467360D01*
X13832500Y-9502640D02*
X13832500Y-9467360D01*
%TO.C,C111*%
X12363560Y-10522500D02*
X12398840Y-10522500D01*
X12363560Y-10417500D02*
X12398840Y-10417500D01*
%TO.C,C113*%
X12703875Y-10564000D02*
X12846125Y-10564000D01*
X12703875Y-10746000D02*
X12846125Y-10746000D01*
%TO.C,C106*%
X15402360Y-10747500D02*
X15437640Y-10747500D01*
X15402360Y-10642500D02*
X15437640Y-10642500D01*
%TO.C,C101*%
X15777640Y-10502500D02*
X15742360Y-10502500D01*
X15777640Y-10607500D02*
X15742360Y-10607500D01*
%TO.C,C1*%
X15738700Y-9520640D02*
X15738700Y-9485360D01*
X15633700Y-9520640D02*
X15633700Y-9485360D01*
%TO.C,R105*%
X15952500Y-10077360D02*
X15952500Y-10112640D01*
X15847500Y-10077220D02*
X15847500Y-10112500D01*
%TO.C,C104*%
X13568560Y-10265500D02*
X13603840Y-10265500D01*
X13568560Y-10160500D02*
X13603840Y-10160500D01*
%TO.C,C109*%
X16899860Y-9627500D02*
X16935140Y-9627500D01*
X16899860Y-9522500D02*
X16935140Y-9522500D01*
%TO.C,Y101*%
X16410000Y-10700000D02*
X16210000Y-10700000D01*
X16410000Y-10380000D02*
X16410000Y-10425700D01*
X16410000Y-10380000D02*
X16210000Y-10380000D01*
%TO.C,U103*%
X16552450Y-9342000D02*
X16632450Y-9342000D01*
X16552450Y-9654000D02*
X16472450Y-9654000D01*
X16552450Y-9654000D02*
X16632450Y-9654000D01*
%TO.C,U104*%
X13166200Y-9635000D02*
X13006200Y-9635000D01*
X13166200Y-9315000D02*
X13006200Y-9315000D01*
X13233520Y-9650260D02*
X13190340Y-9650260D01*
X13210625Y-9627400D01*
X13233520Y-9650260D01*
G36*
X13233520Y-9650260D02*
G01*
X13190340Y-9650260D01*
X13210625Y-9627400D01*
X13233520Y-9650260D01*
G37*
%TO.C,J101*%
X17591200Y-10480000D02*
X17716200Y-10480000D01*
X17988200Y-10480000D02*
X18079720Y-10480000D01*
X17591200Y-9586000D02*
X17716200Y-9586000D01*
X18079720Y-9585960D02*
X17988200Y-9586000D01*
D12*
X17565050Y-10373000D02*
G75*
G02*
X17547350Y-10373000I-8850J0D01*
G01*
X17547350Y-10373000D02*
G75*
G02*
X17565050Y-10373000I8850J0D01*
G01*
%TO.C,C110*%
D10*
X13527640Y-10442500D02*
X13492360Y-10442500D01*
X13527640Y-10547500D02*
X13492360Y-10547500D01*
%TO.C,C105*%
X13568560Y-10405500D02*
X13603840Y-10405500D01*
X13568560Y-10300500D02*
X13603840Y-10300500D01*
%TO.C,R102*%
X17559160Y-10579940D02*
X17594440Y-10579940D01*
X17559020Y-10684940D02*
X17594300Y-10684940D01*
%TO.C,R112*%
X13692500Y-9502640D02*
X13692500Y-9467360D01*
X13797500Y-9502780D02*
X13797500Y-9467500D01*
%TO.C,L103*%
X16822560Y-9806100D02*
X16857840Y-9806100D01*
X16822560Y-9701100D02*
X16857840Y-9701100D01*
%TO.C,R115*%
X13462640Y-10732500D02*
X13427360Y-10732500D01*
X13462780Y-10627500D02*
X13427500Y-10627500D01*
%TO.C,C108*%
X15383840Y-10070500D02*
X15348560Y-10070500D01*
X15383840Y-10175500D02*
X15348560Y-10175500D01*
%TO.C,R114*%
X16683840Y-10115500D02*
X16648560Y-10115500D01*
X16683980Y-10010500D02*
X16648700Y-10010500D01*
%TO.C,C2*%
X16503840Y-9710500D02*
X16468560Y-9710500D01*
X16503840Y-9815500D02*
X16468560Y-9815500D01*
%TO.C,U102*%
X15787230Y-9422840D02*
X15787230Y-9697160D01*
X15787230Y-9697160D02*
X15819856Y-9697160D01*
X15819856Y-9422840D02*
X15787230Y-9422840D01*
X15929584Y-9697160D02*
X15967316Y-9697160D01*
X16082124Y-9697160D02*
X16119856Y-9697160D01*
X16229584Y-9697160D02*
X16262210Y-9697160D01*
X16262210Y-9422840D02*
X16229584Y-9422840D01*
X16262210Y-9697160D02*
X16262210Y-9422840D01*
D13*
X15836070Y-9655000D02*
G75*
G02*
X15823370Y-9655000I-6350J0D01*
G01*
X15823370Y-9655000D02*
G75*
G02*
X15836070Y-9655000I6350J0D01*
G01*
%TO.C,R110*%
D10*
X13788700Y-9985360D02*
X13788700Y-10020640D01*
X13683700Y-9985220D02*
X13683700Y-10020500D01*
%TO.C,D102*%
X13035000Y-10360000D02*
X13035000Y-10480000D01*
X13060180Y-10502550D02*
X13354820Y-10502550D01*
X13354820Y-10337450D02*
X13060180Y-10337450D01*
%TO.C,J102*%
X12692500Y-10362500D02*
X12732500Y-10362500D01*
X12732500Y-10362500D02*
X12712500Y-10342500D01*
X12552500Y-10342500D02*
X12672500Y-10342500D01*
X12712500Y-10342500D02*
X12692500Y-10362500D01*
X12712500Y-10342500D02*
X12712500Y-10362500D01*
X12552500Y-9702500D02*
X12672500Y-9702500D01*
%TO.C,L101*%
X15527540Y-10613100D02*
X15522460Y-10613100D01*
X15527540Y-10536900D02*
X15522460Y-10536900D01*
%TO.C,R104*%
X15468560Y-9930500D02*
X15503840Y-9930500D01*
X15468420Y-10035500D02*
X15503700Y-10035500D01*
%TO.C,C102*%
X15423840Y-9610500D02*
X15388560Y-9610500D01*
X15423840Y-9715500D02*
X15388560Y-9715500D01*
%TO.C,D101*%
X16792500Y-9345000D02*
X16792500Y-9465000D01*
X16817680Y-9487550D02*
X17112320Y-9487550D01*
X17112320Y-9322450D02*
X16817680Y-9322450D01*
%TO.C,IC101*%
X14135100Y-10498000D02*
X14033500Y-10401300D01*
X14968400Y-10498000D02*
X14135100Y-10498000D01*
X14033500Y-10401300D02*
X14038400Y-9568000D01*
X14038400Y-9568000D02*
X14968400Y-9568000D01*
X14968400Y-9568000D02*
X14968400Y-10498000D01*
%TO.C,U105*%
X12532500Y-9315000D02*
X12692500Y-9315000D01*
X12532500Y-9635000D02*
X12692500Y-9635000D01*
X12488075Y-9322600D02*
X12465180Y-9299740D01*
X12508360Y-9299740D01*
X12488075Y-9322600D01*
G36*
X12488075Y-9322600D02*
G01*
X12465180Y-9299740D01*
X12508360Y-9299740D01*
X12488075Y-9322600D01*
G37*
%TO.C,U101*%
X17222000Y-9892500D02*
X17222000Y-9732500D01*
X17036000Y-9842500D02*
X17036000Y-9732500D01*
%TO.C,R108*%
X12678840Y-10522500D02*
X12643560Y-10522500D01*
X12678980Y-10417500D02*
X12643700Y-10417500D01*
%TD*%
M02*
